M48
; DRILL file {KiCad 9.0.2} date 2025-09-21T22:05:46-0400
; FORMAT={-:-/ absolute / metric / decimal}
; #@! TF.CreationDate,2025-09-21T22:05:46-04:00
; #@! TF.GenerationSoftware,Kicad,Pcbnew,9.0.2
; #@! TF.FileFunction,Plated,1,2,PTH
FMAT,2
METRIC
; #@! TA.AperFunction,Plated,PTH,ViaDrill
T1C0.300
; #@! TA.AperFunction,Plated,PTH,ComponentDrill
T2C0.800
; #@! TA.AperFunction,Plated,PTH,ComponentDrill
T3C1.000
%
G90
G05
T1
X188.849Y-108.204
X188.849Y-114.808
X189.738Y-106.807
X189.738Y-114.173
X190.373Y-105.918
X190.373Y-113.284
T2
X129.032Y-105.156
X129.032Y-112.776
X129.032Y-124.206
X129.032Y-131.826
X148.082Y-105.156
X148.082Y-112.776
X148.082Y-124.206
X148.082Y-131.826
X167.132Y-105.156
X167.132Y-112.776
X167.132Y-124.206
X167.132Y-131.826
X187.452Y-86.106
X187.452Y-93.726
X189.357Y-120.142
X189.357Y-125.142
X189.357Y-130.068
X189.357Y-132.568
X216.789Y-84.729
X216.789Y-87.229
X217.805Y-90.337
X217.805Y-95.337
T3
X165.481Y-85.069
X165.481Y-87.609
X165.481Y-90.149
X165.481Y-92.689
X169.157Y-85.13
X169.157Y-87.63
X169.157Y-90.13
X183.657Y-85.13
X183.657Y-90.13
X196.088Y-82.169
X196.088Y-84.709
X196.088Y-87.249
X196.088Y-89.789
X196.088Y-92.329
X196.088Y-94.869
X196.088Y-97.409
X196.088Y-99.949
X196.088Y-102.489
X196.088Y-105.029
X196.088Y-107.569
X196.088Y-110.109
X196.088Y-112.649
X196.088Y-115.189
X196.088Y-117.729
X196.088Y-120.269
X196.088Y-122.809
X196.088Y-125.349
X196.088Y-127.889
X196.088Y-130.429
X199.9Y-126.618
X202.44Y-126.618
X204.98Y-126.618
X207.52Y-126.618
X211.328Y-82.169
X211.328Y-84.709
X211.328Y-87.249
X211.328Y-89.789
X211.328Y-92.329
X211.328Y-94.869
X211.328Y-97.409
X211.328Y-99.949
X211.328Y-102.489
X211.328Y-105.029
X211.328Y-107.569
X211.328Y-110.109
X211.328Y-112.649
X211.328Y-115.189
X211.328Y-117.729
X211.328Y-120.269
X211.328Y-122.809
X211.328Y-125.349
X211.328Y-127.889
X211.328Y-130.429
M30
