G04 #@! TF.GenerationSoftware,KiCad,Pcbnew,9.0.2*
G04 #@! TF.CreationDate,2025-09-21T22:05:50-04:00*
G04 #@! TF.ProjectId,vWAN-macropad,7657414e-2d6d-4616-9372-6f7061642e6b,v1*
G04 #@! TF.SameCoordinates,Original*
G04 #@! TF.FileFunction,Copper,L1,Top*
G04 #@! TF.FilePolarity,Positive*
%FSLAX46Y46*%
G04 Gerber Fmt 4.6, Leading zero omitted, Abs format (unit mm)*
G04 Created by KiCad (PCBNEW 9.0.2) date 2025-09-21 22:05:50*
%MOMM*%
%LPD*%
G01*
G04 APERTURE LIST*
G04 #@! TA.AperFunction,ComponentPad*
%ADD10C,1.600000*%
G04 #@! TD*
G04 #@! TA.AperFunction,ComponentPad*
%ADD11R,1.700000X1.700000*%
G04 #@! TD*
G04 #@! TA.AperFunction,ComponentPad*
%ADD12C,1.700000*%
G04 #@! TD*
G04 #@! TA.AperFunction,WasherPad*
%ADD13O,3.200000X2.000000*%
G04 #@! TD*
G04 #@! TA.AperFunction,ComponentPad*
%ADD14R,2.000000X2.000000*%
G04 #@! TD*
G04 #@! TA.AperFunction,ComponentPad*
%ADD15C,2.000000*%
G04 #@! TD*
G04 #@! TA.AperFunction,ComponentPad*
%ADD16O,1.700000X1.700000*%
G04 #@! TD*
G04 #@! TA.AperFunction,ComponentPad*
%ADD17R,1.600000X1.600000*%
G04 #@! TD*
G04 #@! TA.AperFunction,ComponentPad*
%ADD18O,1.600000X1.600000*%
G04 #@! TD*
G04 #@! TA.AperFunction,ViaPad*
%ADD19C,0.600000*%
G04 #@! TD*
G04 #@! TA.AperFunction,Conductor*
%ADD20C,0.300000*%
G04 #@! TD*
G04 #@! TA.AperFunction,Conductor*
%ADD21C,0.500000*%
G04 #@! TD*
G04 #@! TA.AperFunction,Conductor*
%ADD22C,0.160000*%
G04 #@! TD*
G04 APERTURE END LIST*
D10*
X189357000Y-120142000D03*
X189357000Y-125142000D03*
D11*
X196088000Y-82169000D03*
D12*
X196088000Y-84709000D03*
X196088000Y-87249000D03*
X196088000Y-89789000D03*
X196088000Y-92329000D03*
X196088000Y-94869000D03*
X196088000Y-97409000D03*
X196088000Y-99949000D03*
X196088000Y-102489000D03*
X196088000Y-105029000D03*
X196088000Y-107569000D03*
X196088000Y-110109000D03*
X196088000Y-112649000D03*
X196088000Y-115189000D03*
X196088000Y-117729000D03*
X196088000Y-120269000D03*
X196088000Y-122809000D03*
X196088000Y-125349000D03*
X196088000Y-127889000D03*
X196088000Y-130429000D03*
X211328000Y-130429000D03*
X211328000Y-127889000D03*
X211328000Y-125349000D03*
X211328000Y-122809000D03*
X211328000Y-120269000D03*
X211328000Y-117729000D03*
X211328000Y-115189000D03*
X211328000Y-112649000D03*
X211328000Y-110109000D03*
X211328000Y-107569000D03*
X211328000Y-105029000D03*
X211328000Y-102489000D03*
X211328000Y-99949000D03*
X211328000Y-97409000D03*
X211328000Y-94869000D03*
X211328000Y-92329000D03*
X211328000Y-89789000D03*
X211328000Y-87249000D03*
X211328000Y-84709000D03*
X211328000Y-82169000D03*
X207520000Y-126618000D03*
X204980000Y-126618000D03*
X202440000Y-126618000D03*
X199900000Y-126618000D03*
D13*
X176657000Y-82030000D03*
X176657000Y-93230000D03*
D14*
X169157000Y-85130000D03*
D15*
X169157000Y-90130000D03*
X169157000Y-87630000D03*
X183657000Y-90130000D03*
X183657000Y-85130000D03*
D10*
X217805000Y-90337000D03*
X217805000Y-95337000D03*
X216789000Y-84729000D03*
X216789000Y-87229000D03*
D11*
X165481000Y-85069000D03*
D16*
X165481000Y-87609000D03*
X165481000Y-90149000D03*
X165481000Y-92689000D03*
D10*
X189357000Y-130068000D03*
X189357000Y-132568000D03*
D17*
X167132000Y-112776000D03*
D18*
X167132000Y-105156000D03*
D17*
X129032000Y-131826000D03*
D18*
X129032000Y-124206000D03*
D17*
X129032000Y-112776000D03*
D18*
X129032000Y-105156000D03*
D17*
X148082000Y-131826000D03*
D18*
X148082000Y-124206000D03*
D17*
X148082000Y-112776000D03*
D18*
X148082000Y-105156000D03*
D17*
X167132000Y-131826000D03*
D18*
X167132000Y-124206000D03*
D17*
X187452000Y-93726000D03*
D18*
X187452000Y-86106000D03*
D19*
X188849000Y-108204000D03*
X188849000Y-114808000D03*
X190373000Y-113284000D03*
X190373000Y-105918000D03*
X189738000Y-106807000D03*
X189738000Y-114173000D03*
D20*
X216769000Y-87249000D02*
X216789000Y-87229000D01*
D21*
X220004000Y-95337000D02*
X217805000Y-95337000D01*
X189357000Y-125142000D02*
X187579000Y-126920000D01*
X184277000Y-96393000D02*
X188849000Y-100965000D01*
X187579000Y-126920000D02*
X187579000Y-132207000D01*
X216789000Y-87229000D02*
X219055000Y-87229000D01*
X188849000Y-107696000D02*
X188849000Y-108204000D01*
X188849000Y-114808000D02*
X186563000Y-117094000D01*
X221107000Y-89281000D02*
X221107000Y-94234000D01*
X219055000Y-87229000D02*
X221107000Y-89281000D01*
X196088000Y-130429000D02*
X199136000Y-133477000D01*
X217805000Y-130683000D02*
X217805000Y-95337000D01*
X189357000Y-132568000D02*
X193949000Y-132568000D01*
X199136000Y-133477000D02*
X215011000Y-133477000D01*
X188515000Y-125142000D02*
X189357000Y-125142000D01*
X187940000Y-132568000D02*
X189357000Y-132568000D01*
X186563000Y-117094000D02*
X186563000Y-123190000D01*
X215011000Y-133477000D02*
X217805000Y-130683000D01*
X163957000Y-89133000D02*
X163957000Y-94234000D01*
X187579000Y-132207000D02*
X187940000Y-132568000D01*
X193949000Y-132568000D02*
X196088000Y-130429000D01*
X211328000Y-87249000D02*
X216769000Y-87249000D01*
X163957000Y-94234000D02*
X166116000Y-96393000D01*
X186563000Y-123190000D02*
X188515000Y-125142000D01*
X221107000Y-94234000D02*
X220004000Y-95337000D01*
X188849000Y-100965000D02*
X188849000Y-107696000D01*
X166116000Y-96393000D02*
X184277000Y-96393000D01*
D22*
X216007000Y-87122000D02*
X216027000Y-87102000D01*
D21*
X165481000Y-87609000D02*
X163957000Y-89133000D01*
D20*
X187452000Y-93726000D02*
X194691000Y-93726000D01*
X194691000Y-93726000D02*
X196088000Y-92329000D01*
X193167000Y-105029000D02*
X196088000Y-105029000D01*
X185420000Y-112776000D02*
X193167000Y-105029000D01*
X167132000Y-112776000D02*
X185420000Y-112776000D01*
X129032000Y-112776000D02*
X167132000Y-112776000D01*
X186476000Y-85130000D02*
X187452000Y-86106000D01*
X183657000Y-85130000D02*
X186476000Y-85130000D01*
X165481000Y-90149000D02*
X170328000Y-94996000D01*
X192278000Y-115189000D02*
X196088000Y-115189000D01*
X190373000Y-113284000D02*
X192278000Y-115189000D01*
X190373000Y-100584000D02*
X190373000Y-105918000D01*
X170328000Y-94996000D02*
X184785000Y-94996000D01*
X184785000Y-94996000D02*
X190373000Y-100584000D01*
X189738000Y-100965000D02*
X189738000Y-106807000D01*
X165481000Y-92689000D02*
X168423000Y-95631000D01*
X184531000Y-95631000D02*
X189738000Y-100838000D01*
X168423000Y-95631000D02*
X184531000Y-95631000D01*
X189738000Y-114173000D02*
X193294000Y-117729000D01*
X193294000Y-117729000D02*
X196088000Y-117729000D01*
X189738000Y-100838000D02*
X189738000Y-100965000D01*
X169157000Y-90130000D02*
X167727000Y-90130000D01*
X196088000Y-81407000D02*
X196088000Y-82169000D01*
X171323000Y-77851000D02*
X192532000Y-77851000D01*
X192532000Y-77851000D02*
X196088000Y-81407000D01*
X167727000Y-90130000D02*
X167132000Y-89535000D01*
X167132000Y-89535000D02*
X167132000Y-82042000D01*
X167132000Y-82042000D02*
X171323000Y-77851000D01*
X169157000Y-82303000D02*
X171831000Y-79629000D01*
X171831000Y-79629000D02*
X191008000Y-79629000D01*
X169157000Y-85130000D02*
X169157000Y-82303000D01*
X191008000Y-79629000D02*
X196088000Y-84709000D01*
X167132000Y-131826000D02*
X178562000Y-131826000D01*
X184785000Y-116840000D02*
X191516000Y-110109000D01*
X129032000Y-131826000D02*
X167132000Y-131826000D01*
X178562000Y-131826000D02*
X184785000Y-125603000D01*
X184785000Y-125603000D02*
X184785000Y-116840000D01*
X191516000Y-110109000D02*
X196088000Y-110109000D01*
G04 #@! TA.AperFunction,Conductor*
G36*
X189745411Y-115105806D02*
G01*
X189769823Y-115124769D01*
X192879324Y-118234271D01*
X192879331Y-118234277D01*
X192985871Y-118305464D01*
X192985870Y-118305464D01*
X193020544Y-118319826D01*
X193104256Y-118354501D01*
X193104260Y-118354501D01*
X193104261Y-118354502D01*
X193229928Y-118379500D01*
X193229931Y-118379500D01*
X194828382Y-118379500D01*
X194895421Y-118399185D01*
X194929099Y-118433591D01*
X194930085Y-118432875D01*
X195057890Y-118608786D01*
X195208213Y-118759109D01*
X195380182Y-118884050D01*
X195388946Y-118888516D01*
X195439742Y-118936491D01*
X195456536Y-119004312D01*
X195433998Y-119070447D01*
X195388946Y-119109484D01*
X195380182Y-119113949D01*
X195208213Y-119238890D01*
X195057890Y-119389213D01*
X194932951Y-119561179D01*
X194836444Y-119750585D01*
X194836443Y-119750587D01*
X194836443Y-119750588D01*
X194813041Y-119822611D01*
X194770753Y-119952760D01*
X194737500Y-120162713D01*
X194737500Y-120375286D01*
X194770753Y-120585239D01*
X194836444Y-120787414D01*
X194932951Y-120976820D01*
X195057890Y-121148786D01*
X195208213Y-121299109D01*
X195380182Y-121424050D01*
X195388946Y-121428516D01*
X195439742Y-121476491D01*
X195456536Y-121544312D01*
X195433998Y-121610447D01*
X195388946Y-121649484D01*
X195380182Y-121653949D01*
X195208213Y-121778890D01*
X195057890Y-121929213D01*
X194932951Y-122101179D01*
X194836444Y-122290585D01*
X194836443Y-122290587D01*
X194836443Y-122290588D01*
X194813041Y-122362611D01*
X194770753Y-122492760D01*
X194737500Y-122702713D01*
X194737500Y-122915286D01*
X194754276Y-123021209D01*
X194770754Y-123125243D01*
X194826523Y-123296883D01*
X194836444Y-123327414D01*
X194932951Y-123516820D01*
X195057890Y-123688786D01*
X195208213Y-123839109D01*
X195380182Y-123964050D01*
X195388946Y-123968516D01*
X195439742Y-124016491D01*
X195456536Y-124084312D01*
X195433998Y-124150447D01*
X195388946Y-124189484D01*
X195380182Y-124193949D01*
X195208213Y-124318890D01*
X195057890Y-124469213D01*
X194932951Y-124641179D01*
X194836444Y-124830585D01*
X194770753Y-125032760D01*
X194767514Y-125053213D01*
X194737500Y-125242713D01*
X194737500Y-125455287D01*
X194740673Y-125475319D01*
X194768447Y-125650681D01*
X194770754Y-125665243D01*
X194812179Y-125792736D01*
X194836444Y-125867414D01*
X194932951Y-126056820D01*
X195057890Y-126228786D01*
X195208213Y-126379109D01*
X195380179Y-126504048D01*
X195380181Y-126504049D01*
X195380184Y-126504051D01*
X195389493Y-126508794D01*
X195440290Y-126556766D01*
X195457087Y-126624587D01*
X195434552Y-126690722D01*
X195389505Y-126729760D01*
X195380446Y-126734376D01*
X195380440Y-126734380D01*
X195326282Y-126773727D01*
X195326282Y-126773728D01*
X195958591Y-127406037D01*
X195895007Y-127423075D01*
X195780993Y-127488901D01*
X195687901Y-127581993D01*
X195622075Y-127696007D01*
X195605037Y-127759591D01*
X194972728Y-127127282D01*
X194972727Y-127127282D01*
X194933380Y-127181439D01*
X194836904Y-127370782D01*
X194771242Y-127572869D01*
X194771242Y-127572872D01*
X194738000Y-127782753D01*
X194738000Y-127995246D01*
X194771242Y-128205127D01*
X194771242Y-128205130D01*
X194836904Y-128407217D01*
X194933375Y-128596550D01*
X194972728Y-128650716D01*
X195605037Y-128018408D01*
X195622075Y-128081993D01*
X195687901Y-128196007D01*
X195780993Y-128289099D01*
X195895007Y-128354925D01*
X195958590Y-128371962D01*
X195326282Y-129004269D01*
X195326282Y-129004270D01*
X195380452Y-129043626D01*
X195380451Y-129043626D01*
X195389495Y-129048234D01*
X195440292Y-129096208D01*
X195457087Y-129164029D01*
X195434550Y-129230164D01*
X195389499Y-129269202D01*
X195380182Y-129273949D01*
X195208213Y-129398890D01*
X195057890Y-129549213D01*
X194932951Y-129721179D01*
X194836444Y-129910585D01*
X194770753Y-130112760D01*
X194737500Y-130322713D01*
X194737500Y-130535292D01*
X194752616Y-130630728D01*
X194743662Y-130700021D01*
X194717824Y-130737807D01*
X193674451Y-131781181D01*
X193613128Y-131814666D01*
X193586770Y-131817500D01*
X190482418Y-131817500D01*
X190415379Y-131797815D01*
X190382100Y-131766385D01*
X190348971Y-131720787D01*
X190348967Y-131720782D01*
X190204213Y-131576028D01*
X190038611Y-131455713D01*
X189984621Y-131428203D01*
X189933825Y-131380228D01*
X189917031Y-131312407D01*
X189939569Y-131246272D01*
X189984624Y-131207233D01*
X190038349Y-131179859D01*
X190082921Y-131147474D01*
X189403447Y-130468000D01*
X189409661Y-130468000D01*
X189511394Y-130440741D01*
X189602606Y-130388080D01*
X189677080Y-130313606D01*
X189729741Y-130222394D01*
X189757000Y-130120661D01*
X189757000Y-130114447D01*
X190436474Y-130793921D01*
X190468859Y-130749349D01*
X190561755Y-130567031D01*
X190624990Y-130372417D01*
X190657000Y-130170317D01*
X190657000Y-129965682D01*
X190624990Y-129763582D01*
X190561755Y-129568968D01*
X190468859Y-129386650D01*
X190436474Y-129342077D01*
X190436474Y-129342076D01*
X189757000Y-130021551D01*
X189757000Y-130015339D01*
X189729741Y-129913606D01*
X189677080Y-129822394D01*
X189602606Y-129747920D01*
X189511394Y-129695259D01*
X189409661Y-129668000D01*
X189403446Y-129668000D01*
X190082922Y-128988524D01*
X190082921Y-128988523D01*
X190038359Y-128956147D01*
X190038350Y-128956141D01*
X189856031Y-128863244D01*
X189661417Y-128800009D01*
X189459317Y-128768000D01*
X189254683Y-128768000D01*
X189052582Y-128800009D01*
X188857968Y-128863244D01*
X188675650Y-128956140D01*
X188526386Y-129064588D01*
X188460579Y-129088068D01*
X188392525Y-129072243D01*
X188343830Y-129022137D01*
X188329500Y-128964270D01*
X188329500Y-127282229D01*
X188349185Y-127215190D01*
X188365815Y-127194552D01*
X189091895Y-126468471D01*
X189153216Y-126434988D01*
X189198971Y-126433681D01*
X189254648Y-126442500D01*
X189254649Y-126442500D01*
X189459351Y-126442500D01*
X189459352Y-126442500D01*
X189661534Y-126410477D01*
X189856219Y-126347220D01*
X190038610Y-126254287D01*
X190131590Y-126186732D01*
X190204213Y-126133971D01*
X190204215Y-126133968D01*
X190204219Y-126133966D01*
X190348966Y-125989219D01*
X190348968Y-125989215D01*
X190348971Y-125989213D01*
X190406391Y-125910179D01*
X190469287Y-125823610D01*
X190562220Y-125641219D01*
X190625477Y-125446534D01*
X190657500Y-125244352D01*
X190657500Y-125039648D01*
X190639660Y-124927011D01*
X190625477Y-124837465D01*
X190596127Y-124747137D01*
X190562220Y-124642781D01*
X190562218Y-124642778D01*
X190562218Y-124642776D01*
X190498783Y-124518280D01*
X190469287Y-124460390D01*
X190453597Y-124438794D01*
X190348971Y-124294786D01*
X190204213Y-124150028D01*
X190038613Y-124029715D01*
X190038612Y-124029714D01*
X190038610Y-124029713D01*
X189981653Y-124000691D01*
X189856223Y-123936781D01*
X189661534Y-123873522D01*
X189486995Y-123845878D01*
X189459352Y-123841500D01*
X189254648Y-123841500D01*
X189230329Y-123845351D01*
X189052465Y-123873522D01*
X188857776Y-123936781D01*
X188675387Y-124029714D01*
X188638679Y-124056384D01*
X188572873Y-124079863D01*
X188504819Y-124064037D01*
X188478114Y-124043746D01*
X187349819Y-122915451D01*
X187316334Y-122854128D01*
X187313500Y-122827770D01*
X187313500Y-120039682D01*
X188057000Y-120039682D01*
X188057000Y-120244317D01*
X188089009Y-120446417D01*
X188152244Y-120641031D01*
X188245141Y-120823350D01*
X188245147Y-120823359D01*
X188277523Y-120867921D01*
X188277524Y-120867922D01*
X188957000Y-120188446D01*
X188957000Y-120194661D01*
X188984259Y-120296394D01*
X189036920Y-120387606D01*
X189111394Y-120462080D01*
X189202606Y-120514741D01*
X189304339Y-120542000D01*
X189310553Y-120542000D01*
X188631076Y-121221474D01*
X188675650Y-121253859D01*
X188857968Y-121346755D01*
X189052582Y-121409990D01*
X189254683Y-121442000D01*
X189459317Y-121442000D01*
X189661417Y-121409990D01*
X189856031Y-121346755D01*
X190038349Y-121253859D01*
X190082921Y-121221474D01*
X189403447Y-120542000D01*
X189409661Y-120542000D01*
X189511394Y-120514741D01*
X189602606Y-120462080D01*
X189677080Y-120387606D01*
X189729741Y-120296394D01*
X189757000Y-120194661D01*
X189757000Y-120188447D01*
X190436474Y-120867921D01*
X190468859Y-120823349D01*
X190561755Y-120641031D01*
X190624990Y-120446417D01*
X190657000Y-120244317D01*
X190657000Y-120039682D01*
X190624990Y-119837582D01*
X190561755Y-119642968D01*
X190468859Y-119460650D01*
X190436474Y-119416077D01*
X190436474Y-119416076D01*
X189757000Y-120095551D01*
X189757000Y-120089339D01*
X189729741Y-119987606D01*
X189677080Y-119896394D01*
X189602606Y-119821920D01*
X189511394Y-119769259D01*
X189409661Y-119742000D01*
X189403446Y-119742000D01*
X190082922Y-119062524D01*
X190082921Y-119062523D01*
X190038359Y-119030147D01*
X190038350Y-119030141D01*
X189856031Y-118937244D01*
X189661417Y-118874009D01*
X189459317Y-118842000D01*
X189254683Y-118842000D01*
X189052582Y-118874009D01*
X188857968Y-118937244D01*
X188675644Y-119030143D01*
X188631077Y-119062523D01*
X188631077Y-119062524D01*
X189310554Y-119742000D01*
X189304339Y-119742000D01*
X189202606Y-119769259D01*
X189111394Y-119821920D01*
X189036920Y-119896394D01*
X188984259Y-119987606D01*
X188957000Y-120089339D01*
X188957000Y-120095553D01*
X188277524Y-119416077D01*
X188277523Y-119416077D01*
X188245143Y-119460644D01*
X188152244Y-119642968D01*
X188089009Y-119837582D01*
X188057000Y-120039682D01*
X187313500Y-120039682D01*
X187313500Y-117456228D01*
X187333185Y-117389189D01*
X187349814Y-117368552D01*
X189164295Y-115554070D01*
X189204519Y-115527193D01*
X189228179Y-115517394D01*
X189359289Y-115429789D01*
X189470789Y-115318289D01*
X189558394Y-115187179D01*
X189567580Y-115164999D01*
X189611418Y-115110597D01*
X189677711Y-115088529D01*
X189745411Y-115105806D01*
G37*
G04 #@! TD.AperFunction*
G04 #@! TA.AperFunction,Conductor*
G36*
X190754231Y-80299185D02*
G01*
X190774873Y-80315819D01*
X194737342Y-84278288D01*
X194770827Y-84339611D01*
X194770319Y-84387755D01*
X194771516Y-84387945D01*
X194737500Y-84602713D01*
X194737500Y-84815286D01*
X194770735Y-85025127D01*
X194770754Y-85025243D01*
X194789375Y-85082553D01*
X194836444Y-85227414D01*
X194932951Y-85416820D01*
X195057890Y-85588786D01*
X195208213Y-85739109D01*
X195380182Y-85864050D01*
X195388946Y-85868516D01*
X195439742Y-85916491D01*
X195456536Y-85984312D01*
X195433998Y-86050447D01*
X195388946Y-86089484D01*
X195380182Y-86093949D01*
X195208213Y-86218890D01*
X195057890Y-86369213D01*
X194932951Y-86541179D01*
X194836444Y-86730585D01*
X194770753Y-86932760D01*
X194745756Y-87090585D01*
X194737500Y-87142713D01*
X194737500Y-87355287D01*
X194745611Y-87406500D01*
X194770584Y-87564174D01*
X194770754Y-87565243D01*
X194819506Y-87715287D01*
X194836444Y-87767414D01*
X194932951Y-87956820D01*
X195057890Y-88128786D01*
X195208213Y-88279109D01*
X195380182Y-88404050D01*
X195388946Y-88408516D01*
X195439742Y-88456491D01*
X195456536Y-88524312D01*
X195433998Y-88590447D01*
X195388946Y-88629484D01*
X195380182Y-88633949D01*
X195208213Y-88758890D01*
X195057890Y-88909213D01*
X194932951Y-89081179D01*
X194836444Y-89270585D01*
X194770753Y-89472760D01*
X194737500Y-89682713D01*
X194737500Y-89895286D01*
X194770753Y-90105239D01*
X194770753Y-90105241D01*
X194770754Y-90105243D01*
X194819506Y-90255287D01*
X194836444Y-90307414D01*
X194932951Y-90496820D01*
X195057890Y-90668786D01*
X195208213Y-90819109D01*
X195380182Y-90944050D01*
X195388946Y-90948516D01*
X195439742Y-90996491D01*
X195456536Y-91064312D01*
X195433998Y-91130447D01*
X195388946Y-91169484D01*
X195380182Y-91173949D01*
X195208213Y-91298890D01*
X195057890Y-91449213D01*
X194932951Y-91621179D01*
X194836444Y-91810585D01*
X194770753Y-92012760D01*
X194759235Y-92085483D01*
X194737500Y-92222713D01*
X194737500Y-92435287D01*
X194744931Y-92482202D01*
X194771516Y-92650055D01*
X194769877Y-92650314D01*
X194766738Y-92712883D01*
X194737342Y-92759710D01*
X194457871Y-93039182D01*
X194396551Y-93072666D01*
X194370192Y-93075500D01*
X188876499Y-93075500D01*
X188809460Y-93055815D01*
X188763705Y-93003011D01*
X188752499Y-92951500D01*
X188752499Y-92878129D01*
X188752498Y-92878123D01*
X188752497Y-92878116D01*
X188746091Y-92818517D01*
X188737426Y-92795286D01*
X188695797Y-92683671D01*
X188695793Y-92683664D01*
X188609547Y-92568455D01*
X188609544Y-92568452D01*
X188494335Y-92482206D01*
X188494328Y-92482202D01*
X188359482Y-92431908D01*
X188359483Y-92431908D01*
X188299883Y-92425501D01*
X188299881Y-92425500D01*
X188299873Y-92425500D01*
X188299864Y-92425500D01*
X186604129Y-92425500D01*
X186604123Y-92425501D01*
X186544516Y-92431908D01*
X186409671Y-92482202D01*
X186409664Y-92482206D01*
X186294455Y-92568452D01*
X186294452Y-92568455D01*
X186208206Y-92683664D01*
X186208202Y-92683671D01*
X186157908Y-92818517D01*
X186154802Y-92847412D01*
X186151501Y-92878123D01*
X186151500Y-92878135D01*
X186151500Y-94573870D01*
X186151501Y-94573876D01*
X186157908Y-94633483D01*
X186208202Y-94768328D01*
X186208206Y-94768335D01*
X186294452Y-94883544D01*
X186294455Y-94883547D01*
X186409664Y-94969793D01*
X186409671Y-94969797D01*
X186544517Y-95020091D01*
X186544516Y-95020091D01*
X186551444Y-95020835D01*
X186604127Y-95026500D01*
X188299872Y-95026499D01*
X188359483Y-95020091D01*
X188494331Y-94969796D01*
X188609546Y-94883546D01*
X188695796Y-94768331D01*
X188746091Y-94633483D01*
X188752500Y-94573873D01*
X188752500Y-94500500D01*
X188772185Y-94433461D01*
X188824989Y-94387706D01*
X188876500Y-94376500D01*
X194657352Y-94376500D01*
X194724391Y-94396185D01*
X194770146Y-94448989D01*
X194780090Y-94518147D01*
X194775284Y-94538813D01*
X194771591Y-94550181D01*
X194770753Y-94552760D01*
X194737500Y-94762713D01*
X194737500Y-94975286D01*
X194770753Y-95185239D01*
X194836444Y-95387414D01*
X194932951Y-95576820D01*
X195057890Y-95748786D01*
X195208213Y-95899109D01*
X195380182Y-96024050D01*
X195388946Y-96028516D01*
X195439742Y-96076491D01*
X195456536Y-96144312D01*
X195433998Y-96210447D01*
X195388946Y-96249484D01*
X195380182Y-96253949D01*
X195208213Y-96378890D01*
X195057890Y-96529213D01*
X194932951Y-96701179D01*
X194836444Y-96890585D01*
X194770753Y-97092760D01*
X194737500Y-97302713D01*
X194737500Y-97515287D01*
X194770754Y-97725243D01*
X194813042Y-97855392D01*
X194836444Y-97927414D01*
X194932951Y-98116820D01*
X195057890Y-98288786D01*
X195208213Y-98439109D01*
X195380182Y-98564050D01*
X195388946Y-98568516D01*
X195439742Y-98616491D01*
X195456536Y-98684312D01*
X195433998Y-98750447D01*
X195388946Y-98789484D01*
X195380182Y-98793949D01*
X195208213Y-98918890D01*
X195057890Y-99069213D01*
X194932951Y-99241179D01*
X194836444Y-99430585D01*
X194770753Y-99632760D01*
X194737500Y-99842713D01*
X194737500Y-100055286D01*
X194755562Y-100169329D01*
X194770754Y-100265243D01*
X194813042Y-100395392D01*
X194836444Y-100467414D01*
X194932951Y-100656820D01*
X195057890Y-100828786D01*
X195208213Y-100979109D01*
X195380182Y-101104050D01*
X195388946Y-101108516D01*
X195439742Y-101156491D01*
X195456536Y-101224312D01*
X195433998Y-101290447D01*
X195388946Y-101329484D01*
X195380182Y-101333949D01*
X195208213Y-101458890D01*
X195057890Y-101609213D01*
X194932951Y-101781179D01*
X194836444Y-101970585D01*
X194770753Y-102172760D01*
X194756278Y-102264152D01*
X194737500Y-102382713D01*
X194737500Y-102595287D01*
X194770754Y-102805243D01*
X194805113Y-102910990D01*
X194836444Y-103007414D01*
X194932951Y-103196820D01*
X195057890Y-103368786D01*
X195208213Y-103519109D01*
X195380182Y-103644050D01*
X195388946Y-103648516D01*
X195439742Y-103696491D01*
X195456536Y-103764312D01*
X195433998Y-103830447D01*
X195388946Y-103869484D01*
X195380182Y-103873949D01*
X195208213Y-103998890D01*
X195057890Y-104149213D01*
X194930085Y-104325125D01*
X194928740Y-104324148D01*
X194882295Y-104366166D01*
X194828382Y-104378500D01*
X193102929Y-104378500D01*
X192977261Y-104403497D01*
X192977255Y-104403499D01*
X192858870Y-104452535D01*
X192752331Y-104523722D01*
X192752324Y-104523728D01*
X191381240Y-105894812D01*
X191319917Y-105928297D01*
X191250225Y-105923313D01*
X191194292Y-105881441D01*
X191171942Y-105831322D01*
X191142738Y-105684510D01*
X191142737Y-105684503D01*
X191085953Y-105547414D01*
X191082397Y-105538828D01*
X191082396Y-105538827D01*
X191082394Y-105538821D01*
X191044396Y-105481953D01*
X191023520Y-105415276D01*
X191023500Y-105413064D01*
X191023500Y-100519928D01*
X190998502Y-100394261D01*
X190998501Y-100394260D01*
X190998501Y-100394256D01*
X190949465Y-100275873D01*
X190942362Y-100265243D01*
X190927730Y-100243343D01*
X190878276Y-100169329D01*
X185199673Y-94490726D01*
X185198268Y-94489787D01*
X185093127Y-94419535D01*
X185036755Y-94396185D01*
X184974744Y-94370499D01*
X184974738Y-94370497D01*
X184849071Y-94345500D01*
X184849069Y-94345500D01*
X178544625Y-94345500D01*
X178477586Y-94325815D01*
X178431831Y-94273011D01*
X178421887Y-94203853D01*
X178444306Y-94148615D01*
X178540343Y-94016433D01*
X178647568Y-93805992D01*
X178720553Y-93581368D01*
X178729076Y-93527556D01*
X178757500Y-93348097D01*
X178757500Y-93111902D01*
X178720553Y-92878631D01*
X178681913Y-92759710D01*
X178647568Y-92654008D01*
X178647566Y-92654005D01*
X178647566Y-92654003D01*
X178591002Y-92542991D01*
X178540343Y-92443567D01*
X178401517Y-92252490D01*
X178234510Y-92085483D01*
X178043433Y-91946657D01*
X177832996Y-91839433D01*
X177608368Y-91766446D01*
X177375097Y-91729500D01*
X177375092Y-91729500D01*
X175938908Y-91729500D01*
X175938903Y-91729500D01*
X175705631Y-91766446D01*
X175481003Y-91839433D01*
X175270566Y-91946657D01*
X175179588Y-92012757D01*
X175079490Y-92085483D01*
X175079488Y-92085485D01*
X175079487Y-92085485D01*
X174912485Y-92252487D01*
X174912485Y-92252488D01*
X174912483Y-92252490D01*
X174852862Y-92334550D01*
X174773657Y-92443566D01*
X174666433Y-92654003D01*
X174593446Y-92878631D01*
X174556500Y-93111902D01*
X174556500Y-93348097D01*
X174593446Y-93581368D01*
X174666433Y-93805996D01*
X174759785Y-93989208D01*
X174773657Y-94016433D01*
X174869693Y-94148615D01*
X174893173Y-94214420D01*
X174877348Y-94282474D01*
X174827242Y-94331169D01*
X174769375Y-94345500D01*
X170648807Y-94345500D01*
X170581768Y-94325815D01*
X170561126Y-94309181D01*
X166831657Y-90579711D01*
X166828938Y-90574732D01*
X166824220Y-90571582D01*
X166812376Y-90544402D01*
X166798172Y-90518388D01*
X166797982Y-90511367D01*
X166796310Y-90507529D01*
X166797364Y-90488450D01*
X166796927Y-90472240D01*
X166797872Y-90466393D01*
X166798246Y-90465243D01*
X166807279Y-90408206D01*
X166822229Y-90376930D01*
X166837145Y-90345466D01*
X166837321Y-90345356D01*
X166837411Y-90345169D01*
X166866999Y-90326876D01*
X166896457Y-90308534D01*
X166896663Y-90308536D01*
X166896840Y-90308428D01*
X166931597Y-90309035D01*
X166966319Y-90309532D01*
X166966509Y-90309646D01*
X166966699Y-90309650D01*
X166968418Y-90310798D01*
X167017371Y-90340317D01*
X167312325Y-90635272D01*
X167312332Y-90635278D01*
X167418159Y-90705989D01*
X167418160Y-90705989D01*
X167418871Y-90706464D01*
X167418877Y-90706467D01*
X167537251Y-90755499D01*
X167537256Y-90755501D01*
X167537260Y-90755501D01*
X167537261Y-90755502D01*
X167662928Y-90780500D01*
X167662931Y-90780500D01*
X167728408Y-90780500D01*
X167795447Y-90800185D01*
X167838893Y-90848205D01*
X167873657Y-90916433D01*
X168012483Y-91107510D01*
X168179490Y-91274517D01*
X168370567Y-91413343D01*
X168417866Y-91437443D01*
X168581003Y-91520566D01*
X168581005Y-91520566D01*
X168581008Y-91520568D01*
X168646215Y-91541755D01*
X168805631Y-91593553D01*
X169038903Y-91630500D01*
X169038908Y-91630500D01*
X169275097Y-91630500D01*
X169508368Y-91593553D01*
X169544940Y-91581670D01*
X169732992Y-91520568D01*
X169943433Y-91413343D01*
X170134510Y-91274517D01*
X170301517Y-91107510D01*
X170440343Y-90916433D01*
X170547568Y-90705992D01*
X170620553Y-90481368D01*
X170627213Y-90439317D01*
X170657500Y-90248097D01*
X170657500Y-90011902D01*
X182156500Y-90011902D01*
X182156500Y-90248097D01*
X182193446Y-90481368D01*
X182266433Y-90705996D01*
X182332690Y-90836031D01*
X182373657Y-90916433D01*
X182512483Y-91107510D01*
X182679490Y-91274517D01*
X182870567Y-91413343D01*
X182917866Y-91437443D01*
X183081003Y-91520566D01*
X183081005Y-91520566D01*
X183081008Y-91520568D01*
X183146215Y-91541755D01*
X183305631Y-91593553D01*
X183538903Y-91630500D01*
X183538908Y-91630500D01*
X183775097Y-91630500D01*
X184008368Y-91593553D01*
X184044940Y-91581670D01*
X184232992Y-91520568D01*
X184443433Y-91413343D01*
X184634510Y-91274517D01*
X184801517Y-91107510D01*
X184940343Y-90916433D01*
X185047568Y-90705992D01*
X185120553Y-90481368D01*
X185127213Y-90439317D01*
X185157500Y-90248097D01*
X185157500Y-90011902D01*
X185120553Y-89778631D01*
X185066111Y-89611077D01*
X185047568Y-89554008D01*
X185047566Y-89554005D01*
X185047566Y-89554003D01*
X184940342Y-89343566D01*
X184887318Y-89270585D01*
X184801517Y-89152490D01*
X184634510Y-88985483D01*
X184443433Y-88846657D01*
X184232996Y-88739433D01*
X184008368Y-88666446D01*
X183775097Y-88629500D01*
X183775092Y-88629500D01*
X183538908Y-88629500D01*
X183538903Y-88629500D01*
X183305631Y-88666446D01*
X183081003Y-88739433D01*
X182870566Y-88846657D01*
X182784473Y-88909208D01*
X182679490Y-88985483D01*
X182679488Y-88985485D01*
X182679487Y-88985485D01*
X182512485Y-89152487D01*
X182512485Y-89152488D01*
X182512483Y-89152490D01*
X182459699Y-89225141D01*
X182373657Y-89343566D01*
X182266433Y-89554003D01*
X182193446Y-89778631D01*
X182156500Y-90011902D01*
X170657500Y-90011902D01*
X170620553Y-89778631D01*
X170566111Y-89611077D01*
X170547568Y-89554008D01*
X170547566Y-89554005D01*
X170547566Y-89554003D01*
X170440342Y-89343566D01*
X170387318Y-89270585D01*
X170301517Y-89152490D01*
X170134510Y-88985483D01*
X170078259Y-88944614D01*
X170035595Y-88889284D01*
X170030902Y-88857455D01*
X169286408Y-88112962D01*
X169349993Y-88095925D01*
X169464007Y-88030099D01*
X169557099Y-87937007D01*
X169622925Y-87822993D01*
X169639962Y-87759409D01*
X170379658Y-88499105D01*
X170379658Y-88499104D01*
X170439914Y-88416169D01*
X170439918Y-88416163D01*
X170547102Y-88205802D01*
X170620065Y-87981247D01*
X170657000Y-87748052D01*
X170657000Y-87511947D01*
X170620065Y-87278752D01*
X170547102Y-87054197D01*
X170439914Y-86843828D01*
X170370394Y-86748142D01*
X170346914Y-86682335D01*
X170362739Y-86614281D01*
X170396401Y-86575989D01*
X170399329Y-86573796D01*
X170399331Y-86573796D01*
X170514546Y-86487546D01*
X170600796Y-86372331D01*
X170651091Y-86237483D01*
X170657500Y-86177873D01*
X170657499Y-85011902D01*
X182156500Y-85011902D01*
X182156500Y-85248097D01*
X182193446Y-85481368D01*
X182266433Y-85705996D01*
X182346967Y-85864051D01*
X182373657Y-85916433D01*
X182512483Y-86107510D01*
X182679490Y-86274517D01*
X182870567Y-86413343D01*
X182950261Y-86453949D01*
X183081003Y-86520566D01*
X183081005Y-86520566D01*
X183081008Y-86520568D01*
X183201412Y-86559689D01*
X183305631Y-86593553D01*
X183538903Y-86630500D01*
X183538908Y-86630500D01*
X183775097Y-86630500D01*
X184008368Y-86593553D01*
X184232992Y-86520568D01*
X184443433Y-86413343D01*
X184634510Y-86274517D01*
X184801517Y-86107510D01*
X184940343Y-85916433D01*
X184975107Y-85848205D01*
X185023082Y-85797409D01*
X185085592Y-85780500D01*
X186041658Y-85780500D01*
X186108697Y-85800185D01*
X186154452Y-85852989D01*
X186164396Y-85922147D01*
X186164131Y-85923897D01*
X186151500Y-86003647D01*
X186151500Y-86208351D01*
X186183522Y-86410534D01*
X186246781Y-86605223D01*
X186339715Y-86787613D01*
X186460028Y-86953213D01*
X186604786Y-87097971D01*
X186759749Y-87210556D01*
X186770390Y-87218287D01*
X186886607Y-87277503D01*
X186952776Y-87311218D01*
X186952778Y-87311218D01*
X186952781Y-87311220D01*
X186989015Y-87322993D01*
X187147465Y-87374477D01*
X187248557Y-87390488D01*
X187349648Y-87406500D01*
X187349649Y-87406500D01*
X187554351Y-87406500D01*
X187554352Y-87406500D01*
X187756534Y-87374477D01*
X187951219Y-87311220D01*
X188133610Y-87218287D01*
X188255128Y-87130000D01*
X188299213Y-87097971D01*
X188299215Y-87097968D01*
X188299219Y-87097966D01*
X188443966Y-86953219D01*
X188443968Y-86953215D01*
X188443971Y-86953213D01*
X188496732Y-86880590D01*
X188564287Y-86787610D01*
X188657220Y-86605219D01*
X188720477Y-86410534D01*
X188752500Y-86208352D01*
X188752500Y-86003648D01*
X188740598Y-85928500D01*
X188720477Y-85801465D01*
X188657218Y-85606776D01*
X188620607Y-85534925D01*
X188564287Y-85424390D01*
X188529135Y-85376007D01*
X188443971Y-85258786D01*
X188299213Y-85114028D01*
X188133613Y-84993715D01*
X188133612Y-84993714D01*
X188133610Y-84993713D01*
X188038006Y-84945000D01*
X187951223Y-84900781D01*
X187756534Y-84837522D01*
X187581995Y-84809878D01*
X187554352Y-84805500D01*
X187349648Y-84805500D01*
X187322343Y-84809824D01*
X187171888Y-84833654D01*
X187102594Y-84824699D01*
X187064809Y-84798862D01*
X186890673Y-84624726D01*
X186890669Y-84624723D01*
X186784127Y-84553535D01*
X186665744Y-84504499D01*
X186665738Y-84504497D01*
X186540071Y-84479500D01*
X186540069Y-84479500D01*
X185085592Y-84479500D01*
X185018553Y-84459815D01*
X184975107Y-84411795D01*
X184946810Y-84356259D01*
X184940343Y-84343567D01*
X184801517Y-84152490D01*
X184634510Y-83985483D01*
X184443433Y-83846657D01*
X184232996Y-83739433D01*
X184008368Y-83666446D01*
X183775097Y-83629500D01*
X183775092Y-83629500D01*
X183538908Y-83629500D01*
X183538903Y-83629500D01*
X183305631Y-83666446D01*
X183081003Y-83739433D01*
X182870566Y-83846657D01*
X182814119Y-83887669D01*
X182679490Y-83985483D01*
X182679488Y-83985485D01*
X182679487Y-83985485D01*
X182512485Y-84152487D01*
X182512485Y-84152488D01*
X182512483Y-84152490D01*
X182484803Y-84190588D01*
X182373657Y-84343566D01*
X182266433Y-84554003D01*
X182193446Y-84778631D01*
X182156500Y-85011902D01*
X170657499Y-85011902D01*
X170657499Y-84082128D01*
X170651091Y-84022517D01*
X170643840Y-84003077D01*
X170600797Y-83887671D01*
X170600793Y-83887664D01*
X170514547Y-83772455D01*
X170514544Y-83772452D01*
X170399335Y-83686206D01*
X170399328Y-83686202D01*
X170264482Y-83635908D01*
X170264483Y-83635908D01*
X170204883Y-83629501D01*
X170204881Y-83629500D01*
X170204873Y-83629500D01*
X170204865Y-83629500D01*
X169931500Y-83629500D01*
X169864461Y-83609815D01*
X169818706Y-83557011D01*
X169807500Y-83505500D01*
X169807500Y-82623808D01*
X169827185Y-82556769D01*
X169843819Y-82536127D01*
X170468044Y-81911902D01*
X174556500Y-81911902D01*
X174556500Y-82148097D01*
X174593446Y-82381368D01*
X174666433Y-82605996D01*
X174773657Y-82816433D01*
X174912483Y-83007510D01*
X175079490Y-83174517D01*
X175270567Y-83313343D01*
X175369991Y-83364002D01*
X175481003Y-83420566D01*
X175481005Y-83420566D01*
X175481008Y-83420568D01*
X175522243Y-83433966D01*
X175705631Y-83493553D01*
X175938903Y-83530500D01*
X175938908Y-83530500D01*
X177375097Y-83530500D01*
X177608368Y-83493553D01*
X177832992Y-83420568D01*
X178043433Y-83313343D01*
X178234510Y-83174517D01*
X178401517Y-83007510D01*
X178540343Y-82816433D01*
X178647568Y-82605992D01*
X178720553Y-82381368D01*
X178723493Y-82362808D01*
X178757500Y-82148097D01*
X178757500Y-81911902D01*
X178720553Y-81678631D01*
X178686689Y-81574412D01*
X178647568Y-81454008D01*
X178647566Y-81454005D01*
X178647566Y-81454003D01*
X178563598Y-81289208D01*
X178540343Y-81243567D01*
X178401517Y-81052490D01*
X178234510Y-80885483D01*
X178043433Y-80746657D01*
X177832996Y-80639433D01*
X177608368Y-80566446D01*
X177375097Y-80529500D01*
X177375092Y-80529500D01*
X175938908Y-80529500D01*
X175938903Y-80529500D01*
X175705631Y-80566446D01*
X175481003Y-80639433D01*
X175270566Y-80746657D01*
X175162864Y-80824908D01*
X175079490Y-80885483D01*
X175079488Y-80885485D01*
X175079487Y-80885485D01*
X174912485Y-81052487D01*
X174912485Y-81052488D01*
X174912483Y-81052490D01*
X174863699Y-81119635D01*
X174773657Y-81243566D01*
X174666433Y-81454003D01*
X174593446Y-81678631D01*
X174556500Y-81911902D01*
X170468044Y-81911902D01*
X172064127Y-80315819D01*
X172125450Y-80282334D01*
X172151808Y-80279500D01*
X190687192Y-80279500D01*
X190754231Y-80299185D01*
G37*
G04 #@! TD.AperFunction*
G04 #@! TA.AperFunction,Conductor*
G36*
X168691075Y-87822993D02*
G01*
X168756901Y-87937007D01*
X168849993Y-88030099D01*
X168964007Y-88095925D01*
X169027590Y-88112962D01*
X168281280Y-88859271D01*
X168272105Y-88902947D01*
X168235739Y-88944615D01*
X168179490Y-88985482D01*
X168012484Y-89152488D01*
X168012483Y-89152490D01*
X168006816Y-89160289D01*
X167951487Y-89202953D01*
X167881874Y-89208932D01*
X167820079Y-89176326D01*
X167785722Y-89115487D01*
X167782500Y-89087402D01*
X167782500Y-88621297D01*
X167802185Y-88554258D01*
X167854989Y-88508503D01*
X167916230Y-88497679D01*
X167934341Y-88499104D01*
X168674037Y-87759408D01*
X168691075Y-87822993D01*
G37*
G04 #@! TD.AperFunction*
G04 #@! TA.AperFunction,Conductor*
G36*
X220269472Y-75638695D02*
G01*
X220572503Y-75655713D01*
X220586301Y-75657267D01*
X220882080Y-75707522D01*
X220895636Y-75710616D01*
X221183927Y-75793672D01*
X221197051Y-75798265D01*
X221474222Y-75913072D01*
X221486744Y-75919101D01*
X221689184Y-76030986D01*
X221749328Y-76064227D01*
X221761102Y-76071625D01*
X222005789Y-76245239D01*
X222016657Y-76253907D01*
X222240352Y-76453815D01*
X222250184Y-76463647D01*
X222450092Y-76687342D01*
X222458763Y-76698214D01*
X222632374Y-76942897D01*
X222639772Y-76954671D01*
X222784894Y-77217248D01*
X222790927Y-77229777D01*
X222905734Y-77506948D01*
X222910327Y-77520072D01*
X222993383Y-77808363D01*
X222996477Y-77821920D01*
X223046730Y-78117688D01*
X223048287Y-78131506D01*
X223065305Y-78434527D01*
X223065500Y-78441480D01*
X223065500Y-135553519D01*
X223065305Y-135560472D01*
X223048287Y-135863493D01*
X223046730Y-135877311D01*
X222996477Y-136173079D01*
X222993383Y-136186636D01*
X222910327Y-136474927D01*
X222905734Y-136488051D01*
X222790927Y-136765222D01*
X222784894Y-136777751D01*
X222639772Y-137040328D01*
X222632374Y-137052102D01*
X222458763Y-137296785D01*
X222450092Y-137307657D01*
X222250184Y-137531352D01*
X222240352Y-137541184D01*
X222016657Y-137741092D01*
X222005785Y-137749763D01*
X221761102Y-137923374D01*
X221749328Y-137930772D01*
X221486751Y-138075894D01*
X221474222Y-138081927D01*
X221197051Y-138196734D01*
X221183927Y-138201327D01*
X220895636Y-138284383D01*
X220882079Y-138287477D01*
X220586311Y-138337730D01*
X220572493Y-138339287D01*
X220269472Y-138356305D01*
X220262519Y-138356500D01*
X125431481Y-138356500D01*
X125424528Y-138356305D01*
X125121506Y-138339287D01*
X125107688Y-138337730D01*
X124811920Y-138287477D01*
X124798363Y-138284383D01*
X124510072Y-138201327D01*
X124496948Y-138196734D01*
X124219777Y-138081927D01*
X124207248Y-138075894D01*
X123944671Y-137930772D01*
X123932897Y-137923374D01*
X123688214Y-137749763D01*
X123677342Y-137741092D01*
X123453647Y-137541184D01*
X123443815Y-137531352D01*
X123243907Y-137307657D01*
X123235236Y-137296785D01*
X123061625Y-137052102D01*
X123054227Y-137040328D01*
X122909105Y-136777751D01*
X122903072Y-136765222D01*
X122788265Y-136488051D01*
X122783672Y-136474927D01*
X122723141Y-136264820D01*
X122700615Y-136186634D01*
X122697522Y-136173079D01*
X122678030Y-136058356D01*
X122647267Y-135877301D01*
X122645713Y-135863503D01*
X122628695Y-135560472D01*
X122628500Y-135553519D01*
X122628500Y-135450713D01*
X124077500Y-135450713D01*
X124077500Y-135663286D01*
X124110753Y-135873239D01*
X124176444Y-136075414D01*
X124272951Y-136264820D01*
X124397890Y-136436786D01*
X124548213Y-136587109D01*
X124720179Y-136712048D01*
X124720181Y-136712049D01*
X124720184Y-136712051D01*
X124909588Y-136808557D01*
X125111757Y-136874246D01*
X125321713Y-136907500D01*
X125321714Y-136907500D01*
X125534286Y-136907500D01*
X125534287Y-136907500D01*
X125744243Y-136874246D01*
X125946412Y-136808557D01*
X126135816Y-136712051D01*
X126157789Y-136696086D01*
X126307786Y-136587109D01*
X126307788Y-136587106D01*
X126307792Y-136587104D01*
X126458104Y-136436792D01*
X126458106Y-136436788D01*
X126458109Y-136436786D01*
X126583048Y-136264820D01*
X126583047Y-136264820D01*
X126583051Y-136264816D01*
X126679557Y-136075412D01*
X126745246Y-135873243D01*
X126778500Y-135663287D01*
X126778500Y-135450713D01*
X218915500Y-135450713D01*
X218915500Y-135663286D01*
X218948753Y-135873239D01*
X219014444Y-136075414D01*
X219110951Y-136264820D01*
X219235890Y-136436786D01*
X219386213Y-136587109D01*
X219558179Y-136712048D01*
X219558181Y-136712049D01*
X219558184Y-136712051D01*
X219747588Y-136808557D01*
X219949757Y-136874246D01*
X220159713Y-136907500D01*
X220159714Y-136907500D01*
X220372286Y-136907500D01*
X220372287Y-136907500D01*
X220582243Y-136874246D01*
X220784412Y-136808557D01*
X220973816Y-136712051D01*
X220995789Y-136696086D01*
X221145786Y-136587109D01*
X221145788Y-136587106D01*
X221145792Y-136587104D01*
X221296104Y-136436792D01*
X221296106Y-136436788D01*
X221296109Y-136436786D01*
X221421048Y-136264820D01*
X221421047Y-136264820D01*
X221421051Y-136264816D01*
X221517557Y-136075412D01*
X221583246Y-135873243D01*
X221616500Y-135663287D01*
X221616500Y-135450713D01*
X221583246Y-135240757D01*
X221517557Y-135038588D01*
X221421051Y-134849184D01*
X221421049Y-134849181D01*
X221421048Y-134849179D01*
X221296109Y-134677213D01*
X221145786Y-134526890D01*
X220973820Y-134401951D01*
X220784414Y-134305444D01*
X220784413Y-134305443D01*
X220784412Y-134305443D01*
X220582243Y-134239754D01*
X220582241Y-134239753D01*
X220582240Y-134239753D01*
X220420957Y-134214208D01*
X220372287Y-134206500D01*
X220159713Y-134206500D01*
X220111042Y-134214208D01*
X219949760Y-134239753D01*
X219747585Y-134305444D01*
X219558179Y-134401951D01*
X219386213Y-134526890D01*
X219235890Y-134677213D01*
X219110951Y-134849179D01*
X219014444Y-135038585D01*
X218948753Y-135240760D01*
X218915500Y-135450713D01*
X126778500Y-135450713D01*
X126745246Y-135240757D01*
X126679557Y-135038588D01*
X126583051Y-134849184D01*
X126583049Y-134849181D01*
X126583048Y-134849179D01*
X126458109Y-134677213D01*
X126307786Y-134526890D01*
X126135820Y-134401951D01*
X125946414Y-134305444D01*
X125946413Y-134305443D01*
X125946412Y-134305443D01*
X125744243Y-134239754D01*
X125744241Y-134239753D01*
X125744240Y-134239753D01*
X125582957Y-134214208D01*
X125534287Y-134206500D01*
X125321713Y-134206500D01*
X125273042Y-134214208D01*
X125111760Y-134239753D01*
X124909585Y-134305444D01*
X124720179Y-134401951D01*
X124548213Y-134526890D01*
X124397890Y-134677213D01*
X124272951Y-134849179D01*
X124176444Y-135038585D01*
X124110753Y-135240760D01*
X124077500Y-135450713D01*
X122628500Y-135450713D01*
X122628500Y-124103648D01*
X127731500Y-124103648D01*
X127731500Y-124308351D01*
X127763522Y-124510534D01*
X127826781Y-124705223D01*
X127919715Y-124887613D01*
X128040028Y-125053213D01*
X128184786Y-125197971D01*
X128300709Y-125282192D01*
X128350390Y-125318287D01*
X128451633Y-125369873D01*
X128532776Y-125411218D01*
X128532778Y-125411218D01*
X128532781Y-125411220D01*
X128637137Y-125445127D01*
X128727465Y-125474477D01*
X128828557Y-125490488D01*
X128929648Y-125506500D01*
X128929649Y-125506500D01*
X129134351Y-125506500D01*
X129134352Y-125506500D01*
X129336534Y-125474477D01*
X129531219Y-125411220D01*
X129713610Y-125318287D01*
X129817630Y-125242713D01*
X129879213Y-125197971D01*
X129879215Y-125197968D01*
X129879219Y-125197966D01*
X130023966Y-125053219D01*
X130023968Y-125053215D01*
X130023971Y-125053213D01*
X130115657Y-124927016D01*
X130144287Y-124887610D01*
X130237220Y-124705219D01*
X130300477Y-124510534D01*
X130332500Y-124308352D01*
X130332500Y-124103648D01*
X130319451Y-124021260D01*
X130300477Y-123901465D01*
X130237218Y-123706776D01*
X130144287Y-123524390D01*
X130072317Y-123425331D01*
X130072316Y-123425328D01*
X130023971Y-123358787D01*
X130023967Y-123358782D01*
X130022497Y-123357312D01*
X132375600Y-123357312D01*
X132375600Y-123530687D01*
X132402720Y-123701913D01*
X132456290Y-123866788D01*
X132456291Y-123866791D01*
X132528015Y-124007556D01*
X132534998Y-124021260D01*
X132636899Y-124161514D01*
X132759486Y-124284101D01*
X132899740Y-124386002D01*
X132975502Y-124424604D01*
X133054208Y-124464708D01*
X133054211Y-124464709D01*
X133136648Y-124491494D01*
X133219088Y-124518280D01*
X133298391Y-124530840D01*
X133390313Y-124545400D01*
X133390318Y-124545400D01*
X133563687Y-124545400D01*
X133646695Y-124532252D01*
X133734912Y-124518280D01*
X133899791Y-124464708D01*
X134054260Y-124386002D01*
X134194514Y-124284101D01*
X134317101Y-124161514D01*
X134419002Y-124021260D01*
X134497708Y-123866791D01*
X134551280Y-123701912D01*
X134568830Y-123591105D01*
X134578400Y-123530687D01*
X134578400Y-123357312D01*
X134571260Y-123312233D01*
X134568831Y-123296900D01*
X136312600Y-123296900D01*
X136312600Y-123591105D01*
X136349780Y-123873523D01*
X136351002Y-123882800D01*
X136422607Y-124150034D01*
X136427152Y-124166994D01*
X136539734Y-124438794D01*
X136539742Y-124438810D01*
X136686840Y-124693589D01*
X136686851Y-124693605D01*
X136865948Y-124927009D01*
X136865954Y-124927016D01*
X137073983Y-125135045D01*
X137073989Y-125135050D01*
X137307403Y-125314155D01*
X137307410Y-125314159D01*
X137562189Y-125461257D01*
X137562205Y-125461265D01*
X137834005Y-125573847D01*
X137834007Y-125573847D01*
X137834013Y-125573850D01*
X138118200Y-125649998D01*
X138409894Y-125688400D01*
X138409901Y-125688400D01*
X138704099Y-125688400D01*
X138704106Y-125688400D01*
X138995800Y-125649998D01*
X139279987Y-125573850D01*
X139519897Y-125474477D01*
X139551794Y-125461265D01*
X139551797Y-125461263D01*
X139551803Y-125461261D01*
X139806597Y-125314155D01*
X140040011Y-125135050D01*
X140248050Y-124927011D01*
X140427155Y-124693597D01*
X140574261Y-124438803D01*
X140686850Y-124166987D01*
X140762998Y-123882800D01*
X140801400Y-123591106D01*
X140801400Y-123357312D01*
X142535600Y-123357312D01*
X142535600Y-123530687D01*
X142562720Y-123701913D01*
X142616290Y-123866788D01*
X142616291Y-123866791D01*
X142688015Y-124007556D01*
X142694998Y-124021260D01*
X142796899Y-124161514D01*
X142919486Y-124284101D01*
X143059740Y-124386002D01*
X143135502Y-124424604D01*
X143214208Y-124464708D01*
X143214211Y-124464709D01*
X143296648Y-124491494D01*
X143379088Y-124518280D01*
X143458391Y-124530840D01*
X143550313Y-124545400D01*
X143550318Y-124545400D01*
X143723687Y-124545400D01*
X143806695Y-124532252D01*
X143894912Y-124518280D01*
X144059791Y-124464708D01*
X144214260Y-124386002D01*
X144354514Y-124284101D01*
X144477101Y-124161514D01*
X144519143Y-124103648D01*
X146781500Y-124103648D01*
X146781500Y-124308351D01*
X146813522Y-124510534D01*
X146876781Y-124705223D01*
X146969715Y-124887613D01*
X147090028Y-125053213D01*
X147234786Y-125197971D01*
X147350709Y-125282192D01*
X147400390Y-125318287D01*
X147501633Y-125369873D01*
X147582776Y-125411218D01*
X147582778Y-125411218D01*
X147582781Y-125411220D01*
X147687137Y-125445127D01*
X147777465Y-125474477D01*
X147878557Y-125490488D01*
X147979648Y-125506500D01*
X147979649Y-125506500D01*
X148184351Y-125506500D01*
X148184352Y-125506500D01*
X148386534Y-125474477D01*
X148581219Y-125411220D01*
X148763610Y-125318287D01*
X148867630Y-125242713D01*
X148929213Y-125197971D01*
X148929215Y-125197968D01*
X148929219Y-125197966D01*
X149073966Y-125053219D01*
X149073968Y-125053215D01*
X149073971Y-125053213D01*
X149165657Y-124927016D01*
X149194287Y-124887610D01*
X149287220Y-124705219D01*
X149350477Y-124510534D01*
X149382500Y-124308352D01*
X149382500Y-124103648D01*
X149369451Y-124021260D01*
X149350477Y-123901465D01*
X149287218Y-123706776D01*
X149194287Y-123524390D01*
X149122317Y-123425331D01*
X149122316Y-123425328D01*
X149073971Y-123358787D01*
X149073967Y-123358782D01*
X149072497Y-123357312D01*
X151425600Y-123357312D01*
X151425600Y-123530687D01*
X151452720Y-123701913D01*
X151506290Y-123866788D01*
X151506291Y-123866791D01*
X151578015Y-124007556D01*
X151584998Y-124021260D01*
X151686899Y-124161514D01*
X151809486Y-124284101D01*
X151949740Y-124386002D01*
X152025502Y-124424604D01*
X152104208Y-124464708D01*
X152104211Y-124464709D01*
X152186648Y-124491494D01*
X152269088Y-124518280D01*
X152348391Y-124530840D01*
X152440313Y-124545400D01*
X152440318Y-124545400D01*
X152613687Y-124545400D01*
X152696695Y-124532252D01*
X152784912Y-124518280D01*
X152949791Y-124464708D01*
X153104260Y-124386002D01*
X153244514Y-124284101D01*
X153367101Y-124161514D01*
X153469002Y-124021260D01*
X153547708Y-123866791D01*
X153601280Y-123701912D01*
X153618830Y-123591105D01*
X153628400Y-123530687D01*
X153628400Y-123357312D01*
X153621260Y-123312233D01*
X153618831Y-123296900D01*
X155362600Y-123296900D01*
X155362600Y-123591105D01*
X155399780Y-123873523D01*
X155401002Y-123882800D01*
X155472607Y-124150034D01*
X155477152Y-124166994D01*
X155589734Y-124438794D01*
X155589742Y-124438810D01*
X155736840Y-124693589D01*
X155736851Y-124693605D01*
X155915948Y-124927009D01*
X155915954Y-124927016D01*
X156123983Y-125135045D01*
X156123989Y-125135050D01*
X156357403Y-125314155D01*
X156357410Y-125314159D01*
X156612189Y-125461257D01*
X156612205Y-125461265D01*
X156884005Y-125573847D01*
X156884007Y-125573847D01*
X156884013Y-125573850D01*
X157168200Y-125649998D01*
X157459894Y-125688400D01*
X157459901Y-125688400D01*
X157754099Y-125688400D01*
X157754106Y-125688400D01*
X158045800Y-125649998D01*
X158329987Y-125573850D01*
X158569897Y-125474477D01*
X158601794Y-125461265D01*
X158601797Y-125461263D01*
X158601803Y-125461261D01*
X158856597Y-125314155D01*
X159090011Y-125135050D01*
X159298050Y-124927011D01*
X159477155Y-124693597D01*
X159624261Y-124438803D01*
X159736850Y-124166987D01*
X159812998Y-123882800D01*
X159851400Y-123591106D01*
X159851400Y-123357312D01*
X161585600Y-123357312D01*
X161585600Y-123530687D01*
X161612720Y-123701913D01*
X161666290Y-123866788D01*
X161666291Y-123866791D01*
X161738015Y-124007556D01*
X161744998Y-124021260D01*
X161846899Y-124161514D01*
X161969486Y-124284101D01*
X162109740Y-124386002D01*
X162185502Y-124424604D01*
X162264208Y-124464708D01*
X162264211Y-124464709D01*
X162346648Y-124491494D01*
X162429088Y-124518280D01*
X162508391Y-124530840D01*
X162600313Y-124545400D01*
X162600318Y-124545400D01*
X162773687Y-124545400D01*
X162856695Y-124532252D01*
X162944912Y-124518280D01*
X163109791Y-124464708D01*
X163264260Y-124386002D01*
X163404514Y-124284101D01*
X163527101Y-124161514D01*
X163569143Y-124103648D01*
X165831500Y-124103648D01*
X165831500Y-124308351D01*
X165863522Y-124510534D01*
X165926781Y-124705223D01*
X166019715Y-124887613D01*
X166140028Y-125053213D01*
X166284786Y-125197971D01*
X166400709Y-125282192D01*
X166450390Y-125318287D01*
X166551633Y-125369873D01*
X166632776Y-125411218D01*
X166632778Y-125411218D01*
X166632781Y-125411220D01*
X166737137Y-125445127D01*
X166827465Y-125474477D01*
X166928557Y-125490488D01*
X167029648Y-125506500D01*
X167029649Y-125506500D01*
X167234351Y-125506500D01*
X167234352Y-125506500D01*
X167436534Y-125474477D01*
X167631219Y-125411220D01*
X167813610Y-125318287D01*
X167917630Y-125242713D01*
X167979213Y-125197971D01*
X167979215Y-125197968D01*
X167979219Y-125197966D01*
X168123966Y-125053219D01*
X168123968Y-125053215D01*
X168123971Y-125053213D01*
X168215657Y-124927016D01*
X168244287Y-124887610D01*
X168337220Y-124705219D01*
X168400477Y-124510534D01*
X168432500Y-124308352D01*
X168432500Y-124103648D01*
X168419451Y-124021260D01*
X168400477Y-123901465D01*
X168337218Y-123706776D01*
X168244287Y-123524390D01*
X168172317Y-123425331D01*
X168172316Y-123425328D01*
X168123971Y-123358787D01*
X168123967Y-123358782D01*
X168122497Y-123357312D01*
X170475600Y-123357312D01*
X170475600Y-123530687D01*
X170502720Y-123701913D01*
X170556290Y-123866788D01*
X170556291Y-123866791D01*
X170628015Y-124007556D01*
X170634998Y-124021260D01*
X170736899Y-124161514D01*
X170859486Y-124284101D01*
X170999740Y-124386002D01*
X171075502Y-124424604D01*
X171154208Y-124464708D01*
X171154211Y-124464709D01*
X171236648Y-124491494D01*
X171319088Y-124518280D01*
X171398391Y-124530840D01*
X171490313Y-124545400D01*
X171490318Y-124545400D01*
X171663687Y-124545400D01*
X171746695Y-124532252D01*
X171834912Y-124518280D01*
X171999791Y-124464708D01*
X172154260Y-124386002D01*
X172294514Y-124284101D01*
X172417101Y-124161514D01*
X172519002Y-124021260D01*
X172597708Y-123866791D01*
X172651280Y-123701912D01*
X172668830Y-123591105D01*
X172678400Y-123530687D01*
X172678400Y-123357312D01*
X172671260Y-123312233D01*
X172668831Y-123296900D01*
X174412600Y-123296900D01*
X174412600Y-123591105D01*
X174449780Y-123873523D01*
X174451002Y-123882800D01*
X174522607Y-124150034D01*
X174527152Y-124166994D01*
X174639734Y-124438794D01*
X174639742Y-124438810D01*
X174786840Y-124693589D01*
X174786851Y-124693605D01*
X174965948Y-124927009D01*
X174965954Y-124927016D01*
X175173983Y-125135045D01*
X175173989Y-125135050D01*
X175407403Y-125314155D01*
X175407410Y-125314159D01*
X175662189Y-125461257D01*
X175662205Y-125461265D01*
X175934005Y-125573847D01*
X175934007Y-125573847D01*
X175934013Y-125573850D01*
X176218200Y-125649998D01*
X176509894Y-125688400D01*
X176509901Y-125688400D01*
X176804099Y-125688400D01*
X176804106Y-125688400D01*
X177095800Y-125649998D01*
X177379987Y-125573850D01*
X177619897Y-125474477D01*
X177651794Y-125461265D01*
X177651797Y-125461263D01*
X177651803Y-125461261D01*
X177906597Y-125314155D01*
X178140011Y-125135050D01*
X178348050Y-124927011D01*
X178527155Y-124693597D01*
X178674261Y-124438803D01*
X178786850Y-124166987D01*
X178862998Y-123882800D01*
X178901400Y-123591106D01*
X178901400Y-123357312D01*
X180635600Y-123357312D01*
X180635600Y-123530687D01*
X180662720Y-123701913D01*
X180716290Y-123866788D01*
X180716291Y-123866791D01*
X180788015Y-124007556D01*
X180794998Y-124021260D01*
X180896899Y-124161514D01*
X181019486Y-124284101D01*
X181159740Y-124386002D01*
X181235502Y-124424604D01*
X181314208Y-124464708D01*
X181314211Y-124464709D01*
X181396648Y-124491494D01*
X181479088Y-124518280D01*
X181558391Y-124530840D01*
X181650313Y-124545400D01*
X181650318Y-124545400D01*
X181823687Y-124545400D01*
X181906695Y-124532252D01*
X181994912Y-124518280D01*
X182159791Y-124464708D01*
X182314260Y-124386002D01*
X182454514Y-124284101D01*
X182577101Y-124161514D01*
X182679002Y-124021260D01*
X182757708Y-123866791D01*
X182811280Y-123701912D01*
X182828830Y-123591105D01*
X182838400Y-123530687D01*
X182838400Y-123357312D01*
X182815705Y-123214028D01*
X182811280Y-123186088D01*
X182757708Y-123021209D01*
X182757708Y-123021208D01*
X182715067Y-122937522D01*
X182679002Y-122866740D01*
X182577101Y-122726486D01*
X182454514Y-122603899D01*
X182314260Y-122501998D01*
X182159791Y-122423291D01*
X182159788Y-122423290D01*
X181994913Y-122369720D01*
X181823687Y-122342600D01*
X181823682Y-122342600D01*
X181650318Y-122342600D01*
X181650313Y-122342600D01*
X181479086Y-122369720D01*
X181314211Y-122423290D01*
X181314208Y-122423291D01*
X181159739Y-122501998D01*
X181128405Y-122524764D01*
X181019486Y-122603899D01*
X181019484Y-122603901D01*
X181019483Y-122603901D01*
X180896901Y-122726483D01*
X180896901Y-122726484D01*
X180896899Y-122726486D01*
X180866231Y-122768697D01*
X180794998Y-122866739D01*
X180716291Y-123021208D01*
X180716290Y-123021211D01*
X180662720Y-123186086D01*
X180635600Y-123357312D01*
X178901400Y-123357312D01*
X178901400Y-123296894D01*
X178862998Y-123005200D01*
X178786850Y-122721013D01*
X178759300Y-122654500D01*
X178674265Y-122449205D01*
X178674257Y-122449189D01*
X178527159Y-122194410D01*
X178527155Y-122194403D01*
X178475592Y-122127205D01*
X178348051Y-121960990D01*
X178348045Y-121960983D01*
X178140016Y-121752954D01*
X178140009Y-121752948D01*
X177906605Y-121573851D01*
X177906603Y-121573849D01*
X177906597Y-121573845D01*
X177906592Y-121573842D01*
X177906589Y-121573840D01*
X177651810Y-121426742D01*
X177651794Y-121426734D01*
X177379994Y-121314152D01*
X177323834Y-121299104D01*
X177095800Y-121238002D01*
X177095799Y-121238001D01*
X177095796Y-121238001D01*
X176804116Y-121199601D01*
X176804111Y-121199600D01*
X176804106Y-121199600D01*
X176509894Y-121199600D01*
X176509888Y-121199600D01*
X176509883Y-121199601D01*
X176218203Y-121238001D01*
X175934005Y-121314152D01*
X175662205Y-121426734D01*
X175662189Y-121426742D01*
X175407410Y-121573840D01*
X175407394Y-121573851D01*
X175173990Y-121752948D01*
X175173983Y-121752954D01*
X174965954Y-121960983D01*
X174965948Y-121960990D01*
X174786851Y-122194394D01*
X174786840Y-122194410D01*
X174639742Y-122449189D01*
X174639734Y-122449205D01*
X174527152Y-122721005D01*
X174451001Y-123005203D01*
X174412601Y-123296883D01*
X174412600Y-123296900D01*
X172668831Y-123296900D01*
X172655705Y-123214028D01*
X172651280Y-123186088D01*
X172597708Y-123021209D01*
X172597708Y-123021208D01*
X172519001Y-122866738D01*
X172495580Y-122834503D01*
X172472099Y-122768697D01*
X172487924Y-122700642D01*
X172538029Y-122651947D01*
X172606507Y-122638071D01*
X172612068Y-122638675D01*
X172732266Y-122654500D01*
X172732273Y-122654500D01*
X172961727Y-122654500D01*
X172961734Y-122654500D01*
X173189238Y-122624548D01*
X173410887Y-122565158D01*
X173622888Y-122477344D01*
X173821612Y-122362611D01*
X174003661Y-122222919D01*
X174003665Y-122222914D01*
X174003670Y-122222911D01*
X174165911Y-122060670D01*
X174165914Y-122060665D01*
X174165919Y-122060661D01*
X174305611Y-121878612D01*
X174420344Y-121679888D01*
X174508158Y-121467887D01*
X174567548Y-121246238D01*
X174597500Y-121018734D01*
X174597500Y-120789266D01*
X174567548Y-120561762D01*
X174508158Y-120340113D01*
X174447910Y-120194661D01*
X174420349Y-120128123D01*
X174420346Y-120128117D01*
X174420344Y-120128112D01*
X174305611Y-119929388D01*
X174305608Y-119929385D01*
X174305607Y-119929382D01*
X174165918Y-119747338D01*
X174165911Y-119747330D01*
X174003670Y-119585089D01*
X174003661Y-119585081D01*
X173821617Y-119445392D01*
X173622890Y-119330657D01*
X173622876Y-119330650D01*
X173410887Y-119242842D01*
X173396138Y-119238890D01*
X173189238Y-119183452D01*
X173151215Y-119178446D01*
X172961741Y-119153500D01*
X172961734Y-119153500D01*
X172732266Y-119153500D01*
X172732258Y-119153500D01*
X172515715Y-119182009D01*
X172504762Y-119183452D01*
X172411076Y-119208554D01*
X172283112Y-119242842D01*
X172071123Y-119330650D01*
X172071109Y-119330657D01*
X171872382Y-119445392D01*
X171690338Y-119585081D01*
X171528081Y-119747338D01*
X171388392Y-119929382D01*
X171273657Y-120128109D01*
X171273650Y-120128123D01*
X171185842Y-120340112D01*
X171176417Y-120375287D01*
X171144193Y-120495553D01*
X171126453Y-120561759D01*
X171126451Y-120561770D01*
X171096500Y-120789258D01*
X171096500Y-121018741D01*
X171120312Y-121199600D01*
X171126452Y-121246238D01*
X171153385Y-121346755D01*
X171185842Y-121467887D01*
X171273650Y-121679876D01*
X171273657Y-121679890D01*
X171388392Y-121878617D01*
X171528081Y-122060661D01*
X171528089Y-122060670D01*
X171598338Y-122130919D01*
X171631823Y-122192242D01*
X171626839Y-122261934D01*
X171584967Y-122317867D01*
X171519503Y-122342284D01*
X171510657Y-122342600D01*
X171490313Y-122342600D01*
X171319086Y-122369720D01*
X171154211Y-122423290D01*
X171154208Y-122423291D01*
X170999739Y-122501998D01*
X170968405Y-122524764D01*
X170859486Y-122603899D01*
X170859484Y-122603901D01*
X170859483Y-122603901D01*
X170736901Y-122726483D01*
X170736901Y-122726484D01*
X170736899Y-122726486D01*
X170706231Y-122768697D01*
X170634998Y-122866739D01*
X170556291Y-123021208D01*
X170556290Y-123021211D01*
X170502720Y-123186086D01*
X170475600Y-123357312D01*
X168122497Y-123357312D01*
X167979213Y-123214028D01*
X167813613Y-123093715D01*
X167813612Y-123093714D01*
X167813610Y-123093713D01*
X167756653Y-123064691D01*
X167631223Y-123000781D01*
X167436534Y-122937522D01*
X167261995Y-122909878D01*
X167234352Y-122905500D01*
X167029648Y-122905500D01*
X167005329Y-122909351D01*
X166827465Y-122937522D01*
X166632776Y-123000781D01*
X166450386Y-123093715D01*
X166284786Y-123214028D01*
X166140028Y-123358786D01*
X166019715Y-123524386D01*
X165926781Y-123706776D01*
X165863522Y-123901465D01*
X165831500Y-124103648D01*
X163569143Y-124103648D01*
X163629002Y-124021260D01*
X163707708Y-123866791D01*
X163761280Y-123701912D01*
X163778830Y-123591105D01*
X163788400Y-123530687D01*
X163788400Y-123357312D01*
X163765705Y-123214028D01*
X163761280Y-123186088D01*
X163707708Y-123021209D01*
X163707708Y-123021208D01*
X163665067Y-122937522D01*
X163629002Y-122866740D01*
X163527101Y-122726486D01*
X163404514Y-122603899D01*
X163264260Y-122501998D01*
X163109791Y-122423291D01*
X163109788Y-122423290D01*
X162944913Y-122369720D01*
X162773687Y-122342600D01*
X162773682Y-122342600D01*
X162600318Y-122342600D01*
X162600313Y-122342600D01*
X162429086Y-122369720D01*
X162264211Y-122423290D01*
X162264208Y-122423291D01*
X162109739Y-122501998D01*
X162078405Y-122524764D01*
X161969486Y-122603899D01*
X161969484Y-122603901D01*
X161969483Y-122603901D01*
X161846901Y-122726483D01*
X161846901Y-122726484D01*
X161846899Y-122726486D01*
X161816231Y-122768697D01*
X161744998Y-122866739D01*
X161666291Y-123021208D01*
X161666290Y-123021211D01*
X161612720Y-123186086D01*
X161585600Y-123357312D01*
X159851400Y-123357312D01*
X159851400Y-123296894D01*
X159812998Y-123005200D01*
X159736850Y-122721013D01*
X159709300Y-122654500D01*
X159624265Y-122449205D01*
X159624257Y-122449189D01*
X159477159Y-122194410D01*
X159477155Y-122194403D01*
X159425592Y-122127205D01*
X159298051Y-121960990D01*
X159298045Y-121960983D01*
X159090016Y-121752954D01*
X159090009Y-121752948D01*
X158856605Y-121573851D01*
X158856603Y-121573849D01*
X158856597Y-121573845D01*
X158856592Y-121573842D01*
X158856589Y-121573840D01*
X158601810Y-121426742D01*
X158601794Y-121426734D01*
X158329994Y-121314152D01*
X158273834Y-121299104D01*
X158045800Y-121238002D01*
X158045799Y-121238001D01*
X158045796Y-121238001D01*
X157754116Y-121199601D01*
X157754111Y-121199600D01*
X157754106Y-121199600D01*
X157459894Y-121199600D01*
X157459888Y-121199600D01*
X157459883Y-121199601D01*
X157168203Y-121238001D01*
X156884005Y-121314152D01*
X156612205Y-121426734D01*
X156612189Y-121426742D01*
X156357410Y-121573840D01*
X156357394Y-121573851D01*
X156123990Y-121752948D01*
X156123983Y-121752954D01*
X155915954Y-121960983D01*
X155915948Y-121960990D01*
X155736851Y-122194394D01*
X155736840Y-122194410D01*
X155589742Y-122449189D01*
X155589734Y-122449205D01*
X155477152Y-122721005D01*
X155401001Y-123005203D01*
X155362601Y-123296883D01*
X155362600Y-123296900D01*
X153618831Y-123296900D01*
X153605705Y-123214028D01*
X153601280Y-123186088D01*
X153547708Y-123021209D01*
X153547708Y-123021208D01*
X153469001Y-122866738D01*
X153445580Y-122834503D01*
X153422099Y-122768697D01*
X153437924Y-122700642D01*
X153488029Y-122651947D01*
X153556507Y-122638071D01*
X153562068Y-122638675D01*
X153682266Y-122654500D01*
X153682273Y-122654500D01*
X153911727Y-122654500D01*
X153911734Y-122654500D01*
X154139238Y-122624548D01*
X154360887Y-122565158D01*
X154572888Y-122477344D01*
X154771612Y-122362611D01*
X154953661Y-122222919D01*
X154953665Y-122222914D01*
X154953670Y-122222911D01*
X155115911Y-122060670D01*
X155115914Y-122060665D01*
X155115919Y-122060661D01*
X155255611Y-121878612D01*
X155370344Y-121679888D01*
X155458158Y-121467887D01*
X155517548Y-121246238D01*
X155547500Y-121018734D01*
X155547500Y-120789266D01*
X155517548Y-120561762D01*
X155458158Y-120340113D01*
X155397910Y-120194661D01*
X155370349Y-120128123D01*
X155370346Y-120128117D01*
X155370344Y-120128112D01*
X155255611Y-119929388D01*
X155255608Y-119929385D01*
X155255607Y-119929382D01*
X155115918Y-119747338D01*
X155115911Y-119747330D01*
X154953670Y-119585089D01*
X154953661Y-119585081D01*
X154771617Y-119445392D01*
X154572890Y-119330657D01*
X154572876Y-119330650D01*
X154360887Y-119242842D01*
X154346138Y-119238890D01*
X154139238Y-119183452D01*
X154101215Y-119178446D01*
X153911741Y-119153500D01*
X153911734Y-119153500D01*
X153682266Y-119153500D01*
X153682258Y-119153500D01*
X153465715Y-119182009D01*
X153454762Y-119183452D01*
X153361076Y-119208554D01*
X153233112Y-119242842D01*
X153021123Y-119330650D01*
X153021109Y-119330657D01*
X152822382Y-119445392D01*
X152640338Y-119585081D01*
X152478081Y-119747338D01*
X152338392Y-119929382D01*
X152223657Y-120128109D01*
X152223650Y-120128123D01*
X152135842Y-120340112D01*
X152126417Y-120375287D01*
X152094193Y-120495553D01*
X152076453Y-120561759D01*
X152076451Y-120561770D01*
X152046500Y-120789258D01*
X152046500Y-121018741D01*
X152070312Y-121199600D01*
X152076452Y-121246238D01*
X152103385Y-121346755D01*
X152135842Y-121467887D01*
X152223650Y-121679876D01*
X152223657Y-121679890D01*
X152338392Y-121878617D01*
X152478081Y-122060661D01*
X152478089Y-122060670D01*
X152548338Y-122130919D01*
X152581823Y-122192242D01*
X152576839Y-122261934D01*
X152534967Y-122317867D01*
X152469503Y-122342284D01*
X152460657Y-122342600D01*
X152440313Y-122342600D01*
X152269086Y-122369720D01*
X152104211Y-122423290D01*
X152104208Y-122423291D01*
X151949739Y-122501998D01*
X151918405Y-122524764D01*
X151809486Y-122603899D01*
X151809484Y-122603901D01*
X151809483Y-122603901D01*
X151686901Y-122726483D01*
X151686901Y-122726484D01*
X151686899Y-122726486D01*
X151656231Y-122768697D01*
X151584998Y-122866739D01*
X151506291Y-123021208D01*
X151506290Y-123021211D01*
X151452720Y-123186086D01*
X151425600Y-123357312D01*
X149072497Y-123357312D01*
X148929213Y-123214028D01*
X148763613Y-123093715D01*
X148763612Y-123093714D01*
X148763610Y-123093713D01*
X148706653Y-123064691D01*
X148581223Y-123000781D01*
X148386534Y-122937522D01*
X148211995Y-122909878D01*
X148184352Y-122905500D01*
X147979648Y-122905500D01*
X147955329Y-122909351D01*
X147777465Y-122937522D01*
X147582776Y-123000781D01*
X147400386Y-123093715D01*
X147234786Y-123214028D01*
X147090028Y-123358786D01*
X146969715Y-123524386D01*
X146876781Y-123706776D01*
X146813522Y-123901465D01*
X146781500Y-124103648D01*
X144519143Y-124103648D01*
X144579002Y-124021260D01*
X144657708Y-123866791D01*
X144711280Y-123701912D01*
X144728830Y-123591105D01*
X144738400Y-123530687D01*
X144738400Y-123357312D01*
X144715705Y-123214028D01*
X144711280Y-123186088D01*
X144657708Y-123021209D01*
X144657708Y-123021208D01*
X144615067Y-122937522D01*
X144579002Y-122866740D01*
X144477101Y-122726486D01*
X144354514Y-122603899D01*
X144214260Y-122501998D01*
X144059791Y-122423291D01*
X144059788Y-122423290D01*
X143894913Y-122369720D01*
X143723687Y-122342600D01*
X143723682Y-122342600D01*
X143550318Y-122342600D01*
X143550313Y-122342600D01*
X143379086Y-122369720D01*
X143214211Y-122423290D01*
X143214208Y-122423291D01*
X143059739Y-122501998D01*
X143028405Y-122524764D01*
X142919486Y-122603899D01*
X142919484Y-122603901D01*
X142919483Y-122603901D01*
X142796901Y-122726483D01*
X142796901Y-122726484D01*
X142796899Y-122726486D01*
X142766231Y-122768697D01*
X142694998Y-122866739D01*
X142616291Y-123021208D01*
X142616290Y-123021211D01*
X142562720Y-123186086D01*
X142535600Y-123357312D01*
X140801400Y-123357312D01*
X140801400Y-123296894D01*
X140762998Y-123005200D01*
X140686850Y-122721013D01*
X140659300Y-122654500D01*
X140574265Y-122449205D01*
X140574257Y-122449189D01*
X140427159Y-122194410D01*
X140427155Y-122194403D01*
X140375592Y-122127205D01*
X140248051Y-121960990D01*
X140248045Y-121960983D01*
X140040016Y-121752954D01*
X140040009Y-121752948D01*
X139806605Y-121573851D01*
X139806603Y-121573849D01*
X139806597Y-121573845D01*
X139806592Y-121573842D01*
X139806589Y-121573840D01*
X139551810Y-121426742D01*
X139551794Y-121426734D01*
X139279994Y-121314152D01*
X139223834Y-121299104D01*
X138995800Y-121238002D01*
X138995799Y-121238001D01*
X138995796Y-121238001D01*
X138704116Y-121199601D01*
X138704111Y-121199600D01*
X138704106Y-121199600D01*
X138409894Y-121199600D01*
X138409888Y-121199600D01*
X138409883Y-121199601D01*
X138118203Y-121238001D01*
X137834005Y-121314152D01*
X137562205Y-121426734D01*
X137562189Y-121426742D01*
X137307410Y-121573840D01*
X137307394Y-121573851D01*
X137073990Y-121752948D01*
X137073983Y-121752954D01*
X136865954Y-121960983D01*
X136865948Y-121960990D01*
X136686851Y-122194394D01*
X136686840Y-122194410D01*
X136539742Y-122449189D01*
X136539734Y-122449205D01*
X136427152Y-122721005D01*
X136351001Y-123005203D01*
X136312601Y-123296883D01*
X136312600Y-123296900D01*
X134568831Y-123296900D01*
X134555705Y-123214028D01*
X134551280Y-123186088D01*
X134497708Y-123021209D01*
X134497708Y-123021208D01*
X134419001Y-122866738D01*
X134395580Y-122834503D01*
X134372099Y-122768697D01*
X134387924Y-122700642D01*
X134438029Y-122651947D01*
X134506507Y-122638071D01*
X134512068Y-122638675D01*
X134632266Y-122654500D01*
X134632273Y-122654500D01*
X134861727Y-122654500D01*
X134861734Y-122654500D01*
X135089238Y-122624548D01*
X135310887Y-122565158D01*
X135522888Y-122477344D01*
X135721612Y-122362611D01*
X135903661Y-122222919D01*
X135903665Y-122222914D01*
X135903670Y-122222911D01*
X136065911Y-122060670D01*
X136065914Y-122060665D01*
X136065919Y-122060661D01*
X136205611Y-121878612D01*
X136320344Y-121679888D01*
X136408158Y-121467887D01*
X136467548Y-121246238D01*
X136497500Y-121018734D01*
X136497500Y-120789266D01*
X136467548Y-120561762D01*
X136408158Y-120340113D01*
X136347910Y-120194661D01*
X136320349Y-120128123D01*
X136320346Y-120128117D01*
X136320344Y-120128112D01*
X136205611Y-119929388D01*
X136205608Y-119929385D01*
X136205607Y-119929382D01*
X136065918Y-119747338D01*
X136065911Y-119747330D01*
X135903670Y-119585089D01*
X135903661Y-119585081D01*
X135721617Y-119445392D01*
X135522890Y-119330657D01*
X135522876Y-119330650D01*
X135310887Y-119242842D01*
X135296138Y-119238890D01*
X135089238Y-119183452D01*
X135051215Y-119178446D01*
X134861741Y-119153500D01*
X134861734Y-119153500D01*
X134632266Y-119153500D01*
X134632258Y-119153500D01*
X134415715Y-119182009D01*
X134404762Y-119183452D01*
X134311076Y-119208554D01*
X134183112Y-119242842D01*
X133971123Y-119330650D01*
X133971109Y-119330657D01*
X133772382Y-119445392D01*
X133590338Y-119585081D01*
X133428081Y-119747338D01*
X133288392Y-119929382D01*
X133173657Y-120128109D01*
X133173650Y-120128123D01*
X133085842Y-120340112D01*
X133076417Y-120375287D01*
X133044193Y-120495553D01*
X133026453Y-120561759D01*
X133026451Y-120561770D01*
X132996500Y-120789258D01*
X132996500Y-121018741D01*
X133020312Y-121199600D01*
X133026452Y-121246238D01*
X133053385Y-121346755D01*
X133085842Y-121467887D01*
X133173650Y-121679876D01*
X133173657Y-121679890D01*
X133288392Y-121878617D01*
X133428081Y-122060661D01*
X133428089Y-122060670D01*
X133498338Y-122130919D01*
X133531823Y-122192242D01*
X133526839Y-122261934D01*
X133484967Y-122317867D01*
X133419503Y-122342284D01*
X133410657Y-122342600D01*
X133390313Y-122342600D01*
X133219086Y-122369720D01*
X133054211Y-122423290D01*
X133054208Y-122423291D01*
X132899739Y-122501998D01*
X132868405Y-122524764D01*
X132759486Y-122603899D01*
X132759484Y-122603901D01*
X132759483Y-122603901D01*
X132636901Y-122726483D01*
X132636901Y-122726484D01*
X132636899Y-122726486D01*
X132606231Y-122768697D01*
X132534998Y-122866739D01*
X132456291Y-123021208D01*
X132456290Y-123021211D01*
X132402720Y-123186086D01*
X132375600Y-123357312D01*
X130022497Y-123357312D01*
X129879213Y-123214028D01*
X129713613Y-123093715D01*
X129713612Y-123093714D01*
X129713610Y-123093713D01*
X129656653Y-123064691D01*
X129531223Y-123000781D01*
X129336534Y-122937522D01*
X129161995Y-122909878D01*
X129134352Y-122905500D01*
X128929648Y-122905500D01*
X128905329Y-122909351D01*
X128727465Y-122937522D01*
X128532776Y-123000781D01*
X128350386Y-123093715D01*
X128184786Y-123214028D01*
X128040028Y-123358786D01*
X127919715Y-123524386D01*
X127826781Y-123706776D01*
X127763522Y-123901465D01*
X127731500Y-124103648D01*
X122628500Y-124103648D01*
X122628500Y-118249258D01*
X139346500Y-118249258D01*
X139346500Y-118478741D01*
X139371446Y-118668215D01*
X139376452Y-118706238D01*
X139390619Y-118759109D01*
X139435842Y-118927887D01*
X139523650Y-119139876D01*
X139523657Y-119139890D01*
X139638392Y-119338617D01*
X139778081Y-119520661D01*
X139778089Y-119520670D01*
X139940330Y-119682911D01*
X139940338Y-119682918D01*
X140122382Y-119822607D01*
X140122385Y-119822608D01*
X140122388Y-119822611D01*
X140321112Y-119937344D01*
X140321117Y-119937346D01*
X140321123Y-119937349D01*
X140358322Y-119952757D01*
X140533113Y-120025158D01*
X140754762Y-120084548D01*
X140982266Y-120114500D01*
X140982273Y-120114500D01*
X141211727Y-120114500D01*
X141211734Y-120114500D01*
X141439238Y-120084548D01*
X141660887Y-120025158D01*
X141872888Y-119937344D01*
X142071612Y-119822611D01*
X142253661Y-119682919D01*
X142253665Y-119682914D01*
X142253670Y-119682911D01*
X142415911Y-119520670D01*
X142415914Y-119520665D01*
X142415919Y-119520661D01*
X142555611Y-119338612D01*
X142670344Y-119139888D01*
X142758158Y-118927887D01*
X142817548Y-118706238D01*
X142847500Y-118478734D01*
X142847500Y-118249266D01*
X142847499Y-118249258D01*
X158396500Y-118249258D01*
X158396500Y-118478741D01*
X158421446Y-118668215D01*
X158426452Y-118706238D01*
X158440619Y-118759109D01*
X158485842Y-118927887D01*
X158573650Y-119139876D01*
X158573657Y-119139890D01*
X158688392Y-119338617D01*
X158828081Y-119520661D01*
X158828089Y-119520670D01*
X158990330Y-119682911D01*
X158990338Y-119682918D01*
X159172382Y-119822607D01*
X159172385Y-119822608D01*
X159172388Y-119822611D01*
X159371112Y-119937344D01*
X159371117Y-119937346D01*
X159371123Y-119937349D01*
X159408322Y-119952757D01*
X159583113Y-120025158D01*
X159804762Y-120084548D01*
X160032266Y-120114500D01*
X160032273Y-120114500D01*
X160261727Y-120114500D01*
X160261734Y-120114500D01*
X160489238Y-120084548D01*
X160710887Y-120025158D01*
X160922888Y-119937344D01*
X161121612Y-119822611D01*
X161303661Y-119682919D01*
X161303665Y-119682914D01*
X161303670Y-119682911D01*
X161465911Y-119520670D01*
X161465914Y-119520665D01*
X161465919Y-119520661D01*
X161605611Y-119338612D01*
X161720344Y-119139888D01*
X161808158Y-118927887D01*
X161867548Y-118706238D01*
X161897500Y-118478734D01*
X161897500Y-118249266D01*
X161897499Y-118249258D01*
X177446500Y-118249258D01*
X177446500Y-118478741D01*
X177471446Y-118668215D01*
X177476452Y-118706238D01*
X177490619Y-118759109D01*
X177535842Y-118927887D01*
X177623650Y-119139876D01*
X177623657Y-119139890D01*
X177738392Y-119338617D01*
X177878081Y-119520661D01*
X177878089Y-119520670D01*
X178040330Y-119682911D01*
X178040338Y-119682918D01*
X178222382Y-119822607D01*
X178222385Y-119822608D01*
X178222388Y-119822611D01*
X178421112Y-119937344D01*
X178421117Y-119937346D01*
X178421123Y-119937349D01*
X178458322Y-119952757D01*
X178633113Y-120025158D01*
X178854762Y-120084548D01*
X179082266Y-120114500D01*
X179082273Y-120114500D01*
X179311727Y-120114500D01*
X179311734Y-120114500D01*
X179539238Y-120084548D01*
X179760887Y-120025158D01*
X179972888Y-119937344D01*
X180171612Y-119822611D01*
X180353661Y-119682919D01*
X180353665Y-119682914D01*
X180353670Y-119682911D01*
X180515911Y-119520670D01*
X180515914Y-119520665D01*
X180515919Y-119520661D01*
X180655611Y-119338612D01*
X180770344Y-119139888D01*
X180858158Y-118927887D01*
X180917548Y-118706238D01*
X180947500Y-118478734D01*
X180947500Y-118249266D01*
X180917548Y-118021762D01*
X180858158Y-117800113D01*
X180808190Y-117679480D01*
X180770349Y-117588123D01*
X180770346Y-117588117D01*
X180770344Y-117588112D01*
X180655611Y-117389388D01*
X180655608Y-117389385D01*
X180655607Y-117389382D01*
X180515918Y-117207338D01*
X180515911Y-117207330D01*
X180353670Y-117045089D01*
X180353661Y-117045081D01*
X180171617Y-116905392D01*
X179972890Y-116790657D01*
X179972876Y-116790650D01*
X179760887Y-116702842D01*
X179710235Y-116689270D01*
X179539238Y-116643452D01*
X179501215Y-116638446D01*
X179311741Y-116613500D01*
X179311734Y-116613500D01*
X179082266Y-116613500D01*
X179082258Y-116613500D01*
X178865715Y-116642009D01*
X178854762Y-116643452D01*
X178761076Y-116668554D01*
X178633112Y-116702842D01*
X178421123Y-116790650D01*
X178421109Y-116790657D01*
X178222382Y-116905392D01*
X178040338Y-117045081D01*
X177878081Y-117207338D01*
X177738392Y-117389382D01*
X177623657Y-117588109D01*
X177623650Y-117588123D01*
X177535842Y-117800112D01*
X177476453Y-118021759D01*
X177476451Y-118021770D01*
X177446500Y-118249258D01*
X161897499Y-118249258D01*
X161867548Y-118021762D01*
X161808158Y-117800113D01*
X161758190Y-117679480D01*
X161720349Y-117588123D01*
X161720346Y-117588117D01*
X161720344Y-117588112D01*
X161605611Y-117389388D01*
X161605608Y-117389385D01*
X161605607Y-117389382D01*
X161465918Y-117207338D01*
X161465911Y-117207330D01*
X161303670Y-117045089D01*
X161303661Y-117045081D01*
X161121617Y-116905392D01*
X160922890Y-116790657D01*
X160922876Y-116790650D01*
X160710887Y-116702842D01*
X160660235Y-116689270D01*
X160489238Y-116643452D01*
X160451215Y-116638446D01*
X160261741Y-116613500D01*
X160261734Y-116613500D01*
X160032266Y-116613500D01*
X160032258Y-116613500D01*
X159815715Y-116642009D01*
X159804762Y-116643452D01*
X159711076Y-116668554D01*
X159583112Y-116702842D01*
X159371123Y-116790650D01*
X159371109Y-116790657D01*
X159172382Y-116905392D01*
X158990338Y-117045081D01*
X158828081Y-117207338D01*
X158688392Y-117389382D01*
X158573657Y-117588109D01*
X158573650Y-117588123D01*
X158485842Y-117800112D01*
X158426453Y-118021759D01*
X158426451Y-118021770D01*
X158396500Y-118249258D01*
X142847499Y-118249258D01*
X142817548Y-118021762D01*
X142758158Y-117800113D01*
X142708190Y-117679480D01*
X142670349Y-117588123D01*
X142670346Y-117588117D01*
X142670344Y-117588112D01*
X142555611Y-117389388D01*
X142555608Y-117389385D01*
X142555607Y-117389382D01*
X142415918Y-117207338D01*
X142415911Y-117207330D01*
X142253670Y-117045089D01*
X142253661Y-117045081D01*
X142071617Y-116905392D01*
X141872890Y-116790657D01*
X141872876Y-116790650D01*
X141660887Y-116702842D01*
X141610235Y-116689270D01*
X141439238Y-116643452D01*
X141401215Y-116638446D01*
X141211741Y-116613500D01*
X141211734Y-116613500D01*
X140982266Y-116613500D01*
X140982258Y-116613500D01*
X140765715Y-116642009D01*
X140754762Y-116643452D01*
X140661076Y-116668554D01*
X140533112Y-116702842D01*
X140321123Y-116790650D01*
X140321109Y-116790657D01*
X140122382Y-116905392D01*
X139940338Y-117045081D01*
X139778081Y-117207338D01*
X139638392Y-117389382D01*
X139523657Y-117588109D01*
X139523650Y-117588123D01*
X139435842Y-117800112D01*
X139376453Y-118021759D01*
X139376451Y-118021770D01*
X139346500Y-118249258D01*
X122628500Y-118249258D01*
X122628500Y-111928135D01*
X127731500Y-111928135D01*
X127731500Y-113623870D01*
X127731501Y-113623876D01*
X127737908Y-113683483D01*
X127788202Y-113818328D01*
X127788206Y-113818335D01*
X127874452Y-113933544D01*
X127874455Y-113933547D01*
X127989664Y-114019793D01*
X127989671Y-114019797D01*
X128124517Y-114070091D01*
X128124516Y-114070091D01*
X128131444Y-114070835D01*
X128184127Y-114076500D01*
X129879872Y-114076499D01*
X129939483Y-114070091D01*
X130074331Y-114019796D01*
X130189546Y-113933546D01*
X130275796Y-113818331D01*
X130326091Y-113683483D01*
X130332500Y-113623873D01*
X130332500Y-113550500D01*
X130352185Y-113483461D01*
X130404989Y-113437706D01*
X130456500Y-113426500D01*
X146657501Y-113426500D01*
X146724540Y-113446185D01*
X146770295Y-113498989D01*
X146781501Y-113550500D01*
X146781501Y-113623876D01*
X146787908Y-113683483D01*
X146838202Y-113818328D01*
X146838206Y-113818335D01*
X146924452Y-113933544D01*
X146924455Y-113933547D01*
X147039664Y-114019793D01*
X147039671Y-114019797D01*
X147174517Y-114070091D01*
X147174516Y-114070091D01*
X147181444Y-114070835D01*
X147234127Y-114076500D01*
X148929872Y-114076499D01*
X148989483Y-114070091D01*
X149124331Y-114019796D01*
X149239546Y-113933546D01*
X149325796Y-113818331D01*
X149376091Y-113683483D01*
X149382500Y-113623873D01*
X149382500Y-113550500D01*
X149402185Y-113483461D01*
X149454989Y-113437706D01*
X149506500Y-113426500D01*
X165707501Y-113426500D01*
X165774540Y-113446185D01*
X165820295Y-113498989D01*
X165831501Y-113550500D01*
X165831501Y-113623876D01*
X165837908Y-113683483D01*
X165888202Y-113818328D01*
X165888206Y-113818335D01*
X165974452Y-113933544D01*
X165974455Y-113933547D01*
X166089664Y-114019793D01*
X166089671Y-114019797D01*
X166224517Y-114070091D01*
X166224516Y-114070091D01*
X166231444Y-114070835D01*
X166284127Y-114076500D01*
X167979872Y-114076499D01*
X168039483Y-114070091D01*
X168174331Y-114019796D01*
X168289546Y-113933546D01*
X168375796Y-113818331D01*
X168426091Y-113683483D01*
X168432500Y-113623873D01*
X168432500Y-113550500D01*
X168452185Y-113483461D01*
X168504989Y-113437706D01*
X168556500Y-113426500D01*
X185484071Y-113426500D01*
X185568615Y-113409682D01*
X185609744Y-113401501D01*
X185728127Y-113352465D01*
X185734706Y-113348069D01*
X185834669Y-113281277D01*
X193400127Y-105715819D01*
X193461450Y-105682334D01*
X193487808Y-105679500D01*
X194828382Y-105679500D01*
X194895421Y-105699185D01*
X194929099Y-105733591D01*
X194930085Y-105732875D01*
X195057890Y-105908786D01*
X195208213Y-106059109D01*
X195380182Y-106184050D01*
X195388946Y-106188516D01*
X195439742Y-106236491D01*
X195456536Y-106304312D01*
X195433998Y-106370447D01*
X195388946Y-106409484D01*
X195380182Y-106413949D01*
X195208213Y-106538890D01*
X195057890Y-106689213D01*
X194932951Y-106861179D01*
X194836444Y-107050585D01*
X194770753Y-107252760D01*
X194737500Y-107462713D01*
X194737500Y-107675287D01*
X194770754Y-107885243D01*
X194798459Y-107970511D01*
X194836444Y-108087414D01*
X194932951Y-108276820D01*
X195057890Y-108448786D01*
X195208213Y-108599109D01*
X195380182Y-108724050D01*
X195388946Y-108728516D01*
X195439742Y-108776491D01*
X195456536Y-108844312D01*
X195433998Y-108910447D01*
X195388946Y-108949484D01*
X195380182Y-108953949D01*
X195208213Y-109078890D01*
X195057890Y-109229213D01*
X194930085Y-109405125D01*
X194928740Y-109404148D01*
X194882295Y-109446166D01*
X194828382Y-109458500D01*
X191451929Y-109458500D01*
X191326261Y-109483497D01*
X191326255Y-109483499D01*
X191207870Y-109532535D01*
X191101331Y-109603722D01*
X191101324Y-109603728D01*
X184279724Y-116425328D01*
X184225657Y-116506247D01*
X184208535Y-116531871D01*
X184159499Y-116650255D01*
X184159497Y-116650261D01*
X184134500Y-116775928D01*
X184134500Y-125282192D01*
X184114815Y-125349231D01*
X184098181Y-125369873D01*
X178328873Y-131139181D01*
X178267550Y-131172666D01*
X178241192Y-131175500D01*
X168556499Y-131175500D01*
X168489460Y-131155815D01*
X168443705Y-131103011D01*
X168432499Y-131051500D01*
X168432499Y-130978129D01*
X168432498Y-130978123D01*
X168432497Y-130978116D01*
X168426091Y-130918517D01*
X168375796Y-130783669D01*
X168375795Y-130783668D01*
X168375793Y-130783664D01*
X168289547Y-130668455D01*
X168289544Y-130668452D01*
X168174335Y-130582206D01*
X168174328Y-130582202D01*
X168039482Y-130531908D01*
X168039483Y-130531908D01*
X167979883Y-130525501D01*
X167979881Y-130525500D01*
X167979873Y-130525500D01*
X167979864Y-130525500D01*
X166284129Y-130525500D01*
X166284123Y-130525501D01*
X166224516Y-130531908D01*
X166089671Y-130582202D01*
X166089664Y-130582206D01*
X165974455Y-130668452D01*
X165974452Y-130668455D01*
X165888206Y-130783664D01*
X165888202Y-130783671D01*
X165837908Y-130918517D01*
X165834802Y-130947412D01*
X165831501Y-130978123D01*
X165831500Y-130978135D01*
X165831500Y-131051500D01*
X165811815Y-131118539D01*
X165759011Y-131164294D01*
X165707500Y-131175500D01*
X149506499Y-131175500D01*
X149439460Y-131155815D01*
X149393705Y-131103011D01*
X149382499Y-131051500D01*
X149382499Y-130978129D01*
X149382498Y-130978123D01*
X149382497Y-130978116D01*
X149376091Y-130918517D01*
X149325796Y-130783669D01*
X149325795Y-130783668D01*
X149325793Y-130783664D01*
X149239547Y-130668455D01*
X149239544Y-130668452D01*
X149124335Y-130582206D01*
X149124328Y-130582202D01*
X148989482Y-130531908D01*
X148989483Y-130531908D01*
X148929883Y-130525501D01*
X148929881Y-130525500D01*
X148929873Y-130525500D01*
X148929864Y-130525500D01*
X147234129Y-130525500D01*
X147234123Y-130525501D01*
X147174516Y-130531908D01*
X147039671Y-130582202D01*
X147039664Y-130582206D01*
X146924455Y-130668452D01*
X146924452Y-130668455D01*
X146838206Y-130783664D01*
X146838202Y-130783671D01*
X146787908Y-130918517D01*
X146784802Y-130947412D01*
X146781501Y-130978123D01*
X146781500Y-130978135D01*
X146781500Y-131051500D01*
X146761815Y-131118539D01*
X146709011Y-131164294D01*
X146657500Y-131175500D01*
X130456499Y-131175500D01*
X130389460Y-131155815D01*
X130343705Y-131103011D01*
X130332499Y-131051500D01*
X130332499Y-130978129D01*
X130332498Y-130978123D01*
X130332497Y-130978116D01*
X130326091Y-130918517D01*
X130275796Y-130783669D01*
X130275795Y-130783668D01*
X130275793Y-130783664D01*
X130189547Y-130668455D01*
X130189544Y-130668452D01*
X130074335Y-130582206D01*
X130074328Y-130582202D01*
X129939482Y-130531908D01*
X129939483Y-130531908D01*
X129879883Y-130525501D01*
X129879881Y-130525500D01*
X129879873Y-130525500D01*
X129879864Y-130525500D01*
X128184129Y-130525500D01*
X128184123Y-130525501D01*
X128124516Y-130531908D01*
X127989671Y-130582202D01*
X127989664Y-130582206D01*
X127874455Y-130668452D01*
X127874452Y-130668455D01*
X127788206Y-130783664D01*
X127788202Y-130783671D01*
X127737908Y-130918517D01*
X127734802Y-130947412D01*
X127731501Y-130978123D01*
X127731500Y-130978135D01*
X127731500Y-132673870D01*
X127731501Y-132673876D01*
X127737908Y-132733483D01*
X127788202Y-132868328D01*
X127788206Y-132868335D01*
X127874452Y-132983544D01*
X127874455Y-132983547D01*
X127989664Y-133069793D01*
X127989671Y-133069797D01*
X128124517Y-133120091D01*
X128124516Y-133120091D01*
X128131444Y-133120835D01*
X128184127Y-133126500D01*
X129879872Y-133126499D01*
X129939483Y-133120091D01*
X130074331Y-133069796D01*
X130189546Y-132983546D01*
X130275796Y-132868331D01*
X130326091Y-132733483D01*
X130332500Y-132673873D01*
X130332500Y-132600500D01*
X130352185Y-132533461D01*
X130404989Y-132487706D01*
X130456500Y-132476500D01*
X146657501Y-132476500D01*
X146724540Y-132496185D01*
X146770295Y-132548989D01*
X146781501Y-132600500D01*
X146781501Y-132673876D01*
X146787908Y-132733483D01*
X146838202Y-132868328D01*
X146838206Y-132868335D01*
X146924452Y-132983544D01*
X146924455Y-132983547D01*
X147039664Y-133069793D01*
X147039671Y-133069797D01*
X147174517Y-133120091D01*
X147174516Y-133120091D01*
X147181444Y-133120835D01*
X147234127Y-133126500D01*
X148929872Y-133126499D01*
X148989483Y-133120091D01*
X149124331Y-133069796D01*
X149239546Y-132983546D01*
X149325796Y-132868331D01*
X149376091Y-132733483D01*
X149382500Y-132673873D01*
X149382500Y-132600500D01*
X149402185Y-132533461D01*
X149454989Y-132487706D01*
X149506500Y-132476500D01*
X165707501Y-132476500D01*
X165774540Y-132496185D01*
X165820295Y-132548989D01*
X165831501Y-132600500D01*
X165831501Y-132673876D01*
X165837908Y-132733483D01*
X165888202Y-132868328D01*
X165888206Y-132868335D01*
X165974452Y-132983544D01*
X165974455Y-132983547D01*
X166089664Y-133069793D01*
X166089671Y-133069797D01*
X166224517Y-133120091D01*
X166224516Y-133120091D01*
X166231444Y-133120835D01*
X166284127Y-133126500D01*
X167979872Y-133126499D01*
X168039483Y-133120091D01*
X168174331Y-133069796D01*
X168289546Y-132983546D01*
X168375796Y-132868331D01*
X168426091Y-132733483D01*
X168432500Y-132673873D01*
X168432500Y-132600500D01*
X168452185Y-132533461D01*
X168504989Y-132487706D01*
X168556500Y-132476500D01*
X178626071Y-132476500D01*
X178710615Y-132459682D01*
X178751744Y-132451501D01*
X178870127Y-132402465D01*
X178872836Y-132400654D01*
X178873772Y-132400030D01*
X178908991Y-132376497D01*
X178976669Y-132331277D01*
X185290277Y-126017669D01*
X185361465Y-125911127D01*
X185410501Y-125792744D01*
X185421349Y-125738208D01*
X185435500Y-125667069D01*
X185435500Y-117160807D01*
X185444144Y-117131366D01*
X185450668Y-117101380D01*
X185454422Y-117096364D01*
X185455185Y-117093768D01*
X185471814Y-117073131D01*
X185600821Y-116944124D01*
X185662142Y-116910641D01*
X185731834Y-116915625D01*
X185787767Y-116957497D01*
X185812184Y-117022961D01*
X185812500Y-117031807D01*
X185812500Y-123263918D01*
X185812500Y-123263920D01*
X185812499Y-123263920D01*
X185841340Y-123408907D01*
X185841343Y-123408917D01*
X185886038Y-123516820D01*
X185897916Y-123545495D01*
X185918323Y-123576037D01*
X185928391Y-123591105D01*
X185980049Y-123668418D01*
X187786950Y-125475319D01*
X187820435Y-125536642D01*
X187815451Y-125606334D01*
X187786950Y-125650681D01*
X186996047Y-126441584D01*
X186996043Y-126441589D01*
X186954311Y-126504049D01*
X186954310Y-126504051D01*
X186913919Y-126564499D01*
X186913912Y-126564511D01*
X186857343Y-126701082D01*
X186857340Y-126701092D01*
X186828500Y-126846079D01*
X186828500Y-126846082D01*
X186828500Y-132280918D01*
X186828500Y-132280920D01*
X186828499Y-132280920D01*
X186857340Y-132425907D01*
X186857343Y-132425917D01*
X186913914Y-132562492D01*
X186946812Y-132611727D01*
X186946813Y-132611730D01*
X186996046Y-132685414D01*
X186996052Y-132685421D01*
X187357049Y-133046416D01*
X187430724Y-133120091D01*
X187461585Y-133150952D01*
X187584498Y-133233080D01*
X187584511Y-133233087D01*
X187721082Y-133289656D01*
X187721087Y-133289658D01*
X187721091Y-133289658D01*
X187721092Y-133289659D01*
X187866079Y-133318500D01*
X187866082Y-133318500D01*
X187866083Y-133318500D01*
X188013917Y-133318500D01*
X188231582Y-133318500D01*
X188298621Y-133338185D01*
X188331900Y-133369615D01*
X188365028Y-133415212D01*
X188365032Y-133415217D01*
X188509786Y-133559971D01*
X188664749Y-133672556D01*
X188675390Y-133680287D01*
X188791607Y-133739503D01*
X188857776Y-133773218D01*
X188857778Y-133773218D01*
X188857781Y-133773220D01*
X188962137Y-133807127D01*
X189052465Y-133836477D01*
X189153557Y-133852488D01*
X189254648Y-133868500D01*
X189254649Y-133868500D01*
X189459351Y-133868500D01*
X189459352Y-133868500D01*
X189661534Y-133836477D01*
X189856219Y-133773220D01*
X190038610Y-133680287D01*
X190131590Y-133612732D01*
X190204213Y-133559971D01*
X190204215Y-133559968D01*
X190204219Y-133559966D01*
X190348966Y-133415219D01*
X190351650Y-133411524D01*
X190382100Y-133369615D01*
X190437429Y-133326949D01*
X190482418Y-133318500D01*
X194022920Y-133318500D01*
X194120462Y-133299096D01*
X194167913Y-133289658D01*
X194304495Y-133233084D01*
X194353729Y-133200186D01*
X194427416Y-133150952D01*
X195779194Y-131799172D01*
X195840515Y-131765689D01*
X195886265Y-131764382D01*
X195981713Y-131779500D01*
X195981715Y-131779500D01*
X196194286Y-131779500D01*
X196194287Y-131779500D01*
X196289728Y-131764383D01*
X196359021Y-131773337D01*
X196396807Y-131799175D01*
X198657586Y-134059954D01*
X198687058Y-134079645D01*
X198731270Y-134109186D01*
X198780505Y-134142084D01*
X198780506Y-134142084D01*
X198780507Y-134142085D01*
X198780509Y-134142086D01*
X198917082Y-134198656D01*
X198917087Y-134198658D01*
X198917091Y-134198658D01*
X198917092Y-134198659D01*
X199062079Y-134227500D01*
X199062082Y-134227500D01*
X215084920Y-134227500D01*
X215182462Y-134208096D01*
X215229913Y-134198658D01*
X215366495Y-134142084D01*
X215415729Y-134109186D01*
X215415734Y-134109183D01*
X215440071Y-134092921D01*
X215489416Y-134059952D01*
X218387952Y-131161416D01*
X218451183Y-131066782D01*
X218470084Y-131038495D01*
X218516888Y-130925500D01*
X218526659Y-130901912D01*
X218555500Y-130756917D01*
X218555500Y-130609082D01*
X218555500Y-96462416D01*
X218575185Y-96395377D01*
X218606613Y-96362099D01*
X218652219Y-96328966D01*
X218796966Y-96184219D01*
X218816420Y-96157443D01*
X218830100Y-96138615D01*
X218885429Y-96095949D01*
X218930418Y-96087500D01*
X220077920Y-96087500D01*
X220178181Y-96067556D01*
X220222913Y-96058658D01*
X220359495Y-96002084D01*
X220408729Y-95969186D01*
X220482416Y-95919952D01*
X221689952Y-94712415D01*
X221747358Y-94626500D01*
X221772084Y-94589495D01*
X221795518Y-94532920D01*
X221828659Y-94452912D01*
X221857500Y-94307917D01*
X221857500Y-94160082D01*
X221857500Y-89207082D01*
X221857500Y-89207079D01*
X221828659Y-89062092D01*
X221828658Y-89062091D01*
X221828658Y-89062087D01*
X221818267Y-89037000D01*
X221772087Y-88925511D01*
X221772080Y-88925498D01*
X221689952Y-88802585D01*
X221646257Y-88758890D01*
X221585416Y-88698049D01*
X221093169Y-88205802D01*
X219533421Y-86646052D01*
X219533420Y-86646051D01*
X219510144Y-86630499D01*
X219432914Y-86578896D01*
X219432914Y-86578895D01*
X219410495Y-86563916D01*
X219410490Y-86563913D01*
X219273917Y-86507343D01*
X219273907Y-86507340D01*
X219128920Y-86478500D01*
X219128918Y-86478500D01*
X217914418Y-86478500D01*
X217847379Y-86458815D01*
X217814100Y-86427385D01*
X217780971Y-86381787D01*
X217780967Y-86381782D01*
X217636213Y-86237028D01*
X217470611Y-86116713D01*
X217416621Y-86089203D01*
X217365825Y-86041228D01*
X217349031Y-85973407D01*
X217371569Y-85907272D01*
X217416624Y-85868233D01*
X217470349Y-85840859D01*
X217514921Y-85808474D01*
X216835447Y-85129000D01*
X216841661Y-85129000D01*
X216943394Y-85101741D01*
X217034606Y-85049080D01*
X217109080Y-84974606D01*
X217161741Y-84883394D01*
X217189000Y-84781661D01*
X217189000Y-84775447D01*
X217868474Y-85454921D01*
X217900859Y-85410349D01*
X217993755Y-85228031D01*
X218056990Y-85033417D01*
X218089000Y-84831317D01*
X218089000Y-84626682D01*
X218056990Y-84424582D01*
X217993755Y-84229968D01*
X217900859Y-84047650D01*
X217868474Y-84003077D01*
X217868474Y-84003076D01*
X217189000Y-84682551D01*
X217189000Y-84676339D01*
X217161741Y-84574606D01*
X217109080Y-84483394D01*
X217034606Y-84408920D01*
X216943394Y-84356259D01*
X216841661Y-84329000D01*
X216835446Y-84329000D01*
X217514922Y-83649524D01*
X217514921Y-83649523D01*
X217470359Y-83617147D01*
X217470350Y-83617141D01*
X217288031Y-83524244D01*
X217093417Y-83461009D01*
X216891317Y-83429000D01*
X216686683Y-83429000D01*
X216484582Y-83461009D01*
X216289968Y-83524244D01*
X216107644Y-83617143D01*
X216063077Y-83649523D01*
X216063077Y-83649524D01*
X216742554Y-84329000D01*
X216736339Y-84329000D01*
X216634606Y-84356259D01*
X216543394Y-84408920D01*
X216468920Y-84483394D01*
X216416259Y-84574606D01*
X216389000Y-84676339D01*
X216389000Y-84682553D01*
X215709524Y-84003077D01*
X215709523Y-84003077D01*
X215677143Y-84047644D01*
X215584244Y-84229968D01*
X215521009Y-84424582D01*
X215489000Y-84626682D01*
X215489000Y-84831317D01*
X215521009Y-85033417D01*
X215584244Y-85228031D01*
X215677141Y-85410350D01*
X215677147Y-85410359D01*
X215709523Y-85454921D01*
X215709524Y-85454922D01*
X216389000Y-84775446D01*
X216389000Y-84781661D01*
X216416259Y-84883394D01*
X216468920Y-84974606D01*
X216543394Y-85049080D01*
X216634606Y-85101741D01*
X216736339Y-85129000D01*
X216742553Y-85129000D01*
X216063076Y-85808474D01*
X216107652Y-85840861D01*
X216161376Y-85868234D01*
X216212172Y-85916208D01*
X216228968Y-85984028D01*
X216206431Y-86050164D01*
X216161379Y-86089203D01*
X216107386Y-86116714D01*
X215941786Y-86237028D01*
X215797030Y-86381784D01*
X215749371Y-86447384D01*
X215694041Y-86490051D01*
X215649052Y-86498500D01*
X212515221Y-86498500D01*
X212448182Y-86478815D01*
X212414903Y-86447385D01*
X212358107Y-86369211D01*
X212207786Y-86218890D01*
X212035817Y-86093949D01*
X212026504Y-86089204D01*
X211975707Y-86041230D01*
X211958912Y-85973409D01*
X211981449Y-85907274D01*
X212026507Y-85868232D01*
X212035555Y-85863622D01*
X212089716Y-85824270D01*
X212089717Y-85824270D01*
X211457408Y-85191962D01*
X211520993Y-85174925D01*
X211635007Y-85109099D01*
X211728099Y-85016007D01*
X211793925Y-84901993D01*
X211810962Y-84838408D01*
X212443270Y-85470717D01*
X212443270Y-85470716D01*
X212482622Y-85416554D01*
X212579095Y-85227217D01*
X212644757Y-85025130D01*
X212644757Y-85025127D01*
X212678000Y-84815246D01*
X212678000Y-84602753D01*
X212644757Y-84392872D01*
X212644757Y-84392869D01*
X212579095Y-84190782D01*
X212482624Y-84001449D01*
X212443270Y-83947282D01*
X212443269Y-83947282D01*
X211810962Y-84579590D01*
X211793925Y-84516007D01*
X211728099Y-84401993D01*
X211635007Y-84308901D01*
X211520993Y-84243075D01*
X211457409Y-84226037D01*
X212074343Y-83609102D01*
X212089716Y-83593728D01*
X212035547Y-83554373D01*
X212035547Y-83554372D01*
X212026500Y-83549763D01*
X211975706Y-83501788D01*
X211958912Y-83433966D01*
X211981451Y-83367832D01*
X212026508Y-83328793D01*
X212035816Y-83324051D01*
X212122147Y-83261328D01*
X212207786Y-83199109D01*
X212207788Y-83199106D01*
X212207792Y-83199104D01*
X212358104Y-83048792D01*
X212358106Y-83048788D01*
X212358109Y-83048786D01*
X212483048Y-82876820D01*
X212483047Y-82876820D01*
X212483051Y-82876816D01*
X212579557Y-82687412D01*
X212645246Y-82485243D01*
X212678500Y-82275287D01*
X212678500Y-82062713D01*
X212645246Y-81852757D01*
X212579557Y-81650588D01*
X212483051Y-81461184D01*
X212483049Y-81461181D01*
X212483048Y-81461179D01*
X212358109Y-81289213D01*
X212207786Y-81138890D01*
X212035820Y-81013951D01*
X211846414Y-80917444D01*
X211846413Y-80917443D01*
X211846412Y-80917443D01*
X211644243Y-80851754D01*
X211644241Y-80851753D01*
X211644240Y-80851753D01*
X211482957Y-80826208D01*
X211434287Y-80818500D01*
X211221713Y-80818500D01*
X211173042Y-80826208D01*
X211011760Y-80851753D01*
X210809585Y-80917444D01*
X210620179Y-81013951D01*
X210448213Y-81138890D01*
X210297890Y-81289213D01*
X210172951Y-81461179D01*
X210076444Y-81650585D01*
X210010753Y-81852760D01*
X210001386Y-81911902D01*
X209977500Y-82062713D01*
X209977500Y-82275287D01*
X210010754Y-82485243D01*
X210049989Y-82605996D01*
X210076444Y-82687414D01*
X210172951Y-82876820D01*
X210297890Y-83048786D01*
X210448213Y-83199109D01*
X210620179Y-83324048D01*
X210620181Y-83324049D01*
X210620184Y-83324051D01*
X210629493Y-83328794D01*
X210680290Y-83376766D01*
X210697087Y-83444587D01*
X210674552Y-83510722D01*
X210629505Y-83549760D01*
X210620446Y-83554376D01*
X210620440Y-83554380D01*
X210566282Y-83593727D01*
X210566282Y-83593728D01*
X211198591Y-84226037D01*
X211135007Y-84243075D01*
X211020993Y-84308901D01*
X210927901Y-84401993D01*
X210862075Y-84516007D01*
X210845037Y-84579591D01*
X210212728Y-83947282D01*
X210212727Y-83947282D01*
X210173380Y-84001439D01*
X210076904Y-84190782D01*
X210011242Y-84392869D01*
X210011242Y-84392872D01*
X209978000Y-84602753D01*
X209978000Y-84815246D01*
X210011242Y-85025127D01*
X210011242Y-85025130D01*
X210076904Y-85227217D01*
X210173375Y-85416550D01*
X210212728Y-85470716D01*
X210845037Y-84838408D01*
X210862075Y-84901993D01*
X210927901Y-85016007D01*
X211020993Y-85109099D01*
X211135007Y-85174925D01*
X211198590Y-85191962D01*
X210566282Y-85824269D01*
X210566282Y-85824270D01*
X210620452Y-85863626D01*
X210620451Y-85863626D01*
X210629495Y-85868234D01*
X210680292Y-85916208D01*
X210697087Y-85984029D01*
X210674550Y-86050164D01*
X210629499Y-86089202D01*
X210620182Y-86093949D01*
X210448213Y-86218890D01*
X210297890Y-86369213D01*
X210172951Y-86541179D01*
X210076444Y-86730585D01*
X210010753Y-86932760D01*
X209985756Y-87090585D01*
X209977500Y-87142713D01*
X209977500Y-87355287D01*
X209985611Y-87406500D01*
X210010584Y-87564174D01*
X210010754Y-87565243D01*
X210059506Y-87715287D01*
X210076444Y-87767414D01*
X210172951Y-87956820D01*
X210297890Y-88128786D01*
X210448213Y-88279109D01*
X210620182Y-88404050D01*
X210628946Y-88408516D01*
X210679742Y-88456491D01*
X210696536Y-88524312D01*
X210673998Y-88590447D01*
X210628946Y-88629484D01*
X210620182Y-88633949D01*
X210448213Y-88758890D01*
X210297890Y-88909213D01*
X210172951Y-89081179D01*
X210076444Y-89270585D01*
X210010753Y-89472760D01*
X209977500Y-89682713D01*
X209977500Y-89895286D01*
X210010753Y-90105239D01*
X210010753Y-90105241D01*
X210010754Y-90105243D01*
X210059506Y-90255287D01*
X210076444Y-90307414D01*
X210172951Y-90496820D01*
X210297890Y-90668786D01*
X210448213Y-90819109D01*
X210620182Y-90944050D01*
X210628946Y-90948516D01*
X210679742Y-90996491D01*
X210696536Y-91064312D01*
X210673998Y-91130447D01*
X210628946Y-91169484D01*
X210620182Y-91173949D01*
X210448213Y-91298890D01*
X210297890Y-91449213D01*
X210172951Y-91621179D01*
X210076444Y-91810585D01*
X210010753Y-92012760D01*
X209999235Y-92085483D01*
X209977500Y-92222713D01*
X209977500Y-92435287D01*
X209984931Y-92482202D01*
X210007562Y-92625094D01*
X210010754Y-92645243D01*
X210067054Y-92818517D01*
X210076444Y-92847414D01*
X210172951Y-93036820D01*
X210297890Y-93208786D01*
X210448213Y-93359109D01*
X210620182Y-93484050D01*
X210628946Y-93488516D01*
X210679742Y-93536491D01*
X210696536Y-93604312D01*
X210673998Y-93670447D01*
X210628946Y-93709484D01*
X210620182Y-93713949D01*
X210448213Y-93838890D01*
X210297890Y-93989213D01*
X210172951Y-94161179D01*
X210076444Y-94350585D01*
X210076443Y-94350587D01*
X210076443Y-94350588D01*
X210068024Y-94376500D01*
X210010753Y-94552760D01*
X209977500Y-94762713D01*
X209977500Y-94975286D01*
X210010753Y-95185239D01*
X210076444Y-95387414D01*
X210172951Y-95576820D01*
X210297890Y-95748786D01*
X210448213Y-95899109D01*
X210620182Y-96024050D01*
X210628946Y-96028516D01*
X210679742Y-96076491D01*
X210696536Y-96144312D01*
X210673998Y-96210447D01*
X210628946Y-96249484D01*
X210620182Y-96253949D01*
X210448213Y-96378890D01*
X210297890Y-96529213D01*
X210172951Y-96701179D01*
X210076444Y-96890585D01*
X210010753Y-97092760D01*
X209977500Y-97302713D01*
X209977500Y-97515287D01*
X210010754Y-97725243D01*
X210053042Y-97855392D01*
X210076444Y-97927414D01*
X210172951Y-98116820D01*
X210297890Y-98288786D01*
X210448213Y-98439109D01*
X210620182Y-98564050D01*
X210628946Y-98568516D01*
X210679742Y-98616491D01*
X210696536Y-98684312D01*
X210673998Y-98750447D01*
X210628946Y-98789484D01*
X210620182Y-98793949D01*
X210448213Y-98918890D01*
X210297890Y-99069213D01*
X210172951Y-99241179D01*
X210076444Y-99430585D01*
X210010753Y-99632760D01*
X209977500Y-99842713D01*
X209977500Y-100055286D01*
X209995562Y-100169329D01*
X210010754Y-100265243D01*
X210053042Y-100395392D01*
X210076444Y-100467414D01*
X210172951Y-100656820D01*
X210297890Y-100828786D01*
X210448213Y-100979109D01*
X210620182Y-101104050D01*
X210628946Y-101108516D01*
X210679742Y-101156491D01*
X210696536Y-101224312D01*
X210673998Y-101290447D01*
X210628946Y-101329484D01*
X210620182Y-101333949D01*
X210448213Y-101458890D01*
X210297890Y-101609213D01*
X210172951Y-101781179D01*
X210076444Y-101970585D01*
X210010753Y-102172760D01*
X209996278Y-102264152D01*
X209977500Y-102382713D01*
X209977500Y-102595287D01*
X210010754Y-102805243D01*
X210045113Y-102910990D01*
X210076444Y-103007414D01*
X210172951Y-103196820D01*
X210297890Y-103368786D01*
X210448213Y-103519109D01*
X210620182Y-103644050D01*
X210628946Y-103648516D01*
X210679742Y-103696491D01*
X210696536Y-103764312D01*
X210673998Y-103830447D01*
X210628946Y-103869484D01*
X210620182Y-103873949D01*
X210448213Y-103998890D01*
X210297890Y-104149213D01*
X210172951Y-104321179D01*
X210076444Y-104510585D01*
X210076443Y-104510587D01*
X210076443Y-104510588D01*
X210072175Y-104523724D01*
X210010753Y-104712760D01*
X209977500Y-104922713D01*
X209977500Y-105135286D01*
X209996991Y-105258351D01*
X210010754Y-105345243D01*
X210073650Y-105538817D01*
X210076444Y-105547414D01*
X210172951Y-105736820D01*
X210297890Y-105908786D01*
X210448213Y-106059109D01*
X210620182Y-106184050D01*
X210628946Y-106188516D01*
X210679742Y-106236491D01*
X210696536Y-106304312D01*
X210673998Y-106370447D01*
X210628946Y-106409484D01*
X210620182Y-106413949D01*
X210448213Y-106538890D01*
X210297890Y-106689213D01*
X210172951Y-106861179D01*
X210076444Y-107050585D01*
X210010753Y-107252760D01*
X209977500Y-107462713D01*
X209977500Y-107675287D01*
X210010754Y-107885243D01*
X210038459Y-107970511D01*
X210076444Y-108087414D01*
X210172951Y-108276820D01*
X210297890Y-108448786D01*
X210448213Y-108599109D01*
X210620182Y-108724050D01*
X210628946Y-108728516D01*
X210679742Y-108776491D01*
X210696536Y-108844312D01*
X210673998Y-108910447D01*
X210628946Y-108949484D01*
X210620182Y-108953949D01*
X210448213Y-109078890D01*
X210297890Y-109229213D01*
X210172951Y-109401179D01*
X210076444Y-109590585D01*
X210076443Y-109590587D01*
X210076443Y-109590588D01*
X210072175Y-109603724D01*
X210010753Y-109792760D01*
X209977500Y-110002713D01*
X209977500Y-110215286D01*
X210010753Y-110425239D01*
X210076444Y-110627414D01*
X210172951Y-110816820D01*
X210297890Y-110988786D01*
X210448213Y-111139109D01*
X210620182Y-111264050D01*
X210628946Y-111268516D01*
X210679742Y-111316491D01*
X210696536Y-111384312D01*
X210673998Y-111450447D01*
X210628946Y-111489484D01*
X210620182Y-111493949D01*
X210448213Y-111618890D01*
X210297890Y-111769213D01*
X210172951Y-111941179D01*
X210076444Y-112130585D01*
X210010753Y-112332760D01*
X209989996Y-112463815D01*
X209977500Y-112542713D01*
X209977500Y-112755287D01*
X210010754Y-112965243D01*
X210072238Y-113154471D01*
X210076444Y-113167414D01*
X210172951Y-113356820D01*
X210297890Y-113528786D01*
X210448213Y-113679109D01*
X210620182Y-113804050D01*
X210628946Y-113808516D01*
X210679742Y-113856491D01*
X210696536Y-113924312D01*
X210673998Y-113990447D01*
X210628946Y-114029484D01*
X210620182Y-114033949D01*
X210448213Y-114158890D01*
X210297890Y-114309213D01*
X210172951Y-114481179D01*
X210076444Y-114670585D01*
X210010753Y-114872760D01*
X209977500Y-115082713D01*
X209977500Y-115295286D01*
X210010753Y-115505239D01*
X210076444Y-115707414D01*
X210172951Y-115896820D01*
X210297890Y-116068786D01*
X210448213Y-116219109D01*
X210620182Y-116344050D01*
X210628946Y-116348516D01*
X210679742Y-116396491D01*
X210696536Y-116464312D01*
X210673998Y-116530447D01*
X210628946Y-116569484D01*
X210620182Y-116573949D01*
X210448213Y-116698890D01*
X210297890Y-116849213D01*
X210172951Y-117021179D01*
X210076444Y-117210585D01*
X210010753Y-117412760D01*
X209977500Y-117622713D01*
X209977500Y-117835287D01*
X210010754Y-118045243D01*
X210072175Y-118234277D01*
X210076444Y-118247414D01*
X210172951Y-118436820D01*
X210297890Y-118608786D01*
X210448213Y-118759109D01*
X210620182Y-118884050D01*
X210628946Y-118888516D01*
X210679742Y-118936491D01*
X210696536Y-119004312D01*
X210673998Y-119070447D01*
X210628946Y-119109484D01*
X210620182Y-119113949D01*
X210448213Y-119238890D01*
X210297890Y-119389213D01*
X210172951Y-119561179D01*
X210076444Y-119750585D01*
X210076443Y-119750587D01*
X210076443Y-119750588D01*
X210053041Y-119822611D01*
X210010753Y-119952760D01*
X209977500Y-120162713D01*
X209977500Y-120375286D01*
X210010753Y-120585239D01*
X210076444Y-120787414D01*
X210172951Y-120976820D01*
X210297890Y-121148786D01*
X210448213Y-121299109D01*
X210620182Y-121424050D01*
X210628946Y-121428516D01*
X210679742Y-121476491D01*
X210696536Y-121544312D01*
X210673998Y-121610447D01*
X210628946Y-121649484D01*
X210620182Y-121653949D01*
X210448213Y-121778890D01*
X210297890Y-121929213D01*
X210172951Y-122101179D01*
X210076444Y-122290585D01*
X210076443Y-122290587D01*
X210076443Y-122290588D01*
X210053041Y-122362611D01*
X210010753Y-122492760D01*
X209977500Y-122702713D01*
X209977500Y-122915286D01*
X209994276Y-123021209D01*
X210010754Y-123125243D01*
X210066523Y-123296883D01*
X210076444Y-123327414D01*
X210172951Y-123516820D01*
X210297890Y-123688786D01*
X210448213Y-123839109D01*
X210620182Y-123964050D01*
X210628946Y-123968516D01*
X210679742Y-124016491D01*
X210696536Y-124084312D01*
X210673998Y-124150447D01*
X210628946Y-124189484D01*
X210620182Y-124193949D01*
X210448213Y-124318890D01*
X210297890Y-124469213D01*
X210172951Y-124641179D01*
X210076444Y-124830585D01*
X210010753Y-125032760D01*
X210007514Y-125053213D01*
X209977500Y-125242713D01*
X209977500Y-125455287D01*
X209980673Y-125475319D01*
X210008447Y-125650681D01*
X210010754Y-125665243D01*
X210052179Y-125792736D01*
X210076444Y-125867414D01*
X210172951Y-126056820D01*
X210297890Y-126228786D01*
X210448213Y-126379109D01*
X210620180Y-126504049D01*
X210628946Y-126508516D01*
X210679742Y-126556491D01*
X210696536Y-126624312D01*
X210673998Y-126690447D01*
X210628946Y-126729484D01*
X210620182Y-126733949D01*
X210448213Y-126858890D01*
X210297890Y-127009213D01*
X210172951Y-127181179D01*
X210076444Y-127370585D01*
X210010753Y-127572760D01*
X209977500Y-127782713D01*
X209977500Y-127995286D01*
X210010753Y-128205239D01*
X210076444Y-128407414D01*
X210172951Y-128596820D01*
X210297890Y-128768786D01*
X210448213Y-128919109D01*
X210620182Y-129044050D01*
X210628946Y-129048516D01*
X210679742Y-129096491D01*
X210696536Y-129164312D01*
X210673998Y-129230447D01*
X210628946Y-129269484D01*
X210620182Y-129273949D01*
X210448213Y-129398890D01*
X210297890Y-129549213D01*
X210172951Y-129721179D01*
X210076444Y-129910585D01*
X210010753Y-130112760D01*
X209977500Y-130322713D01*
X209977500Y-130535286D01*
X209999863Y-130676484D01*
X210010754Y-130745243D01*
X210069323Y-130925500D01*
X210076444Y-130947414D01*
X210172951Y-131136820D01*
X210297890Y-131308786D01*
X210448213Y-131459109D01*
X210620179Y-131584048D01*
X210620181Y-131584049D01*
X210620184Y-131584051D01*
X210809588Y-131680557D01*
X211011757Y-131746246D01*
X211221713Y-131779500D01*
X211221714Y-131779500D01*
X211434286Y-131779500D01*
X211434287Y-131779500D01*
X211644243Y-131746246D01*
X211846412Y-131680557D01*
X212035816Y-131584051D01*
X212063455Y-131563970D01*
X212207786Y-131459109D01*
X212207788Y-131459106D01*
X212207792Y-131459104D01*
X212358104Y-131308792D01*
X212358106Y-131308788D01*
X212358109Y-131308786D01*
X212483048Y-131136820D01*
X212483047Y-131136820D01*
X212483051Y-131136816D01*
X212579557Y-130947412D01*
X212645246Y-130745243D01*
X212678500Y-130535287D01*
X212678500Y-130322713D01*
X212645246Y-130112757D01*
X212579557Y-129910588D01*
X212483051Y-129721184D01*
X212483049Y-129721181D01*
X212483048Y-129721179D01*
X212358109Y-129549213D01*
X212207786Y-129398890D01*
X212035820Y-129273951D01*
X212035115Y-129273591D01*
X212027054Y-129269485D01*
X211976259Y-129221512D01*
X211959463Y-129153692D01*
X211981999Y-129087556D01*
X212027054Y-129048515D01*
X212035816Y-129044051D01*
X212112243Y-128988524D01*
X212207786Y-128919109D01*
X212207788Y-128919106D01*
X212207792Y-128919104D01*
X212358104Y-128768792D01*
X212358106Y-128768788D01*
X212358109Y-128768786D01*
X212483048Y-128596820D01*
X212483047Y-128596820D01*
X212483051Y-128596816D01*
X212579557Y-128407412D01*
X212645246Y-128205243D01*
X212678500Y-127995287D01*
X212678500Y-127782713D01*
X212645246Y-127572757D01*
X212579557Y-127370588D01*
X212483051Y-127181184D01*
X212483049Y-127181181D01*
X212483048Y-127181179D01*
X212358109Y-127009213D01*
X212207786Y-126858890D01*
X212035820Y-126733951D01*
X212027600Y-126729763D01*
X212027054Y-126729485D01*
X211976259Y-126681512D01*
X211959463Y-126613692D01*
X211981999Y-126547556D01*
X212027054Y-126508515D01*
X212035816Y-126504051D01*
X212084785Y-126468473D01*
X212207786Y-126379109D01*
X212207788Y-126379106D01*
X212207792Y-126379104D01*
X212358104Y-126228792D01*
X212358106Y-126228788D01*
X212358109Y-126228786D01*
X212483048Y-126056820D01*
X212483047Y-126056820D01*
X212483051Y-126056816D01*
X212579557Y-125867412D01*
X212645246Y-125665243D01*
X212678500Y-125455287D01*
X212678500Y-125242713D01*
X212645246Y-125032757D01*
X212579557Y-124830588D01*
X212483051Y-124641184D01*
X212483049Y-124641181D01*
X212483048Y-124641179D01*
X212358109Y-124469213D01*
X212207786Y-124318890D01*
X212035820Y-124193951D01*
X212035115Y-124193591D01*
X212027054Y-124189485D01*
X211976259Y-124141512D01*
X211959463Y-124073692D01*
X211981999Y-124007556D01*
X212027054Y-123968515D01*
X212035816Y-123964051D01*
X212073352Y-123936780D01*
X212207786Y-123839109D01*
X212207788Y-123839106D01*
X212207792Y-123839104D01*
X212358104Y-123688792D01*
X212358106Y-123688788D01*
X212358109Y-123688786D01*
X212483048Y-123516820D01*
X212483047Y-123516820D01*
X212483051Y-123516816D01*
X212579557Y-123327412D01*
X212645246Y-123125243D01*
X212678500Y-122915287D01*
X212678500Y-122702713D01*
X212645246Y-122492757D01*
X212579557Y-122290588D01*
X212483051Y-122101184D01*
X212483049Y-122101181D01*
X212483048Y-122101179D01*
X212358109Y-121929213D01*
X212207786Y-121778890D01*
X212035820Y-121653951D01*
X212035115Y-121653591D01*
X212027054Y-121649485D01*
X211976259Y-121601512D01*
X211959463Y-121533692D01*
X211981999Y-121467556D01*
X212027054Y-121428515D01*
X212035816Y-121424051D01*
X212142206Y-121346755D01*
X212207786Y-121299109D01*
X212207788Y-121299106D01*
X212207792Y-121299104D01*
X212358104Y-121148792D01*
X212358106Y-121148788D01*
X212358109Y-121148786D01*
X212483048Y-120976820D01*
X212483047Y-120976820D01*
X212483051Y-120976816D01*
X212579557Y-120787412D01*
X212645246Y-120585243D01*
X212678500Y-120375287D01*
X212678500Y-120162713D01*
X212645246Y-119952757D01*
X212579557Y-119750588D01*
X212483051Y-119561184D01*
X212483049Y-119561181D01*
X212483048Y-119561179D01*
X212358109Y-119389213D01*
X212207786Y-119238890D01*
X212035820Y-119113951D01*
X212035115Y-119113591D01*
X212027054Y-119109485D01*
X211976259Y-119061512D01*
X211959463Y-118993692D01*
X211981999Y-118927556D01*
X212027054Y-118888515D01*
X212035816Y-118884051D01*
X212093695Y-118842000D01*
X212207786Y-118759109D01*
X212207788Y-118759106D01*
X212207792Y-118759104D01*
X212358104Y-118608792D01*
X212358106Y-118608788D01*
X212358109Y-118608786D01*
X212483048Y-118436820D01*
X212483047Y-118436820D01*
X212483051Y-118436816D01*
X212579557Y-118247412D01*
X212645246Y-118045243D01*
X212678500Y-117835287D01*
X212678500Y-117622713D01*
X212645246Y-117412757D01*
X212579557Y-117210588D01*
X212483051Y-117021184D01*
X212483049Y-117021181D01*
X212483048Y-117021179D01*
X212358109Y-116849213D01*
X212207786Y-116698890D01*
X212035820Y-116573951D01*
X212035115Y-116573591D01*
X212027054Y-116569485D01*
X211976259Y-116521512D01*
X211959463Y-116453692D01*
X211981999Y-116387556D01*
X212027054Y-116348515D01*
X212035816Y-116344051D01*
X212057789Y-116328086D01*
X212207786Y-116219109D01*
X212207788Y-116219106D01*
X212207792Y-116219104D01*
X212358104Y-116068792D01*
X212358106Y-116068788D01*
X212358109Y-116068786D01*
X212483048Y-115896820D01*
X212483047Y-115896820D01*
X212483051Y-115896816D01*
X212579557Y-115707412D01*
X212645246Y-115505243D01*
X212678500Y-115295287D01*
X212678500Y-115082713D01*
X212645246Y-114872757D01*
X212579557Y-114670588D01*
X212483051Y-114481184D01*
X212483049Y-114481181D01*
X212483048Y-114481179D01*
X212358109Y-114309213D01*
X212207786Y-114158890D01*
X212035820Y-114033951D01*
X212035115Y-114033591D01*
X212027054Y-114029485D01*
X211976259Y-113981512D01*
X211959463Y-113913692D01*
X211981999Y-113847556D01*
X212027054Y-113808515D01*
X212035816Y-113804051D01*
X212057789Y-113788086D01*
X212207786Y-113679109D01*
X212207788Y-113679106D01*
X212207792Y-113679104D01*
X212358104Y-113528792D01*
X212358106Y-113528788D01*
X212358109Y-113528786D01*
X212483048Y-113356820D01*
X212483047Y-113356820D01*
X212483051Y-113356816D01*
X212579557Y-113167412D01*
X212645246Y-112965243D01*
X212678500Y-112755287D01*
X212678500Y-112542713D01*
X212645246Y-112332757D01*
X212579557Y-112130588D01*
X212483051Y-111941184D01*
X212483049Y-111941181D01*
X212483048Y-111941179D01*
X212358109Y-111769213D01*
X212207786Y-111618890D01*
X212035820Y-111493951D01*
X212035115Y-111493591D01*
X212027054Y-111489485D01*
X211976259Y-111441512D01*
X211959463Y-111373692D01*
X211981999Y-111307556D01*
X212027054Y-111268515D01*
X212035816Y-111264051D01*
X212057789Y-111248086D01*
X212207786Y-111139109D01*
X212207788Y-111139106D01*
X212207792Y-111139104D01*
X212358104Y-110988792D01*
X212358106Y-110988788D01*
X212358109Y-110988786D01*
X212483048Y-110816820D01*
X212483047Y-110816820D01*
X212483051Y-110816816D01*
X212579557Y-110627412D01*
X212645246Y-110425243D01*
X212678500Y-110215287D01*
X212678500Y-110002713D01*
X212645246Y-109792757D01*
X212579557Y-109590588D01*
X212483051Y-109401184D01*
X212483049Y-109401181D01*
X212483048Y-109401179D01*
X212358109Y-109229213D01*
X212207786Y-109078890D01*
X212035820Y-108953951D01*
X212035115Y-108953591D01*
X212027054Y-108949485D01*
X211976259Y-108901512D01*
X211959463Y-108833692D01*
X211981999Y-108767556D01*
X212027054Y-108728515D01*
X212035816Y-108724051D01*
X212057789Y-108708086D01*
X212207786Y-108599109D01*
X212207788Y-108599106D01*
X212207792Y-108599104D01*
X212358104Y-108448792D01*
X212358106Y-108448788D01*
X212358109Y-108448786D01*
X212483048Y-108276820D01*
X212483047Y-108276820D01*
X212483051Y-108276816D01*
X212579557Y-108087412D01*
X212645246Y-107885243D01*
X212678500Y-107675287D01*
X212678500Y-107462713D01*
X212645246Y-107252757D01*
X212579557Y-107050588D01*
X212483051Y-106861184D01*
X212483049Y-106861181D01*
X212483048Y-106861179D01*
X212358109Y-106689213D01*
X212207786Y-106538890D01*
X212035820Y-106413951D01*
X212030540Y-106411261D01*
X212027054Y-106409485D01*
X211976259Y-106361512D01*
X211959463Y-106293692D01*
X211981999Y-106227556D01*
X212027054Y-106188515D01*
X212035816Y-106184051D01*
X212085483Y-106147966D01*
X212207786Y-106059109D01*
X212207788Y-106059106D01*
X212207792Y-106059104D01*
X212358104Y-105908792D01*
X212358106Y-105908788D01*
X212358109Y-105908786D01*
X212483048Y-105736820D01*
X212483047Y-105736820D01*
X212483051Y-105736816D01*
X212579557Y-105547412D01*
X212645246Y-105345243D01*
X212678500Y-105135287D01*
X212678500Y-104922713D01*
X212645246Y-104712757D01*
X212579557Y-104510588D01*
X212483051Y-104321184D01*
X212483049Y-104321181D01*
X212483048Y-104321179D01*
X212358109Y-104149213D01*
X212207786Y-103998890D01*
X212035820Y-103873951D01*
X212035115Y-103873591D01*
X212027054Y-103869485D01*
X211976259Y-103821512D01*
X211959463Y-103753692D01*
X211981999Y-103687556D01*
X212027054Y-103648515D01*
X212035816Y-103644051D01*
X212093768Y-103601947D01*
X212207786Y-103519109D01*
X212207788Y-103519106D01*
X212207792Y-103519104D01*
X212358104Y-103368792D01*
X212358106Y-103368788D01*
X212358109Y-103368786D01*
X212483048Y-103196820D01*
X212483047Y-103196820D01*
X212483051Y-103196816D01*
X212579557Y-103007412D01*
X212645246Y-102805243D01*
X212678500Y-102595287D01*
X212678500Y-102382713D01*
X212645246Y-102172757D01*
X212579557Y-101970588D01*
X212483051Y-101781184D01*
X212483049Y-101781181D01*
X212483048Y-101781179D01*
X212358109Y-101609213D01*
X212207786Y-101458890D01*
X212035820Y-101333951D01*
X212035115Y-101333591D01*
X212027054Y-101329485D01*
X211976259Y-101281512D01*
X211959463Y-101213692D01*
X211981999Y-101147556D01*
X212027054Y-101108515D01*
X212035816Y-101104051D01*
X212090255Y-101064499D01*
X212207786Y-100979109D01*
X212207788Y-100979106D01*
X212207792Y-100979104D01*
X212358104Y-100828792D01*
X212358106Y-100828788D01*
X212358109Y-100828786D01*
X212483048Y-100656820D01*
X212483047Y-100656820D01*
X212483051Y-100656816D01*
X212579557Y-100467412D01*
X212645246Y-100265243D01*
X212678500Y-100055287D01*
X212678500Y-99842713D01*
X212645246Y-99632757D01*
X212579557Y-99430588D01*
X212483051Y-99241184D01*
X212483049Y-99241181D01*
X212483048Y-99241179D01*
X212358109Y-99069213D01*
X212207786Y-98918890D01*
X212035820Y-98793951D01*
X212035115Y-98793591D01*
X212027054Y-98789485D01*
X211976259Y-98741512D01*
X211959463Y-98673692D01*
X211981999Y-98607556D01*
X212027054Y-98568515D01*
X212035816Y-98564051D01*
X212071522Y-98538109D01*
X212207786Y-98439109D01*
X212207788Y-98439106D01*
X212207792Y-98439104D01*
X212358104Y-98288792D01*
X212358106Y-98288788D01*
X212358109Y-98288786D01*
X212483048Y-98116820D01*
X212483047Y-98116820D01*
X212483051Y-98116816D01*
X212579557Y-97927412D01*
X212645246Y-97725243D01*
X212678500Y-97515287D01*
X212678500Y-97302713D01*
X212645246Y-97092757D01*
X212579557Y-96890588D01*
X212483051Y-96701184D01*
X212483049Y-96701181D01*
X212483048Y-96701179D01*
X212358109Y-96529213D01*
X212207786Y-96378890D01*
X212035820Y-96253951D01*
X212035115Y-96253591D01*
X212027054Y-96249485D01*
X211976259Y-96201512D01*
X211959463Y-96133692D01*
X211981999Y-96067556D01*
X212027054Y-96028515D01*
X212035816Y-96024051D01*
X212111328Y-95969189D01*
X212207786Y-95899109D01*
X212207788Y-95899106D01*
X212207792Y-95899104D01*
X212358104Y-95748792D01*
X212358106Y-95748788D01*
X212358109Y-95748786D01*
X212483048Y-95576820D01*
X212483047Y-95576820D01*
X212483051Y-95576816D01*
X212579557Y-95387412D01*
X212645246Y-95185243D01*
X212678500Y-94975287D01*
X212678500Y-94762713D01*
X212645246Y-94552757D01*
X212579557Y-94350588D01*
X212483051Y-94161184D01*
X212483049Y-94161181D01*
X212483048Y-94161179D01*
X212358109Y-93989213D01*
X212207786Y-93838890D01*
X212035820Y-93713951D01*
X212035115Y-93713591D01*
X212027054Y-93709485D01*
X211976259Y-93661512D01*
X211959463Y-93593692D01*
X211981999Y-93527556D01*
X212027054Y-93488515D01*
X212035816Y-93484051D01*
X212057789Y-93468086D01*
X212207786Y-93359109D01*
X212207788Y-93359106D01*
X212207792Y-93359104D01*
X212358104Y-93208792D01*
X212358106Y-93208788D01*
X212358109Y-93208786D01*
X212483048Y-93036820D01*
X212483047Y-93036820D01*
X212483051Y-93036816D01*
X212579557Y-92847412D01*
X212645246Y-92645243D01*
X212678500Y-92435287D01*
X212678500Y-92222713D01*
X212645246Y-92012757D01*
X212579557Y-91810588D01*
X212483051Y-91621184D01*
X212483049Y-91621181D01*
X212483048Y-91621179D01*
X212358107Y-91449211D01*
X212207786Y-91298890D01*
X212035820Y-91173951D01*
X212035115Y-91173591D01*
X212027054Y-91169485D01*
X211976259Y-91121512D01*
X211959463Y-91053692D01*
X211981999Y-90987556D01*
X212027054Y-90948515D01*
X212035816Y-90944051D01*
X212167738Y-90848205D01*
X212207786Y-90819109D01*
X212207788Y-90819106D01*
X212207792Y-90819104D01*
X212358104Y-90668792D01*
X212358106Y-90668788D01*
X212358109Y-90668786D01*
X212483048Y-90496820D01*
X212483047Y-90496820D01*
X212483051Y-90496816D01*
X212579557Y-90307412D01*
X212603189Y-90234682D01*
X216505000Y-90234682D01*
X216505000Y-90439317D01*
X216537009Y-90641417D01*
X216600244Y-90836031D01*
X216693141Y-91018350D01*
X216693147Y-91018359D01*
X216725523Y-91062921D01*
X216725524Y-91062922D01*
X217405000Y-90383446D01*
X217405000Y-90389661D01*
X217432259Y-90491394D01*
X217484920Y-90582606D01*
X217559394Y-90657080D01*
X217650606Y-90709741D01*
X217752339Y-90737000D01*
X217758553Y-90737000D01*
X217079076Y-91416474D01*
X217123650Y-91448859D01*
X217305968Y-91541755D01*
X217500582Y-91604990D01*
X217702683Y-91637000D01*
X217907317Y-91637000D01*
X218109417Y-91604990D01*
X218304031Y-91541755D01*
X218486349Y-91448859D01*
X218530921Y-91416474D01*
X217851447Y-90737000D01*
X217857661Y-90737000D01*
X217959394Y-90709741D01*
X218050606Y-90657080D01*
X218125080Y-90582606D01*
X218177741Y-90491394D01*
X218205000Y-90389661D01*
X218205000Y-90383447D01*
X218884474Y-91062921D01*
X218916859Y-91018349D01*
X219009755Y-90836031D01*
X219072990Y-90641417D01*
X219105000Y-90439317D01*
X219105000Y-90234682D01*
X219072990Y-90032582D01*
X219009755Y-89837968D01*
X218916859Y-89655650D01*
X218884474Y-89611077D01*
X218884474Y-89611076D01*
X218205000Y-90290551D01*
X218205000Y-90284339D01*
X218177741Y-90182606D01*
X218125080Y-90091394D01*
X218050606Y-90016920D01*
X217959394Y-89964259D01*
X217857661Y-89937000D01*
X217851446Y-89937000D01*
X218530922Y-89257524D01*
X218530921Y-89257523D01*
X218486359Y-89225147D01*
X218486350Y-89225141D01*
X218304031Y-89132244D01*
X218109417Y-89069009D01*
X217907317Y-89037000D01*
X217702683Y-89037000D01*
X217500582Y-89069009D01*
X217305968Y-89132244D01*
X217123644Y-89225143D01*
X217079077Y-89257523D01*
X217079077Y-89257524D01*
X217758554Y-89937000D01*
X217752339Y-89937000D01*
X217650606Y-89964259D01*
X217559394Y-90016920D01*
X217484920Y-90091394D01*
X217432259Y-90182606D01*
X217405000Y-90284339D01*
X217405000Y-90290553D01*
X216725524Y-89611077D01*
X216725523Y-89611077D01*
X216693143Y-89655644D01*
X216600244Y-89837968D01*
X216537009Y-90032582D01*
X216505000Y-90234682D01*
X212603189Y-90234682D01*
X212645246Y-90105243D01*
X212678500Y-89895287D01*
X212678500Y-89682713D01*
X212645246Y-89472757D01*
X212579557Y-89270588D01*
X212579555Y-89270585D01*
X212579555Y-89270583D01*
X212483048Y-89081179D01*
X212358109Y-88909213D01*
X212207786Y-88758890D01*
X212035820Y-88633951D01*
X212035115Y-88633591D01*
X212027054Y-88629485D01*
X211976259Y-88581512D01*
X211959463Y-88513692D01*
X211981999Y-88447556D01*
X212027054Y-88408515D01*
X212035816Y-88404051D01*
X212122208Y-88341284D01*
X212207786Y-88279109D01*
X212207788Y-88279106D01*
X212207792Y-88279104D01*
X212358104Y-88128792D01*
X212381983Y-88095925D01*
X212414903Y-88050615D01*
X212470233Y-88007949D01*
X212515221Y-87999500D01*
X215678113Y-87999500D01*
X215745152Y-88019185D01*
X215778432Y-88050616D01*
X215797030Y-88076215D01*
X215941786Y-88220971D01*
X216096749Y-88333556D01*
X216107390Y-88341287D01*
X216223607Y-88400503D01*
X216289776Y-88434218D01*
X216289778Y-88434218D01*
X216289781Y-88434220D01*
X216358324Y-88456491D01*
X216484465Y-88497477D01*
X216554080Y-88508503D01*
X216686648Y-88529500D01*
X216686649Y-88529500D01*
X216891351Y-88529500D01*
X216891352Y-88529500D01*
X217093534Y-88497477D01*
X217288219Y-88434220D01*
X217470610Y-88341287D01*
X217563590Y-88273732D01*
X217636213Y-88220971D01*
X217636215Y-88220968D01*
X217636219Y-88220966D01*
X217780966Y-88076219D01*
X217799568Y-88050616D01*
X217814100Y-88030615D01*
X217869429Y-87987949D01*
X217914418Y-87979500D01*
X218692770Y-87979500D01*
X218759809Y-87999185D01*
X218780451Y-88015819D01*
X220320181Y-89555548D01*
X220353666Y-89616871D01*
X220356500Y-89643229D01*
X220356500Y-93871770D01*
X220336815Y-93938809D01*
X220320181Y-93959451D01*
X219729451Y-94550181D01*
X219668128Y-94583666D01*
X219641770Y-94586500D01*
X218930418Y-94586500D01*
X218863379Y-94566815D01*
X218830100Y-94535385D01*
X218796971Y-94489787D01*
X218796967Y-94489782D01*
X218652213Y-94345028D01*
X218486613Y-94224715D01*
X218486612Y-94224714D01*
X218486610Y-94224713D01*
X218421202Y-94191386D01*
X218304223Y-94131781D01*
X218109534Y-94068522D01*
X217926293Y-94039500D01*
X217907352Y-94036500D01*
X217702648Y-94036500D01*
X217683707Y-94039500D01*
X217500465Y-94068522D01*
X217305776Y-94131781D01*
X217123386Y-94224715D01*
X216957786Y-94345028D01*
X216813028Y-94489786D01*
X216692715Y-94655386D01*
X216599781Y-94837776D01*
X216536522Y-95032465D01*
X216504500Y-95234648D01*
X216504500Y-95439351D01*
X216536522Y-95641534D01*
X216599781Y-95836223D01*
X216692715Y-96018613D01*
X216813028Y-96184213D01*
X216813034Y-96184219D01*
X216957781Y-96328966D01*
X217003384Y-96362098D01*
X217046050Y-96417425D01*
X217054500Y-96462416D01*
X217054500Y-130320770D01*
X217034815Y-130387809D01*
X217018181Y-130408451D01*
X214736451Y-132690181D01*
X214675128Y-132723666D01*
X214648770Y-132726500D01*
X199498230Y-132726500D01*
X199431191Y-132706815D01*
X199410549Y-132690181D01*
X197458175Y-130737807D01*
X197424690Y-130676484D01*
X197423383Y-130630728D01*
X197438500Y-130535287D01*
X197438500Y-130322713D01*
X197405246Y-130112757D01*
X197339557Y-129910588D01*
X197243051Y-129721184D01*
X197243049Y-129721181D01*
X197243048Y-129721179D01*
X197118109Y-129549213D01*
X196967786Y-129398890D01*
X196795817Y-129273949D01*
X196786504Y-129269204D01*
X196735707Y-129221230D01*
X196718912Y-129153409D01*
X196741449Y-129087274D01*
X196786507Y-129048232D01*
X196795555Y-129043622D01*
X196849716Y-129004270D01*
X196849717Y-129004270D01*
X196217408Y-128371962D01*
X196280993Y-128354925D01*
X196395007Y-128289099D01*
X196488099Y-128196007D01*
X196553925Y-128081993D01*
X196570962Y-128018409D01*
X197203270Y-128650717D01*
X197203270Y-128650716D01*
X197242622Y-128596554D01*
X197339095Y-128407217D01*
X197404757Y-128205130D01*
X197404757Y-128205127D01*
X197438000Y-127995246D01*
X197438000Y-127782753D01*
X197404757Y-127572872D01*
X197404757Y-127572869D01*
X197339095Y-127370782D01*
X197242624Y-127181449D01*
X197203270Y-127127282D01*
X197203269Y-127127282D01*
X196570962Y-127759590D01*
X196553925Y-127696007D01*
X196488099Y-127581993D01*
X196395007Y-127488901D01*
X196280993Y-127423075D01*
X196217409Y-127406037D01*
X196849716Y-126773728D01*
X196795547Y-126734373D01*
X196795547Y-126734372D01*
X196786500Y-126729763D01*
X196783753Y-126727168D01*
X196780085Y-126726253D01*
X196758546Y-126703361D01*
X196735706Y-126681788D01*
X196734797Y-126678119D01*
X196732207Y-126675366D01*
X196726464Y-126644468D01*
X196718912Y-126613966D01*
X196720131Y-126610388D01*
X196719441Y-126606673D01*
X196731311Y-126577581D01*
X196741451Y-126547832D01*
X196744826Y-126544462D01*
X196745839Y-126541982D01*
X196753917Y-126535389D01*
X196771544Y-126517797D01*
X196778702Y-126512770D01*
X196780777Y-126511713D01*
X198549500Y-126511713D01*
X198549500Y-126724287D01*
X198551098Y-126734376D01*
X198568790Y-126846082D01*
X198582754Y-126934243D01*
X198645476Y-127127282D01*
X198648444Y-127136414D01*
X198744951Y-127325820D01*
X198869890Y-127497786D01*
X199020213Y-127648109D01*
X199192179Y-127773048D01*
X199192181Y-127773049D01*
X199192184Y-127773051D01*
X199381588Y-127869557D01*
X199583757Y-127935246D01*
X199793713Y-127968500D01*
X199793714Y-127968500D01*
X200006286Y-127968500D01*
X200006287Y-127968500D01*
X200216243Y-127935246D01*
X200418412Y-127869557D01*
X200607816Y-127773051D01*
X200713859Y-127696007D01*
X200779786Y-127648109D01*
X200779788Y-127648106D01*
X200779792Y-127648104D01*
X200930104Y-127497792D01*
X200930106Y-127497788D01*
X200930109Y-127497786D01*
X201055048Y-127325820D01*
X201055047Y-127325820D01*
X201055051Y-127325816D01*
X201059514Y-127317054D01*
X201107488Y-127266259D01*
X201175308Y-127249463D01*
X201241444Y-127271999D01*
X201280486Y-127317056D01*
X201284951Y-127325820D01*
X201409890Y-127497786D01*
X201560213Y-127648109D01*
X201732179Y-127773048D01*
X201732181Y-127773049D01*
X201732184Y-127773051D01*
X201921588Y-127869557D01*
X202123757Y-127935246D01*
X202333713Y-127968500D01*
X202333714Y-127968500D01*
X202546286Y-127968500D01*
X202546287Y-127968500D01*
X202756243Y-127935246D01*
X202958412Y-127869557D01*
X203147816Y-127773051D01*
X203253859Y-127696007D01*
X203319786Y-127648109D01*
X203319788Y-127648106D01*
X203319792Y-127648104D01*
X203470104Y-127497792D01*
X203470106Y-127497788D01*
X203470109Y-127497786D01*
X203595048Y-127325820D01*
X203595047Y-127325820D01*
X203595051Y-127325816D01*
X203599514Y-127317054D01*
X203647488Y-127266259D01*
X203715308Y-127249463D01*
X203781444Y-127271999D01*
X203820486Y-127317056D01*
X203824951Y-127325820D01*
X203949890Y-127497786D01*
X204100213Y-127648109D01*
X204272179Y-127773048D01*
X204272181Y-127773049D01*
X204272184Y-127773051D01*
X204461588Y-127869557D01*
X204663757Y-127935246D01*
X204873713Y-127968500D01*
X204873714Y-127968500D01*
X205086286Y-127968500D01*
X205086287Y-127968500D01*
X205296243Y-127935246D01*
X205498412Y-127869557D01*
X205687816Y-127773051D01*
X205793859Y-127696007D01*
X205859786Y-127648109D01*
X205859788Y-127648106D01*
X205859792Y-127648104D01*
X206010104Y-127497792D01*
X206010106Y-127497788D01*
X206010109Y-127497786D01*
X206135048Y-127325820D01*
X206135047Y-127325820D01*
X206135051Y-127325816D01*
X206139514Y-127317054D01*
X206187488Y-127266259D01*
X206255308Y-127249463D01*
X206321444Y-127271999D01*
X206360486Y-127317056D01*
X206364951Y-127325820D01*
X206489890Y-127497786D01*
X206640213Y-127648109D01*
X206812179Y-127773048D01*
X206812181Y-127773049D01*
X206812184Y-127773051D01*
X207001588Y-127869557D01*
X207203757Y-127935246D01*
X207413713Y-127968500D01*
X207413714Y-127968500D01*
X207626286Y-127968500D01*
X207626287Y-127968500D01*
X207836243Y-127935246D01*
X208038412Y-127869557D01*
X208227816Y-127773051D01*
X208333859Y-127696007D01*
X208399786Y-127648109D01*
X208399788Y-127648106D01*
X208399792Y-127648104D01*
X208550104Y-127497792D01*
X208550106Y-127497788D01*
X208550109Y-127497786D01*
X208675048Y-127325820D01*
X208675047Y-127325820D01*
X208675051Y-127325816D01*
X208771557Y-127136412D01*
X208837246Y-126934243D01*
X208870500Y-126724287D01*
X208870500Y-126511713D01*
X208837246Y-126301757D01*
X208771557Y-126099588D01*
X208675051Y-125910184D01*
X208675049Y-125910181D01*
X208675048Y-125910179D01*
X208550109Y-125738213D01*
X208399786Y-125587890D01*
X208227820Y-125462951D01*
X208038414Y-125366444D01*
X208038413Y-125366443D01*
X208038412Y-125366443D01*
X207836243Y-125300754D01*
X207836241Y-125300753D01*
X207836240Y-125300753D01*
X207674957Y-125275208D01*
X207626287Y-125267500D01*
X207413713Y-125267500D01*
X207365042Y-125275208D01*
X207203760Y-125300753D01*
X207001585Y-125366444D01*
X206812179Y-125462951D01*
X206640213Y-125587890D01*
X206640209Y-125587894D01*
X206489897Y-125738207D01*
X206489890Y-125738213D01*
X206364949Y-125910182D01*
X206360484Y-125918946D01*
X206312509Y-125969742D01*
X206244688Y-125986536D01*
X206178553Y-125963998D01*
X206139516Y-125918946D01*
X206135050Y-125910182D01*
X206010109Y-125738213D01*
X205859786Y-125587890D01*
X205687820Y-125462951D01*
X205498414Y-125366444D01*
X205498413Y-125366443D01*
X205498412Y-125366443D01*
X205296243Y-125300754D01*
X205296241Y-125300753D01*
X205296240Y-125300753D01*
X205134957Y-125275208D01*
X205086287Y-125267500D01*
X204873713Y-125267500D01*
X204825042Y-125275208D01*
X204663760Y-125300753D01*
X204461585Y-125366444D01*
X204272179Y-125462951D01*
X204100213Y-125587890D01*
X204100209Y-125587894D01*
X203949897Y-125738207D01*
X203949890Y-125738213D01*
X203824949Y-125910182D01*
X203820484Y-125918946D01*
X203772509Y-125969742D01*
X203704688Y-125986536D01*
X203638553Y-125963998D01*
X203599516Y-125918946D01*
X203595050Y-125910182D01*
X203470109Y-125738213D01*
X203319786Y-125587890D01*
X203147820Y-125462951D01*
X202958414Y-125366444D01*
X202958413Y-125366443D01*
X202958412Y-125366443D01*
X202756243Y-125300754D01*
X202756241Y-125300753D01*
X202756240Y-125300753D01*
X202594957Y-125275208D01*
X202546287Y-125267500D01*
X202333713Y-125267500D01*
X202285042Y-125275208D01*
X202123760Y-125300753D01*
X201921585Y-125366444D01*
X201732179Y-125462951D01*
X201560213Y-125587890D01*
X201560209Y-125587894D01*
X201409897Y-125738207D01*
X201409890Y-125738213D01*
X201284949Y-125910182D01*
X201280484Y-125918946D01*
X201232509Y-125969742D01*
X201164688Y-125986536D01*
X201098553Y-125963998D01*
X201059516Y-125918946D01*
X201055050Y-125910182D01*
X200930109Y-125738213D01*
X200779786Y-125587890D01*
X200607820Y-125462951D01*
X200418414Y-125366444D01*
X200418413Y-125366443D01*
X200418412Y-125366443D01*
X200216243Y-125300754D01*
X200216241Y-125300753D01*
X200216240Y-125300753D01*
X200054957Y-125275208D01*
X200006287Y-125267500D01*
X199793713Y-125267500D01*
X199745042Y-125275208D01*
X199583760Y-125300753D01*
X199381585Y-125366444D01*
X199192179Y-125462951D01*
X199020213Y-125587890D01*
X199020209Y-125587894D01*
X198869897Y-125738207D01*
X198869890Y-125738213D01*
X198744951Y-125910179D01*
X198648444Y-126099585D01*
X198582753Y-126301760D01*
X198550714Y-126504048D01*
X198549500Y-126511713D01*
X196780777Y-126511713D01*
X196795816Y-126504051D01*
X196936726Y-126401674D01*
X196967786Y-126379109D01*
X196967788Y-126379106D01*
X196967792Y-126379104D01*
X197118104Y-126228792D01*
X197118106Y-126228788D01*
X197118109Y-126228786D01*
X197243048Y-126056820D01*
X197243047Y-126056820D01*
X197243051Y-126056816D01*
X197339557Y-125867412D01*
X197405246Y-125665243D01*
X197438500Y-125455287D01*
X197438500Y-125242713D01*
X197405246Y-125032757D01*
X197339557Y-124830588D01*
X197243051Y-124641184D01*
X197243049Y-124641181D01*
X197243048Y-124641179D01*
X197118109Y-124469213D01*
X196967786Y-124318890D01*
X196795820Y-124193951D01*
X196795115Y-124193591D01*
X196787054Y-124189485D01*
X196736259Y-124141512D01*
X196719463Y-124073692D01*
X196741999Y-124007556D01*
X196787054Y-123968515D01*
X196795816Y-123964051D01*
X196833352Y-123936780D01*
X196967786Y-123839109D01*
X196967788Y-123839106D01*
X196967792Y-123839104D01*
X197118104Y-123688792D01*
X197118106Y-123688788D01*
X197118109Y-123688786D01*
X197243048Y-123516820D01*
X197243047Y-123516820D01*
X197243051Y-123516816D01*
X197339557Y-123327412D01*
X197405246Y-123125243D01*
X197438500Y-122915287D01*
X197438500Y-122702713D01*
X197405246Y-122492757D01*
X197339557Y-122290588D01*
X197243051Y-122101184D01*
X197243049Y-122101181D01*
X197243048Y-122101179D01*
X197118109Y-121929213D01*
X196967786Y-121778890D01*
X196795820Y-121653951D01*
X196795115Y-121653591D01*
X196787054Y-121649485D01*
X196736259Y-121601512D01*
X196719463Y-121533692D01*
X196741999Y-121467556D01*
X196787054Y-121428515D01*
X196795816Y-121424051D01*
X196902206Y-121346755D01*
X196967786Y-121299109D01*
X196967788Y-121299106D01*
X196967792Y-121299104D01*
X197118104Y-121148792D01*
X197118106Y-121148788D01*
X197118109Y-121148786D01*
X197243048Y-120976820D01*
X197243047Y-120976820D01*
X197243051Y-120976816D01*
X197339557Y-120787412D01*
X197405246Y-120585243D01*
X197438500Y-120375287D01*
X197438500Y-120162713D01*
X197405246Y-119952757D01*
X197339557Y-119750588D01*
X197243051Y-119561184D01*
X197243049Y-119561181D01*
X197243048Y-119561179D01*
X197118109Y-119389213D01*
X196967786Y-119238890D01*
X196795820Y-119113951D01*
X196795115Y-119113591D01*
X196787054Y-119109485D01*
X196736259Y-119061512D01*
X196719463Y-118993692D01*
X196741999Y-118927556D01*
X196787054Y-118888515D01*
X196795816Y-118884051D01*
X196853695Y-118842000D01*
X196967786Y-118759109D01*
X196967788Y-118759106D01*
X196967792Y-118759104D01*
X197118104Y-118608792D01*
X197118106Y-118608788D01*
X197118109Y-118608786D01*
X197243048Y-118436820D01*
X197243047Y-118436820D01*
X197243051Y-118436816D01*
X197339557Y-118247412D01*
X197405246Y-118045243D01*
X197438500Y-117835287D01*
X197438500Y-117622713D01*
X197405246Y-117412757D01*
X197339557Y-117210588D01*
X197243051Y-117021184D01*
X197243049Y-117021181D01*
X197243048Y-117021179D01*
X197118109Y-116849213D01*
X196967786Y-116698890D01*
X196795820Y-116573951D01*
X196795115Y-116573591D01*
X196787054Y-116569485D01*
X196736259Y-116521512D01*
X196719463Y-116453692D01*
X196741999Y-116387556D01*
X196787054Y-116348515D01*
X196795816Y-116344051D01*
X196817789Y-116328086D01*
X196967786Y-116219109D01*
X196967788Y-116219106D01*
X196967792Y-116219104D01*
X197118104Y-116068792D01*
X197118106Y-116068788D01*
X197118109Y-116068786D01*
X197243048Y-115896820D01*
X197243047Y-115896820D01*
X197243051Y-115896816D01*
X197339557Y-115707412D01*
X197405246Y-115505243D01*
X197438500Y-115295287D01*
X197438500Y-115082713D01*
X197405246Y-114872757D01*
X197339557Y-114670588D01*
X197243051Y-114481184D01*
X197243049Y-114481181D01*
X197243048Y-114481179D01*
X197118109Y-114309213D01*
X196967786Y-114158890D01*
X196795820Y-114033951D01*
X196795115Y-114033591D01*
X196787054Y-114029485D01*
X196736259Y-113981512D01*
X196719463Y-113913692D01*
X196741999Y-113847556D01*
X196787054Y-113808515D01*
X196795816Y-113804051D01*
X196817789Y-113788086D01*
X196967786Y-113679109D01*
X196967788Y-113679106D01*
X196967792Y-113679104D01*
X197118104Y-113528792D01*
X197118106Y-113528788D01*
X197118109Y-113528786D01*
X197243048Y-113356820D01*
X197243047Y-113356820D01*
X197243051Y-113356816D01*
X197339557Y-113167412D01*
X197405246Y-112965243D01*
X197438500Y-112755287D01*
X197438500Y-112542713D01*
X197405246Y-112332757D01*
X197339557Y-112130588D01*
X197243051Y-111941184D01*
X197243049Y-111941181D01*
X197243048Y-111941179D01*
X197118109Y-111769213D01*
X196967786Y-111618890D01*
X196795820Y-111493951D01*
X196795115Y-111493591D01*
X196787054Y-111489485D01*
X196736259Y-111441512D01*
X196719463Y-111373692D01*
X196741999Y-111307556D01*
X196787054Y-111268515D01*
X196795816Y-111264051D01*
X196817789Y-111248086D01*
X196967786Y-111139109D01*
X196967788Y-111139106D01*
X196967792Y-111139104D01*
X197118104Y-110988792D01*
X197118106Y-110988788D01*
X197118109Y-110988786D01*
X197243048Y-110816820D01*
X197243047Y-110816820D01*
X197243051Y-110816816D01*
X197339557Y-110627412D01*
X197405246Y-110425243D01*
X197438500Y-110215287D01*
X197438500Y-110002713D01*
X197405246Y-109792757D01*
X197339557Y-109590588D01*
X197243051Y-109401184D01*
X197243049Y-109401181D01*
X197243048Y-109401179D01*
X197118109Y-109229213D01*
X196967786Y-109078890D01*
X196795820Y-108953951D01*
X196795115Y-108953591D01*
X196787054Y-108949485D01*
X196736259Y-108901512D01*
X196719463Y-108833692D01*
X196741999Y-108767556D01*
X196787054Y-108728515D01*
X196795816Y-108724051D01*
X196817789Y-108708086D01*
X196967786Y-108599109D01*
X196967788Y-108599106D01*
X196967792Y-108599104D01*
X197118104Y-108448792D01*
X197118106Y-108448788D01*
X197118109Y-108448786D01*
X197243048Y-108276820D01*
X197243047Y-108276820D01*
X197243051Y-108276816D01*
X197339557Y-108087412D01*
X197405246Y-107885243D01*
X197438500Y-107675287D01*
X197438500Y-107462713D01*
X197405246Y-107252757D01*
X197339557Y-107050588D01*
X197243051Y-106861184D01*
X197243049Y-106861181D01*
X197243048Y-106861179D01*
X197118109Y-106689213D01*
X196967786Y-106538890D01*
X196795820Y-106413951D01*
X196790540Y-106411261D01*
X196787054Y-106409485D01*
X196736259Y-106361512D01*
X196719463Y-106293692D01*
X196741999Y-106227556D01*
X196787054Y-106188515D01*
X196795816Y-106184051D01*
X196845483Y-106147966D01*
X196967786Y-106059109D01*
X196967788Y-106059106D01*
X196967792Y-106059104D01*
X197118104Y-105908792D01*
X197118106Y-105908788D01*
X197118109Y-105908786D01*
X197243048Y-105736820D01*
X197243047Y-105736820D01*
X197243051Y-105736816D01*
X197339557Y-105547412D01*
X197405246Y-105345243D01*
X197438500Y-105135287D01*
X197438500Y-104922713D01*
X197405246Y-104712757D01*
X197339557Y-104510588D01*
X197243051Y-104321184D01*
X197243049Y-104321181D01*
X197243048Y-104321179D01*
X197118109Y-104149213D01*
X196967786Y-103998890D01*
X196795820Y-103873951D01*
X196795115Y-103873591D01*
X196787054Y-103869485D01*
X196736259Y-103821512D01*
X196719463Y-103753692D01*
X196741999Y-103687556D01*
X196787054Y-103648515D01*
X196795816Y-103644051D01*
X196853768Y-103601947D01*
X196967786Y-103519109D01*
X196967788Y-103519106D01*
X196967792Y-103519104D01*
X197118104Y-103368792D01*
X197118106Y-103368788D01*
X197118109Y-103368786D01*
X197243048Y-103196820D01*
X197243047Y-103196820D01*
X197243051Y-103196816D01*
X197339557Y-103007412D01*
X197405246Y-102805243D01*
X197438500Y-102595287D01*
X197438500Y-102382713D01*
X197405246Y-102172757D01*
X197339557Y-101970588D01*
X197243051Y-101781184D01*
X197243049Y-101781181D01*
X197243048Y-101781179D01*
X197118109Y-101609213D01*
X196967786Y-101458890D01*
X196795820Y-101333951D01*
X196795115Y-101333591D01*
X196787054Y-101329485D01*
X196736259Y-101281512D01*
X196719463Y-101213692D01*
X196741999Y-101147556D01*
X196787054Y-101108515D01*
X196795816Y-101104051D01*
X196850255Y-101064499D01*
X196967786Y-100979109D01*
X196967788Y-100979106D01*
X196967792Y-100979104D01*
X197118104Y-100828792D01*
X197118106Y-100828788D01*
X197118109Y-100828786D01*
X197243048Y-100656820D01*
X197243047Y-100656820D01*
X197243051Y-100656816D01*
X197339557Y-100467412D01*
X197405246Y-100265243D01*
X197438500Y-100055287D01*
X197438500Y-99842713D01*
X197405246Y-99632757D01*
X197339557Y-99430588D01*
X197243051Y-99241184D01*
X197243049Y-99241181D01*
X197243048Y-99241179D01*
X197118109Y-99069213D01*
X196967786Y-98918890D01*
X196795820Y-98793951D01*
X196795115Y-98793591D01*
X196787054Y-98789485D01*
X196736259Y-98741512D01*
X196719463Y-98673692D01*
X196741999Y-98607556D01*
X196787054Y-98568515D01*
X196795816Y-98564051D01*
X196831522Y-98538109D01*
X196967786Y-98439109D01*
X196967788Y-98439106D01*
X196967792Y-98439104D01*
X197118104Y-98288792D01*
X197118106Y-98288788D01*
X197118109Y-98288786D01*
X197243048Y-98116820D01*
X197243047Y-98116820D01*
X197243051Y-98116816D01*
X197339557Y-97927412D01*
X197405246Y-97725243D01*
X197438500Y-97515287D01*
X197438500Y-97302713D01*
X197405246Y-97092757D01*
X197339557Y-96890588D01*
X197243051Y-96701184D01*
X197243049Y-96701181D01*
X197243048Y-96701179D01*
X197118109Y-96529213D01*
X196967786Y-96378890D01*
X196795820Y-96253951D01*
X196795115Y-96253591D01*
X196787054Y-96249485D01*
X196736259Y-96201512D01*
X196719463Y-96133692D01*
X196741999Y-96067556D01*
X196787054Y-96028515D01*
X196795816Y-96024051D01*
X196871328Y-95969189D01*
X196967786Y-95899109D01*
X196967788Y-95899106D01*
X196967792Y-95899104D01*
X197118104Y-95748792D01*
X197118106Y-95748788D01*
X197118109Y-95748786D01*
X197243048Y-95576820D01*
X197243047Y-95576820D01*
X197243051Y-95576816D01*
X197339557Y-95387412D01*
X197405246Y-95185243D01*
X197438500Y-94975287D01*
X197438500Y-94762713D01*
X197405246Y-94552757D01*
X197339557Y-94350588D01*
X197243051Y-94161184D01*
X197243049Y-94161181D01*
X197243048Y-94161179D01*
X197118109Y-93989213D01*
X196967786Y-93838890D01*
X196795820Y-93713951D01*
X196795115Y-93713591D01*
X196787054Y-93709485D01*
X196736259Y-93661512D01*
X196719463Y-93593692D01*
X196741999Y-93527556D01*
X196787054Y-93488515D01*
X196795816Y-93484051D01*
X196817789Y-93468086D01*
X196967786Y-93359109D01*
X196967788Y-93359106D01*
X196967792Y-93359104D01*
X197118104Y-93208792D01*
X197118106Y-93208788D01*
X197118109Y-93208786D01*
X197243048Y-93036820D01*
X197243047Y-93036820D01*
X197243051Y-93036816D01*
X197339557Y-92847412D01*
X197405246Y-92645243D01*
X197438500Y-92435287D01*
X197438500Y-92222713D01*
X197405246Y-92012757D01*
X197339557Y-91810588D01*
X197243051Y-91621184D01*
X197243049Y-91621181D01*
X197243048Y-91621179D01*
X197118109Y-91449213D01*
X196967786Y-91298890D01*
X196795820Y-91173951D01*
X196795115Y-91173591D01*
X196787054Y-91169485D01*
X196736259Y-91121512D01*
X196719463Y-91053692D01*
X196741999Y-90987556D01*
X196787054Y-90948515D01*
X196795816Y-90944051D01*
X196927738Y-90848205D01*
X196967786Y-90819109D01*
X196967788Y-90819106D01*
X196967792Y-90819104D01*
X197118104Y-90668792D01*
X197118106Y-90668788D01*
X197118109Y-90668786D01*
X197243048Y-90496820D01*
X197243047Y-90496820D01*
X197243051Y-90496816D01*
X197339557Y-90307412D01*
X197405246Y-90105243D01*
X197438500Y-89895287D01*
X197438500Y-89682713D01*
X197405246Y-89472757D01*
X197339557Y-89270588D01*
X197243051Y-89081184D01*
X197243049Y-89081181D01*
X197243048Y-89081179D01*
X197118109Y-88909213D01*
X196967786Y-88758890D01*
X196795820Y-88633951D01*
X196795115Y-88633591D01*
X196787054Y-88629485D01*
X196736259Y-88581512D01*
X196719463Y-88513692D01*
X196741999Y-88447556D01*
X196787054Y-88408515D01*
X196795816Y-88404051D01*
X196882208Y-88341284D01*
X196967786Y-88279109D01*
X196967788Y-88279106D01*
X196967792Y-88279104D01*
X197118104Y-88128792D01*
X197118106Y-88128788D01*
X197118109Y-88128786D01*
X197243048Y-87956820D01*
X197243047Y-87956820D01*
X197243051Y-87956816D01*
X197339557Y-87767412D01*
X197405246Y-87565243D01*
X197438500Y-87355287D01*
X197438500Y-87142713D01*
X197405246Y-86932757D01*
X197339557Y-86730588D01*
X197243051Y-86541184D01*
X197243049Y-86541181D01*
X197243048Y-86541179D01*
X197118109Y-86369213D01*
X196967786Y-86218890D01*
X196795820Y-86093951D01*
X196795115Y-86093591D01*
X196787054Y-86089485D01*
X196736259Y-86041512D01*
X196719463Y-85973692D01*
X196741999Y-85907556D01*
X196787054Y-85868515D01*
X196795816Y-85864051D01*
X196872312Y-85808474D01*
X196967786Y-85739109D01*
X196967788Y-85739106D01*
X196967792Y-85739104D01*
X197118104Y-85588792D01*
X197118106Y-85588788D01*
X197118109Y-85588786D01*
X197243048Y-85416820D01*
X197243047Y-85416820D01*
X197243051Y-85416816D01*
X197339557Y-85227412D01*
X197405246Y-85025243D01*
X197438500Y-84815287D01*
X197438500Y-84602713D01*
X197405246Y-84392757D01*
X197339557Y-84190588D01*
X197243051Y-84001184D01*
X197243049Y-84001181D01*
X197243048Y-84001179D01*
X197118109Y-83829213D01*
X197004569Y-83715673D01*
X196971084Y-83654350D01*
X196976068Y-83584658D01*
X197017940Y-83528725D01*
X197048915Y-83511810D01*
X197180331Y-83462796D01*
X197295546Y-83376546D01*
X197381796Y-83261331D01*
X197432091Y-83126483D01*
X197438500Y-83066873D01*
X197438499Y-81271128D01*
X197432091Y-81211517D01*
X197397821Y-81119635D01*
X197381797Y-81076671D01*
X197381793Y-81076664D01*
X197295547Y-80961455D01*
X197295544Y-80961452D01*
X197180335Y-80875206D01*
X197180328Y-80875202D01*
X197045482Y-80824908D01*
X197045483Y-80824908D01*
X196985883Y-80818501D01*
X196985881Y-80818500D01*
X196985873Y-80818500D01*
X196985865Y-80818500D01*
X196470808Y-80818500D01*
X196403769Y-80798815D01*
X196383127Y-80782181D01*
X194015469Y-78414522D01*
X193932660Y-78331713D01*
X218915500Y-78331713D01*
X218915500Y-78544286D01*
X218948753Y-78754239D01*
X219014444Y-78956414D01*
X219110951Y-79145820D01*
X219235890Y-79317786D01*
X219386213Y-79468109D01*
X219558179Y-79593048D01*
X219558181Y-79593049D01*
X219558184Y-79593051D01*
X219747588Y-79689557D01*
X219949757Y-79755246D01*
X220159713Y-79788500D01*
X220159714Y-79788500D01*
X220372286Y-79788500D01*
X220372287Y-79788500D01*
X220582243Y-79755246D01*
X220784412Y-79689557D01*
X220973816Y-79593051D01*
X220995789Y-79577086D01*
X221145786Y-79468109D01*
X221145788Y-79468106D01*
X221145792Y-79468104D01*
X221296104Y-79317792D01*
X221296106Y-79317788D01*
X221296109Y-79317786D01*
X221421048Y-79145820D01*
X221421047Y-79145820D01*
X221421051Y-79145816D01*
X221517557Y-78956412D01*
X221583246Y-78754243D01*
X221616500Y-78544287D01*
X221616500Y-78331713D01*
X221583246Y-78121757D01*
X221517557Y-77919588D01*
X221421051Y-77730184D01*
X221421049Y-77730181D01*
X221421048Y-77730179D01*
X221296109Y-77558213D01*
X221145786Y-77407890D01*
X220973820Y-77282951D01*
X220784414Y-77186444D01*
X220784413Y-77186443D01*
X220784412Y-77186443D01*
X220582243Y-77120754D01*
X220582241Y-77120753D01*
X220582240Y-77120753D01*
X220420957Y-77095208D01*
X220372287Y-77087500D01*
X220159713Y-77087500D01*
X220111042Y-77095208D01*
X219949760Y-77120753D01*
X219747585Y-77186444D01*
X219558179Y-77282951D01*
X219386213Y-77407890D01*
X219235890Y-77558213D01*
X219110951Y-77730179D01*
X219014444Y-77919585D01*
X218948753Y-78121760D01*
X218915500Y-78331713D01*
X193932660Y-78331713D01*
X192946673Y-77345726D01*
X192946669Y-77345723D01*
X192840127Y-77274535D01*
X192721744Y-77225499D01*
X192721742Y-77225498D01*
X192715250Y-77224207D01*
X192710902Y-77223342D01*
X192710900Y-77223341D01*
X192710900Y-77223342D01*
X192596071Y-77200500D01*
X192596069Y-77200500D01*
X171258931Y-77200500D01*
X171258929Y-77200500D01*
X171144105Y-77223341D01*
X171144100Y-77223342D01*
X171133256Y-77225499D01*
X171133255Y-77225499D01*
X171014874Y-77274534D01*
X170908326Y-77345726D01*
X166626724Y-81627328D01*
X166568061Y-81715124D01*
X166568062Y-81715125D01*
X166555536Y-81733871D01*
X166555533Y-81733877D01*
X166506499Y-81852255D01*
X166506497Y-81852261D01*
X166481500Y-81977928D01*
X166481500Y-83595000D01*
X166461815Y-83662039D01*
X166409011Y-83707794D01*
X166357500Y-83719000D01*
X165731000Y-83719000D01*
X165731000Y-84635988D01*
X165673993Y-84603075D01*
X165546826Y-84569000D01*
X165415174Y-84569000D01*
X165288007Y-84603075D01*
X165231000Y-84635988D01*
X165231000Y-83719000D01*
X164583155Y-83719000D01*
X164523627Y-83725401D01*
X164523620Y-83725403D01*
X164388913Y-83775645D01*
X164388906Y-83775649D01*
X164273812Y-83861809D01*
X164273809Y-83861812D01*
X164187649Y-83976906D01*
X164187645Y-83976913D01*
X164137403Y-84111620D01*
X164137401Y-84111627D01*
X164131000Y-84171155D01*
X164131000Y-84819000D01*
X165047988Y-84819000D01*
X165015075Y-84876007D01*
X164981000Y-85003174D01*
X164981000Y-85134826D01*
X165015075Y-85261993D01*
X165047988Y-85319000D01*
X164131000Y-85319000D01*
X164131000Y-85966844D01*
X164137401Y-86026372D01*
X164137403Y-86026379D01*
X164187645Y-86161086D01*
X164187649Y-86161093D01*
X164273809Y-86276187D01*
X164273812Y-86276190D01*
X164388906Y-86362350D01*
X164388913Y-86362354D01*
X164520470Y-86411422D01*
X164576404Y-86453293D01*
X164600821Y-86518758D01*
X164585969Y-86587031D01*
X164564819Y-86615285D01*
X164450889Y-86729215D01*
X164325951Y-86901179D01*
X164229444Y-87090585D01*
X164163753Y-87292760D01*
X164130500Y-87502713D01*
X164130500Y-87715292D01*
X164145616Y-87810728D01*
X164136662Y-87880021D01*
X164110824Y-87917807D01*
X163374050Y-88654580D01*
X163374044Y-88654588D01*
X163324812Y-88728268D01*
X163324813Y-88728269D01*
X163291921Y-88777496D01*
X163291914Y-88777508D01*
X163235342Y-88914086D01*
X163235340Y-88914092D01*
X163206500Y-89059079D01*
X163206500Y-89059082D01*
X163206500Y-94307918D01*
X163206500Y-94307920D01*
X163206499Y-94307920D01*
X163235340Y-94452907D01*
X163235343Y-94452917D01*
X163291912Y-94589488D01*
X163291916Y-94589495D01*
X163316640Y-94626497D01*
X163316641Y-94626500D01*
X163316642Y-94626500D01*
X163374047Y-94712415D01*
X163374051Y-94712420D01*
X163374052Y-94712421D01*
X165637584Y-96975952D01*
X165637586Y-96975954D01*
X165667058Y-96995645D01*
X165711270Y-97025186D01*
X165760505Y-97058084D01*
X165760506Y-97058084D01*
X165760507Y-97058085D01*
X165760509Y-97058086D01*
X165844213Y-97092757D01*
X165897087Y-97114658D01*
X165897091Y-97114658D01*
X165897092Y-97114659D01*
X166042079Y-97143500D01*
X166042082Y-97143500D01*
X166042083Y-97143500D01*
X166189917Y-97143500D01*
X183914770Y-97143500D01*
X183981809Y-97163185D01*
X184002451Y-97179819D01*
X188062181Y-101239548D01*
X188095666Y-101300871D01*
X188098500Y-101327229D01*
X188098500Y-107899396D01*
X188089062Y-107946844D01*
X188079263Y-107970503D01*
X188079262Y-107970506D01*
X188079260Y-107970511D01*
X188048500Y-108125153D01*
X188048500Y-108282846D01*
X188079261Y-108437489D01*
X188079264Y-108437501D01*
X188139602Y-108583172D01*
X188139609Y-108583185D01*
X188227210Y-108714288D01*
X188227213Y-108714292D01*
X188306806Y-108793885D01*
X188340291Y-108855208D01*
X188335307Y-108924900D01*
X188306806Y-108969247D01*
X185186873Y-112089181D01*
X185125550Y-112122666D01*
X185099192Y-112125500D01*
X168556499Y-112125500D01*
X168489460Y-112105815D01*
X168443705Y-112053011D01*
X168432499Y-112001500D01*
X168432499Y-111928129D01*
X168432498Y-111928123D01*
X168432497Y-111928116D01*
X168426091Y-111868517D01*
X168375796Y-111733669D01*
X168375795Y-111733668D01*
X168375793Y-111733664D01*
X168289547Y-111618455D01*
X168289544Y-111618452D01*
X168174335Y-111532206D01*
X168174328Y-111532202D01*
X168039482Y-111481908D01*
X168039483Y-111481908D01*
X167979883Y-111475501D01*
X167979881Y-111475500D01*
X167979873Y-111475500D01*
X167979864Y-111475500D01*
X166284129Y-111475500D01*
X166284123Y-111475501D01*
X166224516Y-111481908D01*
X166089671Y-111532202D01*
X166089664Y-111532206D01*
X165974455Y-111618452D01*
X165974452Y-111618455D01*
X165888206Y-111733664D01*
X165888202Y-111733671D01*
X165837908Y-111868517D01*
X165831501Y-111928116D01*
X165831501Y-111928123D01*
X165831500Y-111928135D01*
X165831500Y-112001500D01*
X165811815Y-112068539D01*
X165759011Y-112114294D01*
X165707500Y-112125500D01*
X149506499Y-112125500D01*
X149439460Y-112105815D01*
X149393705Y-112053011D01*
X149382499Y-112001500D01*
X149382499Y-111928129D01*
X149382498Y-111928123D01*
X149382497Y-111928116D01*
X149376091Y-111868517D01*
X149325796Y-111733669D01*
X149325795Y-111733668D01*
X149325793Y-111733664D01*
X149239547Y-111618455D01*
X149239544Y-111618452D01*
X149124335Y-111532206D01*
X149124328Y-111532202D01*
X148989482Y-111481908D01*
X148989483Y-111481908D01*
X148929883Y-111475501D01*
X148929881Y-111475500D01*
X148929873Y-111475500D01*
X148929864Y-111475500D01*
X147234129Y-111475500D01*
X147234123Y-111475501D01*
X147174516Y-111481908D01*
X147039671Y-111532202D01*
X147039664Y-111532206D01*
X146924455Y-111618452D01*
X146924452Y-111618455D01*
X146838206Y-111733664D01*
X146838202Y-111733671D01*
X146787908Y-111868517D01*
X146781501Y-111928116D01*
X146781501Y-111928123D01*
X146781500Y-111928135D01*
X146781500Y-112001500D01*
X146761815Y-112068539D01*
X146709011Y-112114294D01*
X146657500Y-112125500D01*
X130456499Y-112125500D01*
X130389460Y-112105815D01*
X130343705Y-112053011D01*
X130332499Y-112001500D01*
X130332499Y-111928129D01*
X130332498Y-111928123D01*
X130332497Y-111928116D01*
X130326091Y-111868517D01*
X130275796Y-111733669D01*
X130275795Y-111733668D01*
X130275793Y-111733664D01*
X130189547Y-111618455D01*
X130189544Y-111618452D01*
X130074335Y-111532206D01*
X130074328Y-111532202D01*
X129939482Y-111481908D01*
X129939483Y-111481908D01*
X129879883Y-111475501D01*
X129879881Y-111475500D01*
X129879873Y-111475500D01*
X129879864Y-111475500D01*
X128184129Y-111475500D01*
X128184123Y-111475501D01*
X128124516Y-111481908D01*
X127989671Y-111532202D01*
X127989664Y-111532206D01*
X127874455Y-111618452D01*
X127874452Y-111618455D01*
X127788206Y-111733664D01*
X127788202Y-111733671D01*
X127737908Y-111868517D01*
X127731501Y-111928116D01*
X127731501Y-111928123D01*
X127731500Y-111928135D01*
X122628500Y-111928135D01*
X122628500Y-105053648D01*
X127731500Y-105053648D01*
X127731500Y-105258351D01*
X127763522Y-105460534D01*
X127826781Y-105655223D01*
X127890691Y-105780653D01*
X127916509Y-105831322D01*
X127919715Y-105837613D01*
X128040028Y-106003213D01*
X128184786Y-106147971D01*
X128294328Y-106227556D01*
X128350390Y-106268287D01*
X128446864Y-106317443D01*
X128532776Y-106361218D01*
X128532778Y-106361218D01*
X128532781Y-106361220D01*
X128637137Y-106395127D01*
X128727465Y-106424477D01*
X128828557Y-106440488D01*
X128929648Y-106456500D01*
X128929649Y-106456500D01*
X129134351Y-106456500D01*
X129134352Y-106456500D01*
X129336534Y-106424477D01*
X129531219Y-106361220D01*
X129713610Y-106268287D01*
X129829552Y-106184051D01*
X129879213Y-106147971D01*
X129879215Y-106147968D01*
X129879219Y-106147966D01*
X130023966Y-106003219D01*
X130023968Y-106003215D01*
X130023971Y-106003213D01*
X130082021Y-105923313D01*
X130144287Y-105837610D01*
X130237220Y-105655219D01*
X130300477Y-105460534D01*
X130332500Y-105258352D01*
X130332500Y-105053648D01*
X130300477Y-104851466D01*
X130289210Y-104816791D01*
X130237218Y-104656776D01*
X130144287Y-104474390D01*
X130072317Y-104375331D01*
X130072316Y-104375328D01*
X130023971Y-104308787D01*
X130023967Y-104308782D01*
X130022497Y-104307312D01*
X132375600Y-104307312D01*
X132375600Y-104480687D01*
X132402720Y-104651913D01*
X132456290Y-104816788D01*
X132456291Y-104816791D01*
X132510262Y-104922713D01*
X132534998Y-104971260D01*
X132636899Y-105111514D01*
X132759486Y-105234101D01*
X132899740Y-105336002D01*
X132975502Y-105374604D01*
X133054208Y-105414708D01*
X133054211Y-105414709D01*
X133136648Y-105441494D01*
X133219088Y-105468280D01*
X133298391Y-105480840D01*
X133390313Y-105495400D01*
X133390318Y-105495400D01*
X133563687Y-105495400D01*
X133648577Y-105481954D01*
X133734912Y-105468280D01*
X133899791Y-105414708D01*
X134054260Y-105336002D01*
X134194514Y-105234101D01*
X134317101Y-105111514D01*
X134419002Y-104971260D01*
X134497708Y-104816791D01*
X134551280Y-104651912D01*
X134568831Y-104541099D01*
X134578400Y-104480687D01*
X134578400Y-104307312D01*
X134571260Y-104262233D01*
X134568831Y-104246900D01*
X136312600Y-104246900D01*
X136312600Y-104541099D01*
X136312601Y-104541116D01*
X136351001Y-104832796D01*
X136427152Y-105116994D01*
X136539734Y-105388794D01*
X136539742Y-105388810D01*
X136686840Y-105643589D01*
X136686851Y-105643605D01*
X136865948Y-105877009D01*
X136865954Y-105877016D01*
X137073983Y-106085045D01*
X137073990Y-106085051D01*
X137208826Y-106188514D01*
X137307403Y-106264155D01*
X137307410Y-106264159D01*
X137562189Y-106411257D01*
X137562205Y-106411265D01*
X137834005Y-106523847D01*
X137834007Y-106523847D01*
X137834013Y-106523850D01*
X138118200Y-106599998D01*
X138409894Y-106638400D01*
X138409901Y-106638400D01*
X138704099Y-106638400D01*
X138704106Y-106638400D01*
X138995800Y-106599998D01*
X139279987Y-106523850D01*
X139545314Y-106413949D01*
X139551794Y-106411265D01*
X139551797Y-106411263D01*
X139551803Y-106411261D01*
X139806597Y-106264155D01*
X140040011Y-106085050D01*
X140248050Y-105877011D01*
X140427155Y-105643597D01*
X140574261Y-105388803D01*
X140686850Y-105116987D01*
X140762998Y-104832800D01*
X140801400Y-104541106D01*
X140801400Y-104307312D01*
X142535600Y-104307312D01*
X142535600Y-104480687D01*
X142562720Y-104651913D01*
X142616290Y-104816788D01*
X142616291Y-104816791D01*
X142670262Y-104922713D01*
X142694998Y-104971260D01*
X142796899Y-105111514D01*
X142919486Y-105234101D01*
X143059740Y-105336002D01*
X143135502Y-105374604D01*
X143214208Y-105414708D01*
X143214211Y-105414709D01*
X143296648Y-105441494D01*
X143379088Y-105468280D01*
X143458391Y-105480840D01*
X143550313Y-105495400D01*
X143550318Y-105495400D01*
X143723687Y-105495400D01*
X143808577Y-105481954D01*
X143894912Y-105468280D01*
X144059791Y-105414708D01*
X144214260Y-105336002D01*
X144354514Y-105234101D01*
X144477101Y-105111514D01*
X144519143Y-105053648D01*
X146781500Y-105053648D01*
X146781500Y-105258351D01*
X146813522Y-105460534D01*
X146876781Y-105655223D01*
X146940691Y-105780653D01*
X146966509Y-105831322D01*
X146969715Y-105837613D01*
X147090028Y-106003213D01*
X147234786Y-106147971D01*
X147344328Y-106227556D01*
X147400390Y-106268287D01*
X147496864Y-106317443D01*
X147582776Y-106361218D01*
X147582778Y-106361218D01*
X147582781Y-106361220D01*
X147687137Y-106395127D01*
X147777465Y-106424477D01*
X147878557Y-106440488D01*
X147979648Y-106456500D01*
X147979649Y-106456500D01*
X148184351Y-106456500D01*
X148184352Y-106456500D01*
X148386534Y-106424477D01*
X148581219Y-106361220D01*
X148763610Y-106268287D01*
X148879552Y-106184051D01*
X148929213Y-106147971D01*
X148929215Y-106147968D01*
X148929219Y-106147966D01*
X149073966Y-106003219D01*
X149073968Y-106003215D01*
X149073971Y-106003213D01*
X149132021Y-105923313D01*
X149194287Y-105837610D01*
X149287220Y-105655219D01*
X149350477Y-105460534D01*
X149382500Y-105258352D01*
X149382500Y-105053648D01*
X149350477Y-104851466D01*
X149339210Y-104816791D01*
X149287218Y-104656776D01*
X149194287Y-104474390D01*
X149122317Y-104375331D01*
X149122316Y-104375328D01*
X149073971Y-104308787D01*
X149073967Y-104308782D01*
X149072497Y-104307312D01*
X151425600Y-104307312D01*
X151425600Y-104480687D01*
X151452720Y-104651913D01*
X151506290Y-104816788D01*
X151506291Y-104816791D01*
X151560262Y-104922713D01*
X151584998Y-104971260D01*
X151686899Y-105111514D01*
X151809486Y-105234101D01*
X151949740Y-105336002D01*
X152025502Y-105374604D01*
X152104208Y-105414708D01*
X152104211Y-105414709D01*
X152186648Y-105441494D01*
X152269088Y-105468280D01*
X152348391Y-105480840D01*
X152440313Y-105495400D01*
X152440318Y-105495400D01*
X152613687Y-105495400D01*
X152698577Y-105481954D01*
X152784912Y-105468280D01*
X152949791Y-105414708D01*
X153104260Y-105336002D01*
X153244514Y-105234101D01*
X153367101Y-105111514D01*
X153469002Y-104971260D01*
X153547708Y-104816791D01*
X153601280Y-104651912D01*
X153618831Y-104541099D01*
X153628400Y-104480687D01*
X153628400Y-104307312D01*
X153621260Y-104262233D01*
X153618831Y-104246900D01*
X155362600Y-104246900D01*
X155362600Y-104541099D01*
X155362601Y-104541116D01*
X155401001Y-104832796D01*
X155477152Y-105116994D01*
X155589734Y-105388794D01*
X155589742Y-105388810D01*
X155736840Y-105643589D01*
X155736851Y-105643605D01*
X155915948Y-105877009D01*
X155915954Y-105877016D01*
X156123983Y-106085045D01*
X156123990Y-106085051D01*
X156258826Y-106188514D01*
X156357403Y-106264155D01*
X156357410Y-106264159D01*
X156612189Y-106411257D01*
X156612205Y-106411265D01*
X156884005Y-106523847D01*
X156884007Y-106523847D01*
X156884013Y-106523850D01*
X157168200Y-106599998D01*
X157459894Y-106638400D01*
X157459901Y-106638400D01*
X157754099Y-106638400D01*
X157754106Y-106638400D01*
X158045800Y-106599998D01*
X158329987Y-106523850D01*
X158595314Y-106413949D01*
X158601794Y-106411265D01*
X158601797Y-106411263D01*
X158601803Y-106411261D01*
X158856597Y-106264155D01*
X159090011Y-106085050D01*
X159298050Y-105877011D01*
X159477155Y-105643597D01*
X159624261Y-105388803D01*
X159736850Y-105116987D01*
X159812998Y-104832800D01*
X159851400Y-104541106D01*
X159851400Y-104307312D01*
X161585600Y-104307312D01*
X161585600Y-104480687D01*
X161612720Y-104651913D01*
X161666290Y-104816788D01*
X161666291Y-104816791D01*
X161720262Y-104922713D01*
X161744998Y-104971260D01*
X161846899Y-105111514D01*
X161969486Y-105234101D01*
X162109740Y-105336002D01*
X162185502Y-105374604D01*
X162264208Y-105414708D01*
X162264211Y-105414709D01*
X162346648Y-105441494D01*
X162429088Y-105468280D01*
X162508391Y-105480840D01*
X162600313Y-105495400D01*
X162600318Y-105495400D01*
X162773687Y-105495400D01*
X162858577Y-105481954D01*
X162944912Y-105468280D01*
X163109791Y-105414708D01*
X163264260Y-105336002D01*
X163404514Y-105234101D01*
X163527101Y-105111514D01*
X163569143Y-105053648D01*
X165831500Y-105053648D01*
X165831500Y-105258351D01*
X165863522Y-105460534D01*
X165926781Y-105655223D01*
X165990691Y-105780653D01*
X166016509Y-105831322D01*
X166019715Y-105837613D01*
X166140028Y-106003213D01*
X166284786Y-106147971D01*
X166394328Y-106227556D01*
X166450390Y-106268287D01*
X166546864Y-106317443D01*
X166632776Y-106361218D01*
X166632778Y-106361218D01*
X166632781Y-106361220D01*
X166737137Y-106395127D01*
X166827465Y-106424477D01*
X166928557Y-106440488D01*
X167029648Y-106456500D01*
X167029649Y-106456500D01*
X167234351Y-106456500D01*
X167234352Y-106456500D01*
X167436534Y-106424477D01*
X167631219Y-106361220D01*
X167813610Y-106268287D01*
X167929552Y-106184051D01*
X167979213Y-106147971D01*
X167979215Y-106147968D01*
X167979219Y-106147966D01*
X168123966Y-106003219D01*
X168123968Y-106003215D01*
X168123971Y-106003213D01*
X168182021Y-105923313D01*
X168244287Y-105837610D01*
X168337220Y-105655219D01*
X168400477Y-105460534D01*
X168432500Y-105258352D01*
X168432500Y-105053648D01*
X168400477Y-104851466D01*
X168389210Y-104816791D01*
X168337218Y-104656776D01*
X168244287Y-104474390D01*
X168172317Y-104375331D01*
X168172316Y-104375328D01*
X168123971Y-104308787D01*
X168123967Y-104308782D01*
X168122497Y-104307312D01*
X170475600Y-104307312D01*
X170475600Y-104480687D01*
X170502720Y-104651913D01*
X170556290Y-104816788D01*
X170556291Y-104816791D01*
X170610262Y-104922713D01*
X170634998Y-104971260D01*
X170736899Y-105111514D01*
X170859486Y-105234101D01*
X170999740Y-105336002D01*
X171075502Y-105374604D01*
X171154208Y-105414708D01*
X171154211Y-105414709D01*
X171236648Y-105441494D01*
X171319088Y-105468280D01*
X171398391Y-105480840D01*
X171490313Y-105495400D01*
X171490318Y-105495400D01*
X171663687Y-105495400D01*
X171748577Y-105481954D01*
X171834912Y-105468280D01*
X171999791Y-105414708D01*
X172154260Y-105336002D01*
X172294514Y-105234101D01*
X172417101Y-105111514D01*
X172519002Y-104971260D01*
X172597708Y-104816791D01*
X172651280Y-104651912D01*
X172668831Y-104541099D01*
X172678400Y-104480687D01*
X172678400Y-104307312D01*
X172671260Y-104262233D01*
X172668831Y-104246900D01*
X174412600Y-104246900D01*
X174412600Y-104541099D01*
X174412601Y-104541116D01*
X174451001Y-104832796D01*
X174527152Y-105116994D01*
X174639734Y-105388794D01*
X174639742Y-105388810D01*
X174786840Y-105643589D01*
X174786851Y-105643605D01*
X174965948Y-105877009D01*
X174965954Y-105877016D01*
X175173983Y-106085045D01*
X175173990Y-106085051D01*
X175308826Y-106188514D01*
X175407403Y-106264155D01*
X175407410Y-106264159D01*
X175662189Y-106411257D01*
X175662205Y-106411265D01*
X175934005Y-106523847D01*
X175934007Y-106523847D01*
X175934013Y-106523850D01*
X176218200Y-106599998D01*
X176509894Y-106638400D01*
X176509901Y-106638400D01*
X176804099Y-106638400D01*
X176804106Y-106638400D01*
X177095800Y-106599998D01*
X177379987Y-106523850D01*
X177645314Y-106413949D01*
X177651794Y-106411265D01*
X177651797Y-106411263D01*
X177651803Y-106411261D01*
X177906597Y-106264155D01*
X178140011Y-106085050D01*
X178348050Y-105877011D01*
X178527155Y-105643597D01*
X178674261Y-105388803D01*
X178786850Y-105116987D01*
X178862998Y-104832800D01*
X178901400Y-104541106D01*
X178901400Y-104307312D01*
X180635600Y-104307312D01*
X180635600Y-104480687D01*
X180662720Y-104651913D01*
X180716290Y-104816788D01*
X180716291Y-104816791D01*
X180770262Y-104922713D01*
X180794998Y-104971260D01*
X180896899Y-105111514D01*
X181019486Y-105234101D01*
X181159740Y-105336002D01*
X181235502Y-105374604D01*
X181314208Y-105414708D01*
X181314211Y-105414709D01*
X181396648Y-105441494D01*
X181479088Y-105468280D01*
X181558391Y-105480840D01*
X181650313Y-105495400D01*
X181650318Y-105495400D01*
X181823687Y-105495400D01*
X181908577Y-105481954D01*
X181994912Y-105468280D01*
X182159791Y-105414708D01*
X182314260Y-105336002D01*
X182454514Y-105234101D01*
X182577101Y-105111514D01*
X182679002Y-104971260D01*
X182757708Y-104816791D01*
X182811280Y-104651912D01*
X182828831Y-104541099D01*
X182838400Y-104480687D01*
X182838400Y-104307312D01*
X182815705Y-104164028D01*
X182811280Y-104136088D01*
X182757708Y-103971209D01*
X182757708Y-103971208D01*
X182715067Y-103887522D01*
X182679002Y-103816740D01*
X182577101Y-103676486D01*
X182454514Y-103553899D01*
X182314260Y-103451998D01*
X182265874Y-103427344D01*
X182159791Y-103373291D01*
X182159788Y-103373290D01*
X181994913Y-103319720D01*
X181823687Y-103292600D01*
X181823682Y-103292600D01*
X181650318Y-103292600D01*
X181650313Y-103292600D01*
X181479086Y-103319720D01*
X181314211Y-103373290D01*
X181314208Y-103373291D01*
X181159739Y-103451998D01*
X181128405Y-103474764D01*
X181019486Y-103553899D01*
X181019484Y-103553901D01*
X181019483Y-103553901D01*
X180896901Y-103676483D01*
X180896901Y-103676484D01*
X180896899Y-103676486D01*
X180866231Y-103718697D01*
X180794998Y-103816739D01*
X180716291Y-103971208D01*
X180716290Y-103971211D01*
X180662720Y-104136086D01*
X180635600Y-104307312D01*
X178901400Y-104307312D01*
X178901400Y-104246894D01*
X178862998Y-103955200D01*
X178786850Y-103671013D01*
X178759300Y-103604500D01*
X178674265Y-103399205D01*
X178674257Y-103399189D01*
X178527159Y-103144410D01*
X178527155Y-103144403D01*
X178348050Y-102910989D01*
X178348045Y-102910983D01*
X178140016Y-102702954D01*
X178140009Y-102702948D01*
X177906605Y-102523851D01*
X177906603Y-102523849D01*
X177906597Y-102523845D01*
X177906592Y-102523842D01*
X177906589Y-102523840D01*
X177651810Y-102376742D01*
X177651794Y-102376734D01*
X177379994Y-102264152D01*
X177126544Y-102196240D01*
X177095800Y-102188002D01*
X177095799Y-102188001D01*
X177095796Y-102188001D01*
X176804116Y-102149601D01*
X176804111Y-102149600D01*
X176804106Y-102149600D01*
X176509894Y-102149600D01*
X176509888Y-102149600D01*
X176509883Y-102149601D01*
X176218203Y-102188001D01*
X175934005Y-102264152D01*
X175662205Y-102376734D01*
X175662189Y-102376742D01*
X175407410Y-102523840D01*
X175407394Y-102523851D01*
X175173990Y-102702948D01*
X175173983Y-102702954D01*
X174965954Y-102910983D01*
X174965948Y-102910990D01*
X174786851Y-103144394D01*
X174786840Y-103144410D01*
X174639742Y-103399189D01*
X174639734Y-103399205D01*
X174527152Y-103671005D01*
X174451001Y-103955203D01*
X174412601Y-104246883D01*
X174412600Y-104246900D01*
X172668831Y-104246900D01*
X172655705Y-104164028D01*
X172651280Y-104136088D01*
X172597708Y-103971209D01*
X172597708Y-103971208D01*
X172519001Y-103816738D01*
X172495580Y-103784503D01*
X172472099Y-103718697D01*
X172487924Y-103650642D01*
X172538029Y-103601947D01*
X172606507Y-103588071D01*
X172612068Y-103588675D01*
X172732266Y-103604500D01*
X172732273Y-103604500D01*
X172961727Y-103604500D01*
X172961734Y-103604500D01*
X173189238Y-103574548D01*
X173410887Y-103515158D01*
X173622888Y-103427344D01*
X173821612Y-103312611D01*
X174003661Y-103172919D01*
X174003665Y-103172914D01*
X174003670Y-103172911D01*
X174165911Y-103010670D01*
X174165914Y-103010665D01*
X174165919Y-103010661D01*
X174305611Y-102828612D01*
X174420344Y-102629888D01*
X174508158Y-102417887D01*
X174567548Y-102196238D01*
X174597500Y-101968734D01*
X174597500Y-101739266D01*
X174567548Y-101511762D01*
X174508158Y-101290113D01*
X174432937Y-101108514D01*
X174420349Y-101078123D01*
X174420346Y-101078117D01*
X174420344Y-101078112D01*
X174305611Y-100879388D01*
X174305608Y-100879385D01*
X174305607Y-100879382D01*
X174165918Y-100697338D01*
X174165911Y-100697330D01*
X174003670Y-100535089D01*
X174003661Y-100535081D01*
X173821617Y-100395392D01*
X173819649Y-100394256D01*
X173622888Y-100280656D01*
X173622876Y-100280650D01*
X173410887Y-100192842D01*
X173189238Y-100133452D01*
X173151215Y-100128446D01*
X172961741Y-100103500D01*
X172961734Y-100103500D01*
X172732266Y-100103500D01*
X172732258Y-100103500D01*
X172515715Y-100132009D01*
X172504762Y-100133452D01*
X172411076Y-100158554D01*
X172283112Y-100192842D01*
X172071123Y-100280650D01*
X172071109Y-100280657D01*
X171872382Y-100395392D01*
X171690338Y-100535081D01*
X171528081Y-100697338D01*
X171388392Y-100879382D01*
X171273657Y-101078109D01*
X171273650Y-101078123D01*
X171185842Y-101290112D01*
X171126453Y-101511759D01*
X171126451Y-101511770D01*
X171096500Y-101739258D01*
X171096500Y-101968741D01*
X171120312Y-102149600D01*
X171126452Y-102196238D01*
X171174815Y-102376734D01*
X171185842Y-102417887D01*
X171273650Y-102629876D01*
X171273657Y-102629890D01*
X171388392Y-102828617D01*
X171528081Y-103010661D01*
X171528089Y-103010670D01*
X171598338Y-103080919D01*
X171631823Y-103142242D01*
X171626839Y-103211934D01*
X171584967Y-103267867D01*
X171519503Y-103292284D01*
X171510657Y-103292600D01*
X171490313Y-103292600D01*
X171319086Y-103319720D01*
X171154211Y-103373290D01*
X171154208Y-103373291D01*
X170999739Y-103451998D01*
X170968405Y-103474764D01*
X170859486Y-103553899D01*
X170859484Y-103553901D01*
X170859483Y-103553901D01*
X170736901Y-103676483D01*
X170736901Y-103676484D01*
X170736899Y-103676486D01*
X170706231Y-103718697D01*
X170634998Y-103816739D01*
X170556291Y-103971208D01*
X170556290Y-103971211D01*
X170502720Y-104136086D01*
X170475600Y-104307312D01*
X168122497Y-104307312D01*
X167979213Y-104164028D01*
X167813613Y-104043715D01*
X167813612Y-104043714D01*
X167813610Y-104043713D01*
X167725652Y-103998896D01*
X167631223Y-103950781D01*
X167436534Y-103887522D01*
X167261995Y-103859878D01*
X167234352Y-103855500D01*
X167029648Y-103855500D01*
X167005329Y-103859351D01*
X166827465Y-103887522D01*
X166632776Y-103950781D01*
X166450386Y-104043715D01*
X166284786Y-104164028D01*
X166140028Y-104308786D01*
X166019715Y-104474386D01*
X165926781Y-104656776D01*
X165863522Y-104851465D01*
X165831500Y-105053648D01*
X163569143Y-105053648D01*
X163629002Y-104971260D01*
X163707708Y-104816791D01*
X163761280Y-104651912D01*
X163778831Y-104541099D01*
X163788400Y-104480687D01*
X163788400Y-104307312D01*
X163765705Y-104164028D01*
X163761280Y-104136088D01*
X163707708Y-103971209D01*
X163707708Y-103971208D01*
X163665067Y-103887522D01*
X163629002Y-103816740D01*
X163527101Y-103676486D01*
X163404514Y-103553899D01*
X163264260Y-103451998D01*
X163215874Y-103427344D01*
X163109791Y-103373291D01*
X163109788Y-103373290D01*
X162944913Y-103319720D01*
X162773687Y-103292600D01*
X162773682Y-103292600D01*
X162600318Y-103292600D01*
X162600313Y-103292600D01*
X162429086Y-103319720D01*
X162264211Y-103373290D01*
X162264208Y-103373291D01*
X162109739Y-103451998D01*
X162078405Y-103474764D01*
X161969486Y-103553899D01*
X161969484Y-103553901D01*
X161969483Y-103553901D01*
X161846901Y-103676483D01*
X161846901Y-103676484D01*
X161846899Y-103676486D01*
X161816231Y-103718697D01*
X161744998Y-103816739D01*
X161666291Y-103971208D01*
X161666290Y-103971211D01*
X161612720Y-104136086D01*
X161585600Y-104307312D01*
X159851400Y-104307312D01*
X159851400Y-104246894D01*
X159812998Y-103955200D01*
X159736850Y-103671013D01*
X159709300Y-103604500D01*
X159624265Y-103399205D01*
X159624257Y-103399189D01*
X159477159Y-103144410D01*
X159477155Y-103144403D01*
X159298050Y-102910989D01*
X159298045Y-102910983D01*
X159090016Y-102702954D01*
X159090009Y-102702948D01*
X158856605Y-102523851D01*
X158856603Y-102523849D01*
X158856597Y-102523845D01*
X158856592Y-102523842D01*
X158856589Y-102523840D01*
X158601810Y-102376742D01*
X158601794Y-102376734D01*
X158329994Y-102264152D01*
X158076544Y-102196240D01*
X158045800Y-102188002D01*
X158045799Y-102188001D01*
X158045796Y-102188001D01*
X157754116Y-102149601D01*
X157754111Y-102149600D01*
X157754106Y-102149600D01*
X157459894Y-102149600D01*
X157459888Y-102149600D01*
X157459883Y-102149601D01*
X157168203Y-102188001D01*
X156884005Y-102264152D01*
X156612205Y-102376734D01*
X156612189Y-102376742D01*
X156357410Y-102523840D01*
X156357394Y-102523851D01*
X156123990Y-102702948D01*
X156123983Y-102702954D01*
X155915954Y-102910983D01*
X155915948Y-102910990D01*
X155736851Y-103144394D01*
X155736840Y-103144410D01*
X155589742Y-103399189D01*
X155589734Y-103399205D01*
X155477152Y-103671005D01*
X155401001Y-103955203D01*
X155362601Y-104246883D01*
X155362600Y-104246900D01*
X153618831Y-104246900D01*
X153605705Y-104164028D01*
X153601280Y-104136088D01*
X153547708Y-103971209D01*
X153547708Y-103971208D01*
X153469001Y-103816738D01*
X153445580Y-103784503D01*
X153422099Y-103718697D01*
X153437924Y-103650642D01*
X153488029Y-103601947D01*
X153556507Y-103588071D01*
X153562068Y-103588675D01*
X153682266Y-103604500D01*
X153682273Y-103604500D01*
X153911727Y-103604500D01*
X153911734Y-103604500D01*
X154139238Y-103574548D01*
X154360887Y-103515158D01*
X154572888Y-103427344D01*
X154771612Y-103312611D01*
X154953661Y-103172919D01*
X154953665Y-103172914D01*
X154953670Y-103172911D01*
X155115911Y-103010670D01*
X155115914Y-103010665D01*
X155115919Y-103010661D01*
X155255611Y-102828612D01*
X155370344Y-102629888D01*
X155458158Y-102417887D01*
X155517548Y-102196238D01*
X155547500Y-101968734D01*
X155547500Y-101739266D01*
X155517548Y-101511762D01*
X155458158Y-101290113D01*
X155382937Y-101108514D01*
X155370349Y-101078123D01*
X155370346Y-101078117D01*
X155370344Y-101078112D01*
X155255611Y-100879388D01*
X155255608Y-100879385D01*
X155255607Y-100879382D01*
X155115918Y-100697338D01*
X155115911Y-100697330D01*
X154953670Y-100535089D01*
X154953661Y-100535081D01*
X154771617Y-100395392D01*
X154769649Y-100394256D01*
X154572888Y-100280656D01*
X154572876Y-100280650D01*
X154360887Y-100192842D01*
X154139238Y-100133452D01*
X154101215Y-100128446D01*
X153911741Y-100103500D01*
X153911734Y-100103500D01*
X153682266Y-100103500D01*
X153682258Y-100103500D01*
X153465715Y-100132009D01*
X153454762Y-100133452D01*
X153361076Y-100158554D01*
X153233112Y-100192842D01*
X153021123Y-100280650D01*
X153021109Y-100280657D01*
X152822382Y-100395392D01*
X152640338Y-100535081D01*
X152478081Y-100697338D01*
X152338392Y-100879382D01*
X152223657Y-101078109D01*
X152223650Y-101078123D01*
X152135842Y-101290112D01*
X152076453Y-101511759D01*
X152076451Y-101511770D01*
X152046500Y-101739258D01*
X152046500Y-101968741D01*
X152070312Y-102149600D01*
X152076452Y-102196238D01*
X152124815Y-102376734D01*
X152135842Y-102417887D01*
X152223650Y-102629876D01*
X152223657Y-102629890D01*
X152338392Y-102828617D01*
X152478081Y-103010661D01*
X152478089Y-103010670D01*
X152548338Y-103080919D01*
X152581823Y-103142242D01*
X152576839Y-103211934D01*
X152534967Y-103267867D01*
X152469503Y-103292284D01*
X152460657Y-103292600D01*
X152440313Y-103292600D01*
X152269086Y-103319720D01*
X152104211Y-103373290D01*
X152104208Y-103373291D01*
X151949739Y-103451998D01*
X151918405Y-103474764D01*
X151809486Y-103553899D01*
X151809484Y-103553901D01*
X151809483Y-103553901D01*
X151686901Y-103676483D01*
X151686901Y-103676484D01*
X151686899Y-103676486D01*
X151656231Y-103718697D01*
X151584998Y-103816739D01*
X151506291Y-103971208D01*
X151506290Y-103971211D01*
X151452720Y-104136086D01*
X151425600Y-104307312D01*
X149072497Y-104307312D01*
X148929213Y-104164028D01*
X148763613Y-104043715D01*
X148763612Y-104043714D01*
X148763610Y-104043713D01*
X148675652Y-103998896D01*
X148581223Y-103950781D01*
X148386534Y-103887522D01*
X148211995Y-103859878D01*
X148184352Y-103855500D01*
X147979648Y-103855500D01*
X147955329Y-103859351D01*
X147777465Y-103887522D01*
X147582776Y-103950781D01*
X147400386Y-104043715D01*
X147234786Y-104164028D01*
X147090028Y-104308786D01*
X146969715Y-104474386D01*
X146876781Y-104656776D01*
X146813522Y-104851465D01*
X146781500Y-105053648D01*
X144519143Y-105053648D01*
X144579002Y-104971260D01*
X144657708Y-104816791D01*
X144711280Y-104651912D01*
X144728831Y-104541099D01*
X144738400Y-104480687D01*
X144738400Y-104307312D01*
X144715705Y-104164028D01*
X144711280Y-104136088D01*
X144657708Y-103971209D01*
X144657708Y-103971208D01*
X144615067Y-103887522D01*
X144579002Y-103816740D01*
X144477101Y-103676486D01*
X144354514Y-103553899D01*
X144214260Y-103451998D01*
X144165874Y-103427344D01*
X144059791Y-103373291D01*
X144059788Y-103373290D01*
X143894913Y-103319720D01*
X143723687Y-103292600D01*
X143723682Y-103292600D01*
X143550318Y-103292600D01*
X143550313Y-103292600D01*
X143379086Y-103319720D01*
X143214211Y-103373290D01*
X143214208Y-103373291D01*
X143059739Y-103451998D01*
X143028405Y-103474764D01*
X142919486Y-103553899D01*
X142919484Y-103553901D01*
X142919483Y-103553901D01*
X142796901Y-103676483D01*
X142796901Y-103676484D01*
X142796899Y-103676486D01*
X142766231Y-103718697D01*
X142694998Y-103816739D01*
X142616291Y-103971208D01*
X142616290Y-103971211D01*
X142562720Y-104136086D01*
X142535600Y-104307312D01*
X140801400Y-104307312D01*
X140801400Y-104246894D01*
X140762998Y-103955200D01*
X140686850Y-103671013D01*
X140659300Y-103604500D01*
X140574265Y-103399205D01*
X140574257Y-103399189D01*
X140427159Y-103144410D01*
X140427155Y-103144403D01*
X140248050Y-102910989D01*
X140248045Y-102910983D01*
X140040016Y-102702954D01*
X140040009Y-102702948D01*
X139806605Y-102523851D01*
X139806603Y-102523849D01*
X139806597Y-102523845D01*
X139806592Y-102523842D01*
X139806589Y-102523840D01*
X139551810Y-102376742D01*
X139551794Y-102376734D01*
X139279994Y-102264152D01*
X139026544Y-102196240D01*
X138995800Y-102188002D01*
X138995799Y-102188001D01*
X138995796Y-102188001D01*
X138704116Y-102149601D01*
X138704111Y-102149600D01*
X138704106Y-102149600D01*
X138409894Y-102149600D01*
X138409888Y-102149600D01*
X138409883Y-102149601D01*
X138118203Y-102188001D01*
X137834005Y-102264152D01*
X137562205Y-102376734D01*
X137562189Y-102376742D01*
X137307410Y-102523840D01*
X137307394Y-102523851D01*
X137073990Y-102702948D01*
X137073983Y-102702954D01*
X136865954Y-102910983D01*
X136865948Y-102910990D01*
X136686851Y-103144394D01*
X136686840Y-103144410D01*
X136539742Y-103399189D01*
X136539734Y-103399205D01*
X136427152Y-103671005D01*
X136351001Y-103955203D01*
X136312601Y-104246883D01*
X136312600Y-104246900D01*
X134568831Y-104246900D01*
X134555705Y-104164028D01*
X134551280Y-104136088D01*
X134497708Y-103971209D01*
X134497708Y-103971208D01*
X134419001Y-103816738D01*
X134395580Y-103784503D01*
X134372099Y-103718697D01*
X134387924Y-103650642D01*
X134438029Y-103601947D01*
X134506507Y-103588071D01*
X134512068Y-103588675D01*
X134632266Y-103604500D01*
X134632273Y-103604500D01*
X134861727Y-103604500D01*
X134861734Y-103604500D01*
X135089238Y-103574548D01*
X135310887Y-103515158D01*
X135522888Y-103427344D01*
X135721612Y-103312611D01*
X135903661Y-103172919D01*
X135903665Y-103172914D01*
X135903670Y-103172911D01*
X136065911Y-103010670D01*
X136065914Y-103010665D01*
X136065919Y-103010661D01*
X136205611Y-102828612D01*
X136320344Y-102629888D01*
X136408158Y-102417887D01*
X136467548Y-102196238D01*
X136497500Y-101968734D01*
X136497500Y-101739266D01*
X136467548Y-101511762D01*
X136408158Y-101290113D01*
X136332937Y-101108514D01*
X136320349Y-101078123D01*
X136320346Y-101078117D01*
X136320344Y-101078112D01*
X136205611Y-100879388D01*
X136205608Y-100879385D01*
X136205607Y-100879382D01*
X136065918Y-100697338D01*
X136065911Y-100697330D01*
X135903670Y-100535089D01*
X135903661Y-100535081D01*
X135721617Y-100395392D01*
X135719649Y-100394256D01*
X135522888Y-100280656D01*
X135522876Y-100280650D01*
X135310887Y-100192842D01*
X135089238Y-100133452D01*
X135051215Y-100128446D01*
X134861741Y-100103500D01*
X134861734Y-100103500D01*
X134632266Y-100103500D01*
X134632258Y-100103500D01*
X134415715Y-100132009D01*
X134404762Y-100133452D01*
X134311076Y-100158554D01*
X134183112Y-100192842D01*
X133971123Y-100280650D01*
X133971109Y-100280657D01*
X133772382Y-100395392D01*
X133590338Y-100535081D01*
X133428081Y-100697338D01*
X133288392Y-100879382D01*
X133173657Y-101078109D01*
X133173650Y-101078123D01*
X133085842Y-101290112D01*
X133026453Y-101511759D01*
X133026451Y-101511770D01*
X132996500Y-101739258D01*
X132996500Y-101968741D01*
X133020312Y-102149600D01*
X133026452Y-102196238D01*
X133074815Y-102376734D01*
X133085842Y-102417887D01*
X133173650Y-102629876D01*
X133173657Y-102629890D01*
X133288392Y-102828617D01*
X133428081Y-103010661D01*
X133428089Y-103010670D01*
X133498338Y-103080919D01*
X133531823Y-103142242D01*
X133526839Y-103211934D01*
X133484967Y-103267867D01*
X133419503Y-103292284D01*
X133410657Y-103292600D01*
X133390313Y-103292600D01*
X133219086Y-103319720D01*
X133054211Y-103373290D01*
X133054208Y-103373291D01*
X132899739Y-103451998D01*
X132868405Y-103474764D01*
X132759486Y-103553899D01*
X132759484Y-103553901D01*
X132759483Y-103553901D01*
X132636901Y-103676483D01*
X132636901Y-103676484D01*
X132636899Y-103676486D01*
X132606231Y-103718697D01*
X132534998Y-103816739D01*
X132456291Y-103971208D01*
X132456290Y-103971211D01*
X132402720Y-104136086D01*
X132375600Y-104307312D01*
X130022497Y-104307312D01*
X129879213Y-104164028D01*
X129713613Y-104043715D01*
X129713612Y-104043714D01*
X129713610Y-104043713D01*
X129625652Y-103998896D01*
X129531223Y-103950781D01*
X129336534Y-103887522D01*
X129161995Y-103859878D01*
X129134352Y-103855500D01*
X128929648Y-103855500D01*
X128905329Y-103859351D01*
X128727465Y-103887522D01*
X128532776Y-103950781D01*
X128350386Y-104043715D01*
X128184786Y-104164028D01*
X128040028Y-104308786D01*
X127919715Y-104474386D01*
X127826781Y-104656776D01*
X127763522Y-104851465D01*
X127731500Y-105053648D01*
X122628500Y-105053648D01*
X122628500Y-99199258D01*
X139346500Y-99199258D01*
X139346500Y-99428741D01*
X139371446Y-99618215D01*
X139376452Y-99656238D01*
X139376453Y-99656240D01*
X139435842Y-99877887D01*
X139523650Y-100089876D01*
X139523657Y-100089890D01*
X139638392Y-100288617D01*
X139778081Y-100470661D01*
X139778089Y-100470670D01*
X139940330Y-100632911D01*
X139940338Y-100632918D01*
X140122382Y-100772607D01*
X140122385Y-100772608D01*
X140122388Y-100772611D01*
X140321112Y-100887344D01*
X140321117Y-100887346D01*
X140321123Y-100887349D01*
X140412480Y-100925190D01*
X140533113Y-100975158D01*
X140754762Y-101034548D01*
X140982266Y-101064500D01*
X140982273Y-101064500D01*
X141211727Y-101064500D01*
X141211734Y-101064500D01*
X141439238Y-101034548D01*
X141660887Y-100975158D01*
X141872888Y-100887344D01*
X142071612Y-100772611D01*
X142253661Y-100632919D01*
X142253665Y-100632914D01*
X142253670Y-100632911D01*
X142415911Y-100470670D01*
X142415914Y-100470665D01*
X142415919Y-100470661D01*
X142555611Y-100288612D01*
X142670344Y-100089888D01*
X142758158Y-99877887D01*
X142817548Y-99656238D01*
X142847500Y-99428734D01*
X142847500Y-99199266D01*
X142847499Y-99199258D01*
X158396500Y-99199258D01*
X158396500Y-99428741D01*
X158421446Y-99618215D01*
X158426452Y-99656238D01*
X158426453Y-99656240D01*
X158485842Y-99877887D01*
X158573650Y-100089876D01*
X158573657Y-100089890D01*
X158688392Y-100288617D01*
X158828081Y-100470661D01*
X158828089Y-100470670D01*
X158990330Y-100632911D01*
X158990338Y-100632918D01*
X159172382Y-100772607D01*
X159172385Y-100772608D01*
X159172388Y-100772611D01*
X159371112Y-100887344D01*
X159371117Y-100887346D01*
X159371123Y-100887349D01*
X159462480Y-100925190D01*
X159583113Y-100975158D01*
X159804762Y-101034548D01*
X160032266Y-101064500D01*
X160032273Y-101064500D01*
X160261727Y-101064500D01*
X160261734Y-101064500D01*
X160489238Y-101034548D01*
X160710887Y-100975158D01*
X160922888Y-100887344D01*
X161121612Y-100772611D01*
X161303661Y-100632919D01*
X161303665Y-100632914D01*
X161303670Y-100632911D01*
X161465911Y-100470670D01*
X161465914Y-100470665D01*
X161465919Y-100470661D01*
X161605611Y-100288612D01*
X161720344Y-100089888D01*
X161808158Y-99877887D01*
X161867548Y-99656238D01*
X161897500Y-99428734D01*
X161897500Y-99199266D01*
X161897499Y-99199258D01*
X177446500Y-99199258D01*
X177446500Y-99428741D01*
X177471446Y-99618215D01*
X177476452Y-99656238D01*
X177476453Y-99656240D01*
X177535842Y-99877887D01*
X177623650Y-100089876D01*
X177623657Y-100089890D01*
X177738392Y-100288617D01*
X177878081Y-100470661D01*
X177878089Y-100470670D01*
X178040330Y-100632911D01*
X178040338Y-100632918D01*
X178222382Y-100772607D01*
X178222385Y-100772608D01*
X178222388Y-100772611D01*
X178421112Y-100887344D01*
X178421117Y-100887346D01*
X178421123Y-100887349D01*
X178512480Y-100925190D01*
X178633113Y-100975158D01*
X178854762Y-101034548D01*
X179082266Y-101064500D01*
X179082273Y-101064500D01*
X179311727Y-101064500D01*
X179311734Y-101064500D01*
X179539238Y-101034548D01*
X179760887Y-100975158D01*
X179972888Y-100887344D01*
X180171612Y-100772611D01*
X180353661Y-100632919D01*
X180353665Y-100632914D01*
X180353670Y-100632911D01*
X180515911Y-100470670D01*
X180515914Y-100470665D01*
X180515919Y-100470661D01*
X180655611Y-100288612D01*
X180770344Y-100089888D01*
X180858158Y-99877887D01*
X180917548Y-99656238D01*
X180947500Y-99428734D01*
X180947500Y-99199266D01*
X180917548Y-98971762D01*
X180858158Y-98750113D01*
X180782937Y-98568514D01*
X180770349Y-98538123D01*
X180770346Y-98538117D01*
X180770344Y-98538112D01*
X180655611Y-98339388D01*
X180655608Y-98339385D01*
X180655607Y-98339382D01*
X180515918Y-98157338D01*
X180515911Y-98157330D01*
X180353670Y-97995089D01*
X180353661Y-97995081D01*
X180171617Y-97855392D01*
X179972890Y-97740657D01*
X179972876Y-97740650D01*
X179760887Y-97652842D01*
X179539238Y-97593452D01*
X179501215Y-97588446D01*
X179311741Y-97563500D01*
X179311734Y-97563500D01*
X179082266Y-97563500D01*
X179082258Y-97563500D01*
X178865715Y-97592009D01*
X178854762Y-97593452D01*
X178761076Y-97618554D01*
X178633112Y-97652842D01*
X178421123Y-97740650D01*
X178421109Y-97740657D01*
X178222382Y-97855392D01*
X178040338Y-97995081D01*
X177878081Y-98157338D01*
X177738392Y-98339382D01*
X177623657Y-98538109D01*
X177623650Y-98538123D01*
X177535842Y-98750112D01*
X177476453Y-98971759D01*
X177476451Y-98971770D01*
X177446500Y-99199258D01*
X161897499Y-99199258D01*
X161867548Y-98971762D01*
X161808158Y-98750113D01*
X161732937Y-98568514D01*
X161720349Y-98538123D01*
X161720346Y-98538117D01*
X161720344Y-98538112D01*
X161605611Y-98339388D01*
X161605608Y-98339385D01*
X161605607Y-98339382D01*
X161465918Y-98157338D01*
X161465911Y-98157330D01*
X161303670Y-97995089D01*
X161303661Y-97995081D01*
X161121617Y-97855392D01*
X160922890Y-97740657D01*
X160922876Y-97740650D01*
X160710887Y-97652842D01*
X160489238Y-97593452D01*
X160451215Y-97588446D01*
X160261741Y-97563500D01*
X160261734Y-97563500D01*
X160032266Y-97563500D01*
X160032258Y-97563500D01*
X159815715Y-97592009D01*
X159804762Y-97593452D01*
X159711076Y-97618554D01*
X159583112Y-97652842D01*
X159371123Y-97740650D01*
X159371109Y-97740657D01*
X159172382Y-97855392D01*
X158990338Y-97995081D01*
X158828081Y-98157338D01*
X158688392Y-98339382D01*
X158573657Y-98538109D01*
X158573650Y-98538123D01*
X158485842Y-98750112D01*
X158426453Y-98971759D01*
X158426451Y-98971770D01*
X158396500Y-99199258D01*
X142847499Y-99199258D01*
X142817548Y-98971762D01*
X142758158Y-98750113D01*
X142682937Y-98568514D01*
X142670349Y-98538123D01*
X142670346Y-98538117D01*
X142670344Y-98538112D01*
X142555611Y-98339388D01*
X142555608Y-98339385D01*
X142555607Y-98339382D01*
X142415918Y-98157338D01*
X142415911Y-98157330D01*
X142253670Y-97995089D01*
X142253661Y-97995081D01*
X142071617Y-97855392D01*
X141872890Y-97740657D01*
X141872876Y-97740650D01*
X141660887Y-97652842D01*
X141439238Y-97593452D01*
X141401215Y-97588446D01*
X141211741Y-97563500D01*
X141211734Y-97563500D01*
X140982266Y-97563500D01*
X140982258Y-97563500D01*
X140765715Y-97592009D01*
X140754762Y-97593452D01*
X140661076Y-97618554D01*
X140533112Y-97652842D01*
X140321123Y-97740650D01*
X140321109Y-97740657D01*
X140122382Y-97855392D01*
X139940338Y-97995081D01*
X139778081Y-98157338D01*
X139638392Y-98339382D01*
X139523657Y-98538109D01*
X139523650Y-98538123D01*
X139435842Y-98750112D01*
X139376453Y-98971759D01*
X139376451Y-98971770D01*
X139346500Y-99199258D01*
X122628500Y-99199258D01*
X122628500Y-78441480D01*
X122628695Y-78434527D01*
X122634469Y-78331713D01*
X124077500Y-78331713D01*
X124077500Y-78544286D01*
X124110753Y-78754239D01*
X124176444Y-78956414D01*
X124272951Y-79145820D01*
X124397890Y-79317786D01*
X124548213Y-79468109D01*
X124720179Y-79593048D01*
X124720181Y-79593049D01*
X124720184Y-79593051D01*
X124909588Y-79689557D01*
X125111757Y-79755246D01*
X125321713Y-79788500D01*
X125321714Y-79788500D01*
X125534286Y-79788500D01*
X125534287Y-79788500D01*
X125744243Y-79755246D01*
X125946412Y-79689557D01*
X126135816Y-79593051D01*
X126157789Y-79577086D01*
X126307786Y-79468109D01*
X126307788Y-79468106D01*
X126307792Y-79468104D01*
X126458104Y-79317792D01*
X126458106Y-79317788D01*
X126458109Y-79317786D01*
X126583048Y-79145820D01*
X126583047Y-79145820D01*
X126583051Y-79145816D01*
X126679557Y-78956412D01*
X126745246Y-78754243D01*
X126778500Y-78544287D01*
X126778500Y-78331713D01*
X126745246Y-78121757D01*
X126679557Y-77919588D01*
X126583051Y-77730184D01*
X126583049Y-77730181D01*
X126583048Y-77730179D01*
X126458109Y-77558213D01*
X126307786Y-77407890D01*
X126135820Y-77282951D01*
X125946414Y-77186444D01*
X125946413Y-77186443D01*
X125946412Y-77186443D01*
X125744243Y-77120754D01*
X125744241Y-77120753D01*
X125744240Y-77120753D01*
X125582957Y-77095208D01*
X125534287Y-77087500D01*
X125321713Y-77087500D01*
X125273042Y-77095208D01*
X125111760Y-77120753D01*
X124909585Y-77186444D01*
X124720179Y-77282951D01*
X124548213Y-77407890D01*
X124397890Y-77558213D01*
X124272951Y-77730179D01*
X124176444Y-77919585D01*
X124110753Y-78121760D01*
X124077500Y-78331713D01*
X122634469Y-78331713D01*
X122645713Y-78131494D01*
X122647267Y-78117700D01*
X122697523Y-77821915D01*
X122700616Y-77808363D01*
X122723140Y-77730184D01*
X122783673Y-77520068D01*
X122788265Y-77506948D01*
X122884533Y-77274535D01*
X122903075Y-77229768D01*
X122909097Y-77217262D01*
X123054230Y-76954665D01*
X123061625Y-76942897D01*
X123235245Y-76698201D01*
X123243896Y-76687354D01*
X123443816Y-76463645D01*
X123453647Y-76453815D01*
X123677354Y-76253896D01*
X123688201Y-76245245D01*
X123932902Y-76071621D01*
X123944665Y-76064230D01*
X124207262Y-75919097D01*
X124219768Y-75913075D01*
X124496948Y-75798265D01*
X124510068Y-75793673D01*
X124798369Y-75710614D01*
X124811915Y-75707523D01*
X125107700Y-75657267D01*
X125121494Y-75655713D01*
X125424528Y-75638695D01*
X125431481Y-75638500D01*
X125467882Y-75638500D01*
X220226118Y-75638500D01*
X220262519Y-75638500D01*
X220269472Y-75638695D01*
G37*
G04 #@! TD.AperFunction*
M02*
