%TF.GenerationSoftware,KiCad,Pcbnew,9.0.2*%
%TF.CreationDate,2025-09-21T22:05:46-04:00*%
%TF.ProjectId,vWAN-macropad,7657414e-2d6d-4616-9372-6f7061642e6b,v1*%
%TF.SameCoordinates,Original*%
%TF.FileFunction,Drillmap*%
%TF.FilePolarity,Positive*%
%FSLAX45Y45*%
G04 Gerber Fmt 4.5, Leading zero omitted, Abs format (unit mm)*
G04 Created by KiCad (PCBNEW 9.0.2) date 2025-09-21 22:05:46*
%MOMM*%
%LPD*%
G01*
G04 APERTURE LIST*
%ADD10C,0.050000*%
%ADD11C,0.200000*%
%ADD12C,0.100000*%
G04 APERTURE END LIST*
D10*
X22326600Y-13555700D02*
G75*
G02*
X22026600Y-13855700I-300000J0D01*
G01*
X12542800Y-13855700D02*
G75*
G02*
X12242800Y-13555700I0J300000D01*
G01*
X12242800Y-7843800D02*
G75*
G02*
X12542800Y-7543800I300000J0D01*
G01*
X12242800Y-13555700D02*
X12242800Y-7843800D01*
X22026600Y-7543800D02*
G75*
G02*
X22326600Y-7843800I0J-300000D01*
G01*
X12542800Y-7543800D02*
X22026600Y-7543800D01*
X22326600Y-7843800D02*
X22326600Y-13555700D01*
X22026600Y-13855700D02*
X12542800Y-13855700D01*
D11*
D12*
X18869900Y-10805400D02*
X18899900Y-10835400D01*
X18899900Y-10805400D02*
X18869900Y-10835400D01*
X18869900Y-11465800D02*
X18899900Y-11495800D01*
X18899900Y-11465800D02*
X18869900Y-11495800D01*
X18958800Y-10665700D02*
X18988800Y-10695700D01*
X18988800Y-10665700D02*
X18958800Y-10695700D01*
X18958800Y-11402300D02*
X18988800Y-11432300D01*
X18988800Y-11402300D02*
X18958800Y-11432300D01*
X19022300Y-10576800D02*
X19052300Y-10606800D01*
X19052300Y-10576800D02*
X19022300Y-10606800D01*
X19022300Y-11313400D02*
X19052300Y-11343400D01*
X19052300Y-11313400D02*
X19022300Y-11343400D01*
X12943200Y-10515600D02*
G75*
G02*
X12863200Y-10515600I-40000J0D01*
G01*
X12863200Y-10515600D02*
G75*
G02*
X12943200Y-10515600I40000J0D01*
G01*
X12943200Y-11277600D02*
G75*
G02*
X12863200Y-11277600I-40000J0D01*
G01*
X12863200Y-11277600D02*
G75*
G02*
X12943200Y-11277600I40000J0D01*
G01*
X12943200Y-12420600D02*
G75*
G02*
X12863200Y-12420600I-40000J0D01*
G01*
X12863200Y-12420600D02*
G75*
G02*
X12943200Y-12420600I40000J0D01*
G01*
X12943200Y-13182600D02*
G75*
G02*
X12863200Y-13182600I-40000J0D01*
G01*
X12863200Y-13182600D02*
G75*
G02*
X12943200Y-13182600I40000J0D01*
G01*
X14848200Y-10515600D02*
G75*
G02*
X14768200Y-10515600I-40000J0D01*
G01*
X14768200Y-10515600D02*
G75*
G02*
X14848200Y-10515600I40000J0D01*
G01*
X14848200Y-11277600D02*
G75*
G02*
X14768200Y-11277600I-40000J0D01*
G01*
X14768200Y-11277600D02*
G75*
G02*
X14848200Y-11277600I40000J0D01*
G01*
X14848200Y-12420600D02*
G75*
G02*
X14768200Y-12420600I-40000J0D01*
G01*
X14768200Y-12420600D02*
G75*
G02*
X14848200Y-12420600I40000J0D01*
G01*
X14848200Y-13182600D02*
G75*
G02*
X14768200Y-13182600I-40000J0D01*
G01*
X14768200Y-13182600D02*
G75*
G02*
X14848200Y-13182600I40000J0D01*
G01*
X16753200Y-10515600D02*
G75*
G02*
X16673200Y-10515600I-40000J0D01*
G01*
X16673200Y-10515600D02*
G75*
G02*
X16753200Y-10515600I40000J0D01*
G01*
X16753200Y-11277600D02*
G75*
G02*
X16673200Y-11277600I-40000J0D01*
G01*
X16673200Y-11277600D02*
G75*
G02*
X16753200Y-11277600I40000J0D01*
G01*
X16753200Y-12420600D02*
G75*
G02*
X16673200Y-12420600I-40000J0D01*
G01*
X16673200Y-12420600D02*
G75*
G02*
X16753200Y-12420600I40000J0D01*
G01*
X16753200Y-13182600D02*
G75*
G02*
X16673200Y-13182600I-40000J0D01*
G01*
X16673200Y-13182600D02*
G75*
G02*
X16753200Y-13182600I40000J0D01*
G01*
X18785200Y-8610600D02*
G75*
G02*
X18705200Y-8610600I-40000J0D01*
G01*
X18705200Y-8610600D02*
G75*
G02*
X18785200Y-8610600I40000J0D01*
G01*
X18785200Y-9372600D02*
G75*
G02*
X18705200Y-9372600I-40000J0D01*
G01*
X18705200Y-9372600D02*
G75*
G02*
X18785200Y-9372600I40000J0D01*
G01*
X18975700Y-12014200D02*
G75*
G02*
X18895700Y-12014200I-40000J0D01*
G01*
X18895700Y-12014200D02*
G75*
G02*
X18975700Y-12014200I40000J0D01*
G01*
X18975700Y-12514200D02*
G75*
G02*
X18895700Y-12514200I-40000J0D01*
G01*
X18895700Y-12514200D02*
G75*
G02*
X18975700Y-12514200I40000J0D01*
G01*
X18975700Y-13006800D02*
G75*
G02*
X18895700Y-13006800I-40000J0D01*
G01*
X18895700Y-13006800D02*
G75*
G02*
X18975700Y-13006800I40000J0D01*
G01*
X18975700Y-13256800D02*
G75*
G02*
X18895700Y-13256800I-40000J0D01*
G01*
X18895700Y-13256800D02*
G75*
G02*
X18975700Y-13256800I40000J0D01*
G01*
X21718900Y-8472900D02*
G75*
G02*
X21638900Y-8472900I-40000J0D01*
G01*
X21638900Y-8472900D02*
G75*
G02*
X21718900Y-8472900I40000J0D01*
G01*
X21718900Y-8722900D02*
G75*
G02*
X21638900Y-8722900I-40000J0D01*
G01*
X21638900Y-8722900D02*
G75*
G02*
X21718900Y-8722900I40000J0D01*
G01*
X21820500Y-9033700D02*
G75*
G02*
X21740500Y-9033700I-40000J0D01*
G01*
X21740500Y-9033700D02*
G75*
G02*
X21820500Y-9033700I40000J0D01*
G01*
X21820500Y-9533700D02*
G75*
G02*
X21740500Y-9533700I-40000J0D01*
G01*
X21740500Y-9533700D02*
G75*
G02*
X21820500Y-9533700I40000J0D01*
G01*
X16548100Y-8456900D02*
X16548100Y-8556900D01*
X16498100Y-8506900D02*
X16598100Y-8506900D01*
X16548100Y-8710900D02*
X16548100Y-8810900D01*
X16498100Y-8760900D02*
X16598100Y-8760900D01*
X16548100Y-8964900D02*
X16548100Y-9064900D01*
X16498100Y-9014900D02*
X16598100Y-9014900D01*
X16548100Y-9218900D02*
X16548100Y-9318900D01*
X16498100Y-9268900D02*
X16598100Y-9268900D01*
X16915700Y-8463000D02*
X16915700Y-8563000D01*
X16865700Y-8513000D02*
X16965700Y-8513000D01*
X16915700Y-8713000D02*
X16915700Y-8813000D01*
X16865700Y-8763000D02*
X16965700Y-8763000D01*
X16915700Y-8963000D02*
X16915700Y-9063000D01*
X16865700Y-9013000D02*
X16965700Y-9013000D01*
X18365700Y-8463000D02*
X18365700Y-8563000D01*
X18315700Y-8513000D02*
X18415700Y-8513000D01*
X18365700Y-8963000D02*
X18365700Y-9063000D01*
X18315700Y-9013000D02*
X18415700Y-9013000D01*
X19608800Y-8166900D02*
X19608800Y-8266900D01*
X19558800Y-8216900D02*
X19658800Y-8216900D01*
X19608800Y-8420900D02*
X19608800Y-8520900D01*
X19558800Y-8470900D02*
X19658800Y-8470900D01*
X19608800Y-8674900D02*
X19608800Y-8774900D01*
X19558800Y-8724900D02*
X19658800Y-8724900D01*
X19608800Y-8928900D02*
X19608800Y-9028900D01*
X19558800Y-8978900D02*
X19658800Y-8978900D01*
X19608800Y-9182900D02*
X19608800Y-9282900D01*
X19558800Y-9232900D02*
X19658800Y-9232900D01*
X19608800Y-9436900D02*
X19608800Y-9536900D01*
X19558800Y-9486900D02*
X19658800Y-9486900D01*
X19608800Y-9690900D02*
X19608800Y-9790900D01*
X19558800Y-9740900D02*
X19658800Y-9740900D01*
X19608800Y-9944900D02*
X19608800Y-10044900D01*
X19558800Y-9994900D02*
X19658800Y-9994900D01*
X19608800Y-10198900D02*
X19608800Y-10298900D01*
X19558800Y-10248900D02*
X19658800Y-10248900D01*
X19608800Y-10452900D02*
X19608800Y-10552900D01*
X19558800Y-10502900D02*
X19658800Y-10502900D01*
X19608800Y-10706900D02*
X19608800Y-10806900D01*
X19558800Y-10756900D02*
X19658800Y-10756900D01*
X19608800Y-10960900D02*
X19608800Y-11060900D01*
X19558800Y-11010900D02*
X19658800Y-11010900D01*
X19608800Y-11214900D02*
X19608800Y-11314900D01*
X19558800Y-11264900D02*
X19658800Y-11264900D01*
X19608800Y-11468900D02*
X19608800Y-11568900D01*
X19558800Y-11518900D02*
X19658800Y-11518900D01*
X19608800Y-11722900D02*
X19608800Y-11822900D01*
X19558800Y-11772900D02*
X19658800Y-11772900D01*
X19608800Y-11976900D02*
X19608800Y-12076900D01*
X19558800Y-12026900D02*
X19658800Y-12026900D01*
X19608800Y-12230900D02*
X19608800Y-12330900D01*
X19558800Y-12280900D02*
X19658800Y-12280900D01*
X19608800Y-12484900D02*
X19608800Y-12584900D01*
X19558800Y-12534900D02*
X19658800Y-12534900D01*
X19608800Y-12738900D02*
X19608800Y-12838900D01*
X19558800Y-12788900D02*
X19658800Y-12788900D01*
X19608800Y-12992900D02*
X19608800Y-13092900D01*
X19558800Y-13042900D02*
X19658800Y-13042900D01*
X19990000Y-12611800D02*
X19990000Y-12711800D01*
X19940000Y-12661800D02*
X20040000Y-12661800D01*
X20244000Y-12611800D02*
X20244000Y-12711800D01*
X20194000Y-12661800D02*
X20294000Y-12661800D01*
X20498000Y-12611800D02*
X20498000Y-12711800D01*
X20448000Y-12661800D02*
X20548000Y-12661800D01*
X20752000Y-12611800D02*
X20752000Y-12711800D01*
X20702000Y-12661800D02*
X20802000Y-12661800D01*
X21132800Y-8166900D02*
X21132800Y-8266900D01*
X21082800Y-8216900D02*
X21182800Y-8216900D01*
X21132800Y-8420900D02*
X21132800Y-8520900D01*
X21082800Y-8470900D02*
X21182800Y-8470900D01*
X21132800Y-8674900D02*
X21132800Y-8774900D01*
X21082800Y-8724900D02*
X21182800Y-8724900D01*
X21132800Y-8928900D02*
X21132800Y-9028900D01*
X21082800Y-8978900D02*
X21182800Y-8978900D01*
X21132800Y-9182900D02*
X21132800Y-9282900D01*
X21082800Y-9232900D02*
X21182800Y-9232900D01*
X21132800Y-9436900D02*
X21132800Y-9536900D01*
X21082800Y-9486900D02*
X21182800Y-9486900D01*
X21132800Y-9690900D02*
X21132800Y-9790900D01*
X21082800Y-9740900D02*
X21182800Y-9740900D01*
X21132800Y-9944900D02*
X21132800Y-10044900D01*
X21082800Y-9994900D02*
X21182800Y-9994900D01*
X21132800Y-10198900D02*
X21132800Y-10298900D01*
X21082800Y-10248900D02*
X21182800Y-10248900D01*
X21132800Y-10452900D02*
X21132800Y-10552900D01*
X21082800Y-10502900D02*
X21182800Y-10502900D01*
X21132800Y-10706900D02*
X21132800Y-10806900D01*
X21082800Y-10756900D02*
X21182800Y-10756900D01*
X21132800Y-10960900D02*
X21132800Y-11060900D01*
X21082800Y-11010900D02*
X21182800Y-11010900D01*
X21132800Y-11214900D02*
X21132800Y-11314900D01*
X21082800Y-11264900D02*
X21182800Y-11264900D01*
X21132800Y-11468900D02*
X21132800Y-11568900D01*
X21082800Y-11518900D02*
X21182800Y-11518900D01*
X21132800Y-11722900D02*
X21132800Y-11822900D01*
X21082800Y-11772900D02*
X21182800Y-11772900D01*
X21132800Y-11976900D02*
X21132800Y-12076900D01*
X21082800Y-12026900D02*
X21182800Y-12026900D01*
X21132800Y-12230900D02*
X21132800Y-12330900D01*
X21082800Y-12280900D02*
X21182800Y-12280900D01*
X21132800Y-12484900D02*
X21132800Y-12584900D01*
X21082800Y-12534900D02*
X21182800Y-12534900D01*
X21132800Y-12738900D02*
X21132800Y-12838900D01*
X21082800Y-12788900D02*
X21182800Y-12788900D01*
X21132800Y-12992900D02*
X21132800Y-13092900D01*
X21082800Y-13042900D02*
X21182800Y-13042900D01*
D11*
X12501077Y-14169684D02*
X12501077Y-13969684D01*
X12501077Y-13969684D02*
X12548696Y-13969684D01*
X12548696Y-13969684D02*
X12577267Y-13979208D01*
X12577267Y-13979208D02*
X12596315Y-13998255D01*
X12596315Y-13998255D02*
X12605839Y-14017303D01*
X12605839Y-14017303D02*
X12615362Y-14055398D01*
X12615362Y-14055398D02*
X12615362Y-14083969D01*
X12615362Y-14083969D02*
X12605839Y-14122065D01*
X12605839Y-14122065D02*
X12596315Y-14141112D01*
X12596315Y-14141112D02*
X12577267Y-14160160D01*
X12577267Y-14160160D02*
X12548696Y-14169684D01*
X12548696Y-14169684D02*
X12501077Y-14169684D01*
X12701077Y-14169684D02*
X12701077Y-14036350D01*
X12701077Y-14074446D02*
X12710601Y-14055398D01*
X12710601Y-14055398D02*
X12720124Y-14045874D01*
X12720124Y-14045874D02*
X12739172Y-14036350D01*
X12739172Y-14036350D02*
X12758220Y-14036350D01*
X12824886Y-14169684D02*
X12824886Y-14036350D01*
X12824886Y-13969684D02*
X12815362Y-13979208D01*
X12815362Y-13979208D02*
X12824886Y-13988731D01*
X12824886Y-13988731D02*
X12834410Y-13979208D01*
X12834410Y-13979208D02*
X12824886Y-13969684D01*
X12824886Y-13969684D02*
X12824886Y-13988731D01*
X12948696Y-14169684D02*
X12929648Y-14160160D01*
X12929648Y-14160160D02*
X12920124Y-14141112D01*
X12920124Y-14141112D02*
X12920124Y-13969684D01*
X13053458Y-14169684D02*
X13034410Y-14160160D01*
X13034410Y-14160160D02*
X13024886Y-14141112D01*
X13024886Y-14141112D02*
X13024886Y-13969684D01*
X13282029Y-14169684D02*
X13282029Y-13969684D01*
X13282029Y-13969684D02*
X13348696Y-14112541D01*
X13348696Y-14112541D02*
X13415362Y-13969684D01*
X13415362Y-13969684D02*
X13415362Y-14169684D01*
X13596315Y-14169684D02*
X13596315Y-14064922D01*
X13596315Y-14064922D02*
X13586791Y-14045874D01*
X13586791Y-14045874D02*
X13567743Y-14036350D01*
X13567743Y-14036350D02*
X13529648Y-14036350D01*
X13529648Y-14036350D02*
X13510601Y-14045874D01*
X13596315Y-14160160D02*
X13577267Y-14169684D01*
X13577267Y-14169684D02*
X13529648Y-14169684D01*
X13529648Y-14169684D02*
X13510601Y-14160160D01*
X13510601Y-14160160D02*
X13501077Y-14141112D01*
X13501077Y-14141112D02*
X13501077Y-14122065D01*
X13501077Y-14122065D02*
X13510601Y-14103017D01*
X13510601Y-14103017D02*
X13529648Y-14093493D01*
X13529648Y-14093493D02*
X13577267Y-14093493D01*
X13577267Y-14093493D02*
X13596315Y-14083969D01*
X13691553Y-14036350D02*
X13691553Y-14236350D01*
X13691553Y-14045874D02*
X13710601Y-14036350D01*
X13710601Y-14036350D02*
X13748696Y-14036350D01*
X13748696Y-14036350D02*
X13767743Y-14045874D01*
X13767743Y-14045874D02*
X13777267Y-14055398D01*
X13777267Y-14055398D02*
X13786791Y-14074446D01*
X13786791Y-14074446D02*
X13786791Y-14131588D01*
X13786791Y-14131588D02*
X13777267Y-14150636D01*
X13777267Y-14150636D02*
X13767743Y-14160160D01*
X13767743Y-14160160D02*
X13748696Y-14169684D01*
X13748696Y-14169684D02*
X13710601Y-14169684D01*
X13710601Y-14169684D02*
X13691553Y-14160160D01*
X13872505Y-14150636D02*
X13882029Y-14160160D01*
X13882029Y-14160160D02*
X13872505Y-14169684D01*
X13872505Y-14169684D02*
X13862982Y-14160160D01*
X13862982Y-14160160D02*
X13872505Y-14150636D01*
X13872505Y-14150636D02*
X13872505Y-14169684D01*
X13872505Y-14045874D02*
X13882029Y-14055398D01*
X13882029Y-14055398D02*
X13872505Y-14064922D01*
X13872505Y-14064922D02*
X13862982Y-14055398D01*
X13862982Y-14055398D02*
X13872505Y-14045874D01*
X13872505Y-14045874D02*
X13872505Y-14064922D01*
D12*
X12210300Y-14483200D02*
X12240300Y-14513200D01*
X12240300Y-14483200D02*
X12210300Y-14513200D01*
D11*
X12539172Y-14389684D02*
X12558220Y-14389684D01*
X12558220Y-14389684D02*
X12577267Y-14399208D01*
X12577267Y-14399208D02*
X12586791Y-14408731D01*
X12586791Y-14408731D02*
X12596315Y-14427779D01*
X12596315Y-14427779D02*
X12605839Y-14465874D01*
X12605839Y-14465874D02*
X12605839Y-14513493D01*
X12605839Y-14513493D02*
X12596315Y-14551588D01*
X12596315Y-14551588D02*
X12586791Y-14570636D01*
X12586791Y-14570636D02*
X12577267Y-14580160D01*
X12577267Y-14580160D02*
X12558220Y-14589684D01*
X12558220Y-14589684D02*
X12539172Y-14589684D01*
X12539172Y-14589684D02*
X12520124Y-14580160D01*
X12520124Y-14580160D02*
X12510601Y-14570636D01*
X12510601Y-14570636D02*
X12501077Y-14551588D01*
X12501077Y-14551588D02*
X12491553Y-14513493D01*
X12491553Y-14513493D02*
X12491553Y-14465874D01*
X12491553Y-14465874D02*
X12501077Y-14427779D01*
X12501077Y-14427779D02*
X12510601Y-14408731D01*
X12510601Y-14408731D02*
X12520124Y-14399208D01*
X12520124Y-14399208D02*
X12539172Y-14389684D01*
X12691553Y-14570636D02*
X12701077Y-14580160D01*
X12701077Y-14580160D02*
X12691553Y-14589684D01*
X12691553Y-14589684D02*
X12682029Y-14580160D01*
X12682029Y-14580160D02*
X12691553Y-14570636D01*
X12691553Y-14570636D02*
X12691553Y-14589684D01*
X12767743Y-14389684D02*
X12891553Y-14389684D01*
X12891553Y-14389684D02*
X12824886Y-14465874D01*
X12824886Y-14465874D02*
X12853458Y-14465874D01*
X12853458Y-14465874D02*
X12872505Y-14475398D01*
X12872505Y-14475398D02*
X12882029Y-14484922D01*
X12882029Y-14484922D02*
X12891553Y-14503969D01*
X12891553Y-14503969D02*
X12891553Y-14551588D01*
X12891553Y-14551588D02*
X12882029Y-14570636D01*
X12882029Y-14570636D02*
X12872505Y-14580160D01*
X12872505Y-14580160D02*
X12853458Y-14589684D01*
X12853458Y-14589684D02*
X12796315Y-14589684D01*
X12796315Y-14589684D02*
X12777267Y-14580160D01*
X12777267Y-14580160D02*
X12767743Y-14570636D01*
X13015362Y-14389684D02*
X13034410Y-14389684D01*
X13034410Y-14389684D02*
X13053458Y-14399208D01*
X13053458Y-14399208D02*
X13062982Y-14408731D01*
X13062982Y-14408731D02*
X13072505Y-14427779D01*
X13072505Y-14427779D02*
X13082029Y-14465874D01*
X13082029Y-14465874D02*
X13082029Y-14513493D01*
X13082029Y-14513493D02*
X13072505Y-14551588D01*
X13072505Y-14551588D02*
X13062982Y-14570636D01*
X13062982Y-14570636D02*
X13053458Y-14580160D01*
X13053458Y-14580160D02*
X13034410Y-14589684D01*
X13034410Y-14589684D02*
X13015362Y-14589684D01*
X13015362Y-14589684D02*
X12996315Y-14580160D01*
X12996315Y-14580160D02*
X12986791Y-14570636D01*
X12986791Y-14570636D02*
X12977267Y-14551588D01*
X12977267Y-14551588D02*
X12967743Y-14513493D01*
X12967743Y-14513493D02*
X12967743Y-14465874D01*
X12967743Y-14465874D02*
X12977267Y-14427779D01*
X12977267Y-14427779D02*
X12986791Y-14408731D01*
X12986791Y-14408731D02*
X12996315Y-14399208D01*
X12996315Y-14399208D02*
X13015362Y-14389684D01*
X13205839Y-14389684D02*
X13224886Y-14389684D01*
X13224886Y-14389684D02*
X13243934Y-14399208D01*
X13243934Y-14399208D02*
X13253458Y-14408731D01*
X13253458Y-14408731D02*
X13262982Y-14427779D01*
X13262982Y-14427779D02*
X13272505Y-14465874D01*
X13272505Y-14465874D02*
X13272505Y-14513493D01*
X13272505Y-14513493D02*
X13262982Y-14551588D01*
X13262982Y-14551588D02*
X13253458Y-14570636D01*
X13253458Y-14570636D02*
X13243934Y-14580160D01*
X13243934Y-14580160D02*
X13224886Y-14589684D01*
X13224886Y-14589684D02*
X13205839Y-14589684D01*
X13205839Y-14589684D02*
X13186791Y-14580160D01*
X13186791Y-14580160D02*
X13177267Y-14570636D01*
X13177267Y-14570636D02*
X13167743Y-14551588D01*
X13167743Y-14551588D02*
X13158220Y-14513493D01*
X13158220Y-14513493D02*
X13158220Y-14465874D01*
X13158220Y-14465874D02*
X13167743Y-14427779D01*
X13167743Y-14427779D02*
X13177267Y-14408731D01*
X13177267Y-14408731D02*
X13186791Y-14399208D01*
X13186791Y-14399208D02*
X13205839Y-14389684D01*
X13358220Y-14589684D02*
X13358220Y-14456350D01*
X13358220Y-14475398D02*
X13367743Y-14465874D01*
X13367743Y-14465874D02*
X13386791Y-14456350D01*
X13386791Y-14456350D02*
X13415363Y-14456350D01*
X13415363Y-14456350D02*
X13434410Y-14465874D01*
X13434410Y-14465874D02*
X13443934Y-14484922D01*
X13443934Y-14484922D02*
X13443934Y-14589684D01*
X13443934Y-14484922D02*
X13453458Y-14465874D01*
X13453458Y-14465874D02*
X13472505Y-14456350D01*
X13472505Y-14456350D02*
X13501077Y-14456350D01*
X13501077Y-14456350D02*
X13520124Y-14465874D01*
X13520124Y-14465874D02*
X13529648Y-14484922D01*
X13529648Y-14484922D02*
X13529648Y-14589684D01*
X13624886Y-14589684D02*
X13624886Y-14456350D01*
X13624886Y-14475398D02*
X13634410Y-14465874D01*
X13634410Y-14465874D02*
X13653458Y-14456350D01*
X13653458Y-14456350D02*
X13682029Y-14456350D01*
X13682029Y-14456350D02*
X13701077Y-14465874D01*
X13701077Y-14465874D02*
X13710601Y-14484922D01*
X13710601Y-14484922D02*
X13710601Y-14589684D01*
X13710601Y-14484922D02*
X13720124Y-14465874D01*
X13720124Y-14465874D02*
X13739172Y-14456350D01*
X13739172Y-14456350D02*
X13767743Y-14456350D01*
X13767743Y-14456350D02*
X13786791Y-14465874D01*
X13786791Y-14465874D02*
X13796315Y-14484922D01*
X13796315Y-14484922D02*
X13796315Y-14589684D01*
X14186791Y-14380160D02*
X14015363Y-14637303D01*
X14443934Y-14389684D02*
X14462982Y-14389684D01*
X14462982Y-14389684D02*
X14482029Y-14399208D01*
X14482029Y-14399208D02*
X14491553Y-14408731D01*
X14491553Y-14408731D02*
X14501077Y-14427779D01*
X14501077Y-14427779D02*
X14510601Y-14465874D01*
X14510601Y-14465874D02*
X14510601Y-14513493D01*
X14510601Y-14513493D02*
X14501077Y-14551588D01*
X14501077Y-14551588D02*
X14491553Y-14570636D01*
X14491553Y-14570636D02*
X14482029Y-14580160D01*
X14482029Y-14580160D02*
X14462982Y-14589684D01*
X14462982Y-14589684D02*
X14443934Y-14589684D01*
X14443934Y-14589684D02*
X14424886Y-14580160D01*
X14424886Y-14580160D02*
X14415363Y-14570636D01*
X14415363Y-14570636D02*
X14405839Y-14551588D01*
X14405839Y-14551588D02*
X14396315Y-14513493D01*
X14396315Y-14513493D02*
X14396315Y-14465874D01*
X14396315Y-14465874D02*
X14405839Y-14427779D01*
X14405839Y-14427779D02*
X14415363Y-14408731D01*
X14415363Y-14408731D02*
X14424886Y-14399208D01*
X14424886Y-14399208D02*
X14443934Y-14389684D01*
X14596315Y-14570636D02*
X14605839Y-14580160D01*
X14605839Y-14580160D02*
X14596315Y-14589684D01*
X14596315Y-14589684D02*
X14586791Y-14580160D01*
X14586791Y-14580160D02*
X14596315Y-14570636D01*
X14596315Y-14570636D02*
X14596315Y-14589684D01*
X14729648Y-14389684D02*
X14748696Y-14389684D01*
X14748696Y-14389684D02*
X14767744Y-14399208D01*
X14767744Y-14399208D02*
X14777267Y-14408731D01*
X14777267Y-14408731D02*
X14786791Y-14427779D01*
X14786791Y-14427779D02*
X14796315Y-14465874D01*
X14796315Y-14465874D02*
X14796315Y-14513493D01*
X14796315Y-14513493D02*
X14786791Y-14551588D01*
X14786791Y-14551588D02*
X14777267Y-14570636D01*
X14777267Y-14570636D02*
X14767744Y-14580160D01*
X14767744Y-14580160D02*
X14748696Y-14589684D01*
X14748696Y-14589684D02*
X14729648Y-14589684D01*
X14729648Y-14589684D02*
X14710601Y-14580160D01*
X14710601Y-14580160D02*
X14701077Y-14570636D01*
X14701077Y-14570636D02*
X14691553Y-14551588D01*
X14691553Y-14551588D02*
X14682029Y-14513493D01*
X14682029Y-14513493D02*
X14682029Y-14465874D01*
X14682029Y-14465874D02*
X14691553Y-14427779D01*
X14691553Y-14427779D02*
X14701077Y-14408731D01*
X14701077Y-14408731D02*
X14710601Y-14399208D01*
X14710601Y-14399208D02*
X14729648Y-14389684D01*
X14986791Y-14589684D02*
X14872506Y-14589684D01*
X14929648Y-14589684D02*
X14929648Y-14389684D01*
X14929648Y-14389684D02*
X14910601Y-14418255D01*
X14910601Y-14418255D02*
X14891553Y-14437303D01*
X14891553Y-14437303D02*
X14872506Y-14446827D01*
X15177267Y-14589684D02*
X15062982Y-14589684D01*
X15120125Y-14589684D02*
X15120125Y-14389684D01*
X15120125Y-14389684D02*
X15101077Y-14418255D01*
X15101077Y-14418255D02*
X15082029Y-14437303D01*
X15082029Y-14437303D02*
X15062982Y-14446827D01*
X15291553Y-14475398D02*
X15272506Y-14465874D01*
X15272506Y-14465874D02*
X15262982Y-14456350D01*
X15262982Y-14456350D02*
X15253458Y-14437303D01*
X15253458Y-14437303D02*
X15253458Y-14427779D01*
X15253458Y-14427779D02*
X15262982Y-14408731D01*
X15262982Y-14408731D02*
X15272506Y-14399208D01*
X15272506Y-14399208D02*
X15291553Y-14389684D01*
X15291553Y-14389684D02*
X15329648Y-14389684D01*
X15329648Y-14389684D02*
X15348696Y-14399208D01*
X15348696Y-14399208D02*
X15358220Y-14408731D01*
X15358220Y-14408731D02*
X15367744Y-14427779D01*
X15367744Y-14427779D02*
X15367744Y-14437303D01*
X15367744Y-14437303D02*
X15358220Y-14456350D01*
X15358220Y-14456350D02*
X15348696Y-14465874D01*
X15348696Y-14465874D02*
X15329648Y-14475398D01*
X15329648Y-14475398D02*
X15291553Y-14475398D01*
X15291553Y-14475398D02*
X15272506Y-14484922D01*
X15272506Y-14484922D02*
X15262982Y-14494446D01*
X15262982Y-14494446D02*
X15253458Y-14513493D01*
X15253458Y-14513493D02*
X15253458Y-14551588D01*
X15253458Y-14551588D02*
X15262982Y-14570636D01*
X15262982Y-14570636D02*
X15272506Y-14580160D01*
X15272506Y-14580160D02*
X15291553Y-14589684D01*
X15291553Y-14589684D02*
X15329648Y-14589684D01*
X15329648Y-14589684D02*
X15348696Y-14580160D01*
X15348696Y-14580160D02*
X15358220Y-14570636D01*
X15358220Y-14570636D02*
X15367744Y-14551588D01*
X15367744Y-14551588D02*
X15367744Y-14513493D01*
X15367744Y-14513493D02*
X15358220Y-14494446D01*
X15358220Y-14494446D02*
X15348696Y-14484922D01*
X15348696Y-14484922D02*
X15329648Y-14475398D01*
X15443934Y-14389684D02*
X15443934Y-14427779D01*
X15520125Y-14389684D02*
X15520125Y-14427779D01*
X15815363Y-14665874D02*
X15805839Y-14656350D01*
X15805839Y-14656350D02*
X15786791Y-14627779D01*
X15786791Y-14627779D02*
X15777268Y-14608731D01*
X15777268Y-14608731D02*
X15767744Y-14580160D01*
X15767744Y-14580160D02*
X15758220Y-14532541D01*
X15758220Y-14532541D02*
X15758220Y-14494446D01*
X15758220Y-14494446D02*
X15767744Y-14446827D01*
X15767744Y-14446827D02*
X15777268Y-14418255D01*
X15777268Y-14418255D02*
X15786791Y-14399208D01*
X15786791Y-14399208D02*
X15805839Y-14370636D01*
X15805839Y-14370636D02*
X15815363Y-14361112D01*
X15977268Y-14389684D02*
X15939172Y-14389684D01*
X15939172Y-14389684D02*
X15920125Y-14399208D01*
X15920125Y-14399208D02*
X15910601Y-14408731D01*
X15910601Y-14408731D02*
X15891553Y-14437303D01*
X15891553Y-14437303D02*
X15882029Y-14475398D01*
X15882029Y-14475398D02*
X15882029Y-14551588D01*
X15882029Y-14551588D02*
X15891553Y-14570636D01*
X15891553Y-14570636D02*
X15901077Y-14580160D01*
X15901077Y-14580160D02*
X15920125Y-14589684D01*
X15920125Y-14589684D02*
X15958220Y-14589684D01*
X15958220Y-14589684D02*
X15977268Y-14580160D01*
X15977268Y-14580160D02*
X15986791Y-14570636D01*
X15986791Y-14570636D02*
X15996315Y-14551588D01*
X15996315Y-14551588D02*
X15996315Y-14503969D01*
X15996315Y-14503969D02*
X15986791Y-14484922D01*
X15986791Y-14484922D02*
X15977268Y-14475398D01*
X15977268Y-14475398D02*
X15958220Y-14465874D01*
X15958220Y-14465874D02*
X15920125Y-14465874D01*
X15920125Y-14465874D02*
X15901077Y-14475398D01*
X15901077Y-14475398D02*
X15891553Y-14484922D01*
X15891553Y-14484922D02*
X15882029Y-14503969D01*
X16234410Y-14589684D02*
X16234410Y-14389684D01*
X16320125Y-14589684D02*
X16320125Y-14484922D01*
X16320125Y-14484922D02*
X16310601Y-14465874D01*
X16310601Y-14465874D02*
X16291553Y-14456350D01*
X16291553Y-14456350D02*
X16262982Y-14456350D01*
X16262982Y-14456350D02*
X16243934Y-14465874D01*
X16243934Y-14465874D02*
X16234410Y-14475398D01*
X16443934Y-14589684D02*
X16424887Y-14580160D01*
X16424887Y-14580160D02*
X16415363Y-14570636D01*
X16415363Y-14570636D02*
X16405839Y-14551588D01*
X16405839Y-14551588D02*
X16405839Y-14494446D01*
X16405839Y-14494446D02*
X16415363Y-14475398D01*
X16415363Y-14475398D02*
X16424887Y-14465874D01*
X16424887Y-14465874D02*
X16443934Y-14456350D01*
X16443934Y-14456350D02*
X16472506Y-14456350D01*
X16472506Y-14456350D02*
X16491553Y-14465874D01*
X16491553Y-14465874D02*
X16501077Y-14475398D01*
X16501077Y-14475398D02*
X16510601Y-14494446D01*
X16510601Y-14494446D02*
X16510601Y-14551588D01*
X16510601Y-14551588D02*
X16501077Y-14570636D01*
X16501077Y-14570636D02*
X16491553Y-14580160D01*
X16491553Y-14580160D02*
X16472506Y-14589684D01*
X16472506Y-14589684D02*
X16443934Y-14589684D01*
X16624887Y-14589684D02*
X16605839Y-14580160D01*
X16605839Y-14580160D02*
X16596315Y-14561112D01*
X16596315Y-14561112D02*
X16596315Y-14389684D01*
X16777268Y-14580160D02*
X16758220Y-14589684D01*
X16758220Y-14589684D02*
X16720125Y-14589684D01*
X16720125Y-14589684D02*
X16701077Y-14580160D01*
X16701077Y-14580160D02*
X16691553Y-14561112D01*
X16691553Y-14561112D02*
X16691553Y-14484922D01*
X16691553Y-14484922D02*
X16701077Y-14465874D01*
X16701077Y-14465874D02*
X16720125Y-14456350D01*
X16720125Y-14456350D02*
X16758220Y-14456350D01*
X16758220Y-14456350D02*
X16777268Y-14465874D01*
X16777268Y-14465874D02*
X16786792Y-14484922D01*
X16786792Y-14484922D02*
X16786792Y-14503969D01*
X16786792Y-14503969D02*
X16691553Y-14523017D01*
X16862982Y-14580160D02*
X16882030Y-14589684D01*
X16882030Y-14589684D02*
X16920125Y-14589684D01*
X16920125Y-14589684D02*
X16939173Y-14580160D01*
X16939173Y-14580160D02*
X16948696Y-14561112D01*
X16948696Y-14561112D02*
X16948696Y-14551588D01*
X16948696Y-14551588D02*
X16939173Y-14532541D01*
X16939173Y-14532541D02*
X16920125Y-14523017D01*
X16920125Y-14523017D02*
X16891553Y-14523017D01*
X16891553Y-14523017D02*
X16872506Y-14513493D01*
X16872506Y-14513493D02*
X16862982Y-14494446D01*
X16862982Y-14494446D02*
X16862982Y-14484922D01*
X16862982Y-14484922D02*
X16872506Y-14465874D01*
X16872506Y-14465874D02*
X16891553Y-14456350D01*
X16891553Y-14456350D02*
X16920125Y-14456350D01*
X16920125Y-14456350D02*
X16939173Y-14465874D01*
X17015363Y-14665874D02*
X17024887Y-14656350D01*
X17024887Y-14656350D02*
X17043934Y-14627779D01*
X17043934Y-14627779D02*
X17053458Y-14608731D01*
X17053458Y-14608731D02*
X17062982Y-14580160D01*
X17062982Y-14580160D02*
X17072506Y-14532541D01*
X17072506Y-14532541D02*
X17072506Y-14494446D01*
X17072506Y-14494446D02*
X17062982Y-14446827D01*
X17062982Y-14446827D02*
X17053458Y-14418255D01*
X17053458Y-14418255D02*
X17043934Y-14399208D01*
X17043934Y-14399208D02*
X17024887Y-14370636D01*
X17024887Y-14370636D02*
X17015363Y-14361112D01*
D12*
X12240300Y-14762200D02*
G75*
G02*
X12160300Y-14762200I-40000J0D01*
G01*
X12160300Y-14762200D02*
G75*
G02*
X12240300Y-14762200I40000J0D01*
G01*
D11*
X12539172Y-14653684D02*
X12558220Y-14653684D01*
X12558220Y-14653684D02*
X12577267Y-14663208D01*
X12577267Y-14663208D02*
X12586791Y-14672731D01*
X12586791Y-14672731D02*
X12596315Y-14691779D01*
X12596315Y-14691779D02*
X12605839Y-14729874D01*
X12605839Y-14729874D02*
X12605839Y-14777493D01*
X12605839Y-14777493D02*
X12596315Y-14815588D01*
X12596315Y-14815588D02*
X12586791Y-14834636D01*
X12586791Y-14834636D02*
X12577267Y-14844160D01*
X12577267Y-14844160D02*
X12558220Y-14853684D01*
X12558220Y-14853684D02*
X12539172Y-14853684D01*
X12539172Y-14853684D02*
X12520124Y-14844160D01*
X12520124Y-14844160D02*
X12510601Y-14834636D01*
X12510601Y-14834636D02*
X12501077Y-14815588D01*
X12501077Y-14815588D02*
X12491553Y-14777493D01*
X12491553Y-14777493D02*
X12491553Y-14729874D01*
X12491553Y-14729874D02*
X12501077Y-14691779D01*
X12501077Y-14691779D02*
X12510601Y-14672731D01*
X12510601Y-14672731D02*
X12520124Y-14663208D01*
X12520124Y-14663208D02*
X12539172Y-14653684D01*
X12691553Y-14834636D02*
X12701077Y-14844160D01*
X12701077Y-14844160D02*
X12691553Y-14853684D01*
X12691553Y-14853684D02*
X12682029Y-14844160D01*
X12682029Y-14844160D02*
X12691553Y-14834636D01*
X12691553Y-14834636D02*
X12691553Y-14853684D01*
X12815362Y-14739398D02*
X12796315Y-14729874D01*
X12796315Y-14729874D02*
X12786791Y-14720350D01*
X12786791Y-14720350D02*
X12777267Y-14701303D01*
X12777267Y-14701303D02*
X12777267Y-14691779D01*
X12777267Y-14691779D02*
X12786791Y-14672731D01*
X12786791Y-14672731D02*
X12796315Y-14663208D01*
X12796315Y-14663208D02*
X12815362Y-14653684D01*
X12815362Y-14653684D02*
X12853458Y-14653684D01*
X12853458Y-14653684D02*
X12872505Y-14663208D01*
X12872505Y-14663208D02*
X12882029Y-14672731D01*
X12882029Y-14672731D02*
X12891553Y-14691779D01*
X12891553Y-14691779D02*
X12891553Y-14701303D01*
X12891553Y-14701303D02*
X12882029Y-14720350D01*
X12882029Y-14720350D02*
X12872505Y-14729874D01*
X12872505Y-14729874D02*
X12853458Y-14739398D01*
X12853458Y-14739398D02*
X12815362Y-14739398D01*
X12815362Y-14739398D02*
X12796315Y-14748922D01*
X12796315Y-14748922D02*
X12786791Y-14758446D01*
X12786791Y-14758446D02*
X12777267Y-14777493D01*
X12777267Y-14777493D02*
X12777267Y-14815588D01*
X12777267Y-14815588D02*
X12786791Y-14834636D01*
X12786791Y-14834636D02*
X12796315Y-14844160D01*
X12796315Y-14844160D02*
X12815362Y-14853684D01*
X12815362Y-14853684D02*
X12853458Y-14853684D01*
X12853458Y-14853684D02*
X12872505Y-14844160D01*
X12872505Y-14844160D02*
X12882029Y-14834636D01*
X12882029Y-14834636D02*
X12891553Y-14815588D01*
X12891553Y-14815588D02*
X12891553Y-14777493D01*
X12891553Y-14777493D02*
X12882029Y-14758446D01*
X12882029Y-14758446D02*
X12872505Y-14748922D01*
X12872505Y-14748922D02*
X12853458Y-14739398D01*
X13015362Y-14653684D02*
X13034410Y-14653684D01*
X13034410Y-14653684D02*
X13053458Y-14663208D01*
X13053458Y-14663208D02*
X13062982Y-14672731D01*
X13062982Y-14672731D02*
X13072505Y-14691779D01*
X13072505Y-14691779D02*
X13082029Y-14729874D01*
X13082029Y-14729874D02*
X13082029Y-14777493D01*
X13082029Y-14777493D02*
X13072505Y-14815588D01*
X13072505Y-14815588D02*
X13062982Y-14834636D01*
X13062982Y-14834636D02*
X13053458Y-14844160D01*
X13053458Y-14844160D02*
X13034410Y-14853684D01*
X13034410Y-14853684D02*
X13015362Y-14853684D01*
X13015362Y-14853684D02*
X12996315Y-14844160D01*
X12996315Y-14844160D02*
X12986791Y-14834636D01*
X12986791Y-14834636D02*
X12977267Y-14815588D01*
X12977267Y-14815588D02*
X12967743Y-14777493D01*
X12967743Y-14777493D02*
X12967743Y-14729874D01*
X12967743Y-14729874D02*
X12977267Y-14691779D01*
X12977267Y-14691779D02*
X12986791Y-14672731D01*
X12986791Y-14672731D02*
X12996315Y-14663208D01*
X12996315Y-14663208D02*
X13015362Y-14653684D01*
X13205839Y-14653684D02*
X13224886Y-14653684D01*
X13224886Y-14653684D02*
X13243934Y-14663208D01*
X13243934Y-14663208D02*
X13253458Y-14672731D01*
X13253458Y-14672731D02*
X13262982Y-14691779D01*
X13262982Y-14691779D02*
X13272505Y-14729874D01*
X13272505Y-14729874D02*
X13272505Y-14777493D01*
X13272505Y-14777493D02*
X13262982Y-14815588D01*
X13262982Y-14815588D02*
X13253458Y-14834636D01*
X13253458Y-14834636D02*
X13243934Y-14844160D01*
X13243934Y-14844160D02*
X13224886Y-14853684D01*
X13224886Y-14853684D02*
X13205839Y-14853684D01*
X13205839Y-14853684D02*
X13186791Y-14844160D01*
X13186791Y-14844160D02*
X13177267Y-14834636D01*
X13177267Y-14834636D02*
X13167743Y-14815588D01*
X13167743Y-14815588D02*
X13158220Y-14777493D01*
X13158220Y-14777493D02*
X13158220Y-14729874D01*
X13158220Y-14729874D02*
X13167743Y-14691779D01*
X13167743Y-14691779D02*
X13177267Y-14672731D01*
X13177267Y-14672731D02*
X13186791Y-14663208D01*
X13186791Y-14663208D02*
X13205839Y-14653684D01*
X13358220Y-14853684D02*
X13358220Y-14720350D01*
X13358220Y-14739398D02*
X13367743Y-14729874D01*
X13367743Y-14729874D02*
X13386791Y-14720350D01*
X13386791Y-14720350D02*
X13415363Y-14720350D01*
X13415363Y-14720350D02*
X13434410Y-14729874D01*
X13434410Y-14729874D02*
X13443934Y-14748922D01*
X13443934Y-14748922D02*
X13443934Y-14853684D01*
X13443934Y-14748922D02*
X13453458Y-14729874D01*
X13453458Y-14729874D02*
X13472505Y-14720350D01*
X13472505Y-14720350D02*
X13501077Y-14720350D01*
X13501077Y-14720350D02*
X13520124Y-14729874D01*
X13520124Y-14729874D02*
X13529648Y-14748922D01*
X13529648Y-14748922D02*
X13529648Y-14853684D01*
X13624886Y-14853684D02*
X13624886Y-14720350D01*
X13624886Y-14739398D02*
X13634410Y-14729874D01*
X13634410Y-14729874D02*
X13653458Y-14720350D01*
X13653458Y-14720350D02*
X13682029Y-14720350D01*
X13682029Y-14720350D02*
X13701077Y-14729874D01*
X13701077Y-14729874D02*
X13710601Y-14748922D01*
X13710601Y-14748922D02*
X13710601Y-14853684D01*
X13710601Y-14748922D02*
X13720124Y-14729874D01*
X13720124Y-14729874D02*
X13739172Y-14720350D01*
X13739172Y-14720350D02*
X13767743Y-14720350D01*
X13767743Y-14720350D02*
X13786791Y-14729874D01*
X13786791Y-14729874D02*
X13796315Y-14748922D01*
X13796315Y-14748922D02*
X13796315Y-14853684D01*
X14186791Y-14644160D02*
X14015363Y-14901303D01*
X14443934Y-14653684D02*
X14462982Y-14653684D01*
X14462982Y-14653684D02*
X14482029Y-14663208D01*
X14482029Y-14663208D02*
X14491553Y-14672731D01*
X14491553Y-14672731D02*
X14501077Y-14691779D01*
X14501077Y-14691779D02*
X14510601Y-14729874D01*
X14510601Y-14729874D02*
X14510601Y-14777493D01*
X14510601Y-14777493D02*
X14501077Y-14815588D01*
X14501077Y-14815588D02*
X14491553Y-14834636D01*
X14491553Y-14834636D02*
X14482029Y-14844160D01*
X14482029Y-14844160D02*
X14462982Y-14853684D01*
X14462982Y-14853684D02*
X14443934Y-14853684D01*
X14443934Y-14853684D02*
X14424886Y-14844160D01*
X14424886Y-14844160D02*
X14415363Y-14834636D01*
X14415363Y-14834636D02*
X14405839Y-14815588D01*
X14405839Y-14815588D02*
X14396315Y-14777493D01*
X14396315Y-14777493D02*
X14396315Y-14729874D01*
X14396315Y-14729874D02*
X14405839Y-14691779D01*
X14405839Y-14691779D02*
X14415363Y-14672731D01*
X14415363Y-14672731D02*
X14424886Y-14663208D01*
X14424886Y-14663208D02*
X14443934Y-14653684D01*
X14596315Y-14834636D02*
X14605839Y-14844160D01*
X14605839Y-14844160D02*
X14596315Y-14853684D01*
X14596315Y-14853684D02*
X14586791Y-14844160D01*
X14586791Y-14844160D02*
X14596315Y-14834636D01*
X14596315Y-14834636D02*
X14596315Y-14853684D01*
X14729648Y-14653684D02*
X14748696Y-14653684D01*
X14748696Y-14653684D02*
X14767744Y-14663208D01*
X14767744Y-14663208D02*
X14777267Y-14672731D01*
X14777267Y-14672731D02*
X14786791Y-14691779D01*
X14786791Y-14691779D02*
X14796315Y-14729874D01*
X14796315Y-14729874D02*
X14796315Y-14777493D01*
X14796315Y-14777493D02*
X14786791Y-14815588D01*
X14786791Y-14815588D02*
X14777267Y-14834636D01*
X14777267Y-14834636D02*
X14767744Y-14844160D01*
X14767744Y-14844160D02*
X14748696Y-14853684D01*
X14748696Y-14853684D02*
X14729648Y-14853684D01*
X14729648Y-14853684D02*
X14710601Y-14844160D01*
X14710601Y-14844160D02*
X14701077Y-14834636D01*
X14701077Y-14834636D02*
X14691553Y-14815588D01*
X14691553Y-14815588D02*
X14682029Y-14777493D01*
X14682029Y-14777493D02*
X14682029Y-14729874D01*
X14682029Y-14729874D02*
X14691553Y-14691779D01*
X14691553Y-14691779D02*
X14701077Y-14672731D01*
X14701077Y-14672731D02*
X14710601Y-14663208D01*
X14710601Y-14663208D02*
X14729648Y-14653684D01*
X14862982Y-14653684D02*
X14986791Y-14653684D01*
X14986791Y-14653684D02*
X14920125Y-14729874D01*
X14920125Y-14729874D02*
X14948696Y-14729874D01*
X14948696Y-14729874D02*
X14967744Y-14739398D01*
X14967744Y-14739398D02*
X14977267Y-14748922D01*
X14977267Y-14748922D02*
X14986791Y-14767969D01*
X14986791Y-14767969D02*
X14986791Y-14815588D01*
X14986791Y-14815588D02*
X14977267Y-14834636D01*
X14977267Y-14834636D02*
X14967744Y-14844160D01*
X14967744Y-14844160D02*
X14948696Y-14853684D01*
X14948696Y-14853684D02*
X14891553Y-14853684D01*
X14891553Y-14853684D02*
X14872506Y-14844160D01*
X14872506Y-14844160D02*
X14862982Y-14834636D01*
X15177267Y-14853684D02*
X15062982Y-14853684D01*
X15120125Y-14853684D02*
X15120125Y-14653684D01*
X15120125Y-14653684D02*
X15101077Y-14682255D01*
X15101077Y-14682255D02*
X15082029Y-14701303D01*
X15082029Y-14701303D02*
X15062982Y-14710827D01*
X15358220Y-14653684D02*
X15262982Y-14653684D01*
X15262982Y-14653684D02*
X15253458Y-14748922D01*
X15253458Y-14748922D02*
X15262982Y-14739398D01*
X15262982Y-14739398D02*
X15282029Y-14729874D01*
X15282029Y-14729874D02*
X15329648Y-14729874D01*
X15329648Y-14729874D02*
X15348696Y-14739398D01*
X15348696Y-14739398D02*
X15358220Y-14748922D01*
X15358220Y-14748922D02*
X15367744Y-14767969D01*
X15367744Y-14767969D02*
X15367744Y-14815588D01*
X15367744Y-14815588D02*
X15358220Y-14834636D01*
X15358220Y-14834636D02*
X15348696Y-14844160D01*
X15348696Y-14844160D02*
X15329648Y-14853684D01*
X15329648Y-14853684D02*
X15282029Y-14853684D01*
X15282029Y-14853684D02*
X15262982Y-14844160D01*
X15262982Y-14844160D02*
X15253458Y-14834636D01*
X15443934Y-14653684D02*
X15443934Y-14691779D01*
X15520125Y-14653684D02*
X15520125Y-14691779D01*
X15815363Y-14929874D02*
X15805839Y-14920350D01*
X15805839Y-14920350D02*
X15786791Y-14891779D01*
X15786791Y-14891779D02*
X15777268Y-14872731D01*
X15777268Y-14872731D02*
X15767744Y-14844160D01*
X15767744Y-14844160D02*
X15758220Y-14796541D01*
X15758220Y-14796541D02*
X15758220Y-14758446D01*
X15758220Y-14758446D02*
X15767744Y-14710827D01*
X15767744Y-14710827D02*
X15777268Y-14682255D01*
X15777268Y-14682255D02*
X15786791Y-14663208D01*
X15786791Y-14663208D02*
X15805839Y-14634636D01*
X15805839Y-14634636D02*
X15815363Y-14625112D01*
X15882029Y-14672731D02*
X15891553Y-14663208D01*
X15891553Y-14663208D02*
X15910601Y-14653684D01*
X15910601Y-14653684D02*
X15958220Y-14653684D01*
X15958220Y-14653684D02*
X15977268Y-14663208D01*
X15977268Y-14663208D02*
X15986791Y-14672731D01*
X15986791Y-14672731D02*
X15996315Y-14691779D01*
X15996315Y-14691779D02*
X15996315Y-14710827D01*
X15996315Y-14710827D02*
X15986791Y-14739398D01*
X15986791Y-14739398D02*
X15872506Y-14853684D01*
X15872506Y-14853684D02*
X15996315Y-14853684D01*
X16072506Y-14672731D02*
X16082029Y-14663208D01*
X16082029Y-14663208D02*
X16101077Y-14653684D01*
X16101077Y-14653684D02*
X16148696Y-14653684D01*
X16148696Y-14653684D02*
X16167744Y-14663208D01*
X16167744Y-14663208D02*
X16177268Y-14672731D01*
X16177268Y-14672731D02*
X16186791Y-14691779D01*
X16186791Y-14691779D02*
X16186791Y-14710827D01*
X16186791Y-14710827D02*
X16177268Y-14739398D01*
X16177268Y-14739398D02*
X16062982Y-14853684D01*
X16062982Y-14853684D02*
X16186791Y-14853684D01*
X16424887Y-14853684D02*
X16424887Y-14653684D01*
X16510601Y-14853684D02*
X16510601Y-14748922D01*
X16510601Y-14748922D02*
X16501077Y-14729874D01*
X16501077Y-14729874D02*
X16482030Y-14720350D01*
X16482030Y-14720350D02*
X16453458Y-14720350D01*
X16453458Y-14720350D02*
X16434410Y-14729874D01*
X16434410Y-14729874D02*
X16424887Y-14739398D01*
X16634410Y-14853684D02*
X16615363Y-14844160D01*
X16615363Y-14844160D02*
X16605839Y-14834636D01*
X16605839Y-14834636D02*
X16596315Y-14815588D01*
X16596315Y-14815588D02*
X16596315Y-14758446D01*
X16596315Y-14758446D02*
X16605839Y-14739398D01*
X16605839Y-14739398D02*
X16615363Y-14729874D01*
X16615363Y-14729874D02*
X16634410Y-14720350D01*
X16634410Y-14720350D02*
X16662982Y-14720350D01*
X16662982Y-14720350D02*
X16682030Y-14729874D01*
X16682030Y-14729874D02*
X16691553Y-14739398D01*
X16691553Y-14739398D02*
X16701077Y-14758446D01*
X16701077Y-14758446D02*
X16701077Y-14815588D01*
X16701077Y-14815588D02*
X16691553Y-14834636D01*
X16691553Y-14834636D02*
X16682030Y-14844160D01*
X16682030Y-14844160D02*
X16662982Y-14853684D01*
X16662982Y-14853684D02*
X16634410Y-14853684D01*
X16815363Y-14853684D02*
X16796315Y-14844160D01*
X16796315Y-14844160D02*
X16786792Y-14825112D01*
X16786792Y-14825112D02*
X16786792Y-14653684D01*
X16967744Y-14844160D02*
X16948696Y-14853684D01*
X16948696Y-14853684D02*
X16910601Y-14853684D01*
X16910601Y-14853684D02*
X16891553Y-14844160D01*
X16891553Y-14844160D02*
X16882030Y-14825112D01*
X16882030Y-14825112D02*
X16882030Y-14748922D01*
X16882030Y-14748922D02*
X16891553Y-14729874D01*
X16891553Y-14729874D02*
X16910601Y-14720350D01*
X16910601Y-14720350D02*
X16948696Y-14720350D01*
X16948696Y-14720350D02*
X16967744Y-14729874D01*
X16967744Y-14729874D02*
X16977268Y-14748922D01*
X16977268Y-14748922D02*
X16977268Y-14767969D01*
X16977268Y-14767969D02*
X16882030Y-14787017D01*
X17053458Y-14844160D02*
X17072506Y-14853684D01*
X17072506Y-14853684D02*
X17110601Y-14853684D01*
X17110601Y-14853684D02*
X17129649Y-14844160D01*
X17129649Y-14844160D02*
X17139173Y-14825112D01*
X17139173Y-14825112D02*
X17139173Y-14815588D01*
X17139173Y-14815588D02*
X17129649Y-14796541D01*
X17129649Y-14796541D02*
X17110601Y-14787017D01*
X17110601Y-14787017D02*
X17082030Y-14787017D01*
X17082030Y-14787017D02*
X17062982Y-14777493D01*
X17062982Y-14777493D02*
X17053458Y-14758446D01*
X17053458Y-14758446D02*
X17053458Y-14748922D01*
X17053458Y-14748922D02*
X17062982Y-14729874D01*
X17062982Y-14729874D02*
X17082030Y-14720350D01*
X17082030Y-14720350D02*
X17110601Y-14720350D01*
X17110601Y-14720350D02*
X17129649Y-14729874D01*
X17205839Y-14929874D02*
X17215363Y-14920350D01*
X17215363Y-14920350D02*
X17234411Y-14891779D01*
X17234411Y-14891779D02*
X17243934Y-14872731D01*
X17243934Y-14872731D02*
X17253458Y-14844160D01*
X17253458Y-14844160D02*
X17262982Y-14796541D01*
X17262982Y-14796541D02*
X17262982Y-14758446D01*
X17262982Y-14758446D02*
X17253458Y-14710827D01*
X17253458Y-14710827D02*
X17243934Y-14682255D01*
X17243934Y-14682255D02*
X17234411Y-14663208D01*
X17234411Y-14663208D02*
X17215363Y-14634636D01*
X17215363Y-14634636D02*
X17205839Y-14625112D01*
D12*
X12190300Y-14976200D02*
X12190300Y-15076200D01*
X12140300Y-15026200D02*
X12240300Y-15026200D01*
D11*
X12605839Y-15117684D02*
X12491553Y-15117684D01*
X12548696Y-15117684D02*
X12548696Y-14917684D01*
X12548696Y-14917684D02*
X12529648Y-14946255D01*
X12529648Y-14946255D02*
X12510601Y-14965303D01*
X12510601Y-14965303D02*
X12491553Y-14974827D01*
X12691553Y-15098636D02*
X12701077Y-15108160D01*
X12701077Y-15108160D02*
X12691553Y-15117684D01*
X12691553Y-15117684D02*
X12682029Y-15108160D01*
X12682029Y-15108160D02*
X12691553Y-15098636D01*
X12691553Y-15098636D02*
X12691553Y-15117684D01*
X12824886Y-14917684D02*
X12843934Y-14917684D01*
X12843934Y-14917684D02*
X12862982Y-14927208D01*
X12862982Y-14927208D02*
X12872505Y-14936731D01*
X12872505Y-14936731D02*
X12882029Y-14955779D01*
X12882029Y-14955779D02*
X12891553Y-14993874D01*
X12891553Y-14993874D02*
X12891553Y-15041493D01*
X12891553Y-15041493D02*
X12882029Y-15079588D01*
X12882029Y-15079588D02*
X12872505Y-15098636D01*
X12872505Y-15098636D02*
X12862982Y-15108160D01*
X12862982Y-15108160D02*
X12843934Y-15117684D01*
X12843934Y-15117684D02*
X12824886Y-15117684D01*
X12824886Y-15117684D02*
X12805839Y-15108160D01*
X12805839Y-15108160D02*
X12796315Y-15098636D01*
X12796315Y-15098636D02*
X12786791Y-15079588D01*
X12786791Y-15079588D02*
X12777267Y-15041493D01*
X12777267Y-15041493D02*
X12777267Y-14993874D01*
X12777267Y-14993874D02*
X12786791Y-14955779D01*
X12786791Y-14955779D02*
X12796315Y-14936731D01*
X12796315Y-14936731D02*
X12805839Y-14927208D01*
X12805839Y-14927208D02*
X12824886Y-14917684D01*
X13015362Y-14917684D02*
X13034410Y-14917684D01*
X13034410Y-14917684D02*
X13053458Y-14927208D01*
X13053458Y-14927208D02*
X13062982Y-14936731D01*
X13062982Y-14936731D02*
X13072505Y-14955779D01*
X13072505Y-14955779D02*
X13082029Y-14993874D01*
X13082029Y-14993874D02*
X13082029Y-15041493D01*
X13082029Y-15041493D02*
X13072505Y-15079588D01*
X13072505Y-15079588D02*
X13062982Y-15098636D01*
X13062982Y-15098636D02*
X13053458Y-15108160D01*
X13053458Y-15108160D02*
X13034410Y-15117684D01*
X13034410Y-15117684D02*
X13015362Y-15117684D01*
X13015362Y-15117684D02*
X12996315Y-15108160D01*
X12996315Y-15108160D02*
X12986791Y-15098636D01*
X12986791Y-15098636D02*
X12977267Y-15079588D01*
X12977267Y-15079588D02*
X12967743Y-15041493D01*
X12967743Y-15041493D02*
X12967743Y-14993874D01*
X12967743Y-14993874D02*
X12977267Y-14955779D01*
X12977267Y-14955779D02*
X12986791Y-14936731D01*
X12986791Y-14936731D02*
X12996315Y-14927208D01*
X12996315Y-14927208D02*
X13015362Y-14917684D01*
X13205839Y-14917684D02*
X13224886Y-14917684D01*
X13224886Y-14917684D02*
X13243934Y-14927208D01*
X13243934Y-14927208D02*
X13253458Y-14936731D01*
X13253458Y-14936731D02*
X13262982Y-14955779D01*
X13262982Y-14955779D02*
X13272505Y-14993874D01*
X13272505Y-14993874D02*
X13272505Y-15041493D01*
X13272505Y-15041493D02*
X13262982Y-15079588D01*
X13262982Y-15079588D02*
X13253458Y-15098636D01*
X13253458Y-15098636D02*
X13243934Y-15108160D01*
X13243934Y-15108160D02*
X13224886Y-15117684D01*
X13224886Y-15117684D02*
X13205839Y-15117684D01*
X13205839Y-15117684D02*
X13186791Y-15108160D01*
X13186791Y-15108160D02*
X13177267Y-15098636D01*
X13177267Y-15098636D02*
X13167743Y-15079588D01*
X13167743Y-15079588D02*
X13158220Y-15041493D01*
X13158220Y-15041493D02*
X13158220Y-14993874D01*
X13158220Y-14993874D02*
X13167743Y-14955779D01*
X13167743Y-14955779D02*
X13177267Y-14936731D01*
X13177267Y-14936731D02*
X13186791Y-14927208D01*
X13186791Y-14927208D02*
X13205839Y-14917684D01*
X13358220Y-15117684D02*
X13358220Y-14984350D01*
X13358220Y-15003398D02*
X13367743Y-14993874D01*
X13367743Y-14993874D02*
X13386791Y-14984350D01*
X13386791Y-14984350D02*
X13415363Y-14984350D01*
X13415363Y-14984350D02*
X13434410Y-14993874D01*
X13434410Y-14993874D02*
X13443934Y-15012922D01*
X13443934Y-15012922D02*
X13443934Y-15117684D01*
X13443934Y-15012922D02*
X13453458Y-14993874D01*
X13453458Y-14993874D02*
X13472505Y-14984350D01*
X13472505Y-14984350D02*
X13501077Y-14984350D01*
X13501077Y-14984350D02*
X13520124Y-14993874D01*
X13520124Y-14993874D02*
X13529648Y-15012922D01*
X13529648Y-15012922D02*
X13529648Y-15117684D01*
X13624886Y-15117684D02*
X13624886Y-14984350D01*
X13624886Y-15003398D02*
X13634410Y-14993874D01*
X13634410Y-14993874D02*
X13653458Y-14984350D01*
X13653458Y-14984350D02*
X13682029Y-14984350D01*
X13682029Y-14984350D02*
X13701077Y-14993874D01*
X13701077Y-14993874D02*
X13710601Y-15012922D01*
X13710601Y-15012922D02*
X13710601Y-15117684D01*
X13710601Y-15012922D02*
X13720124Y-14993874D01*
X13720124Y-14993874D02*
X13739172Y-14984350D01*
X13739172Y-14984350D02*
X13767743Y-14984350D01*
X13767743Y-14984350D02*
X13786791Y-14993874D01*
X13786791Y-14993874D02*
X13796315Y-15012922D01*
X13796315Y-15012922D02*
X13796315Y-15117684D01*
X14186791Y-14908160D02*
X14015363Y-15165303D01*
X14443934Y-14917684D02*
X14462982Y-14917684D01*
X14462982Y-14917684D02*
X14482029Y-14927208D01*
X14482029Y-14927208D02*
X14491553Y-14936731D01*
X14491553Y-14936731D02*
X14501077Y-14955779D01*
X14501077Y-14955779D02*
X14510601Y-14993874D01*
X14510601Y-14993874D02*
X14510601Y-15041493D01*
X14510601Y-15041493D02*
X14501077Y-15079588D01*
X14501077Y-15079588D02*
X14491553Y-15098636D01*
X14491553Y-15098636D02*
X14482029Y-15108160D01*
X14482029Y-15108160D02*
X14462982Y-15117684D01*
X14462982Y-15117684D02*
X14443934Y-15117684D01*
X14443934Y-15117684D02*
X14424886Y-15108160D01*
X14424886Y-15108160D02*
X14415363Y-15098636D01*
X14415363Y-15098636D02*
X14405839Y-15079588D01*
X14405839Y-15079588D02*
X14396315Y-15041493D01*
X14396315Y-15041493D02*
X14396315Y-14993874D01*
X14396315Y-14993874D02*
X14405839Y-14955779D01*
X14405839Y-14955779D02*
X14415363Y-14936731D01*
X14415363Y-14936731D02*
X14424886Y-14927208D01*
X14424886Y-14927208D02*
X14443934Y-14917684D01*
X14596315Y-15098636D02*
X14605839Y-15108160D01*
X14605839Y-15108160D02*
X14596315Y-15117684D01*
X14596315Y-15117684D02*
X14586791Y-15108160D01*
X14586791Y-15108160D02*
X14596315Y-15098636D01*
X14596315Y-15098636D02*
X14596315Y-15117684D01*
X14729648Y-14917684D02*
X14748696Y-14917684D01*
X14748696Y-14917684D02*
X14767744Y-14927208D01*
X14767744Y-14927208D02*
X14777267Y-14936731D01*
X14777267Y-14936731D02*
X14786791Y-14955779D01*
X14786791Y-14955779D02*
X14796315Y-14993874D01*
X14796315Y-14993874D02*
X14796315Y-15041493D01*
X14796315Y-15041493D02*
X14786791Y-15079588D01*
X14786791Y-15079588D02*
X14777267Y-15098636D01*
X14777267Y-15098636D02*
X14767744Y-15108160D01*
X14767744Y-15108160D02*
X14748696Y-15117684D01*
X14748696Y-15117684D02*
X14729648Y-15117684D01*
X14729648Y-15117684D02*
X14710601Y-15108160D01*
X14710601Y-15108160D02*
X14701077Y-15098636D01*
X14701077Y-15098636D02*
X14691553Y-15079588D01*
X14691553Y-15079588D02*
X14682029Y-15041493D01*
X14682029Y-15041493D02*
X14682029Y-14993874D01*
X14682029Y-14993874D02*
X14691553Y-14955779D01*
X14691553Y-14955779D02*
X14701077Y-14936731D01*
X14701077Y-14936731D02*
X14710601Y-14927208D01*
X14710601Y-14927208D02*
X14729648Y-14917684D01*
X14862982Y-14917684D02*
X14986791Y-14917684D01*
X14986791Y-14917684D02*
X14920125Y-14993874D01*
X14920125Y-14993874D02*
X14948696Y-14993874D01*
X14948696Y-14993874D02*
X14967744Y-15003398D01*
X14967744Y-15003398D02*
X14977267Y-15012922D01*
X14977267Y-15012922D02*
X14986791Y-15031969D01*
X14986791Y-15031969D02*
X14986791Y-15079588D01*
X14986791Y-15079588D02*
X14977267Y-15098636D01*
X14977267Y-15098636D02*
X14967744Y-15108160D01*
X14967744Y-15108160D02*
X14948696Y-15117684D01*
X14948696Y-15117684D02*
X14891553Y-15117684D01*
X14891553Y-15117684D02*
X14872506Y-15108160D01*
X14872506Y-15108160D02*
X14862982Y-15098636D01*
X15082029Y-15117684D02*
X15120125Y-15117684D01*
X15120125Y-15117684D02*
X15139172Y-15108160D01*
X15139172Y-15108160D02*
X15148696Y-15098636D01*
X15148696Y-15098636D02*
X15167744Y-15070065D01*
X15167744Y-15070065D02*
X15177267Y-15031969D01*
X15177267Y-15031969D02*
X15177267Y-14955779D01*
X15177267Y-14955779D02*
X15167744Y-14936731D01*
X15167744Y-14936731D02*
X15158220Y-14927208D01*
X15158220Y-14927208D02*
X15139172Y-14917684D01*
X15139172Y-14917684D02*
X15101077Y-14917684D01*
X15101077Y-14917684D02*
X15082029Y-14927208D01*
X15082029Y-14927208D02*
X15072506Y-14936731D01*
X15072506Y-14936731D02*
X15062982Y-14955779D01*
X15062982Y-14955779D02*
X15062982Y-15003398D01*
X15062982Y-15003398D02*
X15072506Y-15022446D01*
X15072506Y-15022446D02*
X15082029Y-15031969D01*
X15082029Y-15031969D02*
X15101077Y-15041493D01*
X15101077Y-15041493D02*
X15139172Y-15041493D01*
X15139172Y-15041493D02*
X15158220Y-15031969D01*
X15158220Y-15031969D02*
X15167744Y-15022446D01*
X15167744Y-15022446D02*
X15177267Y-15003398D01*
X15348696Y-14984350D02*
X15348696Y-15117684D01*
X15301077Y-14908160D02*
X15253458Y-15051017D01*
X15253458Y-15051017D02*
X15377267Y-15051017D01*
X15443934Y-14917684D02*
X15443934Y-14955779D01*
X15520125Y-14917684D02*
X15520125Y-14955779D01*
X15815363Y-15193874D02*
X15805839Y-15184350D01*
X15805839Y-15184350D02*
X15786791Y-15155779D01*
X15786791Y-15155779D02*
X15777268Y-15136731D01*
X15777268Y-15136731D02*
X15767744Y-15108160D01*
X15767744Y-15108160D02*
X15758220Y-15060541D01*
X15758220Y-15060541D02*
X15758220Y-15022446D01*
X15758220Y-15022446D02*
X15767744Y-14974827D01*
X15767744Y-14974827D02*
X15777268Y-14946255D01*
X15777268Y-14946255D02*
X15786791Y-14927208D01*
X15786791Y-14927208D02*
X15805839Y-14898636D01*
X15805839Y-14898636D02*
X15815363Y-14889112D01*
X15986791Y-14917684D02*
X15891553Y-14917684D01*
X15891553Y-14917684D02*
X15882029Y-15012922D01*
X15882029Y-15012922D02*
X15891553Y-15003398D01*
X15891553Y-15003398D02*
X15910601Y-14993874D01*
X15910601Y-14993874D02*
X15958220Y-14993874D01*
X15958220Y-14993874D02*
X15977268Y-15003398D01*
X15977268Y-15003398D02*
X15986791Y-15012922D01*
X15986791Y-15012922D02*
X15996315Y-15031969D01*
X15996315Y-15031969D02*
X15996315Y-15079588D01*
X15996315Y-15079588D02*
X15986791Y-15098636D01*
X15986791Y-15098636D02*
X15977268Y-15108160D01*
X15977268Y-15108160D02*
X15958220Y-15117684D01*
X15958220Y-15117684D02*
X15910601Y-15117684D01*
X15910601Y-15117684D02*
X15891553Y-15108160D01*
X15891553Y-15108160D02*
X15882029Y-15098636D01*
X16062982Y-14917684D02*
X16186791Y-14917684D01*
X16186791Y-14917684D02*
X16120125Y-14993874D01*
X16120125Y-14993874D02*
X16148696Y-14993874D01*
X16148696Y-14993874D02*
X16167744Y-15003398D01*
X16167744Y-15003398D02*
X16177268Y-15012922D01*
X16177268Y-15012922D02*
X16186791Y-15031969D01*
X16186791Y-15031969D02*
X16186791Y-15079588D01*
X16186791Y-15079588D02*
X16177268Y-15098636D01*
X16177268Y-15098636D02*
X16167744Y-15108160D01*
X16167744Y-15108160D02*
X16148696Y-15117684D01*
X16148696Y-15117684D02*
X16091553Y-15117684D01*
X16091553Y-15117684D02*
X16072506Y-15108160D01*
X16072506Y-15108160D02*
X16062982Y-15098636D01*
X16424887Y-15117684D02*
X16424887Y-14917684D01*
X16510601Y-15117684D02*
X16510601Y-15012922D01*
X16510601Y-15012922D02*
X16501077Y-14993874D01*
X16501077Y-14993874D02*
X16482030Y-14984350D01*
X16482030Y-14984350D02*
X16453458Y-14984350D01*
X16453458Y-14984350D02*
X16434410Y-14993874D01*
X16434410Y-14993874D02*
X16424887Y-15003398D01*
X16634410Y-15117684D02*
X16615363Y-15108160D01*
X16615363Y-15108160D02*
X16605839Y-15098636D01*
X16605839Y-15098636D02*
X16596315Y-15079588D01*
X16596315Y-15079588D02*
X16596315Y-15022446D01*
X16596315Y-15022446D02*
X16605839Y-15003398D01*
X16605839Y-15003398D02*
X16615363Y-14993874D01*
X16615363Y-14993874D02*
X16634410Y-14984350D01*
X16634410Y-14984350D02*
X16662982Y-14984350D01*
X16662982Y-14984350D02*
X16682030Y-14993874D01*
X16682030Y-14993874D02*
X16691553Y-15003398D01*
X16691553Y-15003398D02*
X16701077Y-15022446D01*
X16701077Y-15022446D02*
X16701077Y-15079588D01*
X16701077Y-15079588D02*
X16691553Y-15098636D01*
X16691553Y-15098636D02*
X16682030Y-15108160D01*
X16682030Y-15108160D02*
X16662982Y-15117684D01*
X16662982Y-15117684D02*
X16634410Y-15117684D01*
X16815363Y-15117684D02*
X16796315Y-15108160D01*
X16796315Y-15108160D02*
X16786792Y-15089112D01*
X16786792Y-15089112D02*
X16786792Y-14917684D01*
X16967744Y-15108160D02*
X16948696Y-15117684D01*
X16948696Y-15117684D02*
X16910601Y-15117684D01*
X16910601Y-15117684D02*
X16891553Y-15108160D01*
X16891553Y-15108160D02*
X16882030Y-15089112D01*
X16882030Y-15089112D02*
X16882030Y-15012922D01*
X16882030Y-15012922D02*
X16891553Y-14993874D01*
X16891553Y-14993874D02*
X16910601Y-14984350D01*
X16910601Y-14984350D02*
X16948696Y-14984350D01*
X16948696Y-14984350D02*
X16967744Y-14993874D01*
X16967744Y-14993874D02*
X16977268Y-15012922D01*
X16977268Y-15012922D02*
X16977268Y-15031969D01*
X16977268Y-15031969D02*
X16882030Y-15051017D01*
X17053458Y-15108160D02*
X17072506Y-15117684D01*
X17072506Y-15117684D02*
X17110601Y-15117684D01*
X17110601Y-15117684D02*
X17129649Y-15108160D01*
X17129649Y-15108160D02*
X17139173Y-15089112D01*
X17139173Y-15089112D02*
X17139173Y-15079588D01*
X17139173Y-15079588D02*
X17129649Y-15060541D01*
X17129649Y-15060541D02*
X17110601Y-15051017D01*
X17110601Y-15051017D02*
X17082030Y-15051017D01*
X17082030Y-15051017D02*
X17062982Y-15041493D01*
X17062982Y-15041493D02*
X17053458Y-15022446D01*
X17053458Y-15022446D02*
X17053458Y-15012922D01*
X17053458Y-15012922D02*
X17062982Y-14993874D01*
X17062982Y-14993874D02*
X17082030Y-14984350D01*
X17082030Y-14984350D02*
X17110601Y-14984350D01*
X17110601Y-14984350D02*
X17129649Y-14993874D01*
X17205839Y-15193874D02*
X17215363Y-15184350D01*
X17215363Y-15184350D02*
X17234411Y-15155779D01*
X17234411Y-15155779D02*
X17243934Y-15136731D01*
X17243934Y-15136731D02*
X17253458Y-15108160D01*
X17253458Y-15108160D02*
X17262982Y-15060541D01*
X17262982Y-15060541D02*
X17262982Y-15022446D01*
X17262982Y-15022446D02*
X17253458Y-14974827D01*
X17253458Y-14974827D02*
X17243934Y-14946255D01*
X17243934Y-14946255D02*
X17234411Y-14927208D01*
X17234411Y-14927208D02*
X17215363Y-14898636D01*
X17215363Y-14898636D02*
X17205839Y-14889112D01*
M02*
