%TF.GenerationSoftware,KiCad,Pcbnew,9.0.2*%
%TF.CreationDate,2025-09-21T22:05:46-04:00*%
%TF.ProjectId,vWAN-macropad,7657414e-2d6d-4616-9372-6f7061642e6b,v1*%
%TF.SameCoordinates,Original*%
%TF.FileFunction,Drillmap*%
%TF.FilePolarity,Positive*%
%FSLAX45Y45*%
G04 Gerber Fmt 4.5, Leading zero omitted, Abs format (unit mm)*
G04 Created by KiCad (PCBNEW 9.0.2) date 2025-09-21 22:05:46*
%MOMM*%
%LPD*%
G01*
G04 APERTURE LIST*
%ADD10C,0.050000*%
%ADD11C,0.200000*%
%ADD12C,0.150000*%
%ADD13C,0.100000*%
%ADD14C,0.170180*%
%ADD15C,0.220000*%
%ADD16C,0.300000*%
%ADD17C,0.398780*%
G04 APERTURE END LIST*
D10*
X22326600Y-13555700D02*
G75*
G02*
X22026600Y-13855700I-300000J0D01*
G01*
X12542800Y-13855700D02*
G75*
G02*
X12242800Y-13555700I0J300000D01*
G01*
X12242800Y-7843800D02*
G75*
G02*
X12542800Y-7543800I300000J0D01*
G01*
X12242800Y-13555700D02*
X12242800Y-7843800D01*
X22026600Y-7543800D02*
G75*
G02*
X22326600Y-7843800I0J-300000D01*
G01*
X12542800Y-7543800D02*
X22026600Y-7543800D01*
X22326600Y-7843800D02*
X22326600Y-13555700D01*
X22026600Y-13855700D02*
X12542800Y-13855700D01*
D11*
D12*
X17590700Y-8128000D02*
X17740700Y-8278000D01*
X17740700Y-8128000D02*
X17590700Y-8278000D01*
D13*
X17600700Y-8278000D02*
X17730700Y-8278000D01*
X17730700Y-8128000D02*
G75*
G02*
X17730700Y-8278000I0J-75000D01*
G01*
X17730700Y-8128000D02*
X17600700Y-8128000D01*
X17600700Y-8128000D02*
G75*
G03*
X17600700Y-8278000I0J-75000D01*
G01*
D12*
X17590700Y-9248000D02*
X17740700Y-9398000D01*
X17740700Y-9248000D02*
X17590700Y-9398000D01*
D13*
X17600700Y-9398000D02*
X17730700Y-9398000D01*
X17730700Y-9248000D02*
G75*
G02*
X17730700Y-9398000I0J-75000D01*
G01*
X17730700Y-9248000D02*
X17600700Y-9248000D01*
X17600700Y-9248000D02*
G75*
G03*
X17600700Y-9398000I0J-75000D01*
G01*
D14*
X13432790Y-10439400D02*
G75*
G02*
X13262610Y-10439400I-85090J0D01*
G01*
X13262610Y-10439400D02*
G75*
G02*
X13432790Y-10439400I85090J0D01*
G01*
X13432790Y-12344400D02*
G75*
G02*
X13262610Y-12344400I-85090J0D01*
G01*
X13262610Y-12344400D02*
G75*
G02*
X13432790Y-12344400I85090J0D01*
G01*
X14448790Y-10439400D02*
G75*
G02*
X14278610Y-10439400I-85090J0D01*
G01*
X14278610Y-10439400D02*
G75*
G02*
X14448790Y-10439400I85090J0D01*
G01*
X14448790Y-12344400D02*
G75*
G02*
X14278610Y-12344400I-85090J0D01*
G01*
X14278610Y-12344400D02*
G75*
G02*
X14448790Y-12344400I85090J0D01*
G01*
X15337790Y-10439400D02*
G75*
G02*
X15167610Y-10439400I-85090J0D01*
G01*
X15167610Y-10439400D02*
G75*
G02*
X15337790Y-10439400I85090J0D01*
G01*
X15337790Y-12344400D02*
G75*
G02*
X15167610Y-12344400I-85090J0D01*
G01*
X15167610Y-12344400D02*
G75*
G02*
X15337790Y-12344400I85090J0D01*
G01*
X16353790Y-10439400D02*
G75*
G02*
X16183610Y-10439400I-85090J0D01*
G01*
X16183610Y-10439400D02*
G75*
G02*
X16353790Y-10439400I85090J0D01*
G01*
X16353790Y-12344400D02*
G75*
G02*
X16183610Y-12344400I-85090J0D01*
G01*
X16183610Y-12344400D02*
G75*
G02*
X16353790Y-12344400I85090J0D01*
G01*
X17242790Y-10439400D02*
G75*
G02*
X17072610Y-10439400I-85090J0D01*
G01*
X17072610Y-10439400D02*
G75*
G02*
X17242790Y-10439400I85090J0D01*
G01*
X17242790Y-12344400D02*
G75*
G02*
X17072610Y-12344400I-85090J0D01*
G01*
X17072610Y-12344400D02*
G75*
G02*
X17242790Y-12344400I85090J0D01*
G01*
X18258790Y-10439400D02*
G75*
G02*
X18088610Y-10439400I-85090J0D01*
G01*
X18088610Y-10439400D02*
G75*
G02*
X18258790Y-10439400I85090J0D01*
G01*
X18258790Y-12344400D02*
G75*
G02*
X18088610Y-12344400I-85090J0D01*
G01*
X18088610Y-12344400D02*
G75*
G02*
X18258790Y-12344400I85090J0D01*
G01*
D15*
X12542800Y-7733800D02*
X12542800Y-7953800D01*
X12432800Y-7843800D02*
X12652800Y-7843800D01*
X12542800Y-13445700D02*
X12542800Y-13665700D01*
X12432800Y-13555700D02*
X12652800Y-13555700D01*
X22026600Y-7733800D02*
X22026600Y-7953800D01*
X21916600Y-7843800D02*
X22136600Y-7843800D01*
X22026600Y-13445700D02*
X22026600Y-13665700D01*
X21916600Y-13555700D02*
X22136600Y-13555700D01*
D16*
X13580767Y-10291467D02*
X13580767Y-10079333D01*
X13368633Y-10079333D01*
X13368633Y-10291467D01*
X13580767Y-10291467D01*
X13580767Y-12196467D02*
X13580767Y-11984333D01*
X13368633Y-11984333D01*
X13368633Y-12196467D01*
X13580767Y-12196467D01*
X14215767Y-10037467D02*
X14215767Y-9825333D01*
X14003633Y-9825333D01*
X14003633Y-10037467D01*
X14215767Y-10037467D01*
X14215767Y-11942467D02*
X14215767Y-11730333D01*
X14003633Y-11730333D01*
X14003633Y-11942467D01*
X14215767Y-11942467D01*
X15485767Y-10291467D02*
X15485767Y-10079333D01*
X15273633Y-10079333D01*
X15273633Y-10291467D01*
X15485767Y-10291467D01*
X15485767Y-12196467D02*
X15485767Y-11984333D01*
X15273633Y-11984333D01*
X15273633Y-12196467D01*
X15485767Y-12196467D01*
X16120767Y-10037467D02*
X16120767Y-9825333D01*
X15908633Y-9825333D01*
X15908633Y-10037467D01*
X16120767Y-10037467D01*
X16120767Y-11942467D02*
X16120767Y-11730333D01*
X15908633Y-11730333D01*
X15908633Y-11942467D01*
X16120767Y-11942467D01*
X17390767Y-10291467D02*
X17390767Y-10079333D01*
X17178633Y-10079333D01*
X17178633Y-10291467D01*
X17390767Y-10291467D01*
X17390767Y-12196467D02*
X17390767Y-11984333D01*
X17178633Y-11984333D01*
X17178633Y-12196467D01*
X17390767Y-12196467D01*
X18025767Y-10037467D02*
X18025767Y-9825333D01*
X17813633Y-9825333D01*
X17813633Y-10037467D01*
X18025767Y-10037467D01*
X18025767Y-11942467D02*
X18025767Y-11730333D01*
X17813633Y-11730333D01*
X17813633Y-11942467D01*
X18025767Y-11942467D01*
D17*
X13855700Y-10638790D02*
X14055090Y-10439400D01*
X13855700Y-10240010D01*
X13656310Y-10439400D01*
X13855700Y-10638790D01*
X13855700Y-12543790D02*
X14055090Y-12344400D01*
X13855700Y-12145010D01*
X13656310Y-12344400D01*
X13855700Y-12543790D01*
X15760700Y-10638790D02*
X15960090Y-10439400D01*
X15760700Y-10240010D01*
X15561310Y-10439400D01*
X15760700Y-10638790D01*
X15760700Y-12543790D02*
X15960090Y-12344400D01*
X15760700Y-12145010D01*
X15561310Y-12344400D01*
X15760700Y-12543790D01*
X17665700Y-10638790D02*
X17865090Y-10439400D01*
X17665700Y-10240010D01*
X17466310Y-10439400D01*
X17665700Y-10638790D01*
X17665700Y-12543790D02*
X17865090Y-12344400D01*
X17665700Y-12145010D01*
X17466310Y-12344400D01*
X17665700Y-12543790D01*
D11*
X12501077Y-14169684D02*
X12501077Y-13969684D01*
X12501077Y-13969684D02*
X12548696Y-13969684D01*
X12548696Y-13969684D02*
X12577267Y-13979208D01*
X12577267Y-13979208D02*
X12596315Y-13998255D01*
X12596315Y-13998255D02*
X12605839Y-14017303D01*
X12605839Y-14017303D02*
X12615362Y-14055398D01*
X12615362Y-14055398D02*
X12615362Y-14083969D01*
X12615362Y-14083969D02*
X12605839Y-14122065D01*
X12605839Y-14122065D02*
X12596315Y-14141112D01*
X12596315Y-14141112D02*
X12577267Y-14160160D01*
X12577267Y-14160160D02*
X12548696Y-14169684D01*
X12548696Y-14169684D02*
X12501077Y-14169684D01*
X12701077Y-14169684D02*
X12701077Y-14036350D01*
X12701077Y-14074446D02*
X12710601Y-14055398D01*
X12710601Y-14055398D02*
X12720124Y-14045874D01*
X12720124Y-14045874D02*
X12739172Y-14036350D01*
X12739172Y-14036350D02*
X12758220Y-14036350D01*
X12824886Y-14169684D02*
X12824886Y-14036350D01*
X12824886Y-13969684D02*
X12815362Y-13979208D01*
X12815362Y-13979208D02*
X12824886Y-13988731D01*
X12824886Y-13988731D02*
X12834410Y-13979208D01*
X12834410Y-13979208D02*
X12824886Y-13969684D01*
X12824886Y-13969684D02*
X12824886Y-13988731D01*
X12948696Y-14169684D02*
X12929648Y-14160160D01*
X12929648Y-14160160D02*
X12920124Y-14141112D01*
X12920124Y-14141112D02*
X12920124Y-13969684D01*
X13053458Y-14169684D02*
X13034410Y-14160160D01*
X13034410Y-14160160D02*
X13024886Y-14141112D01*
X13024886Y-14141112D02*
X13024886Y-13969684D01*
X13282029Y-14169684D02*
X13282029Y-13969684D01*
X13282029Y-13969684D02*
X13348696Y-14112541D01*
X13348696Y-14112541D02*
X13415362Y-13969684D01*
X13415362Y-13969684D02*
X13415362Y-14169684D01*
X13596315Y-14169684D02*
X13596315Y-14064922D01*
X13596315Y-14064922D02*
X13586791Y-14045874D01*
X13586791Y-14045874D02*
X13567743Y-14036350D01*
X13567743Y-14036350D02*
X13529648Y-14036350D01*
X13529648Y-14036350D02*
X13510601Y-14045874D01*
X13596315Y-14160160D02*
X13577267Y-14169684D01*
X13577267Y-14169684D02*
X13529648Y-14169684D01*
X13529648Y-14169684D02*
X13510601Y-14160160D01*
X13510601Y-14160160D02*
X13501077Y-14141112D01*
X13501077Y-14141112D02*
X13501077Y-14122065D01*
X13501077Y-14122065D02*
X13510601Y-14103017D01*
X13510601Y-14103017D02*
X13529648Y-14093493D01*
X13529648Y-14093493D02*
X13577267Y-14093493D01*
X13577267Y-14093493D02*
X13596315Y-14083969D01*
X13691553Y-14036350D02*
X13691553Y-14236350D01*
X13691553Y-14045874D02*
X13710601Y-14036350D01*
X13710601Y-14036350D02*
X13748696Y-14036350D01*
X13748696Y-14036350D02*
X13767743Y-14045874D01*
X13767743Y-14045874D02*
X13777267Y-14055398D01*
X13777267Y-14055398D02*
X13786791Y-14074446D01*
X13786791Y-14074446D02*
X13786791Y-14131588D01*
X13786791Y-14131588D02*
X13777267Y-14150636D01*
X13777267Y-14150636D02*
X13767743Y-14160160D01*
X13767743Y-14160160D02*
X13748696Y-14169684D01*
X13748696Y-14169684D02*
X13710601Y-14169684D01*
X13710601Y-14169684D02*
X13691553Y-14160160D01*
X13872505Y-14150636D02*
X13882029Y-14160160D01*
X13882029Y-14160160D02*
X13872505Y-14169684D01*
X13872505Y-14169684D02*
X13862982Y-14160160D01*
X13862982Y-14160160D02*
X13872505Y-14150636D01*
X13872505Y-14150636D02*
X13872505Y-14169684D01*
X13872505Y-14045874D02*
X13882029Y-14055398D01*
X13882029Y-14055398D02*
X13872505Y-14064922D01*
X13872505Y-14064922D02*
X13862982Y-14055398D01*
X13862982Y-14055398D02*
X13872505Y-14045874D01*
X13872505Y-14045874D02*
X13872505Y-14064922D01*
D12*
X12090300Y-14423200D02*
X12240300Y-14573200D01*
X12240300Y-14423200D02*
X12090300Y-14573200D01*
D11*
X12605839Y-14589684D02*
X12491553Y-14589684D01*
X12548696Y-14589684D02*
X12548696Y-14389684D01*
X12548696Y-14389684D02*
X12529648Y-14418255D01*
X12529648Y-14418255D02*
X12510601Y-14437303D01*
X12510601Y-14437303D02*
X12491553Y-14446827D01*
X12691553Y-14570636D02*
X12701077Y-14580160D01*
X12701077Y-14580160D02*
X12691553Y-14589684D01*
X12691553Y-14589684D02*
X12682029Y-14580160D01*
X12682029Y-14580160D02*
X12691553Y-14570636D01*
X12691553Y-14570636D02*
X12691553Y-14589684D01*
X12882029Y-14389684D02*
X12786791Y-14389684D01*
X12786791Y-14389684D02*
X12777267Y-14484922D01*
X12777267Y-14484922D02*
X12786791Y-14475398D01*
X12786791Y-14475398D02*
X12805839Y-14465874D01*
X12805839Y-14465874D02*
X12853458Y-14465874D01*
X12853458Y-14465874D02*
X12872505Y-14475398D01*
X12872505Y-14475398D02*
X12882029Y-14484922D01*
X12882029Y-14484922D02*
X12891553Y-14503969D01*
X12891553Y-14503969D02*
X12891553Y-14551588D01*
X12891553Y-14551588D02*
X12882029Y-14570636D01*
X12882029Y-14570636D02*
X12872505Y-14580160D01*
X12872505Y-14580160D02*
X12853458Y-14589684D01*
X12853458Y-14589684D02*
X12805839Y-14589684D01*
X12805839Y-14589684D02*
X12786791Y-14580160D01*
X12786791Y-14580160D02*
X12777267Y-14570636D01*
X13015362Y-14389684D02*
X13034410Y-14389684D01*
X13034410Y-14389684D02*
X13053458Y-14399208D01*
X13053458Y-14399208D02*
X13062982Y-14408731D01*
X13062982Y-14408731D02*
X13072505Y-14427779D01*
X13072505Y-14427779D02*
X13082029Y-14465874D01*
X13082029Y-14465874D02*
X13082029Y-14513493D01*
X13082029Y-14513493D02*
X13072505Y-14551588D01*
X13072505Y-14551588D02*
X13062982Y-14570636D01*
X13062982Y-14570636D02*
X13053458Y-14580160D01*
X13053458Y-14580160D02*
X13034410Y-14589684D01*
X13034410Y-14589684D02*
X13015362Y-14589684D01*
X13015362Y-14589684D02*
X12996315Y-14580160D01*
X12996315Y-14580160D02*
X12986791Y-14570636D01*
X12986791Y-14570636D02*
X12977267Y-14551588D01*
X12977267Y-14551588D02*
X12967743Y-14513493D01*
X12967743Y-14513493D02*
X12967743Y-14465874D01*
X12967743Y-14465874D02*
X12977267Y-14427779D01*
X12977267Y-14427779D02*
X12986791Y-14408731D01*
X12986791Y-14408731D02*
X12996315Y-14399208D01*
X12996315Y-14399208D02*
X13015362Y-14389684D01*
X13205839Y-14389684D02*
X13224886Y-14389684D01*
X13224886Y-14389684D02*
X13243934Y-14399208D01*
X13243934Y-14399208D02*
X13253458Y-14408731D01*
X13253458Y-14408731D02*
X13262982Y-14427779D01*
X13262982Y-14427779D02*
X13272505Y-14465874D01*
X13272505Y-14465874D02*
X13272505Y-14513493D01*
X13272505Y-14513493D02*
X13262982Y-14551588D01*
X13262982Y-14551588D02*
X13253458Y-14570636D01*
X13253458Y-14570636D02*
X13243934Y-14580160D01*
X13243934Y-14580160D02*
X13224886Y-14589684D01*
X13224886Y-14589684D02*
X13205839Y-14589684D01*
X13205839Y-14589684D02*
X13186791Y-14580160D01*
X13186791Y-14580160D02*
X13177267Y-14570636D01*
X13177267Y-14570636D02*
X13167743Y-14551588D01*
X13167743Y-14551588D02*
X13158220Y-14513493D01*
X13158220Y-14513493D02*
X13158220Y-14465874D01*
X13158220Y-14465874D02*
X13167743Y-14427779D01*
X13167743Y-14427779D02*
X13177267Y-14408731D01*
X13177267Y-14408731D02*
X13186791Y-14399208D01*
X13186791Y-14399208D02*
X13205839Y-14389684D01*
X13358220Y-14589684D02*
X13358220Y-14456350D01*
X13358220Y-14475398D02*
X13367743Y-14465874D01*
X13367743Y-14465874D02*
X13386791Y-14456350D01*
X13386791Y-14456350D02*
X13415363Y-14456350D01*
X13415363Y-14456350D02*
X13434410Y-14465874D01*
X13434410Y-14465874D02*
X13443934Y-14484922D01*
X13443934Y-14484922D02*
X13443934Y-14589684D01*
X13443934Y-14484922D02*
X13453458Y-14465874D01*
X13453458Y-14465874D02*
X13472505Y-14456350D01*
X13472505Y-14456350D02*
X13501077Y-14456350D01*
X13501077Y-14456350D02*
X13520124Y-14465874D01*
X13520124Y-14465874D02*
X13529648Y-14484922D01*
X13529648Y-14484922D02*
X13529648Y-14589684D01*
X13624886Y-14589684D02*
X13624886Y-14456350D01*
X13624886Y-14475398D02*
X13634410Y-14465874D01*
X13634410Y-14465874D02*
X13653458Y-14456350D01*
X13653458Y-14456350D02*
X13682029Y-14456350D01*
X13682029Y-14456350D02*
X13701077Y-14465874D01*
X13701077Y-14465874D02*
X13710601Y-14484922D01*
X13710601Y-14484922D02*
X13710601Y-14589684D01*
X13710601Y-14484922D02*
X13720124Y-14465874D01*
X13720124Y-14465874D02*
X13739172Y-14456350D01*
X13739172Y-14456350D02*
X13767743Y-14456350D01*
X13767743Y-14456350D02*
X13786791Y-14465874D01*
X13786791Y-14465874D02*
X13796315Y-14484922D01*
X13796315Y-14484922D02*
X13796315Y-14589684D01*
X14186791Y-14380160D02*
X14015363Y-14637303D01*
X14443934Y-14389684D02*
X14462982Y-14389684D01*
X14462982Y-14389684D02*
X14482029Y-14399208D01*
X14482029Y-14399208D02*
X14491553Y-14408731D01*
X14491553Y-14408731D02*
X14501077Y-14427779D01*
X14501077Y-14427779D02*
X14510601Y-14465874D01*
X14510601Y-14465874D02*
X14510601Y-14513493D01*
X14510601Y-14513493D02*
X14501077Y-14551588D01*
X14501077Y-14551588D02*
X14491553Y-14570636D01*
X14491553Y-14570636D02*
X14482029Y-14580160D01*
X14482029Y-14580160D02*
X14462982Y-14589684D01*
X14462982Y-14589684D02*
X14443934Y-14589684D01*
X14443934Y-14589684D02*
X14424886Y-14580160D01*
X14424886Y-14580160D02*
X14415363Y-14570636D01*
X14415363Y-14570636D02*
X14405839Y-14551588D01*
X14405839Y-14551588D02*
X14396315Y-14513493D01*
X14396315Y-14513493D02*
X14396315Y-14465874D01*
X14396315Y-14465874D02*
X14405839Y-14427779D01*
X14405839Y-14427779D02*
X14415363Y-14408731D01*
X14415363Y-14408731D02*
X14424886Y-14399208D01*
X14424886Y-14399208D02*
X14443934Y-14389684D01*
X14596315Y-14570636D02*
X14605839Y-14580160D01*
X14605839Y-14580160D02*
X14596315Y-14589684D01*
X14596315Y-14589684D02*
X14586791Y-14580160D01*
X14586791Y-14580160D02*
X14596315Y-14570636D01*
X14596315Y-14570636D02*
X14596315Y-14589684D01*
X14729648Y-14389684D02*
X14748696Y-14389684D01*
X14748696Y-14389684D02*
X14767744Y-14399208D01*
X14767744Y-14399208D02*
X14777267Y-14408731D01*
X14777267Y-14408731D02*
X14786791Y-14427779D01*
X14786791Y-14427779D02*
X14796315Y-14465874D01*
X14796315Y-14465874D02*
X14796315Y-14513493D01*
X14796315Y-14513493D02*
X14786791Y-14551588D01*
X14786791Y-14551588D02*
X14777267Y-14570636D01*
X14777267Y-14570636D02*
X14767744Y-14580160D01*
X14767744Y-14580160D02*
X14748696Y-14589684D01*
X14748696Y-14589684D02*
X14729648Y-14589684D01*
X14729648Y-14589684D02*
X14710601Y-14580160D01*
X14710601Y-14580160D02*
X14701077Y-14570636D01*
X14701077Y-14570636D02*
X14691553Y-14551588D01*
X14691553Y-14551588D02*
X14682029Y-14513493D01*
X14682029Y-14513493D02*
X14682029Y-14465874D01*
X14682029Y-14465874D02*
X14691553Y-14427779D01*
X14691553Y-14427779D02*
X14701077Y-14408731D01*
X14701077Y-14408731D02*
X14710601Y-14399208D01*
X14710601Y-14399208D02*
X14729648Y-14389684D01*
X14977267Y-14389684D02*
X14882029Y-14389684D01*
X14882029Y-14389684D02*
X14872506Y-14484922D01*
X14872506Y-14484922D02*
X14882029Y-14475398D01*
X14882029Y-14475398D02*
X14901077Y-14465874D01*
X14901077Y-14465874D02*
X14948696Y-14465874D01*
X14948696Y-14465874D02*
X14967744Y-14475398D01*
X14967744Y-14475398D02*
X14977267Y-14484922D01*
X14977267Y-14484922D02*
X14986791Y-14503969D01*
X14986791Y-14503969D02*
X14986791Y-14551588D01*
X14986791Y-14551588D02*
X14977267Y-14570636D01*
X14977267Y-14570636D02*
X14967744Y-14580160D01*
X14967744Y-14580160D02*
X14948696Y-14589684D01*
X14948696Y-14589684D02*
X14901077Y-14589684D01*
X14901077Y-14589684D02*
X14882029Y-14580160D01*
X14882029Y-14580160D02*
X14872506Y-14570636D01*
X15082029Y-14589684D02*
X15120125Y-14589684D01*
X15120125Y-14589684D02*
X15139172Y-14580160D01*
X15139172Y-14580160D02*
X15148696Y-14570636D01*
X15148696Y-14570636D02*
X15167744Y-14542065D01*
X15167744Y-14542065D02*
X15177267Y-14503969D01*
X15177267Y-14503969D02*
X15177267Y-14427779D01*
X15177267Y-14427779D02*
X15167744Y-14408731D01*
X15167744Y-14408731D02*
X15158220Y-14399208D01*
X15158220Y-14399208D02*
X15139172Y-14389684D01*
X15139172Y-14389684D02*
X15101077Y-14389684D01*
X15101077Y-14389684D02*
X15082029Y-14399208D01*
X15082029Y-14399208D02*
X15072506Y-14408731D01*
X15072506Y-14408731D02*
X15062982Y-14427779D01*
X15062982Y-14427779D02*
X15062982Y-14475398D01*
X15062982Y-14475398D02*
X15072506Y-14494446D01*
X15072506Y-14494446D02*
X15082029Y-14503969D01*
X15082029Y-14503969D02*
X15101077Y-14513493D01*
X15101077Y-14513493D02*
X15139172Y-14513493D01*
X15139172Y-14513493D02*
X15158220Y-14503969D01*
X15158220Y-14503969D02*
X15167744Y-14494446D01*
X15167744Y-14494446D02*
X15177267Y-14475398D01*
X15367744Y-14589684D02*
X15253458Y-14589684D01*
X15310601Y-14589684D02*
X15310601Y-14389684D01*
X15310601Y-14389684D02*
X15291553Y-14418255D01*
X15291553Y-14418255D02*
X15272506Y-14437303D01*
X15272506Y-14437303D02*
X15253458Y-14446827D01*
X15443934Y-14389684D02*
X15443934Y-14427779D01*
X15520125Y-14389684D02*
X15520125Y-14427779D01*
X15815363Y-14665874D02*
X15805839Y-14656350D01*
X15805839Y-14656350D02*
X15786791Y-14627779D01*
X15786791Y-14627779D02*
X15777268Y-14608731D01*
X15777268Y-14608731D02*
X15767744Y-14580160D01*
X15767744Y-14580160D02*
X15758220Y-14532541D01*
X15758220Y-14532541D02*
X15758220Y-14494446D01*
X15758220Y-14494446D02*
X15767744Y-14446827D01*
X15767744Y-14446827D02*
X15777268Y-14418255D01*
X15777268Y-14418255D02*
X15786791Y-14399208D01*
X15786791Y-14399208D02*
X15805839Y-14370636D01*
X15805839Y-14370636D02*
X15815363Y-14361112D01*
X15929648Y-14389684D02*
X15948696Y-14389684D01*
X15948696Y-14389684D02*
X15967744Y-14399208D01*
X15967744Y-14399208D02*
X15977268Y-14408731D01*
X15977268Y-14408731D02*
X15986791Y-14427779D01*
X15986791Y-14427779D02*
X15996315Y-14465874D01*
X15996315Y-14465874D02*
X15996315Y-14513493D01*
X15996315Y-14513493D02*
X15986791Y-14551588D01*
X15986791Y-14551588D02*
X15977268Y-14570636D01*
X15977268Y-14570636D02*
X15967744Y-14580160D01*
X15967744Y-14580160D02*
X15948696Y-14589684D01*
X15948696Y-14589684D02*
X15929648Y-14589684D01*
X15929648Y-14589684D02*
X15910601Y-14580160D01*
X15910601Y-14580160D02*
X15901077Y-14570636D01*
X15901077Y-14570636D02*
X15891553Y-14551588D01*
X15891553Y-14551588D02*
X15882029Y-14513493D01*
X15882029Y-14513493D02*
X15882029Y-14465874D01*
X15882029Y-14465874D02*
X15891553Y-14427779D01*
X15891553Y-14427779D02*
X15901077Y-14408731D01*
X15901077Y-14408731D02*
X15910601Y-14399208D01*
X15910601Y-14399208D02*
X15929648Y-14389684D01*
X16234410Y-14589684D02*
X16234410Y-14389684D01*
X16320125Y-14589684D02*
X16320125Y-14484922D01*
X16320125Y-14484922D02*
X16310601Y-14465874D01*
X16310601Y-14465874D02*
X16291553Y-14456350D01*
X16291553Y-14456350D02*
X16262982Y-14456350D01*
X16262982Y-14456350D02*
X16243934Y-14465874D01*
X16243934Y-14465874D02*
X16234410Y-14475398D01*
X16443934Y-14589684D02*
X16424887Y-14580160D01*
X16424887Y-14580160D02*
X16415363Y-14570636D01*
X16415363Y-14570636D02*
X16405839Y-14551588D01*
X16405839Y-14551588D02*
X16405839Y-14494446D01*
X16405839Y-14494446D02*
X16415363Y-14475398D01*
X16415363Y-14475398D02*
X16424887Y-14465874D01*
X16424887Y-14465874D02*
X16443934Y-14456350D01*
X16443934Y-14456350D02*
X16472506Y-14456350D01*
X16472506Y-14456350D02*
X16491553Y-14465874D01*
X16491553Y-14465874D02*
X16501077Y-14475398D01*
X16501077Y-14475398D02*
X16510601Y-14494446D01*
X16510601Y-14494446D02*
X16510601Y-14551588D01*
X16510601Y-14551588D02*
X16501077Y-14570636D01*
X16501077Y-14570636D02*
X16491553Y-14580160D01*
X16491553Y-14580160D02*
X16472506Y-14589684D01*
X16472506Y-14589684D02*
X16443934Y-14589684D01*
X16624887Y-14589684D02*
X16605839Y-14580160D01*
X16605839Y-14580160D02*
X16596315Y-14561112D01*
X16596315Y-14561112D02*
X16596315Y-14389684D01*
X16777268Y-14580160D02*
X16758220Y-14589684D01*
X16758220Y-14589684D02*
X16720125Y-14589684D01*
X16720125Y-14589684D02*
X16701077Y-14580160D01*
X16701077Y-14580160D02*
X16691553Y-14561112D01*
X16691553Y-14561112D02*
X16691553Y-14484922D01*
X16691553Y-14484922D02*
X16701077Y-14465874D01*
X16701077Y-14465874D02*
X16720125Y-14456350D01*
X16720125Y-14456350D02*
X16758220Y-14456350D01*
X16758220Y-14456350D02*
X16777268Y-14465874D01*
X16777268Y-14465874D02*
X16786792Y-14484922D01*
X16786792Y-14484922D02*
X16786792Y-14503969D01*
X16786792Y-14503969D02*
X16691553Y-14523017D01*
X16862982Y-14580160D02*
X16882030Y-14589684D01*
X16882030Y-14589684D02*
X16920125Y-14589684D01*
X16920125Y-14589684D02*
X16939173Y-14580160D01*
X16939173Y-14580160D02*
X16948696Y-14561112D01*
X16948696Y-14561112D02*
X16948696Y-14551588D01*
X16948696Y-14551588D02*
X16939173Y-14532541D01*
X16939173Y-14532541D02*
X16920125Y-14523017D01*
X16920125Y-14523017D02*
X16891553Y-14523017D01*
X16891553Y-14523017D02*
X16872506Y-14513493D01*
X16872506Y-14513493D02*
X16862982Y-14494446D01*
X16862982Y-14494446D02*
X16862982Y-14484922D01*
X16862982Y-14484922D02*
X16872506Y-14465874D01*
X16872506Y-14465874D02*
X16891553Y-14456350D01*
X16891553Y-14456350D02*
X16920125Y-14456350D01*
X16920125Y-14456350D02*
X16939173Y-14465874D01*
X17186792Y-14513493D02*
X17339173Y-14513493D01*
X17262982Y-14589684D02*
X17262982Y-14437303D01*
X17577268Y-14408731D02*
X17586792Y-14399208D01*
X17586792Y-14399208D02*
X17605839Y-14389684D01*
X17605839Y-14389684D02*
X17653458Y-14389684D01*
X17653458Y-14389684D02*
X17672506Y-14399208D01*
X17672506Y-14399208D02*
X17682030Y-14408731D01*
X17682030Y-14408731D02*
X17691554Y-14427779D01*
X17691554Y-14427779D02*
X17691554Y-14446827D01*
X17691554Y-14446827D02*
X17682030Y-14475398D01*
X17682030Y-14475398D02*
X17567744Y-14589684D01*
X17567744Y-14589684D02*
X17691554Y-14589684D01*
X17920125Y-14580160D02*
X17939173Y-14589684D01*
X17939173Y-14589684D02*
X17977268Y-14589684D01*
X17977268Y-14589684D02*
X17996316Y-14580160D01*
X17996316Y-14580160D02*
X18005839Y-14561112D01*
X18005839Y-14561112D02*
X18005839Y-14551588D01*
X18005839Y-14551588D02*
X17996316Y-14532541D01*
X17996316Y-14532541D02*
X17977268Y-14523017D01*
X17977268Y-14523017D02*
X17948696Y-14523017D01*
X17948696Y-14523017D02*
X17929649Y-14513493D01*
X17929649Y-14513493D02*
X17920125Y-14494446D01*
X17920125Y-14494446D02*
X17920125Y-14484922D01*
X17920125Y-14484922D02*
X17929649Y-14465874D01*
X17929649Y-14465874D02*
X17948696Y-14456350D01*
X17948696Y-14456350D02*
X17977268Y-14456350D01*
X17977268Y-14456350D02*
X17996316Y-14465874D01*
X18120125Y-14589684D02*
X18101077Y-14580160D01*
X18101077Y-14580160D02*
X18091554Y-14561112D01*
X18091554Y-14561112D02*
X18091554Y-14389684D01*
X18224887Y-14589684D02*
X18205839Y-14580160D01*
X18205839Y-14580160D02*
X18196316Y-14570636D01*
X18196316Y-14570636D02*
X18186792Y-14551588D01*
X18186792Y-14551588D02*
X18186792Y-14494446D01*
X18186792Y-14494446D02*
X18196316Y-14475398D01*
X18196316Y-14475398D02*
X18205839Y-14465874D01*
X18205839Y-14465874D02*
X18224887Y-14456350D01*
X18224887Y-14456350D02*
X18253458Y-14456350D01*
X18253458Y-14456350D02*
X18272506Y-14465874D01*
X18272506Y-14465874D02*
X18282030Y-14475398D01*
X18282030Y-14475398D02*
X18291554Y-14494446D01*
X18291554Y-14494446D02*
X18291554Y-14551588D01*
X18291554Y-14551588D02*
X18282030Y-14570636D01*
X18282030Y-14570636D02*
X18272506Y-14580160D01*
X18272506Y-14580160D02*
X18253458Y-14589684D01*
X18253458Y-14589684D02*
X18224887Y-14589684D01*
X18348697Y-14456350D02*
X18424887Y-14456350D01*
X18377268Y-14389684D02*
X18377268Y-14561112D01*
X18377268Y-14561112D02*
X18386792Y-14580160D01*
X18386792Y-14580160D02*
X18405839Y-14589684D01*
X18405839Y-14589684D02*
X18424887Y-14589684D01*
X18482030Y-14580160D02*
X18501077Y-14589684D01*
X18501077Y-14589684D02*
X18539173Y-14589684D01*
X18539173Y-14589684D02*
X18558220Y-14580160D01*
X18558220Y-14580160D02*
X18567744Y-14561112D01*
X18567744Y-14561112D02*
X18567744Y-14551588D01*
X18567744Y-14551588D02*
X18558220Y-14532541D01*
X18558220Y-14532541D02*
X18539173Y-14523017D01*
X18539173Y-14523017D02*
X18510601Y-14523017D01*
X18510601Y-14523017D02*
X18491554Y-14513493D01*
X18491554Y-14513493D02*
X18482030Y-14494446D01*
X18482030Y-14494446D02*
X18482030Y-14484922D01*
X18482030Y-14484922D02*
X18491554Y-14465874D01*
X18491554Y-14465874D02*
X18510601Y-14456350D01*
X18510601Y-14456350D02*
X18539173Y-14456350D01*
X18539173Y-14456350D02*
X18558220Y-14465874D01*
X18634411Y-14665874D02*
X18643935Y-14656350D01*
X18643935Y-14656350D02*
X18662982Y-14627779D01*
X18662982Y-14627779D02*
X18672506Y-14608731D01*
X18672506Y-14608731D02*
X18682030Y-14580160D01*
X18682030Y-14580160D02*
X18691554Y-14532541D01*
X18691554Y-14532541D02*
X18691554Y-14494446D01*
X18691554Y-14494446D02*
X18682030Y-14446827D01*
X18682030Y-14446827D02*
X18672506Y-14418255D01*
X18672506Y-14418255D02*
X18662982Y-14399208D01*
X18662982Y-14399208D02*
X18643935Y-14370636D01*
X18643935Y-14370636D02*
X18634411Y-14361112D01*
X18996316Y-14665874D02*
X18986792Y-14656350D01*
X18986792Y-14656350D02*
X18967744Y-14627779D01*
X18967744Y-14627779D02*
X18958220Y-14608731D01*
X18958220Y-14608731D02*
X18948697Y-14580160D01*
X18948697Y-14580160D02*
X18939173Y-14532541D01*
X18939173Y-14532541D02*
X18939173Y-14494446D01*
X18939173Y-14494446D02*
X18948697Y-14446827D01*
X18948697Y-14446827D02*
X18958220Y-14418255D01*
X18958220Y-14418255D02*
X18967744Y-14399208D01*
X18967744Y-14399208D02*
X18986792Y-14370636D01*
X18986792Y-14370636D02*
X18996316Y-14361112D01*
X19072506Y-14456350D02*
X19072506Y-14589684D01*
X19072506Y-14475398D02*
X19082030Y-14465874D01*
X19082030Y-14465874D02*
X19101077Y-14456350D01*
X19101077Y-14456350D02*
X19129649Y-14456350D01*
X19129649Y-14456350D02*
X19148697Y-14465874D01*
X19148697Y-14465874D02*
X19158220Y-14484922D01*
X19158220Y-14484922D02*
X19158220Y-14589684D01*
X19282030Y-14589684D02*
X19262982Y-14580160D01*
X19262982Y-14580160D02*
X19253458Y-14570636D01*
X19253458Y-14570636D02*
X19243935Y-14551588D01*
X19243935Y-14551588D02*
X19243935Y-14494446D01*
X19243935Y-14494446D02*
X19253458Y-14475398D01*
X19253458Y-14475398D02*
X19262982Y-14465874D01*
X19262982Y-14465874D02*
X19282030Y-14456350D01*
X19282030Y-14456350D02*
X19310601Y-14456350D01*
X19310601Y-14456350D02*
X19329649Y-14465874D01*
X19329649Y-14465874D02*
X19339173Y-14475398D01*
X19339173Y-14475398D02*
X19348697Y-14494446D01*
X19348697Y-14494446D02*
X19348697Y-14551588D01*
X19348697Y-14551588D02*
X19339173Y-14570636D01*
X19339173Y-14570636D02*
X19329649Y-14580160D01*
X19329649Y-14580160D02*
X19310601Y-14589684D01*
X19310601Y-14589684D02*
X19282030Y-14589684D01*
X19405839Y-14456350D02*
X19482030Y-14456350D01*
X19434411Y-14389684D02*
X19434411Y-14561112D01*
X19434411Y-14561112D02*
X19443935Y-14580160D01*
X19443935Y-14580160D02*
X19462982Y-14589684D01*
X19462982Y-14589684D02*
X19482030Y-14589684D01*
X19701078Y-14456350D02*
X19701078Y-14656350D01*
X19701078Y-14465874D02*
X19720125Y-14456350D01*
X19720125Y-14456350D02*
X19758220Y-14456350D01*
X19758220Y-14456350D02*
X19777268Y-14465874D01*
X19777268Y-14465874D02*
X19786792Y-14475398D01*
X19786792Y-14475398D02*
X19796316Y-14494446D01*
X19796316Y-14494446D02*
X19796316Y-14551588D01*
X19796316Y-14551588D02*
X19786792Y-14570636D01*
X19786792Y-14570636D02*
X19777268Y-14580160D01*
X19777268Y-14580160D02*
X19758220Y-14589684D01*
X19758220Y-14589684D02*
X19720125Y-14589684D01*
X19720125Y-14589684D02*
X19701078Y-14580160D01*
X19910601Y-14589684D02*
X19891554Y-14580160D01*
X19891554Y-14580160D02*
X19882030Y-14561112D01*
X19882030Y-14561112D02*
X19882030Y-14389684D01*
X20072506Y-14589684D02*
X20072506Y-14484922D01*
X20072506Y-14484922D02*
X20062982Y-14465874D01*
X20062982Y-14465874D02*
X20043935Y-14456350D01*
X20043935Y-14456350D02*
X20005839Y-14456350D01*
X20005839Y-14456350D02*
X19986792Y-14465874D01*
X20072506Y-14580160D02*
X20053459Y-14589684D01*
X20053459Y-14589684D02*
X20005839Y-14589684D01*
X20005839Y-14589684D02*
X19986792Y-14580160D01*
X19986792Y-14580160D02*
X19977268Y-14561112D01*
X19977268Y-14561112D02*
X19977268Y-14542065D01*
X19977268Y-14542065D02*
X19986792Y-14523017D01*
X19986792Y-14523017D02*
X20005839Y-14513493D01*
X20005839Y-14513493D02*
X20053459Y-14513493D01*
X20053459Y-14513493D02*
X20072506Y-14503969D01*
X20139173Y-14456350D02*
X20215363Y-14456350D01*
X20167744Y-14389684D02*
X20167744Y-14561112D01*
X20167744Y-14561112D02*
X20177268Y-14580160D01*
X20177268Y-14580160D02*
X20196316Y-14589684D01*
X20196316Y-14589684D02*
X20215363Y-14589684D01*
X20358220Y-14580160D02*
X20339173Y-14589684D01*
X20339173Y-14589684D02*
X20301078Y-14589684D01*
X20301078Y-14589684D02*
X20282030Y-14580160D01*
X20282030Y-14580160D02*
X20272506Y-14561112D01*
X20272506Y-14561112D02*
X20272506Y-14484922D01*
X20272506Y-14484922D02*
X20282030Y-14465874D01*
X20282030Y-14465874D02*
X20301078Y-14456350D01*
X20301078Y-14456350D02*
X20339173Y-14456350D01*
X20339173Y-14456350D02*
X20358220Y-14465874D01*
X20358220Y-14465874D02*
X20367744Y-14484922D01*
X20367744Y-14484922D02*
X20367744Y-14503969D01*
X20367744Y-14503969D02*
X20272506Y-14523017D01*
X20539173Y-14589684D02*
X20539173Y-14389684D01*
X20539173Y-14580160D02*
X20520125Y-14589684D01*
X20520125Y-14589684D02*
X20482030Y-14589684D01*
X20482030Y-14589684D02*
X20462982Y-14580160D01*
X20462982Y-14580160D02*
X20453459Y-14570636D01*
X20453459Y-14570636D02*
X20443935Y-14551588D01*
X20443935Y-14551588D02*
X20443935Y-14494446D01*
X20443935Y-14494446D02*
X20453459Y-14475398D01*
X20453459Y-14475398D02*
X20462982Y-14465874D01*
X20462982Y-14465874D02*
X20482030Y-14456350D01*
X20482030Y-14456350D02*
X20520125Y-14456350D01*
X20520125Y-14456350D02*
X20539173Y-14465874D01*
X20615363Y-14665874D02*
X20624887Y-14656350D01*
X20624887Y-14656350D02*
X20643935Y-14627779D01*
X20643935Y-14627779D02*
X20653459Y-14608731D01*
X20653459Y-14608731D02*
X20662982Y-14580160D01*
X20662982Y-14580160D02*
X20672506Y-14532541D01*
X20672506Y-14532541D02*
X20672506Y-14494446D01*
X20672506Y-14494446D02*
X20662982Y-14446827D01*
X20662982Y-14446827D02*
X20653459Y-14418255D01*
X20653459Y-14418255D02*
X20643935Y-14399208D01*
X20643935Y-14399208D02*
X20624887Y-14370636D01*
X20624887Y-14370636D02*
X20615363Y-14361112D01*
D14*
X12240300Y-14768200D02*
G75*
G02*
X12070120Y-14768200I-85090J0D01*
G01*
X12070120Y-14768200D02*
G75*
G02*
X12240300Y-14768200I85090J0D01*
G01*
D11*
X12605839Y-14859684D02*
X12491553Y-14859684D01*
X12548696Y-14859684D02*
X12548696Y-14659684D01*
X12548696Y-14659684D02*
X12529648Y-14688255D01*
X12529648Y-14688255D02*
X12510601Y-14707303D01*
X12510601Y-14707303D02*
X12491553Y-14716827D01*
X12691553Y-14840636D02*
X12701077Y-14850160D01*
X12701077Y-14850160D02*
X12691553Y-14859684D01*
X12691553Y-14859684D02*
X12682029Y-14850160D01*
X12682029Y-14850160D02*
X12691553Y-14840636D01*
X12691553Y-14840636D02*
X12691553Y-14859684D01*
X12767743Y-14659684D02*
X12901077Y-14659684D01*
X12901077Y-14659684D02*
X12815362Y-14859684D01*
X13015362Y-14659684D02*
X13034410Y-14659684D01*
X13034410Y-14659684D02*
X13053458Y-14669208D01*
X13053458Y-14669208D02*
X13062982Y-14678731D01*
X13062982Y-14678731D02*
X13072505Y-14697779D01*
X13072505Y-14697779D02*
X13082029Y-14735874D01*
X13082029Y-14735874D02*
X13082029Y-14783493D01*
X13082029Y-14783493D02*
X13072505Y-14821588D01*
X13072505Y-14821588D02*
X13062982Y-14840636D01*
X13062982Y-14840636D02*
X13053458Y-14850160D01*
X13053458Y-14850160D02*
X13034410Y-14859684D01*
X13034410Y-14859684D02*
X13015362Y-14859684D01*
X13015362Y-14859684D02*
X12996315Y-14850160D01*
X12996315Y-14850160D02*
X12986791Y-14840636D01*
X12986791Y-14840636D02*
X12977267Y-14821588D01*
X12977267Y-14821588D02*
X12967743Y-14783493D01*
X12967743Y-14783493D02*
X12967743Y-14735874D01*
X12967743Y-14735874D02*
X12977267Y-14697779D01*
X12977267Y-14697779D02*
X12986791Y-14678731D01*
X12986791Y-14678731D02*
X12996315Y-14669208D01*
X12996315Y-14669208D02*
X13015362Y-14659684D01*
X13158220Y-14678731D02*
X13167743Y-14669208D01*
X13167743Y-14669208D02*
X13186791Y-14659684D01*
X13186791Y-14659684D02*
X13234410Y-14659684D01*
X13234410Y-14659684D02*
X13253458Y-14669208D01*
X13253458Y-14669208D02*
X13262982Y-14678731D01*
X13262982Y-14678731D02*
X13272505Y-14697779D01*
X13272505Y-14697779D02*
X13272505Y-14716827D01*
X13272505Y-14716827D02*
X13262982Y-14745398D01*
X13262982Y-14745398D02*
X13148696Y-14859684D01*
X13148696Y-14859684D02*
X13272505Y-14859684D01*
X13358220Y-14859684D02*
X13358220Y-14726350D01*
X13358220Y-14745398D02*
X13367743Y-14735874D01*
X13367743Y-14735874D02*
X13386791Y-14726350D01*
X13386791Y-14726350D02*
X13415363Y-14726350D01*
X13415363Y-14726350D02*
X13434410Y-14735874D01*
X13434410Y-14735874D02*
X13443934Y-14754922D01*
X13443934Y-14754922D02*
X13443934Y-14859684D01*
X13443934Y-14754922D02*
X13453458Y-14735874D01*
X13453458Y-14735874D02*
X13472505Y-14726350D01*
X13472505Y-14726350D02*
X13501077Y-14726350D01*
X13501077Y-14726350D02*
X13520124Y-14735874D01*
X13520124Y-14735874D02*
X13529648Y-14754922D01*
X13529648Y-14754922D02*
X13529648Y-14859684D01*
X13624886Y-14859684D02*
X13624886Y-14726350D01*
X13624886Y-14745398D02*
X13634410Y-14735874D01*
X13634410Y-14735874D02*
X13653458Y-14726350D01*
X13653458Y-14726350D02*
X13682029Y-14726350D01*
X13682029Y-14726350D02*
X13701077Y-14735874D01*
X13701077Y-14735874D02*
X13710601Y-14754922D01*
X13710601Y-14754922D02*
X13710601Y-14859684D01*
X13710601Y-14754922D02*
X13720124Y-14735874D01*
X13720124Y-14735874D02*
X13739172Y-14726350D01*
X13739172Y-14726350D02*
X13767743Y-14726350D01*
X13767743Y-14726350D02*
X13786791Y-14735874D01*
X13786791Y-14735874D02*
X13796315Y-14754922D01*
X13796315Y-14754922D02*
X13796315Y-14859684D01*
X14186791Y-14650160D02*
X14015363Y-14907303D01*
X14443934Y-14659684D02*
X14462982Y-14659684D01*
X14462982Y-14659684D02*
X14482029Y-14669208D01*
X14482029Y-14669208D02*
X14491553Y-14678731D01*
X14491553Y-14678731D02*
X14501077Y-14697779D01*
X14501077Y-14697779D02*
X14510601Y-14735874D01*
X14510601Y-14735874D02*
X14510601Y-14783493D01*
X14510601Y-14783493D02*
X14501077Y-14821588D01*
X14501077Y-14821588D02*
X14491553Y-14840636D01*
X14491553Y-14840636D02*
X14482029Y-14850160D01*
X14482029Y-14850160D02*
X14462982Y-14859684D01*
X14462982Y-14859684D02*
X14443934Y-14859684D01*
X14443934Y-14859684D02*
X14424886Y-14850160D01*
X14424886Y-14850160D02*
X14415363Y-14840636D01*
X14415363Y-14840636D02*
X14405839Y-14821588D01*
X14405839Y-14821588D02*
X14396315Y-14783493D01*
X14396315Y-14783493D02*
X14396315Y-14735874D01*
X14396315Y-14735874D02*
X14405839Y-14697779D01*
X14405839Y-14697779D02*
X14415363Y-14678731D01*
X14415363Y-14678731D02*
X14424886Y-14669208D01*
X14424886Y-14669208D02*
X14443934Y-14659684D01*
X14596315Y-14840636D02*
X14605839Y-14850160D01*
X14605839Y-14850160D02*
X14596315Y-14859684D01*
X14596315Y-14859684D02*
X14586791Y-14850160D01*
X14586791Y-14850160D02*
X14596315Y-14840636D01*
X14596315Y-14840636D02*
X14596315Y-14859684D01*
X14729648Y-14659684D02*
X14748696Y-14659684D01*
X14748696Y-14659684D02*
X14767744Y-14669208D01*
X14767744Y-14669208D02*
X14777267Y-14678731D01*
X14777267Y-14678731D02*
X14786791Y-14697779D01*
X14786791Y-14697779D02*
X14796315Y-14735874D01*
X14796315Y-14735874D02*
X14796315Y-14783493D01*
X14796315Y-14783493D02*
X14786791Y-14821588D01*
X14786791Y-14821588D02*
X14777267Y-14840636D01*
X14777267Y-14840636D02*
X14767744Y-14850160D01*
X14767744Y-14850160D02*
X14748696Y-14859684D01*
X14748696Y-14859684D02*
X14729648Y-14859684D01*
X14729648Y-14859684D02*
X14710601Y-14850160D01*
X14710601Y-14850160D02*
X14701077Y-14840636D01*
X14701077Y-14840636D02*
X14691553Y-14821588D01*
X14691553Y-14821588D02*
X14682029Y-14783493D01*
X14682029Y-14783493D02*
X14682029Y-14735874D01*
X14682029Y-14735874D02*
X14691553Y-14697779D01*
X14691553Y-14697779D02*
X14701077Y-14678731D01*
X14701077Y-14678731D02*
X14710601Y-14669208D01*
X14710601Y-14669208D02*
X14729648Y-14659684D01*
X14967744Y-14659684D02*
X14929648Y-14659684D01*
X14929648Y-14659684D02*
X14910601Y-14669208D01*
X14910601Y-14669208D02*
X14901077Y-14678731D01*
X14901077Y-14678731D02*
X14882029Y-14707303D01*
X14882029Y-14707303D02*
X14872506Y-14745398D01*
X14872506Y-14745398D02*
X14872506Y-14821588D01*
X14872506Y-14821588D02*
X14882029Y-14840636D01*
X14882029Y-14840636D02*
X14891553Y-14850160D01*
X14891553Y-14850160D02*
X14910601Y-14859684D01*
X14910601Y-14859684D02*
X14948696Y-14859684D01*
X14948696Y-14859684D02*
X14967744Y-14850160D01*
X14967744Y-14850160D02*
X14977267Y-14840636D01*
X14977267Y-14840636D02*
X14986791Y-14821588D01*
X14986791Y-14821588D02*
X14986791Y-14773969D01*
X14986791Y-14773969D02*
X14977267Y-14754922D01*
X14977267Y-14754922D02*
X14967744Y-14745398D01*
X14967744Y-14745398D02*
X14948696Y-14735874D01*
X14948696Y-14735874D02*
X14910601Y-14735874D01*
X14910601Y-14735874D02*
X14891553Y-14745398D01*
X14891553Y-14745398D02*
X14882029Y-14754922D01*
X14882029Y-14754922D02*
X14872506Y-14773969D01*
X15053458Y-14659684D02*
X15186791Y-14659684D01*
X15186791Y-14659684D02*
X15101077Y-14859684D01*
X15301077Y-14659684D02*
X15320125Y-14659684D01*
X15320125Y-14659684D02*
X15339172Y-14669208D01*
X15339172Y-14669208D02*
X15348696Y-14678731D01*
X15348696Y-14678731D02*
X15358220Y-14697779D01*
X15358220Y-14697779D02*
X15367744Y-14735874D01*
X15367744Y-14735874D02*
X15367744Y-14783493D01*
X15367744Y-14783493D02*
X15358220Y-14821588D01*
X15358220Y-14821588D02*
X15348696Y-14840636D01*
X15348696Y-14840636D02*
X15339172Y-14850160D01*
X15339172Y-14850160D02*
X15320125Y-14859684D01*
X15320125Y-14859684D02*
X15301077Y-14859684D01*
X15301077Y-14859684D02*
X15282029Y-14850160D01*
X15282029Y-14850160D02*
X15272506Y-14840636D01*
X15272506Y-14840636D02*
X15262982Y-14821588D01*
X15262982Y-14821588D02*
X15253458Y-14783493D01*
X15253458Y-14783493D02*
X15253458Y-14735874D01*
X15253458Y-14735874D02*
X15262982Y-14697779D01*
X15262982Y-14697779D02*
X15272506Y-14678731D01*
X15272506Y-14678731D02*
X15282029Y-14669208D01*
X15282029Y-14669208D02*
X15301077Y-14659684D01*
X15443934Y-14659684D02*
X15443934Y-14697779D01*
X15520125Y-14659684D02*
X15520125Y-14697779D01*
X15815363Y-14935874D02*
X15805839Y-14926350D01*
X15805839Y-14926350D02*
X15786791Y-14897779D01*
X15786791Y-14897779D02*
X15777268Y-14878731D01*
X15777268Y-14878731D02*
X15767744Y-14850160D01*
X15767744Y-14850160D02*
X15758220Y-14802541D01*
X15758220Y-14802541D02*
X15758220Y-14764446D01*
X15758220Y-14764446D02*
X15767744Y-14716827D01*
X15767744Y-14716827D02*
X15777268Y-14688255D01*
X15777268Y-14688255D02*
X15786791Y-14669208D01*
X15786791Y-14669208D02*
X15805839Y-14640636D01*
X15805839Y-14640636D02*
X15815363Y-14631112D01*
X15996315Y-14859684D02*
X15882029Y-14859684D01*
X15939172Y-14859684D02*
X15939172Y-14659684D01*
X15939172Y-14659684D02*
X15920125Y-14688255D01*
X15920125Y-14688255D02*
X15901077Y-14707303D01*
X15901077Y-14707303D02*
X15882029Y-14716827D01*
X16072506Y-14678731D02*
X16082029Y-14669208D01*
X16082029Y-14669208D02*
X16101077Y-14659684D01*
X16101077Y-14659684D02*
X16148696Y-14659684D01*
X16148696Y-14659684D02*
X16167744Y-14669208D01*
X16167744Y-14669208D02*
X16177268Y-14678731D01*
X16177268Y-14678731D02*
X16186791Y-14697779D01*
X16186791Y-14697779D02*
X16186791Y-14716827D01*
X16186791Y-14716827D02*
X16177268Y-14745398D01*
X16177268Y-14745398D02*
X16062982Y-14859684D01*
X16062982Y-14859684D02*
X16186791Y-14859684D01*
X16424887Y-14859684D02*
X16424887Y-14659684D01*
X16510601Y-14859684D02*
X16510601Y-14754922D01*
X16510601Y-14754922D02*
X16501077Y-14735874D01*
X16501077Y-14735874D02*
X16482030Y-14726350D01*
X16482030Y-14726350D02*
X16453458Y-14726350D01*
X16453458Y-14726350D02*
X16434410Y-14735874D01*
X16434410Y-14735874D02*
X16424887Y-14745398D01*
X16634410Y-14859684D02*
X16615363Y-14850160D01*
X16615363Y-14850160D02*
X16605839Y-14840636D01*
X16605839Y-14840636D02*
X16596315Y-14821588D01*
X16596315Y-14821588D02*
X16596315Y-14764446D01*
X16596315Y-14764446D02*
X16605839Y-14745398D01*
X16605839Y-14745398D02*
X16615363Y-14735874D01*
X16615363Y-14735874D02*
X16634410Y-14726350D01*
X16634410Y-14726350D02*
X16662982Y-14726350D01*
X16662982Y-14726350D02*
X16682030Y-14735874D01*
X16682030Y-14735874D02*
X16691553Y-14745398D01*
X16691553Y-14745398D02*
X16701077Y-14764446D01*
X16701077Y-14764446D02*
X16701077Y-14821588D01*
X16701077Y-14821588D02*
X16691553Y-14840636D01*
X16691553Y-14840636D02*
X16682030Y-14850160D01*
X16682030Y-14850160D02*
X16662982Y-14859684D01*
X16662982Y-14859684D02*
X16634410Y-14859684D01*
X16815363Y-14859684D02*
X16796315Y-14850160D01*
X16796315Y-14850160D02*
X16786792Y-14831112D01*
X16786792Y-14831112D02*
X16786792Y-14659684D01*
X16967744Y-14850160D02*
X16948696Y-14859684D01*
X16948696Y-14859684D02*
X16910601Y-14859684D01*
X16910601Y-14859684D02*
X16891553Y-14850160D01*
X16891553Y-14850160D02*
X16882030Y-14831112D01*
X16882030Y-14831112D02*
X16882030Y-14754922D01*
X16882030Y-14754922D02*
X16891553Y-14735874D01*
X16891553Y-14735874D02*
X16910601Y-14726350D01*
X16910601Y-14726350D02*
X16948696Y-14726350D01*
X16948696Y-14726350D02*
X16967744Y-14735874D01*
X16967744Y-14735874D02*
X16977268Y-14754922D01*
X16977268Y-14754922D02*
X16977268Y-14773969D01*
X16977268Y-14773969D02*
X16882030Y-14793017D01*
X17053458Y-14850160D02*
X17072506Y-14859684D01*
X17072506Y-14859684D02*
X17110601Y-14859684D01*
X17110601Y-14859684D02*
X17129649Y-14850160D01*
X17129649Y-14850160D02*
X17139173Y-14831112D01*
X17139173Y-14831112D02*
X17139173Y-14821588D01*
X17139173Y-14821588D02*
X17129649Y-14802541D01*
X17129649Y-14802541D02*
X17110601Y-14793017D01*
X17110601Y-14793017D02*
X17082030Y-14793017D01*
X17082030Y-14793017D02*
X17062982Y-14783493D01*
X17062982Y-14783493D02*
X17053458Y-14764446D01*
X17053458Y-14764446D02*
X17053458Y-14754922D01*
X17053458Y-14754922D02*
X17062982Y-14735874D01*
X17062982Y-14735874D02*
X17082030Y-14726350D01*
X17082030Y-14726350D02*
X17110601Y-14726350D01*
X17110601Y-14726350D02*
X17129649Y-14735874D01*
X17205839Y-14935874D02*
X17215363Y-14926350D01*
X17215363Y-14926350D02*
X17234411Y-14897779D01*
X17234411Y-14897779D02*
X17243934Y-14878731D01*
X17243934Y-14878731D02*
X17253458Y-14850160D01*
X17253458Y-14850160D02*
X17262982Y-14802541D01*
X17262982Y-14802541D02*
X17262982Y-14764446D01*
X17262982Y-14764446D02*
X17253458Y-14716827D01*
X17253458Y-14716827D02*
X17243934Y-14688255D01*
X17243934Y-14688255D02*
X17234411Y-14669208D01*
X17234411Y-14669208D02*
X17215363Y-14640636D01*
X17215363Y-14640636D02*
X17205839Y-14631112D01*
X17567744Y-14935874D02*
X17558220Y-14926350D01*
X17558220Y-14926350D02*
X17539173Y-14897779D01*
X17539173Y-14897779D02*
X17529649Y-14878731D01*
X17529649Y-14878731D02*
X17520125Y-14850160D01*
X17520125Y-14850160D02*
X17510601Y-14802541D01*
X17510601Y-14802541D02*
X17510601Y-14764446D01*
X17510601Y-14764446D02*
X17520125Y-14716827D01*
X17520125Y-14716827D02*
X17529649Y-14688255D01*
X17529649Y-14688255D02*
X17539173Y-14669208D01*
X17539173Y-14669208D02*
X17558220Y-14640636D01*
X17558220Y-14640636D02*
X17567744Y-14631112D01*
X17643934Y-14726350D02*
X17643934Y-14859684D01*
X17643934Y-14745398D02*
X17653458Y-14735874D01*
X17653458Y-14735874D02*
X17672506Y-14726350D01*
X17672506Y-14726350D02*
X17701077Y-14726350D01*
X17701077Y-14726350D02*
X17720125Y-14735874D01*
X17720125Y-14735874D02*
X17729649Y-14754922D01*
X17729649Y-14754922D02*
X17729649Y-14859684D01*
X17853458Y-14859684D02*
X17834411Y-14850160D01*
X17834411Y-14850160D02*
X17824887Y-14840636D01*
X17824887Y-14840636D02*
X17815363Y-14821588D01*
X17815363Y-14821588D02*
X17815363Y-14764446D01*
X17815363Y-14764446D02*
X17824887Y-14745398D01*
X17824887Y-14745398D02*
X17834411Y-14735874D01*
X17834411Y-14735874D02*
X17853458Y-14726350D01*
X17853458Y-14726350D02*
X17882030Y-14726350D01*
X17882030Y-14726350D02*
X17901077Y-14735874D01*
X17901077Y-14735874D02*
X17910601Y-14745398D01*
X17910601Y-14745398D02*
X17920125Y-14764446D01*
X17920125Y-14764446D02*
X17920125Y-14821588D01*
X17920125Y-14821588D02*
X17910601Y-14840636D01*
X17910601Y-14840636D02*
X17901077Y-14850160D01*
X17901077Y-14850160D02*
X17882030Y-14859684D01*
X17882030Y-14859684D02*
X17853458Y-14859684D01*
X17977268Y-14726350D02*
X18053458Y-14726350D01*
X18005839Y-14659684D02*
X18005839Y-14831112D01*
X18005839Y-14831112D02*
X18015363Y-14850160D01*
X18015363Y-14850160D02*
X18034411Y-14859684D01*
X18034411Y-14859684D02*
X18053458Y-14859684D01*
X18272506Y-14726350D02*
X18272506Y-14926350D01*
X18272506Y-14735874D02*
X18291554Y-14726350D01*
X18291554Y-14726350D02*
X18329649Y-14726350D01*
X18329649Y-14726350D02*
X18348696Y-14735874D01*
X18348696Y-14735874D02*
X18358220Y-14745398D01*
X18358220Y-14745398D02*
X18367744Y-14764446D01*
X18367744Y-14764446D02*
X18367744Y-14821588D01*
X18367744Y-14821588D02*
X18358220Y-14840636D01*
X18358220Y-14840636D02*
X18348696Y-14850160D01*
X18348696Y-14850160D02*
X18329649Y-14859684D01*
X18329649Y-14859684D02*
X18291554Y-14859684D01*
X18291554Y-14859684D02*
X18272506Y-14850160D01*
X18482030Y-14859684D02*
X18462982Y-14850160D01*
X18462982Y-14850160D02*
X18453458Y-14831112D01*
X18453458Y-14831112D02*
X18453458Y-14659684D01*
X18643935Y-14859684D02*
X18643935Y-14754922D01*
X18643935Y-14754922D02*
X18634411Y-14735874D01*
X18634411Y-14735874D02*
X18615363Y-14726350D01*
X18615363Y-14726350D02*
X18577268Y-14726350D01*
X18577268Y-14726350D02*
X18558220Y-14735874D01*
X18643935Y-14850160D02*
X18624887Y-14859684D01*
X18624887Y-14859684D02*
X18577268Y-14859684D01*
X18577268Y-14859684D02*
X18558220Y-14850160D01*
X18558220Y-14850160D02*
X18548696Y-14831112D01*
X18548696Y-14831112D02*
X18548696Y-14812065D01*
X18548696Y-14812065D02*
X18558220Y-14793017D01*
X18558220Y-14793017D02*
X18577268Y-14783493D01*
X18577268Y-14783493D02*
X18624887Y-14783493D01*
X18624887Y-14783493D02*
X18643935Y-14773969D01*
X18710601Y-14726350D02*
X18786792Y-14726350D01*
X18739173Y-14659684D02*
X18739173Y-14831112D01*
X18739173Y-14831112D02*
X18748696Y-14850160D01*
X18748696Y-14850160D02*
X18767744Y-14859684D01*
X18767744Y-14859684D02*
X18786792Y-14859684D01*
X18929649Y-14850160D02*
X18910601Y-14859684D01*
X18910601Y-14859684D02*
X18872506Y-14859684D01*
X18872506Y-14859684D02*
X18853458Y-14850160D01*
X18853458Y-14850160D02*
X18843935Y-14831112D01*
X18843935Y-14831112D02*
X18843935Y-14754922D01*
X18843935Y-14754922D02*
X18853458Y-14735874D01*
X18853458Y-14735874D02*
X18872506Y-14726350D01*
X18872506Y-14726350D02*
X18910601Y-14726350D01*
X18910601Y-14726350D02*
X18929649Y-14735874D01*
X18929649Y-14735874D02*
X18939173Y-14754922D01*
X18939173Y-14754922D02*
X18939173Y-14773969D01*
X18939173Y-14773969D02*
X18843935Y-14793017D01*
X19110601Y-14859684D02*
X19110601Y-14659684D01*
X19110601Y-14850160D02*
X19091554Y-14859684D01*
X19091554Y-14859684D02*
X19053458Y-14859684D01*
X19053458Y-14859684D02*
X19034411Y-14850160D01*
X19034411Y-14850160D02*
X19024887Y-14840636D01*
X19024887Y-14840636D02*
X19015363Y-14821588D01*
X19015363Y-14821588D02*
X19015363Y-14764446D01*
X19015363Y-14764446D02*
X19024887Y-14745398D01*
X19024887Y-14745398D02*
X19034411Y-14735874D01*
X19034411Y-14735874D02*
X19053458Y-14726350D01*
X19053458Y-14726350D02*
X19091554Y-14726350D01*
X19091554Y-14726350D02*
X19110601Y-14735874D01*
X19186792Y-14935874D02*
X19196316Y-14926350D01*
X19196316Y-14926350D02*
X19215363Y-14897779D01*
X19215363Y-14897779D02*
X19224887Y-14878731D01*
X19224887Y-14878731D02*
X19234411Y-14850160D01*
X19234411Y-14850160D02*
X19243935Y-14802541D01*
X19243935Y-14802541D02*
X19243935Y-14764446D01*
X19243935Y-14764446D02*
X19234411Y-14716827D01*
X19234411Y-14716827D02*
X19224887Y-14688255D01*
X19224887Y-14688255D02*
X19215363Y-14669208D01*
X19215363Y-14669208D02*
X19196316Y-14640636D01*
X19196316Y-14640636D02*
X19186792Y-14631112D01*
X12140300Y-14958380D02*
X12140300Y-15158380D01*
X12040300Y-15058380D02*
X12240300Y-15058380D01*
X12491553Y-14968911D02*
X12501077Y-14959388D01*
X12501077Y-14959388D02*
X12520124Y-14949864D01*
X12520124Y-14949864D02*
X12567743Y-14949864D01*
X12567743Y-14949864D02*
X12586791Y-14959388D01*
X12586791Y-14959388D02*
X12596315Y-14968911D01*
X12596315Y-14968911D02*
X12605839Y-14987959D01*
X12605839Y-14987959D02*
X12605839Y-15007007D01*
X12605839Y-15007007D02*
X12596315Y-15035578D01*
X12596315Y-15035578D02*
X12482029Y-15149864D01*
X12482029Y-15149864D02*
X12605839Y-15149864D01*
X12691553Y-15130816D02*
X12701077Y-15140340D01*
X12701077Y-15140340D02*
X12691553Y-15149864D01*
X12691553Y-15149864D02*
X12682029Y-15140340D01*
X12682029Y-15140340D02*
X12691553Y-15130816D01*
X12691553Y-15130816D02*
X12691553Y-15149864D01*
X12777267Y-14968911D02*
X12786791Y-14959388D01*
X12786791Y-14959388D02*
X12805839Y-14949864D01*
X12805839Y-14949864D02*
X12853458Y-14949864D01*
X12853458Y-14949864D02*
X12872505Y-14959388D01*
X12872505Y-14959388D02*
X12882029Y-14968911D01*
X12882029Y-14968911D02*
X12891553Y-14987959D01*
X12891553Y-14987959D02*
X12891553Y-15007007D01*
X12891553Y-15007007D02*
X12882029Y-15035578D01*
X12882029Y-15035578D02*
X12767743Y-15149864D01*
X12767743Y-15149864D02*
X12891553Y-15149864D01*
X13015362Y-14949864D02*
X13034410Y-14949864D01*
X13034410Y-14949864D02*
X13053458Y-14959388D01*
X13053458Y-14959388D02*
X13062982Y-14968911D01*
X13062982Y-14968911D02*
X13072505Y-14987959D01*
X13072505Y-14987959D02*
X13082029Y-15026054D01*
X13082029Y-15026054D02*
X13082029Y-15073673D01*
X13082029Y-15073673D02*
X13072505Y-15111768D01*
X13072505Y-15111768D02*
X13062982Y-15130816D01*
X13062982Y-15130816D02*
X13053458Y-15140340D01*
X13053458Y-15140340D02*
X13034410Y-15149864D01*
X13034410Y-15149864D02*
X13015362Y-15149864D01*
X13015362Y-15149864D02*
X12996315Y-15140340D01*
X12996315Y-15140340D02*
X12986791Y-15130816D01*
X12986791Y-15130816D02*
X12977267Y-15111768D01*
X12977267Y-15111768D02*
X12967743Y-15073673D01*
X12967743Y-15073673D02*
X12967743Y-15026054D01*
X12967743Y-15026054D02*
X12977267Y-14987959D01*
X12977267Y-14987959D02*
X12986791Y-14968911D01*
X12986791Y-14968911D02*
X12996315Y-14959388D01*
X12996315Y-14959388D02*
X13015362Y-14949864D01*
X13205839Y-14949864D02*
X13224886Y-14949864D01*
X13224886Y-14949864D02*
X13243934Y-14959388D01*
X13243934Y-14959388D02*
X13253458Y-14968911D01*
X13253458Y-14968911D02*
X13262982Y-14987959D01*
X13262982Y-14987959D02*
X13272505Y-15026054D01*
X13272505Y-15026054D02*
X13272505Y-15073673D01*
X13272505Y-15073673D02*
X13262982Y-15111768D01*
X13262982Y-15111768D02*
X13253458Y-15130816D01*
X13253458Y-15130816D02*
X13243934Y-15140340D01*
X13243934Y-15140340D02*
X13224886Y-15149864D01*
X13224886Y-15149864D02*
X13205839Y-15149864D01*
X13205839Y-15149864D02*
X13186791Y-15140340D01*
X13186791Y-15140340D02*
X13177267Y-15130816D01*
X13177267Y-15130816D02*
X13167743Y-15111768D01*
X13167743Y-15111768D02*
X13158220Y-15073673D01*
X13158220Y-15073673D02*
X13158220Y-15026054D01*
X13158220Y-15026054D02*
X13167743Y-14987959D01*
X13167743Y-14987959D02*
X13177267Y-14968911D01*
X13177267Y-14968911D02*
X13186791Y-14959388D01*
X13186791Y-14959388D02*
X13205839Y-14949864D01*
X13358220Y-15149864D02*
X13358220Y-15016530D01*
X13358220Y-15035578D02*
X13367743Y-15026054D01*
X13367743Y-15026054D02*
X13386791Y-15016530D01*
X13386791Y-15016530D02*
X13415363Y-15016530D01*
X13415363Y-15016530D02*
X13434410Y-15026054D01*
X13434410Y-15026054D02*
X13443934Y-15045102D01*
X13443934Y-15045102D02*
X13443934Y-15149864D01*
X13443934Y-15045102D02*
X13453458Y-15026054D01*
X13453458Y-15026054D02*
X13472505Y-15016530D01*
X13472505Y-15016530D02*
X13501077Y-15016530D01*
X13501077Y-15016530D02*
X13520124Y-15026054D01*
X13520124Y-15026054D02*
X13529648Y-15045102D01*
X13529648Y-15045102D02*
X13529648Y-15149864D01*
X13624886Y-15149864D02*
X13624886Y-15016530D01*
X13624886Y-15035578D02*
X13634410Y-15026054D01*
X13634410Y-15026054D02*
X13653458Y-15016530D01*
X13653458Y-15016530D02*
X13682029Y-15016530D01*
X13682029Y-15016530D02*
X13701077Y-15026054D01*
X13701077Y-15026054D02*
X13710601Y-15045102D01*
X13710601Y-15045102D02*
X13710601Y-15149864D01*
X13710601Y-15045102D02*
X13720124Y-15026054D01*
X13720124Y-15026054D02*
X13739172Y-15016530D01*
X13739172Y-15016530D02*
X13767743Y-15016530D01*
X13767743Y-15016530D02*
X13786791Y-15026054D01*
X13786791Y-15026054D02*
X13796315Y-15045102D01*
X13796315Y-15045102D02*
X13796315Y-15149864D01*
X14186791Y-14940340D02*
X14015363Y-15197483D01*
X14443934Y-14949864D02*
X14462982Y-14949864D01*
X14462982Y-14949864D02*
X14482029Y-14959388D01*
X14482029Y-14959388D02*
X14491553Y-14968911D01*
X14491553Y-14968911D02*
X14501077Y-14987959D01*
X14501077Y-14987959D02*
X14510601Y-15026054D01*
X14510601Y-15026054D02*
X14510601Y-15073673D01*
X14510601Y-15073673D02*
X14501077Y-15111768D01*
X14501077Y-15111768D02*
X14491553Y-15130816D01*
X14491553Y-15130816D02*
X14482029Y-15140340D01*
X14482029Y-15140340D02*
X14462982Y-15149864D01*
X14462982Y-15149864D02*
X14443934Y-15149864D01*
X14443934Y-15149864D02*
X14424886Y-15140340D01*
X14424886Y-15140340D02*
X14415363Y-15130816D01*
X14415363Y-15130816D02*
X14405839Y-15111768D01*
X14405839Y-15111768D02*
X14396315Y-15073673D01*
X14396315Y-15073673D02*
X14396315Y-15026054D01*
X14396315Y-15026054D02*
X14405839Y-14987959D01*
X14405839Y-14987959D02*
X14415363Y-14968911D01*
X14415363Y-14968911D02*
X14424886Y-14959388D01*
X14424886Y-14959388D02*
X14443934Y-14949864D01*
X14596315Y-15130816D02*
X14605839Y-15140340D01*
X14605839Y-15140340D02*
X14596315Y-15149864D01*
X14596315Y-15149864D02*
X14586791Y-15140340D01*
X14586791Y-15140340D02*
X14596315Y-15130816D01*
X14596315Y-15130816D02*
X14596315Y-15149864D01*
X14729648Y-14949864D02*
X14748696Y-14949864D01*
X14748696Y-14949864D02*
X14767744Y-14959388D01*
X14767744Y-14959388D02*
X14777267Y-14968911D01*
X14777267Y-14968911D02*
X14786791Y-14987959D01*
X14786791Y-14987959D02*
X14796315Y-15026054D01*
X14796315Y-15026054D02*
X14796315Y-15073673D01*
X14796315Y-15073673D02*
X14786791Y-15111768D01*
X14786791Y-15111768D02*
X14777267Y-15130816D01*
X14777267Y-15130816D02*
X14767744Y-15140340D01*
X14767744Y-15140340D02*
X14748696Y-15149864D01*
X14748696Y-15149864D02*
X14729648Y-15149864D01*
X14729648Y-15149864D02*
X14710601Y-15140340D01*
X14710601Y-15140340D02*
X14701077Y-15130816D01*
X14701077Y-15130816D02*
X14691553Y-15111768D01*
X14691553Y-15111768D02*
X14682029Y-15073673D01*
X14682029Y-15073673D02*
X14682029Y-15026054D01*
X14682029Y-15026054D02*
X14691553Y-14987959D01*
X14691553Y-14987959D02*
X14701077Y-14968911D01*
X14701077Y-14968911D02*
X14710601Y-14959388D01*
X14710601Y-14959388D02*
X14729648Y-14949864D01*
X14910601Y-15035578D02*
X14891553Y-15026054D01*
X14891553Y-15026054D02*
X14882029Y-15016530D01*
X14882029Y-15016530D02*
X14872506Y-14997483D01*
X14872506Y-14997483D02*
X14872506Y-14987959D01*
X14872506Y-14987959D02*
X14882029Y-14968911D01*
X14882029Y-14968911D02*
X14891553Y-14959388D01*
X14891553Y-14959388D02*
X14910601Y-14949864D01*
X14910601Y-14949864D02*
X14948696Y-14949864D01*
X14948696Y-14949864D02*
X14967744Y-14959388D01*
X14967744Y-14959388D02*
X14977267Y-14968911D01*
X14977267Y-14968911D02*
X14986791Y-14987959D01*
X14986791Y-14987959D02*
X14986791Y-14997483D01*
X14986791Y-14997483D02*
X14977267Y-15016530D01*
X14977267Y-15016530D02*
X14967744Y-15026054D01*
X14967744Y-15026054D02*
X14948696Y-15035578D01*
X14948696Y-15035578D02*
X14910601Y-15035578D01*
X14910601Y-15035578D02*
X14891553Y-15045102D01*
X14891553Y-15045102D02*
X14882029Y-15054626D01*
X14882029Y-15054626D02*
X14872506Y-15073673D01*
X14872506Y-15073673D02*
X14872506Y-15111768D01*
X14872506Y-15111768D02*
X14882029Y-15130816D01*
X14882029Y-15130816D02*
X14891553Y-15140340D01*
X14891553Y-15140340D02*
X14910601Y-15149864D01*
X14910601Y-15149864D02*
X14948696Y-15149864D01*
X14948696Y-15149864D02*
X14967744Y-15140340D01*
X14967744Y-15140340D02*
X14977267Y-15130816D01*
X14977267Y-15130816D02*
X14986791Y-15111768D01*
X14986791Y-15111768D02*
X14986791Y-15073673D01*
X14986791Y-15073673D02*
X14977267Y-15054626D01*
X14977267Y-15054626D02*
X14967744Y-15045102D01*
X14967744Y-15045102D02*
X14948696Y-15035578D01*
X15158220Y-14949864D02*
X15120125Y-14949864D01*
X15120125Y-14949864D02*
X15101077Y-14959388D01*
X15101077Y-14959388D02*
X15091553Y-14968911D01*
X15091553Y-14968911D02*
X15072506Y-14997483D01*
X15072506Y-14997483D02*
X15062982Y-15035578D01*
X15062982Y-15035578D02*
X15062982Y-15111768D01*
X15062982Y-15111768D02*
X15072506Y-15130816D01*
X15072506Y-15130816D02*
X15082029Y-15140340D01*
X15082029Y-15140340D02*
X15101077Y-15149864D01*
X15101077Y-15149864D02*
X15139172Y-15149864D01*
X15139172Y-15149864D02*
X15158220Y-15140340D01*
X15158220Y-15140340D02*
X15167744Y-15130816D01*
X15167744Y-15130816D02*
X15177267Y-15111768D01*
X15177267Y-15111768D02*
X15177267Y-15064149D01*
X15177267Y-15064149D02*
X15167744Y-15045102D01*
X15167744Y-15045102D02*
X15158220Y-15035578D01*
X15158220Y-15035578D02*
X15139172Y-15026054D01*
X15139172Y-15026054D02*
X15101077Y-15026054D01*
X15101077Y-15026054D02*
X15082029Y-15035578D01*
X15082029Y-15035578D02*
X15072506Y-15045102D01*
X15072506Y-15045102D02*
X15062982Y-15064149D01*
X15348696Y-14949864D02*
X15310601Y-14949864D01*
X15310601Y-14949864D02*
X15291553Y-14959388D01*
X15291553Y-14959388D02*
X15282029Y-14968911D01*
X15282029Y-14968911D02*
X15262982Y-14997483D01*
X15262982Y-14997483D02*
X15253458Y-15035578D01*
X15253458Y-15035578D02*
X15253458Y-15111768D01*
X15253458Y-15111768D02*
X15262982Y-15130816D01*
X15262982Y-15130816D02*
X15272506Y-15140340D01*
X15272506Y-15140340D02*
X15291553Y-15149864D01*
X15291553Y-15149864D02*
X15329648Y-15149864D01*
X15329648Y-15149864D02*
X15348696Y-15140340D01*
X15348696Y-15140340D02*
X15358220Y-15130816D01*
X15358220Y-15130816D02*
X15367744Y-15111768D01*
X15367744Y-15111768D02*
X15367744Y-15064149D01*
X15367744Y-15064149D02*
X15358220Y-15045102D01*
X15358220Y-15045102D02*
X15348696Y-15035578D01*
X15348696Y-15035578D02*
X15329648Y-15026054D01*
X15329648Y-15026054D02*
X15291553Y-15026054D01*
X15291553Y-15026054D02*
X15272506Y-15035578D01*
X15272506Y-15035578D02*
X15262982Y-15045102D01*
X15262982Y-15045102D02*
X15253458Y-15064149D01*
X15443934Y-14949864D02*
X15443934Y-14987959D01*
X15520125Y-14949864D02*
X15520125Y-14987959D01*
X15815363Y-15226054D02*
X15805839Y-15216530D01*
X15805839Y-15216530D02*
X15786791Y-15187959D01*
X15786791Y-15187959D02*
X15777268Y-15168911D01*
X15777268Y-15168911D02*
X15767744Y-15140340D01*
X15767744Y-15140340D02*
X15758220Y-15092721D01*
X15758220Y-15092721D02*
X15758220Y-15054626D01*
X15758220Y-15054626D02*
X15767744Y-15007007D01*
X15767744Y-15007007D02*
X15777268Y-14978435D01*
X15777268Y-14978435D02*
X15786791Y-14959388D01*
X15786791Y-14959388D02*
X15805839Y-14930816D01*
X15805839Y-14930816D02*
X15815363Y-14921292D01*
X15977268Y-15016530D02*
X15977268Y-15149864D01*
X15929648Y-14940340D02*
X15882029Y-15083197D01*
X15882029Y-15083197D02*
X16005839Y-15083197D01*
X16234410Y-15149864D02*
X16234410Y-14949864D01*
X16320125Y-15149864D02*
X16320125Y-15045102D01*
X16320125Y-15045102D02*
X16310601Y-15026054D01*
X16310601Y-15026054D02*
X16291553Y-15016530D01*
X16291553Y-15016530D02*
X16262982Y-15016530D01*
X16262982Y-15016530D02*
X16243934Y-15026054D01*
X16243934Y-15026054D02*
X16234410Y-15035578D01*
X16443934Y-15149864D02*
X16424887Y-15140340D01*
X16424887Y-15140340D02*
X16415363Y-15130816D01*
X16415363Y-15130816D02*
X16405839Y-15111768D01*
X16405839Y-15111768D02*
X16405839Y-15054626D01*
X16405839Y-15054626D02*
X16415363Y-15035578D01*
X16415363Y-15035578D02*
X16424887Y-15026054D01*
X16424887Y-15026054D02*
X16443934Y-15016530D01*
X16443934Y-15016530D02*
X16472506Y-15016530D01*
X16472506Y-15016530D02*
X16491553Y-15026054D01*
X16491553Y-15026054D02*
X16501077Y-15035578D01*
X16501077Y-15035578D02*
X16510601Y-15054626D01*
X16510601Y-15054626D02*
X16510601Y-15111768D01*
X16510601Y-15111768D02*
X16501077Y-15130816D01*
X16501077Y-15130816D02*
X16491553Y-15140340D01*
X16491553Y-15140340D02*
X16472506Y-15149864D01*
X16472506Y-15149864D02*
X16443934Y-15149864D01*
X16624887Y-15149864D02*
X16605839Y-15140340D01*
X16605839Y-15140340D02*
X16596315Y-15121292D01*
X16596315Y-15121292D02*
X16596315Y-14949864D01*
X16777268Y-15140340D02*
X16758220Y-15149864D01*
X16758220Y-15149864D02*
X16720125Y-15149864D01*
X16720125Y-15149864D02*
X16701077Y-15140340D01*
X16701077Y-15140340D02*
X16691553Y-15121292D01*
X16691553Y-15121292D02*
X16691553Y-15045102D01*
X16691553Y-15045102D02*
X16701077Y-15026054D01*
X16701077Y-15026054D02*
X16720125Y-15016530D01*
X16720125Y-15016530D02*
X16758220Y-15016530D01*
X16758220Y-15016530D02*
X16777268Y-15026054D01*
X16777268Y-15026054D02*
X16786792Y-15045102D01*
X16786792Y-15045102D02*
X16786792Y-15064149D01*
X16786792Y-15064149D02*
X16691553Y-15083197D01*
X16862982Y-15140340D02*
X16882030Y-15149864D01*
X16882030Y-15149864D02*
X16920125Y-15149864D01*
X16920125Y-15149864D02*
X16939173Y-15140340D01*
X16939173Y-15140340D02*
X16948696Y-15121292D01*
X16948696Y-15121292D02*
X16948696Y-15111768D01*
X16948696Y-15111768D02*
X16939173Y-15092721D01*
X16939173Y-15092721D02*
X16920125Y-15083197D01*
X16920125Y-15083197D02*
X16891553Y-15083197D01*
X16891553Y-15083197D02*
X16872506Y-15073673D01*
X16872506Y-15073673D02*
X16862982Y-15054626D01*
X16862982Y-15054626D02*
X16862982Y-15045102D01*
X16862982Y-15045102D02*
X16872506Y-15026054D01*
X16872506Y-15026054D02*
X16891553Y-15016530D01*
X16891553Y-15016530D02*
X16920125Y-15016530D01*
X16920125Y-15016530D02*
X16939173Y-15026054D01*
X17015363Y-15226054D02*
X17024887Y-15216530D01*
X17024887Y-15216530D02*
X17043934Y-15187959D01*
X17043934Y-15187959D02*
X17053458Y-15168911D01*
X17053458Y-15168911D02*
X17062982Y-15140340D01*
X17062982Y-15140340D02*
X17072506Y-15092721D01*
X17072506Y-15092721D02*
X17072506Y-15054626D01*
X17072506Y-15054626D02*
X17062982Y-15007007D01*
X17062982Y-15007007D02*
X17053458Y-14978435D01*
X17053458Y-14978435D02*
X17043934Y-14959388D01*
X17043934Y-14959388D02*
X17024887Y-14930816D01*
X17024887Y-14930816D02*
X17015363Y-14921292D01*
X17377268Y-15226054D02*
X17367744Y-15216530D01*
X17367744Y-15216530D02*
X17348696Y-15187959D01*
X17348696Y-15187959D02*
X17339173Y-15168911D01*
X17339173Y-15168911D02*
X17329649Y-15140340D01*
X17329649Y-15140340D02*
X17320125Y-15092721D01*
X17320125Y-15092721D02*
X17320125Y-15054626D01*
X17320125Y-15054626D02*
X17329649Y-15007007D01*
X17329649Y-15007007D02*
X17339173Y-14978435D01*
X17339173Y-14978435D02*
X17348696Y-14959388D01*
X17348696Y-14959388D02*
X17367744Y-14930816D01*
X17367744Y-14930816D02*
X17377268Y-14921292D01*
X17453458Y-15016530D02*
X17453458Y-15149864D01*
X17453458Y-15035578D02*
X17462982Y-15026054D01*
X17462982Y-15026054D02*
X17482030Y-15016530D01*
X17482030Y-15016530D02*
X17510601Y-15016530D01*
X17510601Y-15016530D02*
X17529649Y-15026054D01*
X17529649Y-15026054D02*
X17539173Y-15045102D01*
X17539173Y-15045102D02*
X17539173Y-15149864D01*
X17662982Y-15149864D02*
X17643934Y-15140340D01*
X17643934Y-15140340D02*
X17634411Y-15130816D01*
X17634411Y-15130816D02*
X17624887Y-15111768D01*
X17624887Y-15111768D02*
X17624887Y-15054626D01*
X17624887Y-15054626D02*
X17634411Y-15035578D01*
X17634411Y-15035578D02*
X17643934Y-15026054D01*
X17643934Y-15026054D02*
X17662982Y-15016530D01*
X17662982Y-15016530D02*
X17691554Y-15016530D01*
X17691554Y-15016530D02*
X17710601Y-15026054D01*
X17710601Y-15026054D02*
X17720125Y-15035578D01*
X17720125Y-15035578D02*
X17729649Y-15054626D01*
X17729649Y-15054626D02*
X17729649Y-15111768D01*
X17729649Y-15111768D02*
X17720125Y-15130816D01*
X17720125Y-15130816D02*
X17710601Y-15140340D01*
X17710601Y-15140340D02*
X17691554Y-15149864D01*
X17691554Y-15149864D02*
X17662982Y-15149864D01*
X17786792Y-15016530D02*
X17862982Y-15016530D01*
X17815363Y-14949864D02*
X17815363Y-15121292D01*
X17815363Y-15121292D02*
X17824887Y-15140340D01*
X17824887Y-15140340D02*
X17843934Y-15149864D01*
X17843934Y-15149864D02*
X17862982Y-15149864D01*
X18082030Y-15016530D02*
X18082030Y-15216530D01*
X18082030Y-15026054D02*
X18101077Y-15016530D01*
X18101077Y-15016530D02*
X18139173Y-15016530D01*
X18139173Y-15016530D02*
X18158220Y-15026054D01*
X18158220Y-15026054D02*
X18167744Y-15035578D01*
X18167744Y-15035578D02*
X18177268Y-15054626D01*
X18177268Y-15054626D02*
X18177268Y-15111768D01*
X18177268Y-15111768D02*
X18167744Y-15130816D01*
X18167744Y-15130816D02*
X18158220Y-15140340D01*
X18158220Y-15140340D02*
X18139173Y-15149864D01*
X18139173Y-15149864D02*
X18101077Y-15149864D01*
X18101077Y-15149864D02*
X18082030Y-15140340D01*
X18291554Y-15149864D02*
X18272506Y-15140340D01*
X18272506Y-15140340D02*
X18262982Y-15121292D01*
X18262982Y-15121292D02*
X18262982Y-14949864D01*
X18453458Y-15149864D02*
X18453458Y-15045102D01*
X18453458Y-15045102D02*
X18443935Y-15026054D01*
X18443935Y-15026054D02*
X18424887Y-15016530D01*
X18424887Y-15016530D02*
X18386792Y-15016530D01*
X18386792Y-15016530D02*
X18367744Y-15026054D01*
X18453458Y-15140340D02*
X18434411Y-15149864D01*
X18434411Y-15149864D02*
X18386792Y-15149864D01*
X18386792Y-15149864D02*
X18367744Y-15140340D01*
X18367744Y-15140340D02*
X18358220Y-15121292D01*
X18358220Y-15121292D02*
X18358220Y-15102245D01*
X18358220Y-15102245D02*
X18367744Y-15083197D01*
X18367744Y-15083197D02*
X18386792Y-15073673D01*
X18386792Y-15073673D02*
X18434411Y-15073673D01*
X18434411Y-15073673D02*
X18453458Y-15064149D01*
X18520125Y-15016530D02*
X18596315Y-15016530D01*
X18548696Y-14949864D02*
X18548696Y-15121292D01*
X18548696Y-15121292D02*
X18558220Y-15140340D01*
X18558220Y-15140340D02*
X18577268Y-15149864D01*
X18577268Y-15149864D02*
X18596315Y-15149864D01*
X18739173Y-15140340D02*
X18720125Y-15149864D01*
X18720125Y-15149864D02*
X18682030Y-15149864D01*
X18682030Y-15149864D02*
X18662982Y-15140340D01*
X18662982Y-15140340D02*
X18653458Y-15121292D01*
X18653458Y-15121292D02*
X18653458Y-15045102D01*
X18653458Y-15045102D02*
X18662982Y-15026054D01*
X18662982Y-15026054D02*
X18682030Y-15016530D01*
X18682030Y-15016530D02*
X18720125Y-15016530D01*
X18720125Y-15016530D02*
X18739173Y-15026054D01*
X18739173Y-15026054D02*
X18748696Y-15045102D01*
X18748696Y-15045102D02*
X18748696Y-15064149D01*
X18748696Y-15064149D02*
X18653458Y-15083197D01*
X18920125Y-15149864D02*
X18920125Y-14949864D01*
X18920125Y-15140340D02*
X18901077Y-15149864D01*
X18901077Y-15149864D02*
X18862982Y-15149864D01*
X18862982Y-15149864D02*
X18843935Y-15140340D01*
X18843935Y-15140340D02*
X18834411Y-15130816D01*
X18834411Y-15130816D02*
X18824887Y-15111768D01*
X18824887Y-15111768D02*
X18824887Y-15054626D01*
X18824887Y-15054626D02*
X18834411Y-15035578D01*
X18834411Y-15035578D02*
X18843935Y-15026054D01*
X18843935Y-15026054D02*
X18862982Y-15016530D01*
X18862982Y-15016530D02*
X18901077Y-15016530D01*
X18901077Y-15016530D02*
X18920125Y-15026054D01*
X18996316Y-15226054D02*
X19005839Y-15216530D01*
X19005839Y-15216530D02*
X19024887Y-15187959D01*
X19024887Y-15187959D02*
X19034411Y-15168911D01*
X19034411Y-15168911D02*
X19043935Y-15140340D01*
X19043935Y-15140340D02*
X19053458Y-15092721D01*
X19053458Y-15092721D02*
X19053458Y-15054626D01*
X19053458Y-15054626D02*
X19043935Y-15007007D01*
X19043935Y-15007007D02*
X19034411Y-14978435D01*
X19034411Y-14978435D02*
X19024887Y-14959388D01*
X19024887Y-14959388D02*
X19005839Y-14930816D01*
X19005839Y-14930816D02*
X18996316Y-14921292D01*
X12211011Y-15449091D02*
X12211011Y-15307669D01*
X12069589Y-15307669D01*
X12069589Y-15449091D01*
X12211011Y-15449091D01*
X12482029Y-15269864D02*
X12605839Y-15269864D01*
X12605839Y-15269864D02*
X12539172Y-15346054D01*
X12539172Y-15346054D02*
X12567743Y-15346054D01*
X12567743Y-15346054D02*
X12586791Y-15355578D01*
X12586791Y-15355578D02*
X12596315Y-15365102D01*
X12596315Y-15365102D02*
X12605839Y-15384149D01*
X12605839Y-15384149D02*
X12605839Y-15431768D01*
X12605839Y-15431768D02*
X12596315Y-15450816D01*
X12596315Y-15450816D02*
X12586791Y-15460340D01*
X12586791Y-15460340D02*
X12567743Y-15469864D01*
X12567743Y-15469864D02*
X12510601Y-15469864D01*
X12510601Y-15469864D02*
X12491553Y-15460340D01*
X12491553Y-15460340D02*
X12482029Y-15450816D01*
X12691553Y-15450816D02*
X12701077Y-15460340D01*
X12701077Y-15460340D02*
X12691553Y-15469864D01*
X12691553Y-15469864D02*
X12682029Y-15460340D01*
X12682029Y-15460340D02*
X12691553Y-15450816D01*
X12691553Y-15450816D02*
X12691553Y-15469864D01*
X12824886Y-15269864D02*
X12843934Y-15269864D01*
X12843934Y-15269864D02*
X12862982Y-15279388D01*
X12862982Y-15279388D02*
X12872505Y-15288911D01*
X12872505Y-15288911D02*
X12882029Y-15307959D01*
X12882029Y-15307959D02*
X12891553Y-15346054D01*
X12891553Y-15346054D02*
X12891553Y-15393673D01*
X12891553Y-15393673D02*
X12882029Y-15431768D01*
X12882029Y-15431768D02*
X12872505Y-15450816D01*
X12872505Y-15450816D02*
X12862982Y-15460340D01*
X12862982Y-15460340D02*
X12843934Y-15469864D01*
X12843934Y-15469864D02*
X12824886Y-15469864D01*
X12824886Y-15469864D02*
X12805839Y-15460340D01*
X12805839Y-15460340D02*
X12796315Y-15450816D01*
X12796315Y-15450816D02*
X12786791Y-15431768D01*
X12786791Y-15431768D02*
X12777267Y-15393673D01*
X12777267Y-15393673D02*
X12777267Y-15346054D01*
X12777267Y-15346054D02*
X12786791Y-15307959D01*
X12786791Y-15307959D02*
X12796315Y-15288911D01*
X12796315Y-15288911D02*
X12805839Y-15279388D01*
X12805839Y-15279388D02*
X12824886Y-15269864D01*
X13015362Y-15269864D02*
X13034410Y-15269864D01*
X13034410Y-15269864D02*
X13053458Y-15279388D01*
X13053458Y-15279388D02*
X13062982Y-15288911D01*
X13062982Y-15288911D02*
X13072505Y-15307959D01*
X13072505Y-15307959D02*
X13082029Y-15346054D01*
X13082029Y-15346054D02*
X13082029Y-15393673D01*
X13082029Y-15393673D02*
X13072505Y-15431768D01*
X13072505Y-15431768D02*
X13062982Y-15450816D01*
X13062982Y-15450816D02*
X13053458Y-15460340D01*
X13053458Y-15460340D02*
X13034410Y-15469864D01*
X13034410Y-15469864D02*
X13015362Y-15469864D01*
X13015362Y-15469864D02*
X12996315Y-15460340D01*
X12996315Y-15460340D02*
X12986791Y-15450816D01*
X12986791Y-15450816D02*
X12977267Y-15431768D01*
X12977267Y-15431768D02*
X12967743Y-15393673D01*
X12967743Y-15393673D02*
X12967743Y-15346054D01*
X12967743Y-15346054D02*
X12977267Y-15307959D01*
X12977267Y-15307959D02*
X12986791Y-15288911D01*
X12986791Y-15288911D02*
X12996315Y-15279388D01*
X12996315Y-15279388D02*
X13015362Y-15269864D01*
X13205839Y-15269864D02*
X13224886Y-15269864D01*
X13224886Y-15269864D02*
X13243934Y-15279388D01*
X13243934Y-15279388D02*
X13253458Y-15288911D01*
X13253458Y-15288911D02*
X13262982Y-15307959D01*
X13262982Y-15307959D02*
X13272505Y-15346054D01*
X13272505Y-15346054D02*
X13272505Y-15393673D01*
X13272505Y-15393673D02*
X13262982Y-15431768D01*
X13262982Y-15431768D02*
X13253458Y-15450816D01*
X13253458Y-15450816D02*
X13243934Y-15460340D01*
X13243934Y-15460340D02*
X13224886Y-15469864D01*
X13224886Y-15469864D02*
X13205839Y-15469864D01*
X13205839Y-15469864D02*
X13186791Y-15460340D01*
X13186791Y-15460340D02*
X13177267Y-15450816D01*
X13177267Y-15450816D02*
X13167743Y-15431768D01*
X13167743Y-15431768D02*
X13158220Y-15393673D01*
X13158220Y-15393673D02*
X13158220Y-15346054D01*
X13158220Y-15346054D02*
X13167743Y-15307959D01*
X13167743Y-15307959D02*
X13177267Y-15288911D01*
X13177267Y-15288911D02*
X13186791Y-15279388D01*
X13186791Y-15279388D02*
X13205839Y-15269864D01*
X13358220Y-15469864D02*
X13358220Y-15336530D01*
X13358220Y-15355578D02*
X13367743Y-15346054D01*
X13367743Y-15346054D02*
X13386791Y-15336530D01*
X13386791Y-15336530D02*
X13415363Y-15336530D01*
X13415363Y-15336530D02*
X13434410Y-15346054D01*
X13434410Y-15346054D02*
X13443934Y-15365102D01*
X13443934Y-15365102D02*
X13443934Y-15469864D01*
X13443934Y-15365102D02*
X13453458Y-15346054D01*
X13453458Y-15346054D02*
X13472505Y-15336530D01*
X13472505Y-15336530D02*
X13501077Y-15336530D01*
X13501077Y-15336530D02*
X13520124Y-15346054D01*
X13520124Y-15346054D02*
X13529648Y-15365102D01*
X13529648Y-15365102D02*
X13529648Y-15469864D01*
X13624886Y-15469864D02*
X13624886Y-15336530D01*
X13624886Y-15355578D02*
X13634410Y-15346054D01*
X13634410Y-15346054D02*
X13653458Y-15336530D01*
X13653458Y-15336530D02*
X13682029Y-15336530D01*
X13682029Y-15336530D02*
X13701077Y-15346054D01*
X13701077Y-15346054D02*
X13710601Y-15365102D01*
X13710601Y-15365102D02*
X13710601Y-15469864D01*
X13710601Y-15365102D02*
X13720124Y-15346054D01*
X13720124Y-15346054D02*
X13739172Y-15336530D01*
X13739172Y-15336530D02*
X13767743Y-15336530D01*
X13767743Y-15336530D02*
X13786791Y-15346054D01*
X13786791Y-15346054D02*
X13796315Y-15365102D01*
X13796315Y-15365102D02*
X13796315Y-15469864D01*
X14186791Y-15260340D02*
X14015363Y-15517483D01*
X14443934Y-15269864D02*
X14462982Y-15269864D01*
X14462982Y-15269864D02*
X14482029Y-15279388D01*
X14482029Y-15279388D02*
X14491553Y-15288911D01*
X14491553Y-15288911D02*
X14501077Y-15307959D01*
X14501077Y-15307959D02*
X14510601Y-15346054D01*
X14510601Y-15346054D02*
X14510601Y-15393673D01*
X14510601Y-15393673D02*
X14501077Y-15431768D01*
X14501077Y-15431768D02*
X14491553Y-15450816D01*
X14491553Y-15450816D02*
X14482029Y-15460340D01*
X14482029Y-15460340D02*
X14462982Y-15469864D01*
X14462982Y-15469864D02*
X14443934Y-15469864D01*
X14443934Y-15469864D02*
X14424886Y-15460340D01*
X14424886Y-15460340D02*
X14415363Y-15450816D01*
X14415363Y-15450816D02*
X14405839Y-15431768D01*
X14405839Y-15431768D02*
X14396315Y-15393673D01*
X14396315Y-15393673D02*
X14396315Y-15346054D01*
X14396315Y-15346054D02*
X14405839Y-15307959D01*
X14405839Y-15307959D02*
X14415363Y-15288911D01*
X14415363Y-15288911D02*
X14424886Y-15279388D01*
X14424886Y-15279388D02*
X14443934Y-15269864D01*
X14596315Y-15450816D02*
X14605839Y-15460340D01*
X14605839Y-15460340D02*
X14596315Y-15469864D01*
X14596315Y-15469864D02*
X14586791Y-15460340D01*
X14586791Y-15460340D02*
X14596315Y-15450816D01*
X14596315Y-15450816D02*
X14596315Y-15469864D01*
X14796315Y-15469864D02*
X14682029Y-15469864D01*
X14739172Y-15469864D02*
X14739172Y-15269864D01*
X14739172Y-15269864D02*
X14720125Y-15298435D01*
X14720125Y-15298435D02*
X14701077Y-15317483D01*
X14701077Y-15317483D02*
X14682029Y-15327007D01*
X14986791Y-15469864D02*
X14872506Y-15469864D01*
X14929648Y-15469864D02*
X14929648Y-15269864D01*
X14929648Y-15269864D02*
X14910601Y-15298435D01*
X14910601Y-15298435D02*
X14891553Y-15317483D01*
X14891553Y-15317483D02*
X14872506Y-15327007D01*
X15101077Y-15355578D02*
X15082029Y-15346054D01*
X15082029Y-15346054D02*
X15072506Y-15336530D01*
X15072506Y-15336530D02*
X15062982Y-15317483D01*
X15062982Y-15317483D02*
X15062982Y-15307959D01*
X15062982Y-15307959D02*
X15072506Y-15288911D01*
X15072506Y-15288911D02*
X15082029Y-15279388D01*
X15082029Y-15279388D02*
X15101077Y-15269864D01*
X15101077Y-15269864D02*
X15139172Y-15269864D01*
X15139172Y-15269864D02*
X15158220Y-15279388D01*
X15158220Y-15279388D02*
X15167744Y-15288911D01*
X15167744Y-15288911D02*
X15177267Y-15307959D01*
X15177267Y-15307959D02*
X15177267Y-15317483D01*
X15177267Y-15317483D02*
X15167744Y-15336530D01*
X15167744Y-15336530D02*
X15158220Y-15346054D01*
X15158220Y-15346054D02*
X15139172Y-15355578D01*
X15139172Y-15355578D02*
X15101077Y-15355578D01*
X15101077Y-15355578D02*
X15082029Y-15365102D01*
X15082029Y-15365102D02*
X15072506Y-15374626D01*
X15072506Y-15374626D02*
X15062982Y-15393673D01*
X15062982Y-15393673D02*
X15062982Y-15431768D01*
X15062982Y-15431768D02*
X15072506Y-15450816D01*
X15072506Y-15450816D02*
X15082029Y-15460340D01*
X15082029Y-15460340D02*
X15101077Y-15469864D01*
X15101077Y-15469864D02*
X15139172Y-15469864D01*
X15139172Y-15469864D02*
X15158220Y-15460340D01*
X15158220Y-15460340D02*
X15167744Y-15450816D01*
X15167744Y-15450816D02*
X15177267Y-15431768D01*
X15177267Y-15431768D02*
X15177267Y-15393673D01*
X15177267Y-15393673D02*
X15167744Y-15374626D01*
X15167744Y-15374626D02*
X15158220Y-15365102D01*
X15158220Y-15365102D02*
X15139172Y-15355578D01*
X15367744Y-15469864D02*
X15253458Y-15469864D01*
X15310601Y-15469864D02*
X15310601Y-15269864D01*
X15310601Y-15269864D02*
X15291553Y-15298435D01*
X15291553Y-15298435D02*
X15272506Y-15317483D01*
X15272506Y-15317483D02*
X15253458Y-15327007D01*
X15443934Y-15269864D02*
X15443934Y-15307959D01*
X15520125Y-15269864D02*
X15520125Y-15307959D01*
X15815363Y-15546054D02*
X15805839Y-15536530D01*
X15805839Y-15536530D02*
X15786791Y-15507959D01*
X15786791Y-15507959D02*
X15777268Y-15488911D01*
X15777268Y-15488911D02*
X15767744Y-15460340D01*
X15767744Y-15460340D02*
X15758220Y-15412721D01*
X15758220Y-15412721D02*
X15758220Y-15374626D01*
X15758220Y-15374626D02*
X15767744Y-15327007D01*
X15767744Y-15327007D02*
X15777268Y-15298435D01*
X15777268Y-15298435D02*
X15786791Y-15279388D01*
X15786791Y-15279388D02*
X15805839Y-15250816D01*
X15805839Y-15250816D02*
X15815363Y-15241292D01*
X15996315Y-15469864D02*
X15882029Y-15469864D01*
X15939172Y-15469864D02*
X15939172Y-15269864D01*
X15939172Y-15269864D02*
X15920125Y-15298435D01*
X15920125Y-15298435D02*
X15901077Y-15317483D01*
X15901077Y-15317483D02*
X15882029Y-15327007D01*
X16072506Y-15288911D02*
X16082029Y-15279388D01*
X16082029Y-15279388D02*
X16101077Y-15269864D01*
X16101077Y-15269864D02*
X16148696Y-15269864D01*
X16148696Y-15269864D02*
X16167744Y-15279388D01*
X16167744Y-15279388D02*
X16177268Y-15288911D01*
X16177268Y-15288911D02*
X16186791Y-15307959D01*
X16186791Y-15307959D02*
X16186791Y-15327007D01*
X16186791Y-15327007D02*
X16177268Y-15355578D01*
X16177268Y-15355578D02*
X16062982Y-15469864D01*
X16062982Y-15469864D02*
X16186791Y-15469864D01*
X16424887Y-15469864D02*
X16424887Y-15269864D01*
X16510601Y-15469864D02*
X16510601Y-15365102D01*
X16510601Y-15365102D02*
X16501077Y-15346054D01*
X16501077Y-15346054D02*
X16482030Y-15336530D01*
X16482030Y-15336530D02*
X16453458Y-15336530D01*
X16453458Y-15336530D02*
X16434410Y-15346054D01*
X16434410Y-15346054D02*
X16424887Y-15355578D01*
X16634410Y-15469864D02*
X16615363Y-15460340D01*
X16615363Y-15460340D02*
X16605839Y-15450816D01*
X16605839Y-15450816D02*
X16596315Y-15431768D01*
X16596315Y-15431768D02*
X16596315Y-15374626D01*
X16596315Y-15374626D02*
X16605839Y-15355578D01*
X16605839Y-15355578D02*
X16615363Y-15346054D01*
X16615363Y-15346054D02*
X16634410Y-15336530D01*
X16634410Y-15336530D02*
X16662982Y-15336530D01*
X16662982Y-15336530D02*
X16682030Y-15346054D01*
X16682030Y-15346054D02*
X16691553Y-15355578D01*
X16691553Y-15355578D02*
X16701077Y-15374626D01*
X16701077Y-15374626D02*
X16701077Y-15431768D01*
X16701077Y-15431768D02*
X16691553Y-15450816D01*
X16691553Y-15450816D02*
X16682030Y-15460340D01*
X16682030Y-15460340D02*
X16662982Y-15469864D01*
X16662982Y-15469864D02*
X16634410Y-15469864D01*
X16815363Y-15469864D02*
X16796315Y-15460340D01*
X16796315Y-15460340D02*
X16786792Y-15441292D01*
X16786792Y-15441292D02*
X16786792Y-15269864D01*
X16967744Y-15460340D02*
X16948696Y-15469864D01*
X16948696Y-15469864D02*
X16910601Y-15469864D01*
X16910601Y-15469864D02*
X16891553Y-15460340D01*
X16891553Y-15460340D02*
X16882030Y-15441292D01*
X16882030Y-15441292D02*
X16882030Y-15365102D01*
X16882030Y-15365102D02*
X16891553Y-15346054D01*
X16891553Y-15346054D02*
X16910601Y-15336530D01*
X16910601Y-15336530D02*
X16948696Y-15336530D01*
X16948696Y-15336530D02*
X16967744Y-15346054D01*
X16967744Y-15346054D02*
X16977268Y-15365102D01*
X16977268Y-15365102D02*
X16977268Y-15384149D01*
X16977268Y-15384149D02*
X16882030Y-15403197D01*
X17053458Y-15460340D02*
X17072506Y-15469864D01*
X17072506Y-15469864D02*
X17110601Y-15469864D01*
X17110601Y-15469864D02*
X17129649Y-15460340D01*
X17129649Y-15460340D02*
X17139173Y-15441292D01*
X17139173Y-15441292D02*
X17139173Y-15431768D01*
X17139173Y-15431768D02*
X17129649Y-15412721D01*
X17129649Y-15412721D02*
X17110601Y-15403197D01*
X17110601Y-15403197D02*
X17082030Y-15403197D01*
X17082030Y-15403197D02*
X17062982Y-15393673D01*
X17062982Y-15393673D02*
X17053458Y-15374626D01*
X17053458Y-15374626D02*
X17053458Y-15365102D01*
X17053458Y-15365102D02*
X17062982Y-15346054D01*
X17062982Y-15346054D02*
X17082030Y-15336530D01*
X17082030Y-15336530D02*
X17110601Y-15336530D01*
X17110601Y-15336530D02*
X17129649Y-15346054D01*
X17205839Y-15546054D02*
X17215363Y-15536530D01*
X17215363Y-15536530D02*
X17234411Y-15507959D01*
X17234411Y-15507959D02*
X17243934Y-15488911D01*
X17243934Y-15488911D02*
X17253458Y-15460340D01*
X17253458Y-15460340D02*
X17262982Y-15412721D01*
X17262982Y-15412721D02*
X17262982Y-15374626D01*
X17262982Y-15374626D02*
X17253458Y-15327007D01*
X17253458Y-15327007D02*
X17243934Y-15298435D01*
X17243934Y-15298435D02*
X17234411Y-15279388D01*
X17234411Y-15279388D02*
X17215363Y-15250816D01*
X17215363Y-15250816D02*
X17205839Y-15241292D01*
X17567744Y-15546054D02*
X17558220Y-15536530D01*
X17558220Y-15536530D02*
X17539173Y-15507959D01*
X17539173Y-15507959D02*
X17529649Y-15488911D01*
X17529649Y-15488911D02*
X17520125Y-15460340D01*
X17520125Y-15460340D02*
X17510601Y-15412721D01*
X17510601Y-15412721D02*
X17510601Y-15374626D01*
X17510601Y-15374626D02*
X17520125Y-15327007D01*
X17520125Y-15327007D02*
X17529649Y-15298435D01*
X17529649Y-15298435D02*
X17539173Y-15279388D01*
X17539173Y-15279388D02*
X17558220Y-15250816D01*
X17558220Y-15250816D02*
X17567744Y-15241292D01*
X17643934Y-15336530D02*
X17643934Y-15469864D01*
X17643934Y-15355578D02*
X17653458Y-15346054D01*
X17653458Y-15346054D02*
X17672506Y-15336530D01*
X17672506Y-15336530D02*
X17701077Y-15336530D01*
X17701077Y-15336530D02*
X17720125Y-15346054D01*
X17720125Y-15346054D02*
X17729649Y-15365102D01*
X17729649Y-15365102D02*
X17729649Y-15469864D01*
X17853458Y-15469864D02*
X17834411Y-15460340D01*
X17834411Y-15460340D02*
X17824887Y-15450816D01*
X17824887Y-15450816D02*
X17815363Y-15431768D01*
X17815363Y-15431768D02*
X17815363Y-15374626D01*
X17815363Y-15374626D02*
X17824887Y-15355578D01*
X17824887Y-15355578D02*
X17834411Y-15346054D01*
X17834411Y-15346054D02*
X17853458Y-15336530D01*
X17853458Y-15336530D02*
X17882030Y-15336530D01*
X17882030Y-15336530D02*
X17901077Y-15346054D01*
X17901077Y-15346054D02*
X17910601Y-15355578D01*
X17910601Y-15355578D02*
X17920125Y-15374626D01*
X17920125Y-15374626D02*
X17920125Y-15431768D01*
X17920125Y-15431768D02*
X17910601Y-15450816D01*
X17910601Y-15450816D02*
X17901077Y-15460340D01*
X17901077Y-15460340D02*
X17882030Y-15469864D01*
X17882030Y-15469864D02*
X17853458Y-15469864D01*
X17977268Y-15336530D02*
X18053458Y-15336530D01*
X18005839Y-15269864D02*
X18005839Y-15441292D01*
X18005839Y-15441292D02*
X18015363Y-15460340D01*
X18015363Y-15460340D02*
X18034411Y-15469864D01*
X18034411Y-15469864D02*
X18053458Y-15469864D01*
X18272506Y-15336530D02*
X18272506Y-15536530D01*
X18272506Y-15346054D02*
X18291554Y-15336530D01*
X18291554Y-15336530D02*
X18329649Y-15336530D01*
X18329649Y-15336530D02*
X18348696Y-15346054D01*
X18348696Y-15346054D02*
X18358220Y-15355578D01*
X18358220Y-15355578D02*
X18367744Y-15374626D01*
X18367744Y-15374626D02*
X18367744Y-15431768D01*
X18367744Y-15431768D02*
X18358220Y-15450816D01*
X18358220Y-15450816D02*
X18348696Y-15460340D01*
X18348696Y-15460340D02*
X18329649Y-15469864D01*
X18329649Y-15469864D02*
X18291554Y-15469864D01*
X18291554Y-15469864D02*
X18272506Y-15460340D01*
X18482030Y-15469864D02*
X18462982Y-15460340D01*
X18462982Y-15460340D02*
X18453458Y-15441292D01*
X18453458Y-15441292D02*
X18453458Y-15269864D01*
X18643935Y-15469864D02*
X18643935Y-15365102D01*
X18643935Y-15365102D02*
X18634411Y-15346054D01*
X18634411Y-15346054D02*
X18615363Y-15336530D01*
X18615363Y-15336530D02*
X18577268Y-15336530D01*
X18577268Y-15336530D02*
X18558220Y-15346054D01*
X18643935Y-15460340D02*
X18624887Y-15469864D01*
X18624887Y-15469864D02*
X18577268Y-15469864D01*
X18577268Y-15469864D02*
X18558220Y-15460340D01*
X18558220Y-15460340D02*
X18548696Y-15441292D01*
X18548696Y-15441292D02*
X18548696Y-15422245D01*
X18548696Y-15422245D02*
X18558220Y-15403197D01*
X18558220Y-15403197D02*
X18577268Y-15393673D01*
X18577268Y-15393673D02*
X18624887Y-15393673D01*
X18624887Y-15393673D02*
X18643935Y-15384149D01*
X18710601Y-15336530D02*
X18786792Y-15336530D01*
X18739173Y-15269864D02*
X18739173Y-15441292D01*
X18739173Y-15441292D02*
X18748696Y-15460340D01*
X18748696Y-15460340D02*
X18767744Y-15469864D01*
X18767744Y-15469864D02*
X18786792Y-15469864D01*
X18929649Y-15460340D02*
X18910601Y-15469864D01*
X18910601Y-15469864D02*
X18872506Y-15469864D01*
X18872506Y-15469864D02*
X18853458Y-15460340D01*
X18853458Y-15460340D02*
X18843935Y-15441292D01*
X18843935Y-15441292D02*
X18843935Y-15365102D01*
X18843935Y-15365102D02*
X18853458Y-15346054D01*
X18853458Y-15346054D02*
X18872506Y-15336530D01*
X18872506Y-15336530D02*
X18910601Y-15336530D01*
X18910601Y-15336530D02*
X18929649Y-15346054D01*
X18929649Y-15346054D02*
X18939173Y-15365102D01*
X18939173Y-15365102D02*
X18939173Y-15384149D01*
X18939173Y-15384149D02*
X18843935Y-15403197D01*
X19110601Y-15469864D02*
X19110601Y-15269864D01*
X19110601Y-15460340D02*
X19091554Y-15469864D01*
X19091554Y-15469864D02*
X19053458Y-15469864D01*
X19053458Y-15469864D02*
X19034411Y-15460340D01*
X19034411Y-15460340D02*
X19024887Y-15450816D01*
X19024887Y-15450816D02*
X19015363Y-15431768D01*
X19015363Y-15431768D02*
X19015363Y-15374626D01*
X19015363Y-15374626D02*
X19024887Y-15355578D01*
X19024887Y-15355578D02*
X19034411Y-15346054D01*
X19034411Y-15346054D02*
X19053458Y-15336530D01*
X19053458Y-15336530D02*
X19091554Y-15336530D01*
X19091554Y-15336530D02*
X19110601Y-15346054D01*
X19186792Y-15546054D02*
X19196316Y-15536530D01*
X19196316Y-15536530D02*
X19215363Y-15507959D01*
X19215363Y-15507959D02*
X19224887Y-15488911D01*
X19224887Y-15488911D02*
X19234411Y-15460340D01*
X19234411Y-15460340D02*
X19243935Y-15412721D01*
X19243935Y-15412721D02*
X19243935Y-15374626D01*
X19243935Y-15374626D02*
X19234411Y-15327007D01*
X19234411Y-15327007D02*
X19224887Y-15298435D01*
X19224887Y-15298435D02*
X19215363Y-15279388D01*
X19215363Y-15279388D02*
X19196316Y-15250816D01*
X19196316Y-15250816D02*
X19186792Y-15241292D01*
X12140300Y-15798380D02*
X12240300Y-15698380D01*
X12140300Y-15598380D01*
X12040300Y-15698380D01*
X12140300Y-15798380D01*
X12482029Y-15589864D02*
X12605839Y-15589864D01*
X12605839Y-15589864D02*
X12539172Y-15666054D01*
X12539172Y-15666054D02*
X12567743Y-15666054D01*
X12567743Y-15666054D02*
X12586791Y-15675578D01*
X12586791Y-15675578D02*
X12596315Y-15685102D01*
X12596315Y-15685102D02*
X12605839Y-15704149D01*
X12605839Y-15704149D02*
X12605839Y-15751768D01*
X12605839Y-15751768D02*
X12596315Y-15770816D01*
X12596315Y-15770816D02*
X12586791Y-15780340D01*
X12586791Y-15780340D02*
X12567743Y-15789864D01*
X12567743Y-15789864D02*
X12510601Y-15789864D01*
X12510601Y-15789864D02*
X12491553Y-15780340D01*
X12491553Y-15780340D02*
X12482029Y-15770816D01*
X12691553Y-15770816D02*
X12701077Y-15780340D01*
X12701077Y-15780340D02*
X12691553Y-15789864D01*
X12691553Y-15789864D02*
X12682029Y-15780340D01*
X12682029Y-15780340D02*
X12691553Y-15770816D01*
X12691553Y-15770816D02*
X12691553Y-15789864D01*
X12796315Y-15789864D02*
X12834410Y-15789864D01*
X12834410Y-15789864D02*
X12853458Y-15780340D01*
X12853458Y-15780340D02*
X12862982Y-15770816D01*
X12862982Y-15770816D02*
X12882029Y-15742245D01*
X12882029Y-15742245D02*
X12891553Y-15704149D01*
X12891553Y-15704149D02*
X12891553Y-15627959D01*
X12891553Y-15627959D02*
X12882029Y-15608911D01*
X12882029Y-15608911D02*
X12872505Y-15599388D01*
X12872505Y-15599388D02*
X12853458Y-15589864D01*
X12853458Y-15589864D02*
X12815362Y-15589864D01*
X12815362Y-15589864D02*
X12796315Y-15599388D01*
X12796315Y-15599388D02*
X12786791Y-15608911D01*
X12786791Y-15608911D02*
X12777267Y-15627959D01*
X12777267Y-15627959D02*
X12777267Y-15675578D01*
X12777267Y-15675578D02*
X12786791Y-15694626D01*
X12786791Y-15694626D02*
X12796315Y-15704149D01*
X12796315Y-15704149D02*
X12815362Y-15713673D01*
X12815362Y-15713673D02*
X12853458Y-15713673D01*
X12853458Y-15713673D02*
X12872505Y-15704149D01*
X12872505Y-15704149D02*
X12882029Y-15694626D01*
X12882029Y-15694626D02*
X12891553Y-15675578D01*
X13005839Y-15675578D02*
X12986791Y-15666054D01*
X12986791Y-15666054D02*
X12977267Y-15656530D01*
X12977267Y-15656530D02*
X12967743Y-15637483D01*
X12967743Y-15637483D02*
X12967743Y-15627959D01*
X12967743Y-15627959D02*
X12977267Y-15608911D01*
X12977267Y-15608911D02*
X12986791Y-15599388D01*
X12986791Y-15599388D02*
X13005839Y-15589864D01*
X13005839Y-15589864D02*
X13043934Y-15589864D01*
X13043934Y-15589864D02*
X13062982Y-15599388D01*
X13062982Y-15599388D02*
X13072505Y-15608911D01*
X13072505Y-15608911D02*
X13082029Y-15627959D01*
X13082029Y-15627959D02*
X13082029Y-15637483D01*
X13082029Y-15637483D02*
X13072505Y-15656530D01*
X13072505Y-15656530D02*
X13062982Y-15666054D01*
X13062982Y-15666054D02*
X13043934Y-15675578D01*
X13043934Y-15675578D02*
X13005839Y-15675578D01*
X13005839Y-15675578D02*
X12986791Y-15685102D01*
X12986791Y-15685102D02*
X12977267Y-15694626D01*
X12977267Y-15694626D02*
X12967743Y-15713673D01*
X12967743Y-15713673D02*
X12967743Y-15751768D01*
X12967743Y-15751768D02*
X12977267Y-15770816D01*
X12977267Y-15770816D02*
X12986791Y-15780340D01*
X12986791Y-15780340D02*
X13005839Y-15789864D01*
X13005839Y-15789864D02*
X13043934Y-15789864D01*
X13043934Y-15789864D02*
X13062982Y-15780340D01*
X13062982Y-15780340D02*
X13072505Y-15770816D01*
X13072505Y-15770816D02*
X13082029Y-15751768D01*
X13082029Y-15751768D02*
X13082029Y-15713673D01*
X13082029Y-15713673D02*
X13072505Y-15694626D01*
X13072505Y-15694626D02*
X13062982Y-15685102D01*
X13062982Y-15685102D02*
X13043934Y-15675578D01*
X13196315Y-15675578D02*
X13177267Y-15666054D01*
X13177267Y-15666054D02*
X13167743Y-15656530D01*
X13167743Y-15656530D02*
X13158220Y-15637483D01*
X13158220Y-15637483D02*
X13158220Y-15627959D01*
X13158220Y-15627959D02*
X13167743Y-15608911D01*
X13167743Y-15608911D02*
X13177267Y-15599388D01*
X13177267Y-15599388D02*
X13196315Y-15589864D01*
X13196315Y-15589864D02*
X13234410Y-15589864D01*
X13234410Y-15589864D02*
X13253458Y-15599388D01*
X13253458Y-15599388D02*
X13262982Y-15608911D01*
X13262982Y-15608911D02*
X13272505Y-15627959D01*
X13272505Y-15627959D02*
X13272505Y-15637483D01*
X13272505Y-15637483D02*
X13262982Y-15656530D01*
X13262982Y-15656530D02*
X13253458Y-15666054D01*
X13253458Y-15666054D02*
X13234410Y-15675578D01*
X13234410Y-15675578D02*
X13196315Y-15675578D01*
X13196315Y-15675578D02*
X13177267Y-15685102D01*
X13177267Y-15685102D02*
X13167743Y-15694626D01*
X13167743Y-15694626D02*
X13158220Y-15713673D01*
X13158220Y-15713673D02*
X13158220Y-15751768D01*
X13158220Y-15751768D02*
X13167743Y-15770816D01*
X13167743Y-15770816D02*
X13177267Y-15780340D01*
X13177267Y-15780340D02*
X13196315Y-15789864D01*
X13196315Y-15789864D02*
X13234410Y-15789864D01*
X13234410Y-15789864D02*
X13253458Y-15780340D01*
X13253458Y-15780340D02*
X13262982Y-15770816D01*
X13262982Y-15770816D02*
X13272505Y-15751768D01*
X13272505Y-15751768D02*
X13272505Y-15713673D01*
X13272505Y-15713673D02*
X13262982Y-15694626D01*
X13262982Y-15694626D02*
X13253458Y-15685102D01*
X13253458Y-15685102D02*
X13234410Y-15675578D01*
X13358220Y-15789864D02*
X13358220Y-15656530D01*
X13358220Y-15675578D02*
X13367743Y-15666054D01*
X13367743Y-15666054D02*
X13386791Y-15656530D01*
X13386791Y-15656530D02*
X13415363Y-15656530D01*
X13415363Y-15656530D02*
X13434410Y-15666054D01*
X13434410Y-15666054D02*
X13443934Y-15685102D01*
X13443934Y-15685102D02*
X13443934Y-15789864D01*
X13443934Y-15685102D02*
X13453458Y-15666054D01*
X13453458Y-15666054D02*
X13472505Y-15656530D01*
X13472505Y-15656530D02*
X13501077Y-15656530D01*
X13501077Y-15656530D02*
X13520124Y-15666054D01*
X13520124Y-15666054D02*
X13529648Y-15685102D01*
X13529648Y-15685102D02*
X13529648Y-15789864D01*
X13624886Y-15789864D02*
X13624886Y-15656530D01*
X13624886Y-15675578D02*
X13634410Y-15666054D01*
X13634410Y-15666054D02*
X13653458Y-15656530D01*
X13653458Y-15656530D02*
X13682029Y-15656530D01*
X13682029Y-15656530D02*
X13701077Y-15666054D01*
X13701077Y-15666054D02*
X13710601Y-15685102D01*
X13710601Y-15685102D02*
X13710601Y-15789864D01*
X13710601Y-15685102D02*
X13720124Y-15666054D01*
X13720124Y-15666054D02*
X13739172Y-15656530D01*
X13739172Y-15656530D02*
X13767743Y-15656530D01*
X13767743Y-15656530D02*
X13786791Y-15666054D01*
X13786791Y-15666054D02*
X13796315Y-15685102D01*
X13796315Y-15685102D02*
X13796315Y-15789864D01*
X14186791Y-15580340D02*
X14015363Y-15837483D01*
X14443934Y-15589864D02*
X14462982Y-15589864D01*
X14462982Y-15589864D02*
X14482029Y-15599388D01*
X14482029Y-15599388D02*
X14491553Y-15608911D01*
X14491553Y-15608911D02*
X14501077Y-15627959D01*
X14501077Y-15627959D02*
X14510601Y-15666054D01*
X14510601Y-15666054D02*
X14510601Y-15713673D01*
X14510601Y-15713673D02*
X14501077Y-15751768D01*
X14501077Y-15751768D02*
X14491553Y-15770816D01*
X14491553Y-15770816D02*
X14482029Y-15780340D01*
X14482029Y-15780340D02*
X14462982Y-15789864D01*
X14462982Y-15789864D02*
X14443934Y-15789864D01*
X14443934Y-15789864D02*
X14424886Y-15780340D01*
X14424886Y-15780340D02*
X14415363Y-15770816D01*
X14415363Y-15770816D02*
X14405839Y-15751768D01*
X14405839Y-15751768D02*
X14396315Y-15713673D01*
X14396315Y-15713673D02*
X14396315Y-15666054D01*
X14396315Y-15666054D02*
X14405839Y-15627959D01*
X14405839Y-15627959D02*
X14415363Y-15608911D01*
X14415363Y-15608911D02*
X14424886Y-15599388D01*
X14424886Y-15599388D02*
X14443934Y-15589864D01*
X14596315Y-15770816D02*
X14605839Y-15780340D01*
X14605839Y-15780340D02*
X14596315Y-15789864D01*
X14596315Y-15789864D02*
X14586791Y-15780340D01*
X14586791Y-15780340D02*
X14596315Y-15770816D01*
X14596315Y-15770816D02*
X14596315Y-15789864D01*
X14796315Y-15789864D02*
X14682029Y-15789864D01*
X14739172Y-15789864D02*
X14739172Y-15589864D01*
X14739172Y-15589864D02*
X14720125Y-15618435D01*
X14720125Y-15618435D02*
X14701077Y-15637483D01*
X14701077Y-15637483D02*
X14682029Y-15647007D01*
X14977267Y-15589864D02*
X14882029Y-15589864D01*
X14882029Y-15589864D02*
X14872506Y-15685102D01*
X14872506Y-15685102D02*
X14882029Y-15675578D01*
X14882029Y-15675578D02*
X14901077Y-15666054D01*
X14901077Y-15666054D02*
X14948696Y-15666054D01*
X14948696Y-15666054D02*
X14967744Y-15675578D01*
X14967744Y-15675578D02*
X14977267Y-15685102D01*
X14977267Y-15685102D02*
X14986791Y-15704149D01*
X14986791Y-15704149D02*
X14986791Y-15751768D01*
X14986791Y-15751768D02*
X14977267Y-15770816D01*
X14977267Y-15770816D02*
X14967744Y-15780340D01*
X14967744Y-15780340D02*
X14948696Y-15789864D01*
X14948696Y-15789864D02*
X14901077Y-15789864D01*
X14901077Y-15789864D02*
X14882029Y-15780340D01*
X14882029Y-15780340D02*
X14872506Y-15770816D01*
X15053458Y-15589864D02*
X15186791Y-15589864D01*
X15186791Y-15589864D02*
X15101077Y-15789864D01*
X15301077Y-15589864D02*
X15320125Y-15589864D01*
X15320125Y-15589864D02*
X15339172Y-15599388D01*
X15339172Y-15599388D02*
X15348696Y-15608911D01*
X15348696Y-15608911D02*
X15358220Y-15627959D01*
X15358220Y-15627959D02*
X15367744Y-15666054D01*
X15367744Y-15666054D02*
X15367744Y-15713673D01*
X15367744Y-15713673D02*
X15358220Y-15751768D01*
X15358220Y-15751768D02*
X15348696Y-15770816D01*
X15348696Y-15770816D02*
X15339172Y-15780340D01*
X15339172Y-15780340D02*
X15320125Y-15789864D01*
X15320125Y-15789864D02*
X15301077Y-15789864D01*
X15301077Y-15789864D02*
X15282029Y-15780340D01*
X15282029Y-15780340D02*
X15272506Y-15770816D01*
X15272506Y-15770816D02*
X15262982Y-15751768D01*
X15262982Y-15751768D02*
X15253458Y-15713673D01*
X15253458Y-15713673D02*
X15253458Y-15666054D01*
X15253458Y-15666054D02*
X15262982Y-15627959D01*
X15262982Y-15627959D02*
X15272506Y-15608911D01*
X15272506Y-15608911D02*
X15282029Y-15599388D01*
X15282029Y-15599388D02*
X15301077Y-15589864D01*
X15443934Y-15589864D02*
X15443934Y-15627959D01*
X15520125Y-15589864D02*
X15520125Y-15627959D01*
X15815363Y-15866054D02*
X15805839Y-15856530D01*
X15805839Y-15856530D02*
X15786791Y-15827959D01*
X15786791Y-15827959D02*
X15777268Y-15808911D01*
X15777268Y-15808911D02*
X15767744Y-15780340D01*
X15767744Y-15780340D02*
X15758220Y-15732721D01*
X15758220Y-15732721D02*
X15758220Y-15694626D01*
X15758220Y-15694626D02*
X15767744Y-15647007D01*
X15767744Y-15647007D02*
X15777268Y-15618435D01*
X15777268Y-15618435D02*
X15786791Y-15599388D01*
X15786791Y-15599388D02*
X15805839Y-15570816D01*
X15805839Y-15570816D02*
X15815363Y-15561292D01*
X15977268Y-15589864D02*
X15939172Y-15589864D01*
X15939172Y-15589864D02*
X15920125Y-15599388D01*
X15920125Y-15599388D02*
X15910601Y-15608911D01*
X15910601Y-15608911D02*
X15891553Y-15637483D01*
X15891553Y-15637483D02*
X15882029Y-15675578D01*
X15882029Y-15675578D02*
X15882029Y-15751768D01*
X15882029Y-15751768D02*
X15891553Y-15770816D01*
X15891553Y-15770816D02*
X15901077Y-15780340D01*
X15901077Y-15780340D02*
X15920125Y-15789864D01*
X15920125Y-15789864D02*
X15958220Y-15789864D01*
X15958220Y-15789864D02*
X15977268Y-15780340D01*
X15977268Y-15780340D02*
X15986791Y-15770816D01*
X15986791Y-15770816D02*
X15996315Y-15751768D01*
X15996315Y-15751768D02*
X15996315Y-15704149D01*
X15996315Y-15704149D02*
X15986791Y-15685102D01*
X15986791Y-15685102D02*
X15977268Y-15675578D01*
X15977268Y-15675578D02*
X15958220Y-15666054D01*
X15958220Y-15666054D02*
X15920125Y-15666054D01*
X15920125Y-15666054D02*
X15901077Y-15675578D01*
X15901077Y-15675578D02*
X15891553Y-15685102D01*
X15891553Y-15685102D02*
X15882029Y-15704149D01*
X16234410Y-15789864D02*
X16234410Y-15589864D01*
X16320125Y-15789864D02*
X16320125Y-15685102D01*
X16320125Y-15685102D02*
X16310601Y-15666054D01*
X16310601Y-15666054D02*
X16291553Y-15656530D01*
X16291553Y-15656530D02*
X16262982Y-15656530D01*
X16262982Y-15656530D02*
X16243934Y-15666054D01*
X16243934Y-15666054D02*
X16234410Y-15675578D01*
X16443934Y-15789864D02*
X16424887Y-15780340D01*
X16424887Y-15780340D02*
X16415363Y-15770816D01*
X16415363Y-15770816D02*
X16405839Y-15751768D01*
X16405839Y-15751768D02*
X16405839Y-15694626D01*
X16405839Y-15694626D02*
X16415363Y-15675578D01*
X16415363Y-15675578D02*
X16424887Y-15666054D01*
X16424887Y-15666054D02*
X16443934Y-15656530D01*
X16443934Y-15656530D02*
X16472506Y-15656530D01*
X16472506Y-15656530D02*
X16491553Y-15666054D01*
X16491553Y-15666054D02*
X16501077Y-15675578D01*
X16501077Y-15675578D02*
X16510601Y-15694626D01*
X16510601Y-15694626D02*
X16510601Y-15751768D01*
X16510601Y-15751768D02*
X16501077Y-15770816D01*
X16501077Y-15770816D02*
X16491553Y-15780340D01*
X16491553Y-15780340D02*
X16472506Y-15789864D01*
X16472506Y-15789864D02*
X16443934Y-15789864D01*
X16624887Y-15789864D02*
X16605839Y-15780340D01*
X16605839Y-15780340D02*
X16596315Y-15761292D01*
X16596315Y-15761292D02*
X16596315Y-15589864D01*
X16777268Y-15780340D02*
X16758220Y-15789864D01*
X16758220Y-15789864D02*
X16720125Y-15789864D01*
X16720125Y-15789864D02*
X16701077Y-15780340D01*
X16701077Y-15780340D02*
X16691553Y-15761292D01*
X16691553Y-15761292D02*
X16691553Y-15685102D01*
X16691553Y-15685102D02*
X16701077Y-15666054D01*
X16701077Y-15666054D02*
X16720125Y-15656530D01*
X16720125Y-15656530D02*
X16758220Y-15656530D01*
X16758220Y-15656530D02*
X16777268Y-15666054D01*
X16777268Y-15666054D02*
X16786792Y-15685102D01*
X16786792Y-15685102D02*
X16786792Y-15704149D01*
X16786792Y-15704149D02*
X16691553Y-15723197D01*
X16862982Y-15780340D02*
X16882030Y-15789864D01*
X16882030Y-15789864D02*
X16920125Y-15789864D01*
X16920125Y-15789864D02*
X16939173Y-15780340D01*
X16939173Y-15780340D02*
X16948696Y-15761292D01*
X16948696Y-15761292D02*
X16948696Y-15751768D01*
X16948696Y-15751768D02*
X16939173Y-15732721D01*
X16939173Y-15732721D02*
X16920125Y-15723197D01*
X16920125Y-15723197D02*
X16891553Y-15723197D01*
X16891553Y-15723197D02*
X16872506Y-15713673D01*
X16872506Y-15713673D02*
X16862982Y-15694626D01*
X16862982Y-15694626D02*
X16862982Y-15685102D01*
X16862982Y-15685102D02*
X16872506Y-15666054D01*
X16872506Y-15666054D02*
X16891553Y-15656530D01*
X16891553Y-15656530D02*
X16920125Y-15656530D01*
X16920125Y-15656530D02*
X16939173Y-15666054D01*
X17015363Y-15866054D02*
X17024887Y-15856530D01*
X17024887Y-15856530D02*
X17043934Y-15827959D01*
X17043934Y-15827959D02*
X17053458Y-15808911D01*
X17053458Y-15808911D02*
X17062982Y-15780340D01*
X17062982Y-15780340D02*
X17072506Y-15732721D01*
X17072506Y-15732721D02*
X17072506Y-15694626D01*
X17072506Y-15694626D02*
X17062982Y-15647007D01*
X17062982Y-15647007D02*
X17053458Y-15618435D01*
X17053458Y-15618435D02*
X17043934Y-15599388D01*
X17043934Y-15599388D02*
X17024887Y-15570816D01*
X17024887Y-15570816D02*
X17015363Y-15561292D01*
X17377268Y-15866054D02*
X17367744Y-15856530D01*
X17367744Y-15856530D02*
X17348696Y-15827959D01*
X17348696Y-15827959D02*
X17339173Y-15808911D01*
X17339173Y-15808911D02*
X17329649Y-15780340D01*
X17329649Y-15780340D02*
X17320125Y-15732721D01*
X17320125Y-15732721D02*
X17320125Y-15694626D01*
X17320125Y-15694626D02*
X17329649Y-15647007D01*
X17329649Y-15647007D02*
X17339173Y-15618435D01*
X17339173Y-15618435D02*
X17348696Y-15599388D01*
X17348696Y-15599388D02*
X17367744Y-15570816D01*
X17367744Y-15570816D02*
X17377268Y-15561292D01*
X17453458Y-15656530D02*
X17453458Y-15789864D01*
X17453458Y-15675578D02*
X17462982Y-15666054D01*
X17462982Y-15666054D02*
X17482030Y-15656530D01*
X17482030Y-15656530D02*
X17510601Y-15656530D01*
X17510601Y-15656530D02*
X17529649Y-15666054D01*
X17529649Y-15666054D02*
X17539173Y-15685102D01*
X17539173Y-15685102D02*
X17539173Y-15789864D01*
X17662982Y-15789864D02*
X17643934Y-15780340D01*
X17643934Y-15780340D02*
X17634411Y-15770816D01*
X17634411Y-15770816D02*
X17624887Y-15751768D01*
X17624887Y-15751768D02*
X17624887Y-15694626D01*
X17624887Y-15694626D02*
X17634411Y-15675578D01*
X17634411Y-15675578D02*
X17643934Y-15666054D01*
X17643934Y-15666054D02*
X17662982Y-15656530D01*
X17662982Y-15656530D02*
X17691554Y-15656530D01*
X17691554Y-15656530D02*
X17710601Y-15666054D01*
X17710601Y-15666054D02*
X17720125Y-15675578D01*
X17720125Y-15675578D02*
X17729649Y-15694626D01*
X17729649Y-15694626D02*
X17729649Y-15751768D01*
X17729649Y-15751768D02*
X17720125Y-15770816D01*
X17720125Y-15770816D02*
X17710601Y-15780340D01*
X17710601Y-15780340D02*
X17691554Y-15789864D01*
X17691554Y-15789864D02*
X17662982Y-15789864D01*
X17786792Y-15656530D02*
X17862982Y-15656530D01*
X17815363Y-15589864D02*
X17815363Y-15761292D01*
X17815363Y-15761292D02*
X17824887Y-15780340D01*
X17824887Y-15780340D02*
X17843934Y-15789864D01*
X17843934Y-15789864D02*
X17862982Y-15789864D01*
X18082030Y-15656530D02*
X18082030Y-15856530D01*
X18082030Y-15666054D02*
X18101077Y-15656530D01*
X18101077Y-15656530D02*
X18139173Y-15656530D01*
X18139173Y-15656530D02*
X18158220Y-15666054D01*
X18158220Y-15666054D02*
X18167744Y-15675578D01*
X18167744Y-15675578D02*
X18177268Y-15694626D01*
X18177268Y-15694626D02*
X18177268Y-15751768D01*
X18177268Y-15751768D02*
X18167744Y-15770816D01*
X18167744Y-15770816D02*
X18158220Y-15780340D01*
X18158220Y-15780340D02*
X18139173Y-15789864D01*
X18139173Y-15789864D02*
X18101077Y-15789864D01*
X18101077Y-15789864D02*
X18082030Y-15780340D01*
X18291554Y-15789864D02*
X18272506Y-15780340D01*
X18272506Y-15780340D02*
X18262982Y-15761292D01*
X18262982Y-15761292D02*
X18262982Y-15589864D01*
X18453458Y-15789864D02*
X18453458Y-15685102D01*
X18453458Y-15685102D02*
X18443935Y-15666054D01*
X18443935Y-15666054D02*
X18424887Y-15656530D01*
X18424887Y-15656530D02*
X18386792Y-15656530D01*
X18386792Y-15656530D02*
X18367744Y-15666054D01*
X18453458Y-15780340D02*
X18434411Y-15789864D01*
X18434411Y-15789864D02*
X18386792Y-15789864D01*
X18386792Y-15789864D02*
X18367744Y-15780340D01*
X18367744Y-15780340D02*
X18358220Y-15761292D01*
X18358220Y-15761292D02*
X18358220Y-15742245D01*
X18358220Y-15742245D02*
X18367744Y-15723197D01*
X18367744Y-15723197D02*
X18386792Y-15713673D01*
X18386792Y-15713673D02*
X18434411Y-15713673D01*
X18434411Y-15713673D02*
X18453458Y-15704149D01*
X18520125Y-15656530D02*
X18596315Y-15656530D01*
X18548696Y-15589864D02*
X18548696Y-15761292D01*
X18548696Y-15761292D02*
X18558220Y-15780340D01*
X18558220Y-15780340D02*
X18577268Y-15789864D01*
X18577268Y-15789864D02*
X18596315Y-15789864D01*
X18739173Y-15780340D02*
X18720125Y-15789864D01*
X18720125Y-15789864D02*
X18682030Y-15789864D01*
X18682030Y-15789864D02*
X18662982Y-15780340D01*
X18662982Y-15780340D02*
X18653458Y-15761292D01*
X18653458Y-15761292D02*
X18653458Y-15685102D01*
X18653458Y-15685102D02*
X18662982Y-15666054D01*
X18662982Y-15666054D02*
X18682030Y-15656530D01*
X18682030Y-15656530D02*
X18720125Y-15656530D01*
X18720125Y-15656530D02*
X18739173Y-15666054D01*
X18739173Y-15666054D02*
X18748696Y-15685102D01*
X18748696Y-15685102D02*
X18748696Y-15704149D01*
X18748696Y-15704149D02*
X18653458Y-15723197D01*
X18920125Y-15789864D02*
X18920125Y-15589864D01*
X18920125Y-15780340D02*
X18901077Y-15789864D01*
X18901077Y-15789864D02*
X18862982Y-15789864D01*
X18862982Y-15789864D02*
X18843935Y-15780340D01*
X18843935Y-15780340D02*
X18834411Y-15770816D01*
X18834411Y-15770816D02*
X18824887Y-15751768D01*
X18824887Y-15751768D02*
X18824887Y-15694626D01*
X18824887Y-15694626D02*
X18834411Y-15675578D01*
X18834411Y-15675578D02*
X18843935Y-15666054D01*
X18843935Y-15666054D02*
X18862982Y-15656530D01*
X18862982Y-15656530D02*
X18901077Y-15656530D01*
X18901077Y-15656530D02*
X18920125Y-15666054D01*
X18996316Y-15866054D02*
X19005839Y-15856530D01*
X19005839Y-15856530D02*
X19024887Y-15827959D01*
X19024887Y-15827959D02*
X19034411Y-15808911D01*
X19034411Y-15808911D02*
X19043935Y-15780340D01*
X19043935Y-15780340D02*
X19053458Y-15732721D01*
X19053458Y-15732721D02*
X19053458Y-15694626D01*
X19053458Y-15694626D02*
X19043935Y-15647007D01*
X19043935Y-15647007D02*
X19034411Y-15618435D01*
X19034411Y-15618435D02*
X19024887Y-15599388D01*
X19024887Y-15599388D02*
X19005839Y-15570816D01*
X19005839Y-15570816D02*
X18996316Y-15561292D01*
M02*
