M48
; DRILL file {KiCad 9.0.2} date 2025-09-21T22:05:46-0400
; FORMAT={-:-/ absolute / metric / decimal}
; #@! TF.CreationDate,2025-09-21T22:05:46-04:00
; #@! TF.GenerationSoftware,Kicad,Pcbnew,9.0.2
; #@! TF.FileFunction,NonPlated,1,2,NPTH
FMAT,2
METRIC
; #@! TA.AperFunction,NonPlated,NPTH,ComponentDrill
T1C1.500
; #@! TA.AperFunction,NonPlated,NPTH,ComponentDrill
T2C1.702
; #@! TA.AperFunction,NonPlated,NPTH,ComponentDrill
T3C2.200
; #@! TA.AperFunction,NonPlated,NPTH,ComponentDrill
T4C3.000
; #@! TA.AperFunction,NonPlated,NPTH,ComponentDrill
T5C3.988
%
G90
G05
T2
X133.477Y-104.394
X133.477Y-123.444
X143.637Y-104.394
X143.637Y-123.444
X152.527Y-104.394
X152.527Y-123.444
X162.687Y-104.394
X162.687Y-123.444
X171.577Y-104.394
X171.577Y-123.444
X181.737Y-104.394
X181.737Y-123.444
T3
X125.428Y-78.438
X125.428Y-135.557
X220.266Y-78.438
X220.266Y-135.557
T4
X134.747Y-101.854
X134.747Y-120.904
X141.097Y-99.314
X141.097Y-118.364
X153.797Y-101.854
X153.797Y-120.904
X160.147Y-99.314
X160.147Y-118.364
X172.847Y-101.854
X172.847Y-120.904
X179.197Y-99.314
X179.197Y-118.364
T5
X138.557Y-104.394
X138.557Y-123.444
X157.607Y-104.394
X157.607Y-123.444
X176.657Y-104.394
X176.657Y-123.444
T1
X176.007Y-82.03G85X177.307Y-82.03
G05
X176.007Y-93.23G85X177.307Y-93.23
G05
M30
