G04 #@! TF.GenerationSoftware,KiCad,Pcbnew,9.0.2*
G04 #@! TF.CreationDate,2025-09-21T22:05:50-04:00*
G04 #@! TF.ProjectId,vWAN-macropad,7657414e-2d6d-4616-9372-6f7061642e6b,v1*
G04 #@! TF.SameCoordinates,Original*
G04 #@! TF.FileFunction,Soldermask,Bot*
G04 #@! TF.FilePolarity,Negative*
%FSLAX46Y46*%
G04 Gerber Fmt 4.6, Leading zero omitted, Abs format (unit mm)*
G04 Created by KiCad (PCBNEW 9.0.2) date 2025-09-21 22:05:50*
%MOMM*%
%LPD*%
G01*
G04 APERTURE LIST*
G04 Aperture macros list*
%AMRoundRect*
0 Rectangle with rounded corners*
0 $1 Rounding radius*
0 $2 $3 $4 $5 $6 $7 $8 $9 X,Y pos of 4 corners*
0 Add a 4 corners polygon primitive as box body*
4,1,4,$2,$3,$4,$5,$6,$7,$8,$9,$2,$3,0*
0 Add four circle primitives for the rounded corners*
1,1,$1+$1,$2,$3*
1,1,$1+$1,$4,$5*
1,1,$1+$1,$6,$7*
1,1,$1+$1,$8,$9*
0 Add four rect primitives between the rounded corners*
20,1,$1+$1,$2,$3,$4,$5,0*
20,1,$1+$1,$4,$5,$6,$7,0*
20,1,$1+$1,$6,$7,$8,$9,0*
20,1,$1+$1,$8,$9,$2,$3,0*%
G04 Aperture macros list end*
%ADD10C,2.200000*%
%ADD11C,1.600000*%
%ADD12R,1.700000X1.700000*%
%ADD13C,1.700000*%
%ADD14O,3.200000X2.000000*%
%ADD15R,2.000000X2.000000*%
%ADD16C,2.000000*%
%ADD17O,1.700000X1.700000*%
%ADD18C,1.701800*%
%ADD19C,3.000000*%
%ADD20C,3.987800*%
%ADD21RoundRect,0.200000X1.075000X1.050000X-1.075000X1.050000X-1.075000X-1.050000X1.075000X-1.050000X0*%
%ADD22R,1.600000X1.600000*%
%ADD23O,1.600000X1.600000*%
G04 APERTURE END LIST*
D10*
X220266000Y-135557000D03*
D11*
X189357000Y-120142000D03*
X189357000Y-125142000D03*
D10*
X220266000Y-78438000D03*
D12*
X196088000Y-82169000D03*
D13*
X196088000Y-84709000D03*
X196088000Y-87249000D03*
X196088000Y-89789000D03*
X196088000Y-92329000D03*
X196088000Y-94869000D03*
X196088000Y-97409000D03*
X196088000Y-99949000D03*
X196088000Y-102489000D03*
X196088000Y-105029000D03*
X196088000Y-107569000D03*
X196088000Y-110109000D03*
X196088000Y-112649000D03*
X196088000Y-115189000D03*
X196088000Y-117729000D03*
X196088000Y-120269000D03*
X196088000Y-122809000D03*
X196088000Y-125349000D03*
X196088000Y-127889000D03*
X196088000Y-130429000D03*
X211328000Y-130429000D03*
X211328000Y-127889000D03*
X211328000Y-125349000D03*
X211328000Y-122809000D03*
X211328000Y-120269000D03*
X211328000Y-117729000D03*
X211328000Y-115189000D03*
X211328000Y-112649000D03*
X211328000Y-110109000D03*
X211328000Y-107569000D03*
X211328000Y-105029000D03*
X211328000Y-102489000D03*
X211328000Y-99949000D03*
X211328000Y-97409000D03*
X211328000Y-94869000D03*
X211328000Y-92329000D03*
X211328000Y-89789000D03*
X211328000Y-87249000D03*
X211328000Y-84709000D03*
X211328000Y-82169000D03*
X207520000Y-126618000D03*
X204980000Y-126618000D03*
X202440000Y-126618000D03*
X199900000Y-126618000D03*
D14*
X176657000Y-82030000D03*
X176657000Y-93230000D03*
D15*
X169157000Y-85130000D03*
D16*
X169157000Y-90130000D03*
X169157000Y-87630000D03*
X183657000Y-90130000D03*
X183657000Y-85130000D03*
D11*
X217805000Y-90337000D03*
X217805000Y-95337000D03*
X216789000Y-84729000D03*
X216789000Y-87229000D03*
D10*
X125428000Y-78438000D03*
D12*
X165481000Y-85069000D03*
D17*
X165481000Y-87609000D03*
X165481000Y-90149000D03*
X165481000Y-92689000D03*
D11*
X189357000Y-130068000D03*
X189357000Y-132568000D03*
D10*
X125428000Y-135557000D03*
D18*
X162687000Y-123444000D03*
D19*
X160147000Y-118364000D03*
D20*
X157607000Y-123444000D03*
D19*
X153797000Y-120904000D03*
D18*
X152527000Y-123444000D03*
D21*
X150522000Y-120904000D03*
X163449000Y-118364000D03*
D18*
X181737000Y-123444000D03*
D19*
X179197000Y-118364000D03*
D20*
X176657000Y-123444000D03*
D19*
X172847000Y-120904000D03*
D18*
X171577000Y-123444000D03*
D21*
X169572000Y-120904000D03*
X182499000Y-118364000D03*
D22*
X167132000Y-112776000D03*
D23*
X167132000Y-105156000D03*
D18*
X143637000Y-104394000D03*
D19*
X141097000Y-99314000D03*
D20*
X138557000Y-104394000D03*
D19*
X134747000Y-101854000D03*
D18*
X133477000Y-104394000D03*
D21*
X131472000Y-101854000D03*
X144399000Y-99314000D03*
D22*
X129032000Y-131826000D03*
D23*
X129032000Y-124206000D03*
D22*
X129032000Y-112776000D03*
D23*
X129032000Y-105156000D03*
D22*
X148082000Y-131826000D03*
D23*
X148082000Y-124206000D03*
D18*
X143637000Y-123444000D03*
D19*
X141097000Y-118364000D03*
D20*
X138557000Y-123444000D03*
D19*
X134747000Y-120904000D03*
D18*
X133477000Y-123444000D03*
D21*
X131472000Y-120904000D03*
X144399000Y-118364000D03*
D22*
X148082000Y-112776000D03*
D23*
X148082000Y-105156000D03*
D22*
X167132000Y-131826000D03*
D23*
X167132000Y-124206000D03*
D22*
X187452000Y-93726000D03*
D23*
X187452000Y-86106000D03*
D18*
X181737000Y-104394000D03*
D19*
X179197000Y-99314000D03*
D20*
X176657000Y-104394000D03*
D19*
X172847000Y-101854000D03*
D18*
X171577000Y-104394000D03*
D21*
X169572000Y-101854000D03*
X182499000Y-99314000D03*
D18*
X162687000Y-104394000D03*
D19*
X160147000Y-99314000D03*
D20*
X157607000Y-104394000D03*
D19*
X153797000Y-101854000D03*
D18*
X152527000Y-104394000D03*
D21*
X150522000Y-101854000D03*
X163449000Y-99314000D03*
M02*
